<?xml version="1.0" encoding="UTF-8"?>
<svg width="234px" height="233px" viewBox="0 0 234 233" version="1.1" xmlns="http://www.w3.org/2000/svg" xmlns:xlink="http://www.w3.org/1999/xlink">
    <!-- Generator: Sketch 57.1 (83088) - https://sketch.com -->
    <title>ada</title>
    <desc>Created with Sketch.</desc>
    <g id="Page-1" stroke="none" stroke-width="1" fill="none" fill-rule="evenodd">
        <g id="ada" fill="#FFFFFF" fill-rule="nonzero">
            <path d="M233.1,15.6 C232.8,15.8 232.6,16 232.3,16.3 C217.3,31.3 202.4,46.4 187.4,61.4 C186.7,62.1 186,62.9 185.3,63.7 C185.3,63.8 185.4,64 185.4,64.1 C198.6,64.1 211.8,64.1 225.1,64.1 C225.1,64.7 225.2,65.1 225.2,65.5 C225.2,72.1 225.2,78.6 225.2,85.2 C225.2,86.2 224.9,86.5 223.9,86.4 C198.6,86.4 173.2,86.4 147.9,86.4 C147.6,86.4 147.2,86.4 146.8,86.3 C146.8,60.2 146.8,34.2 146.8,8 C154.1,8 161.4,8 169,8 C169,21.2 169,34.4 169,47.7 C169.1,47.7 169.3,47.8 169.4,47.8 C169.7,47.5 170.1,47.2 170.4,46.9 C186,31.4 201.6,15.9 217.2,0.4 C217.3,0.3 217.4,0.2 217.5,3.55271368e-14 C217.6,3.55271368e-14 217.7,3.55271368e-14 217.7,3.55271368e-14 C218,0.3 218.2,0.6 218.5,0.9 C222.8,5.2 227.2,9.6 231.5,13.9 C232,14.4 232.6,14.9 233.1,15.4 C233.1,15.4 233.1,15.5 233.1,15.6 Z" id="Path"></path>
            <path d="M0.9,142.5 C8.2,142.5 15.5,142.5 22.9,142.5 C22.9,149.9 22.9,157.2 22.9,164.7 C22.4,164.7 22,164.7 21.5,164.7 C15.1,164.7 8.7,164.7 2.3,164.7 C1.8,164.7 1.4,164.8 0.9,164.8 C0.9,157.4 0.9,150 0.9,142.5 Z" id="Path"></path>
            <path d="M0.9,176.2 C1.4,176.2 1.8,176.3 2.3,176.3 C8.7,176.3 15.1,176.3 21.5,176.3 C22,176.3 22.4,176.3 22.9,176.3 C22.9,183.7 22.9,191 22.9,198.5 C15.5,198.5 8.2,198.5 0.9,198.5 C0.9,191 0.9,183.6 0.9,176.2 Z" id="Path"></path>
            <path d="M34.6,232.1 C34.6,224.8 34.6,217.5 34.6,210.1 C42,210.1 49.3,210.1 56.8,210.1 C56.8,210.6 56.8,211 56.8,211.5 C56.8,217.9 56.8,224.3 56.8,230.7 C56.8,231.2 56.9,231.6 56.9,232.1 C49.4,232.1 42,232.1 34.6,232.1 Z" id="Path"></path>
            <path d="M68.2,232.1 C68.2,231.6 68.3,231.2 68.3,230.7 C68.3,224.3 68.3,217.9 68.3,211.5 C68.3,211 68.3,210.6 68.3,210.1 C75.7,210.1 83,210.1 90.5,210.1 C90.5,217.5 90.5,224.8 90.5,232.1 C83,232.1 75.6,232.1 68.2,232.1 Z" id="Path"></path>
            <path d="M0.9,108.9 C8.2,108.9 15.6,108.9 22.9,108.9 C22.9,116.3 22.9,123.6 22.9,130.9 C22.6,130.9 22.4,131 22.2,131 C15.3,131 8.4,131 1.5,131 C1.3,131 1.1,131 0.9,130.9 C0.9,123.6 0.9,116.2 0.9,108.9 Z" id="Path"></path>
            <path d="M0.9,210 C6.6,210 12.3,210 17.9,209.9 C19.5,209.9 21.2,209.9 22.9,209.9 C22.9,210.3 23,210.6 23,210.8 C23,217.7 23,224.5 23,231.4 C23,231.6 23,231.8 22.9,232 C15.6,232 8.3,232 0.9,232 C0.9,224.7 0.9,217.4 0.9,210 Z" id="Path"></path>
            <path d="M102.1,232.1 C102.1,227.2 102.1,222.3 102,217.4 C102,215 102,212.6 102,210.1 C109.4,210.1 116.7,210.1 124.1,210.1 C124.1,217.4 124.1,224.8 124.1,232.1 C116.8,232.1 109.4,232.1 102.1,232.1 Z" id="Path"></path>
            <path d="M203.1,165.3 C203.1,146.4 203.1,127.7 203.1,109 C210.5,109 217.8,109 225.2,109 C225.2,135.1 225.2,161.1 225.2,187.3 C199.1,187.3 173,187.3 146.9,187.3 C146.9,180 146.9,172.7 146.9,165.3 C165.5,165.3 184.2,165.3 203.1,165.3 Z" id="Path"></path>
            <path d="M124,7.9 C124,15.2 124,22.5 124,29.9 C105.3,29.9 86.6,29.9 67.8,29.9 C67.8,48.7 67.8,67.4 67.8,86.2 C60.4,86.2 53.1,86.2 45.7,86.2 C45.7,60.1 45.7,34.1 45.7,7.9 C71.9,7.9 97.9,7.9 124,7.9 Z" id="Path"></path>
            <path d="M56.7,109 C56.7,116.3 56.7,123.6 56.7,130.9 C49.3,130.9 42,130.9 34.7,130.9 C34.7,123.6 34.7,116.3 34.7,109 C42,109 49.3,109 56.7,109 Z" id="Path"></path>
            <path d="M90.4,130.9 C83,130.9 75.8,130.9 68.4,130.9 C68.4,123.6 68.4,116.3 68.4,108.9 C75.7,108.9 83,108.9 90.4,108.9 C90.4,116.3 90.4,123.6 90.4,130.9 Z" id="Path"></path>
            <path d="M124.1,142.6 C124.1,150 124.1,157.2 124.1,164.6 C116.8,164.6 109.5,164.6 102.1,164.6 C102.1,157.3 102.1,150 102.1,142.6 C109.4,142.6 116.7,142.6 124.1,142.6 Z" id="Path"></path>
            <path d="M102.1,198.3 C102.1,191 102.1,183.7 102.1,176.3 C109.4,176.3 116.7,176.3 124.1,176.3 C124.1,183.6 124.1,190.9 124.1,198.3 C116.8,198.3 109.5,198.3 102.1,198.3 Z" id="Path"></path>
            <path d="M124.1,109 C124.1,116.3 124.1,123.6 124.1,130.9 C116.8,130.9 109.5,130.9 102.1,130.9 C102.1,123.6 102.1,116.3 102.1,109 C109.4,109 116.7,109 124.1,109 Z" id="Path"></path>
        </g>
    </g>
</svg>