<?xml version="1.0" encoding="UTF-8"?>
<svg width="448px" height="448px" viewBox="0 0 448 448" version="1.1" xmlns="http://www.w3.org/2000/svg" xmlns:xlink="http://www.w3.org/1999/xlink">
    <!-- Generator: Sketch 58 (84663) - https://sketch.com -->
    <title>burger</title>
    <desc>Created with Sketch.</desc>
    <g id="burger" stroke="none" stroke-width="1" fill="none" fill-rule="evenodd">
        <path d="M86,100 L432,100 C440.837,100 448,92.837 448,84 L448,44 C448,35.163 440.837,28 432,28 L86,28 C77.163,28 70,35.163 70,44 L70,84 C70,92.837 77.163,100 86,100 Z M16,260 L432,260 C440.837,260 448,252.837 448,244 L448,204 C448,195.163 440.837,188 432,188 L16,188 C7.163,188 0,195.163 0,204 L0,244 C0,252.837 7.163,260 16,260 Z M86,420 L432,420 C440.837,420 448,412.837 448,404 L448,364 C448,355.163 440.837,348 432,348 L86,348 C77.163,348 70,355.163 70,364 L70,404 C70,412.837 77.163,420 86,420 Z" id="Shape" fill="#000000" fill-rule="nonzero"></path>
    </g>
</svg>