<svg enable-background="new 0 0 256 256" viewBox="0 0 256 256" xmlns="http://www.w3.org/2000/svg"><g fill="#001541"><path d="m190.6 99.8c-40.8 0-81.7 0-122.5 0-3.1 0-3.9.8-3.9 3.9v68.2c0 3.1.8 3.9 3.9 3.9h61.3 61.3c3.1 0 3.9-.8 3.9-3.9 0-22.7 0-45.5 0-68.2-.1-3.1-.9-3.9-4-3.9zm-110.2 65.1c-5.2 0-5.5-.2-5.5-5.4s.2-5.5 5.4-5.5 5.5.2 5.5 5.4c0 5.3-.2 5.5-5.4 5.5zm-.1-21.7c-5.1 0-5.3-.2-5.3-5.4 0-5.3.2-5.5 5.5-5.5 5.1 0 5.3.2 5.3 5.4 0 5.3-.1 5.5-5.5 5.5zm0-21.7c-5.1 0-5.3-.2-5.3-5.4 0-5.3.2-5.5 5.5-5.5 5.1 0 5.3.2 5.3 5.4 0 5.3-.1 5.5-5.5 5.5zm103.3 39.3c0 3.4-.7 4.1-4 4.1-9.1 0-18.2 0-27.3 0-4.1 0-8.1 0-12.2 0-13 0-26 0-39 0-3.7 0-4.3-.6-4.3-4.4 0-1.2 0-2.4 0-3.6.1-1.8 1.1-2.8 2.8-2.9h1.2 78.7c3.4 0 4.1.7 4.1 4.2zm0-20.9c0 2.3-1 3.3-3.3 3.3-8.2 0-16.4 0-24.6 0-5.2 0-10.4 0-15.6 0-13.2 0-26.4 0-39.5 0-3 0-3.8-.8-3.8-3.8 0-1.4 0-2.7 0-4.1.1-1.9 1.1-2.9 3-2.9h1.2 78.6c3.5 0 4.1.7 4.1 4.2-.1 1.1-.1 2.2-.1 3.3zm0-21.3c-.1 1.8-1.1 2.8-2.9 2.9-.4 0-.8 0-1.2 0-26.2 0-52.5 0-78.7 0-3.3 0-4.1-.7-4.1-4.1 0-1.2 0-2.5 0-3.7 0-2 1.1-3 3.1-3h10.2 30.4 39.4c3.1 0 3.9.8 3.9 3.9-.1 1.3 0 2.7-.1 4z"/><path d="m127.7 7.2c-67 0-121.4 54.4-121.4 121.4 0 66.9 54.4 121.4 121.4 121.4 66.9 0 121.4-54.4 121.4-121.4-.1-67-54.5-121.4-121.4-121.4zm63.7 179.5c-41.4 0-82.8 0-124.2 0-8 0-13.9-5.9-13.9-13.9 0-30.5 0-61.1 0-91.6 0-8.1 5.8-13.9 13.9-13.9h62.3 62.1c6.3 0 11.6 3.9 13.2 9.7.4 1.3.5 2.8.5 4.2v91.6c0 8-5.9 13.9-13.9 13.9z"/></g></svg>