<?xml version="1.0" encoding="utf-8"?>
<!-- Generator: Adobe Illustrator 22.1.0, SVG Export Plug-In . SVG Version: 6.00 Build 0)  -->
<svg version="1.1" id="Layer_1" xmlns="http://www.w3.org/2000/svg" xmlns:xlink="http://www.w3.org/1999/xlink" x="0px" y="0px"
	 viewBox="0 0 256 256" style="enable-background:new 0 0 256 256;" xml:space="preserve">
<style type="text/css">
	.st0{fill:#001541;}
</style>
<g>
	<path class="st0" d="M127.7,6.7C60.7,6.7,6.3,61.2,6.3,128.1c0,66.9,54.4,121.4,121.4,121.4c66.9,0,121.4-54.4,121.4-121.4
		C249,61.2,194.6,6.7,127.7,6.7z M127.7,239c-61.1,0-110.9-49.7-110.9-110.9C16.8,67,66.5,17.3,127.7,17.3
		c61.1,0,110.9,49.7,110.9,110.9C238.5,189.2,188.8,239,127.7,239z"/>
	<path class="st0" d="M204.8,76.5c-1.6-5.8-6.9-9.7-13.2-9.7c-20.7,0-41.4,0-62.1,0c-20.8,0-41.5,0-62.3,0
		c-8.1,0-13.9,5.8-13.9,13.9c0,30.5,0,61.1,0,91.6c0,8.1,5.9,13.9,13.9,13.9c41.4,0,82.8,0,124.2,0c8,0,13.9-5.9,13.9-13.9
		c0-30.5,0-61.1,0-91.6C205.3,79.3,205.2,77.8,204.8,76.5z M190.6,175.4c-20.4,0-40.8,0-61.3,0c-20.4,0-40.8,0-61.3,0
		c-3.1,0-3.9-0.8-3.9-3.9c0-22.7,0-45.5,0-68.2c0-3.1,0.8-3.9,3.9-3.9c40.8,0,81.7,0,122.5,0c3.1,0,3.9,0.8,3.9,3.9
		c0,22.7,0,45.5,0,68.2C194.5,174.6,193.7,175.4,190.6,175.4z"/>
	<path class="st0" d="M179.7,110.2c-13.1,0-26.2,0-39.4,0c-10.1,0-20.3,0-30.4,0c-3.4,0-6.8,0-10.2,0c-2,0-3,1-3.1,3
		c0,1.2,0,2.5,0,3.7c0,3.3,0.7,4.1,4.1,4.1c26.2,0,52.5,0,78.7,0c0.4,0,0.8,0,1.2,0c1.8-0.1,2.8-1.1,2.9-2.9c0-1.4,0-2.7,0-4.1
		C183.6,111,182.8,110.2,179.7,110.2z"/>
	<path class="st0" d="M179.5,131.9c-26.2,0-52.4,0-78.6,0c-0.4,0-0.8,0-1.2,0c-1.9,0.1-2.9,1.1-3,2.9c0,1.4,0,2.7,0,4.1
		c0,3,0.8,3.8,3.8,3.8c13.2,0,26.4,0,39.5,0c5.2,0,10.4,0,15.6,0c8.2,0,16.4,0,24.6,0c2.3,0,3.3-1,3.3-3.3c0-1.1,0-2.3,0-3.4
		C183.6,132.6,182.9,131.9,179.5,131.9z"/>
	<path class="st0" d="M179.5,153.6c-26.2,0-52.5,0-78.7,0c-0.4,0-0.8,0-1.2,0c-1.8,0.1-2.8,1.1-2.8,2.9c0,1.2,0,2.4,0,3.6
		c0,3.7,0.6,4.4,4.3,4.4c13,0,26,0,39,0c4.1,0,8.1,0,12.2,0c9.1,0,18.2,0,27.3,0c3.3,0,4-0.7,4-4.1c0-0.8,0-1.7,0-2.5
		C183.6,154.3,182.9,153.6,179.5,153.6z"/>
	<path class="st0" d="M80.5,110.2c-5.4,0-5.5,0.2-5.5,5.5c0,5.1,0.2,5.4,5.3,5.4c5.4,0,5.6-0.2,5.6-5.5
		C85.8,110.4,85.6,110.2,80.5,110.2z"/>
	<path class="st0" d="M80.5,131.9c-5.4,0-5.5,0.2-5.5,5.5c0,5.1,0.2,5.4,5.3,5.4c5.4,0,5.5-0.2,5.5-5.5
		C85.8,132.2,85.6,131.9,80.5,131.9z"/>
	<path class="st0" d="M80.4,153.6c-5.2,0-5.4,0.2-5.4,5.5c0,5.2,0.2,5.4,5.5,5.4c5.2,0,5.4-0.2,5.4-5.5
		C85.8,153.9,85.6,153.6,80.4,153.6z"/>
</g>
</svg>
