<?xml version="1.0" encoding="utf-8"?>
<!-- Generator: Adobe Illustrator 22.1.0, SVG Export Plug-In . SVG Version: 6.00 Build 0)  -->
<svg version="1.1" id="Layer_1" xmlns="http://www.w3.org/2000/svg" xmlns:xlink="http://www.w3.org/1999/xlink" x="0px" y="0px"
	 viewBox="0 0 256 256" style="enable-background:new 0 0 256 256;" xml:space="preserve">
<style type="text/css">
	.st0{fill:#001541;}
</style>
<path class="st0" d="M127.3,7.3C60.3,7.3,5.9,61.8,5.9,128.7c0,66.9,54.5,121.4,121.4,121.4c66.9,0,121.4-54.5,121.4-121.4
	C248.7,61.8,194.2,7.3,127.3,7.3z M126,50.9c27.8,0,50.4,22.6,50.4,50.4c0,27.8-22.6,50.4-50.4,50.4c-27.8,0-50.4-22.6-50.4-50.4
	C75.6,73.5,98.1,50.9,126,50.9z M128.1,239.6c-31.5,0-60-13.3-80.3-34.5c17.2-24.7,45.8-40.8,78.1-40.8c33.5,0,62.9,17.3,79.9,43.3
	C185.8,227.4,158.4,239.6,128.1,239.6z"/>
</svg>
