<?xml version="1.0" encoding="utf-8"?>
<!-- Generator: Adobe Illustrator 22.1.0, SVG Export Plug-In . SVG Version: 6.00 Build 0)  -->
<svg version="1.1" id="Layer_1" xmlns="http://www.w3.org/2000/svg" xmlns:xlink="http://www.w3.org/1999/xlink" x="0px" y="0px"
	 viewBox="0 0 256 256" style="enable-background:new 0 0 256 256;" xml:space="preserve">
<style type="text/css">
	.st0{fill:#001541;}
</style>
<g>
	<path class="st0" d="M127.8,73.2C109,73,92.8,88,92.6,107.9c-0.2,19.2,15.2,35,34.5,35.3c19.3,0.3,35.1-15.2,35.5-34.9
		C162.6,89.3,147.5,73.4,127.8,73.2z"/>
	<path class="st0" d="M127.4,8C60.7,8,6.4,62.3,6.4,129c0,66.7,54.3,121,121,121c66.7,0,121-54.3,121-121
		C248.4,62.3,194.1,8,127.4,8z M181.4,116.3c-2.1,15.3-8.2,29.2-15.5,42.5c-9.4,17-20.8,32.6-33.6,47.2c-3.3,3.7-5.4,3.8-8.7,0.1
		c-15.9-17.9-29.8-37.1-40.1-58.7c-4.4-9.2-7.8-18.7-9.5-28.8C71.6,104.1,74,90.4,82.3,78c7.9-11.8,18.8-19.4,32.6-22.7
		c3.1-0.7,6.2-1.1,9.4-1.6c2.2,0,4.4,0,6.7,0c3.1,0.5,6.3,0.8,9.4,1.6c17.5,4.4,30,15.1,37.4,31.5
		C181.8,96.2,182.8,106.1,181.4,116.3z"/>
</g>
</svg>
