<svg height="243" viewBox="0 0 243 243" width="243" xmlns="http://www.w3.org/2000/svg"><path d="m121.84964.52446043c-66.7812947 0-121.15035942 54.36906477-121.15035942 121.15035957 0 66.781295 54.36906472 121.15036 121.15035942 121.15036 66.781295 0 121.15036-54.369065 121.15036-121.15036 0-66.956115-54.369065-121.15035957-121.15036-121.15035957zm83.913669 122.89856157c-10.664028 8.041726-21.328057 15.908633-31.992086 23.950359-1.573381 1.223741-3.846043 0-3.846043-1.923021v-11.88777c0-1.398561-1.048921-2.447482-2.447482-2.447482h-33.565468c-1.398561 0-2.447482 1.048921-2.447482 2.447482v33.565468c0 1.398561 1.048921 2.447482 2.447482 2.447482h11.88777c1.923022 0 3.146763 2.272661 1.923022 3.846043-8.041727 10.664029-15.908634 21.328057-23.95036 31.992086-1.048921 1.223741-2.971943 1.223741-3.846043 0-8.041727-10.664029-15.908633-21.328057-23.95036-31.992086-1.223741-1.573382 0-3.846043 1.9230216-3.846043h11.8877694c1.398562 0 2.447482-1.048921 2.447482-2.447482v-33.565468c0-1.398561-1.04892-2.447482-2.447482-2.447482h-33.3906471c-1.3985612 0-2.447482 1.048921-2.447482 2.447482v11.88777c0 1.923021-2.2726619 3.146762-3.8460432 1.923021-10.6640288-8.041726-21.3280576-16.083453-31.9920863-23.950359-1.223741-1.048921-1.223741-2.971943 0-3.846044 10.6640287-8.041726 21.3280575-15.908633 31.9920863-23.9503593 1.5733813-1.223741 3.8460432 0 3.8460432 1.9230216v11.8877697c0 1.398561 1.0489208 2.447482 2.447482 2.447482h33.5654681c1.398561 0 2.447482-1.048921 2.447482-2.447482v-33.5654676c0-1.3985611-1.048921-2.447482-2.447482-2.447482h-12.0625904c-1.9230216 0-3.1467626-2.2726618-1.9230216-3.8460431 8.041727-10.6640288 15.908633-21.3280576 23.95036-31.9920864 1.048921-1.223741 2.971942-1.223741 3.846043 0 8.041726 10.6640288 15.908633 21.3280576 23.95036 31.9920864 1.223741 1.5733813 0 3.8460431-1.923022 3.8460431h-11.88777c-1.398561 0-2.447482 1.0489209-2.447482 2.447482v33.5654676c0 1.398561 1.048921 2.447482 2.447482 2.447482h33.565468c1.398561 0 2.447482-1.048921 2.447482-2.447482v-11.8877697c0-1.9230216 2.272662-3.1467626 3.846043-1.9230216 10.664029 8.0417263 21.328058 16.0834533 31.992086 23.9503593 1.398562 1.048921 1.398562 2.971943 0 3.846044z" fill="#001541"/></svg>
