<?xml version="1.0" encoding="utf-8"?>
<!-- Generator: Adobe Illustrator 22.1.0, SVG Export Plug-In . SVG Version: 6.00 Build 0)  -->
<svg version="1.1" id="Layer_1" xmlns="http://www.w3.org/2000/svg" xmlns:xlink="http://www.w3.org/1999/xlink" x="0px" y="0px"
	 viewBox="0 0 216 216" style="enable-background:new 0 0 216 216;" xml:space="preserve">
<style type="text/css">
	.st0{fill:#001541;}
</style>
<g>
	<path class="st0" d="M107.7,39.3c-38.2,0-69.3,31.1-69.3,69.3c0,38.2,31.1,69.3,69.3,69.3s69.3-31.1,69.3-69.3
		C177,70.3,145.9,39.3,107.7,39.3z M107.7,171.8c-34.9,0-63.3-28.4-63.3-63.3c0-34.9,28.4-63.3,63.3-63.3S171,73.6,171,108.5
		C171,143.4,142.6,171.8,107.7,171.8z"/>
	<path class="st0" d="M155.7,107.4c-6.1-4.6-12.2-9.1-18.3-13.7c-0.9-0.7-2.2,0-2.2,1.1v6.8c0,0.8-0.6,1.4-1.4,1.4h-19.2
		c-0.8,0-1.4-0.6-1.4-1.4V82.4c0-0.8,0.6-1.4,1.4-1.4h6.8c1.1,0,1.8-1.3,1.1-2.2c-4.6-6.1-9.1-12.2-13.7-18.3
		c-0.6-0.7-1.7-0.7-2.2,0c-4.6,6.1-9.1,12.2-13.7,18.3c-0.7,0.9,0,2.2,1.1,2.2h6.8c0.8,0,1.4,0.6,1.4,1.4v19.2
		c0,0.8-0.6,1.4-1.4,1.4H81.6c-0.8,0-1.4-0.6-1.4-1.4v-6.8c0-1.1-1.3-1.8-2.2-1.1c-6.1,4.6-12.2,9.1-18.3,13.7
		c-0.7,0.6-0.7,1.7,0,2.2c6.1,4.6,12.2,9.1,18.3,13.7c0.9,0.7,2.2,0,2.2-1.1v-6.8c0-0.8,0.6-1.4,1.4-1.4h19.2c0.8,0,1.4,0.6,1.4,1.4
		v19.2c0,0.8-0.6,1.4-1.4,1.4H94c-1.1,0-1.8,1.3-1.1,2.2c4.6,6.1,9.1,12.2,13.7,18.3c0.6,0.7,1.7,0.7,2.2,0
		c4.6-6.1,9.1-12.2,13.7-18.3c0.7-0.9,0-2.2-1.1-2.2h-6.8c-0.8,0-1.4-0.6-1.4-1.4v-19.2c0-0.8,0.6-1.4,1.4-1.4h19.2
		c0.8,0,1.4,0.6,1.4,1.4v6.8c0,1.1,1.3,1.8,2.2,1.1c6.1-4.6,12.2-9.1,18.3-13.7C156.5,109.1,156.5,108,155.7,107.4z"/>
</g>
</svg>
