<svg enable-background="new 0 0 256 256" viewBox="0 0 256 256" xmlns="http://www.w3.org/2000/svg"><g fill="#001541"><path d="m127.4 6.7c-67 0-121.4 54.5-121.4 121.4s54.4 121.4 121.4 121.4c66.9 0 121.4-54.4 121.4-121.4-.1-66.9-54.5-121.4-121.4-121.4zm0 232.3c-61.1 0-110.9-49.7-110.9-110.9 0-61.1 49.7-110.8 110.9-110.8 61.1 0 110.9 49.7 110.9 110.9-.1 61-49.8 110.8-110.9 110.8z"/><path d="m158.9 140.8c-2-2-2.2-3.3-.9-5.8 11.2-20.7 10.6-41.2-2.8-60.5-13.2-19.1-32.1-27.2-55.3-24.1-31.5 4.2-52.2 32.8-47.7 65.6 4 29.5 32.6 51.1 62.7 47.5 9-1.1 17.1-4.1 25.7-9.3.9 1.2 1.6 2.4 2.6 3.4 11.5 11.6 22.9 23.3 34.6 34.8 2.1 2.1 5.2 3.7 8 4.3 4.8 1 9.4-2 11.6-6.5 2.3-4.7 1.3-9.6-2.8-13.8-11.9-12-23.7-23.9-35.7-35.6zm-50.6 6.8c-22.4-.1-40.7-18.5-40.6-41 .1-22.4 18.6-40.7 41-40.6 22.2.1 40.4 18.5 40.5 40.8 0 22.4-18.5 40.9-40.9 40.8z"/></g></svg>