<svg enable-background="new 0 0 256 256" viewBox="0 0 256 256" xmlns="http://www.w3.org/2000/svg"><g fill="#001541"><path d="m108.7 66.5c-22.4-.1-40.9 18.2-41 40.6-.1 22.5 18.2 40.9 40.6 41s40.9-18.4 40.8-40.8c0-22.3-18.2-40.6-40.4-40.8z"/><path d="m127.4 7.2c-67 0-121.4 54.4-121.4 121.4 0 66.9 54.4 121.4 121.4 121.4 66.9 0 121.4-54.4 121.4-121.4-.1-67-54.5-121.4-121.4-121.4zm70 183.3c-2.2 4.5-6.8 7.5-11.6 6.5-2.9-.6-5.9-2.2-8-4.3-11.7-11.4-23.1-23.1-34.6-34.8-1-1-1.7-2.2-2.6-3.4-8.5 5.2-16.7 8.2-25.7 9.3-30.1 3.6-58.7-18-62.7-47.5-4.4-32.8 16.3-61.4 47.9-65.6 23.1-3.1 42 4.9 55.3 24.1 13.3 19.3 13.9 39.9 2.8 60.5-1.4 2.6-1.1 3.9.9 5.8 11.9 11.8 23.8 23.6 35.6 35.5 4 4.4 4.9 9.3 2.7 13.9z"/></g></svg>
