<?xml version="1.0" encoding="utf-8"?>
<!-- Generator: Adobe Illustrator 22.1.0, SVG Export Plug-In . SVG Version: 6.00 Build 0)  -->
<svg version="1.1" id="Layer_1" xmlns="http://www.w3.org/2000/svg" xmlns:xlink="http://www.w3.org/1999/xlink" x="0px" y="0px"
	 viewBox="0 0 256 256" style="enable-background:new 0 0 256 256;" xml:space="preserve">
<style type="text/css">
	.st0{fill:#001541;}
</style>
<g>
	<path class="st0" d="M128.4,7.2C61.4,7.2,7,61.7,7,128.6C7,195.5,61.4,250,128.4,250s121.4-54.4,121.4-121.4
		C249.7,61.7,195.3,7.2,128.4,7.2z M128.4,239.5c-61.1,0-110.9-49.7-110.9-110.9c0-61.1,49.7-110.9,110.9-110.9
		s110.9,49.7,110.9,110.9C239.2,189.7,189.5,239.5,128.4,239.5z"/>
	<path class="st0" d="M171,60c-7.8-2.9-15.9-4-24.1-4.5c-12.1-0.8-24.3-0.8-36.4,0c-8.2,0.5-16.2,1.6-24,4.4
		c-6.4,2.4-12.1,5.9-15.5,12.1C68.7,76.3,68,81,68,85.8c0,24.9,0,49.8,0,74.7c0,6.5,2.2,12.2,7,16.8c0.4,0.4,0.6,1.1,0.6,1.7
		c0.1,4.3-0.1,8.6,0.1,12.9c0.2,4,1.8,5.8,5.6,6.9c0.1,0,0.2,0.1,0.4,0.2c3.6,0,7.1,0,10.7,0c1.4-0.8,3.1-1.4,4.2-2.6
		c1-1.1,1.5-2.8,1.7-4.3c0.3-2.6,0.1-5.3,0.1-8.1c20.3,0,40.4,0,60.8,0c0,1.9,0.1,3.8,0,5.7c-0.3,4.6,1.2,8,6,9.3
		c3.6,0,7.1,0,10.7,0c1.1-0.5,2.2-0.8,3.2-1.4c2.4-1.6,2.9-4.1,2.9-6.8c0-3.9,0-7.9,0-11.8c0-0.6,0.2-1.3,0.6-1.7
		c4.8-4.6,6.9-10.2,7-16.8c0-24.9,0-49.8,0-74.7c0-6.5-1.4-12.5-5.7-17.5C180.3,64.2,175.9,61.8,171,60z M83.3,85.4
		c30.3,0,60.5,0,90.9,0c0,12.6,0,25.1,0,37.7c-30.3,0-60.5,0-90.9,0C83.3,110.5,83.3,98,83.3,85.4z M94.5,168.7
		c-6,0-11.4-5.4-11.3-11.4c0.1-6,5.4-11.3,11.4-11.3c6,0,11.4,5.4,11.4,11.5C105.9,163.5,100.5,168.7,94.5,168.7z M162.8,168.7
		c-6,0-11.3-5.3-11.3-11.4c0-6,5.3-11.3,11.3-11.4c6,0,11.5,5.5,11.4,11.4C174.1,163.5,168.8,168.7,162.8,168.7z"/>
</g>
</svg>
