<svg enable-background="new 0 0 256 256" viewBox="0 0 256 256" xmlns="http://www.w3.org/2000/svg"><g fill="#001541"><path d="m162.4 145.9c-6 0-11.3 5.3-11.3 11.4 0 6 5.3 11.3 11.3 11.4 6 0 11.3-5.2 11.4-11.3.1-6-5.4-11.5-11.4-11.5z"/><path d="m94.1 145.9c-6 0-11.3 5.3-11.4 11.3s5.3 11.3 11.3 11.4c6 0 11.4-5.2 11.4-11.3.1-6-5.3-11.4-11.3-11.4z"/><path d="m173.7 85.3c-30.4 0-60.6 0-90.9 0v37.7h90.9c0-12.6 0-25.1 0-37.7z"/><path d="m127.9 7.2c-67 0-121.4 54.4-121.4 121.4 0 66.9 54.4 121.4 121.4 121.4s121.4-54.4 121.4-121.4c-.1-67-54.5-121.4-121.4-121.4zm61 153.2c0 6.5-2.2 12.2-7 16.8-.4.4-.6 1.1-.6 1.7-.1 3.9 0 7.9 0 11.8 0 2.7-.6 5.2-2.9 6.8-.9.6-2.1 1-3.2 1.4-3.6 0-7.1 0-10.7 0-4.7-1.3-6.3-4.7-6-9.3.1-1.9 0-3.8 0-5.7-20.3 0-40.5 0-60.8 0 0 2.8.2 5.5-.1 8.1-.1 1.5-.7 3.2-1.7 4.3-1 1.2-2.7 1.8-4.2 2.6-3.6 0-7.1 0-10.7 0-.1-.1-.2-.2-.4-.2-3.8-1.2-5.4-2.9-5.6-6.9-.2-4.3-.1-8.6-.1-12.9 0-.6-.2-1.3-.6-1.7-4.8-4.6-6.9-10.2-7-16.8 0-24.9 0-49.8 0-74.7 0-4.8.7-9.4 3.1-13.7 3.4-6.3 9-9.7 15.5-12.1 7.7-2.9 15.8-3.9 24-4.4 12.1-.8 24.3-.8 36.4 0 8.2.5 16.3 1.6 24.1 4.5 4.8 1.8 9.3 4.3 12.7 8.3 4.3 5.1 5.7 11.1 5.7 17.5.2 24.8.2 49.7.1 74.6z"/></g></svg>
