<svg width="50px" height="26px" viewBox="0 0 50 26" version="1.1"
    xmlns="http://www.w3.org/2000/svg"
    xmlns:xlink="http://www.w3.org/1999/xlink">
    <g id="marker__group" stroke="none" stroke-width="1" fill="none" fill-rule="evenodd">
        <g id="canvas" transform="translate(-40.000000, -77.000000)" fill="#FFFFFF">
            <g id="paths" transform="translate(40.000000, 77.000000)">
                <path d="M37.9930625,15.3605877 C35.3200625,12.6875877 32.6460625,10.0155877 29.9740625,7.34058768 C29.4530625,6.81958768 28.9080625,6.31858768 28.4250625,5.76358768 C27.0770625,4.21458768 27.1110625,2.26758768 28.4770625,0.946587677 C29.8200625,-0.350412323 31.8260625,-0.330412323 33.2940625,1.10458768 C36.0790625,3.82858768 38.8140625,6.60558768 41.5700625,9.36058768 C41.9700625,9.75958768 42.3690625,10.1595877 43.1970625,10.4675877 C43.1570625,9.29158768 43.0770625,8.11558768 43.0870625,6.93958768 C43.1040625,4.62758768 44.4270625,3.23458768 46.5020625,3.27358768 C48.4720625,3.31058768 49.7420625,4.70958768 49.7550625,6.95258768 C49.7770625,10.8495877 49.7770625,14.7465877 49.7510625,18.6435877 C49.7330625,21.1255877 48.5420625,22.3155877 46.0370625,22.3355877 C42.1400625,22.3655877 38.2430625,22.3655877 34.3460625,22.3365877 C32.1150625,22.3195877 30.7190625,21.0285877 30.6870625,19.0615877 C30.6540625,17.0005877 32.0450625,15.6995877 34.3800625,15.6755877 C35.5310625,15.6645877 36.6830625,15.7495877 37.8360625,15.7905877 C37.8890625,15.6475877 37.9400625,15.5045877 37.9930625,15.3605877" id="path"></path>
                <path d="M11.8113625,9.92948768 C14.9023625,13.0204877 18.0103625,16.0964877 21.0793625,19.2094877 C22.8353625,20.9924877 22.5233625,23.5184877 20.4593625,24.7074877 C19.0493625,25.5194877 17.6833625,25.2934877 16.3343625,23.9554877 C13.2333625,20.8774877 10.1513625,17.7794877 6.74736249,14.3744877 C6.72236249,16.0434877 6.74136249,17.3604877 6.67636249,18.6724877 C6.55536249,21.1414877 4.39036249,22.6004877 2.13336249,21.7524877 C0.742362488,21.2284877 0.0403624879,20.1604877 0.0303624879,18.7094877 C-0.000637512071,14.5444877 -0.0206375121,10.3794877 0.0353624879,6.21548768 C0.0613624879,4.18848768 1.29536249,2.95348768 3.33036249,2.92448768 C7.49436249,2.86548768 11.6603625,2.86048768 15.8233625,2.92348768 C17.8273625,2.95348768 19.0953625,4.34948768 19.0903625,6.25548768 C19.0863625,8.13948768 17.8003625,9.44248768 15.7883625,9.56448768 C15.1053625,9.60548768 14.4133625,9.62748768 13.7343625,9.56548768 C13.1153625,9.50848768 12.5073625,9.32648768 11.8943625,9.20048768 C11.8673625,9.44348768 11.8383625,9.68648768 11.8113625,9.92948768" id="path"></path>
            </g>
        </g>
    </g>
</svg>
