<?xml version="1.0" encoding="UTF-8"?>
<svg width="24px" height="32px" viewBox="0 0 24 32" version="1.1" xmlns="http://www.w3.org/2000/svg" xmlns:xlink="http://www.w3.org/1999/xlink">
    <!-- Generator: Sketch 57.1 (83088) - https://sketch.com -->
    <title>marker</title>
    <desc>Created with Sketch.</desc>
    <g id="Page-1" stroke="none" stroke-width="1" fill="none" fill-rule="evenodd">
        <g id="marker" fill="#4B96F3" fill-rule="nonzero" stroke="#FFFFFF">
            <path d="M11.1780961,31.0701233 C11.5752647,31.6433987 12.4251242,31.6433005 12.8216708,31.0704615 C14.2577681,28.9885469 19.43661,21.6095272 20.3566399,20.2314836 C22.0384392,17.712443 22.8095058,16.2489277 23.1862358,14.8184414 C23.4067781,13.9810178 23.5,13.118125 23.5,12 C23.5,5.64870402 18.3512956,0.5 12,0.5 C5.64870441,0.5 0.5,5.64870402 0.5,12 C0.5,13.118125 0.593221935,13.9810178 0.813764167,14.8184414 C1.19049421,16.2489277 1.96156085,17.712443 3.64336011,20.2314836 C4.56334021,21.6094526 9.74167137,28.9877482 11.178096,31.0701234 Z M11.178096,31.0701234 C11.1781738,31.0702361 11.1782515,31.0703488 11.1783292,31.0704615 L11.1778622,31.0697856 C11.1779401,31.0698982 11.1780181,31.0700108 11.1780961,31.0701233 Z M12,17.4999983 C8.96242075,17.4999983 6.5,15.0375769 6.5,11.9999983 C6.5,8.96241805 8.96241994,6.49999829 12,6.49999829 C15.0375801,6.49999829 17.5,8.96241805 17.5,11.9999983 C17.5,15.0375769 15.0375792,17.4999983 12,17.4999983 Z"></path>
        </g>
    </g>
</svg>