<?xml version="1.0" encoding="UTF-8"?>
<svg xmlns="http://www.w3.org/2000/svg" id="Layer_1" data-name="Layer 1" viewBox="0 0 1224 792">
  <defs>
    <style>.cls-1{fill:#ffce10;}.cls-2{fill:#d2d3d4;}.cls-3{fill:#59595b;}.cls-4{font-size:9.12px;}.cls-13,.cls-4,.cls-6,.cls-9{fill:#58595b;}.cls-13,.cls-4,.cls-6{font-family:Gotham-Bold, Gotham;font-weight:700;}.cls-5{letter-spacing:-0.01em;}.cls-13,.cls-6{font-size:9.61px;}.cls-7{letter-spacing:0em;}.cls-8{letter-spacing:0em;}.cls-10,.cls-13{letter-spacing:-0.01em;}.cls-11{letter-spacing:-0.02em;}.cls-12{letter-spacing:-0.02em;}.cls-14{letter-spacing:0em;}.cls-15{letter-spacing:-0.01em;}.cls-16{fill:#1b75bc;}.cls-17{fill:#fff;}.cls-18{fill:#8dc63f;}.cls-19{fill:none;stroke:#58595b;stroke-miterlimit:10;}</style>
  </defs>
  <title>Gentry_Gfloor</title>
  <path class="cls-1" d="M963.57,242.55s-39.47,21.15-97,13.22L882,218.07l47.41,1.05Z"></path>
  <polygon class="cls-1" points="878.16 599.77 888.89 599.77 890.16 614.05 899.11 610.25 905.86 597.59 920.05 599.77 920.05 655.8 878.16 655.8 878.16 599.77"></polygon>
  <polygon class="cls-1" points="83.25 380.76 83.25 381.85 7.39 381.85 7.39 413.19 83.25 413.19 83.25 439.57 124.6 439.57 124.6 380.76 83.25 380.76"></polygon>
  <rect class="cls-1" x="871.18" y="320.21" width="98.5" height="79.13"></rect>
  <rect class="cls-1" x="280.47" y="599.89" width="180.4" height="26.18"></rect>
  <polygon class="cls-2" points="1217.19 39.8 965.35 39.8 965.35 38.61 943.33 38.61 929.62 38.61 548.1 38.61 548.1 36.46 533.79 36.46 520.36 36.46 488.71 36.46 488.71 60.43 520.36 60.43 520.36 118.03 521.27 118.03 521.27 170.61 520.36 170.61 520.36 192.45 520.36 202.05 520.36 273.83 478.29 273.83 478.29 321.75 286.09 321.75 286.09 285.6 250.96 285.6 250.96 262.41 249.71 262.41 249.71 260.98 184.24 260.98 184.24 253.13 113.7 253.13 113.7 262.41 35.22 262.41 35.22 283.1 7.39 283.1 7.39 285.6 7.39 296.45 7.39 340.8 20.28 342.01 19.79 349.47 6.64 357.16 7.39 379.13 127.76 379.13 127.76 399.33 683.48 399.33 683.48 337.73 683.48 321.75 683.48 273.83 680.15 273.83 680.15 202.05 669.41 202.05 669.41 192.45 534.86 192.45 534.86 189.29 648.89 189.29 648.89 145.28 709.87 145.28 709.87 155.35 931.49 155.35 934.46 155.35 937.52 155.35 937.52 153.62 939.81 153.62 939.81 150.51 940.63 150.51 940.63 149.77 942.64 149.77 943.82 147.07 944.45 145.7 958.87 133.07 965.35 133.07 965.35 132.22 1045.27 132.22 1045.27 204.93 1216.75 204.93 1216.75 132.22 1217.19 132.22 1217.19 39.8"></polygon>
  <polygon class="cls-2" points="1019.89 323.58 1019.89 399.33 1033.23 399.33 1033.23 462.13 1030.61 462.13 970.06 462.13 970.06 453.5 922.01 453.5 922.01 482.02 922.39 482.02 922.39 600.89 925.32 600.89 925.32 609.94 913.2 610.33 905.86 610.96 909.03 620.21 924.34 625.71 925.32 701.1 1146.66 701.1 1146.66 596.57 1146.66 485.34 1083.3 485.34 1083.3 596.57 1048.69 596.57 1048.69 476.81 1048.69 474.6 1048.69 470.77 1051.85 470.77 1051.85 482.02 1146.66 482.02 1146.66 399.33 1146.66 384.56 1146.66 323.58 1019.89 323.58"></polygon>
  <polygon class="cls-2" points="188.03 452.21 156.07 452.21 156.07 466.75 83.75 466.75 83.75 517.43 188.03 517.43 188.03 579.7 188.03 594.79 188.03 618.88 235.27 618.88 240.14 618.88 242.19 618.88 242.19 609.16 243.81 609.16 243.81 605.56 246.1 605.56 246.1 594.79 292.92 594.79 294.06 613.87 305.53 611.01 307.73 596.85 872.19 594.79 872.19 452.21 208.05 452.21 188.03 452.21"></polygon>
  <polygon class="cls-2" points="81.74 415.48 7.39 415.48 7.39 519.55 7.39 524.83 7.39 562.52 109.86 562.52 109.86 519.55 81.74 519.55 81.74 415.48"></polygon>
  <polygon class="cls-2" points="730.49 399.33 850.14 399.33 850.14 389.06 868.02 389.06 868.02 320.21 850.14 320.21 818.38 320.21 730.49 320.21 730.49 399.33"></polygon>
  <polygon class="cls-2" points="743.97 208.09 743.97 317.05 790.32 317.05 815.58 317.05 938.48 317.05 938.48 291.41 815.58 291.41 815.58 208.09 743.97 208.09"></polygon>
  <path class="cls-3" d="M240.14,618.88H190V519.55h66.27v-70.5H227.57v3.16h25.59v64.18H202.5V452.21h7.86v-3.16H182.42v3.16h16.92v64.18H156.07V452.21h8.37v-3.16H152.91v67.34H131.2V466.75h3.21v-3.16H123.56v3.16H128v49.64H83.76V466.75h24.42v-3.16H83.76v-2.25H80.6v55H7.39V415.48H81.74v25.25h46v-8.47H124.6v5.31H84.9V412.32H7.39V381.81H124.6v29.8h3.16v-9.12h4.73v-3.16h-4.73V378.65H7.39V353.9H2.13V567.78h113V522.12h69.65v102h59.78l4.28-24.26h40.6v-5.26h-45ZM7.39,562.52v-43H109.86v43Z"></path>
  <polygon class="cls-3" points="1050.14 277.37 1116.58 277.37 1116.58 272.1 1116.69 270.26 1110.88 270.26 1110.88 272.1 1044.87 272.1 1044.87 320.42 1016.73 320.42 1016.73 402.49 1030.07 402.49 1030.07 428.84 1033.23 428.84 1033.23 402.49 1039.45 402.49 1039.45 399.33 1031.65 399.33 1030.07 399.33 1019.89 399.33 1019.89 324.54 1044.87 324.54 1044.87 324.63 1089.71 324.63 1089.71 399.33 1056.81 399.33 1056.81 402.49 1095.82 402.49 1095.82 399.33 1092.87 399.33 1092.87 324.63 1146.66 324.63 1146.66 399.33 1110.91 399.33 1110.91 402.49 1146.66 402.49 1146.66 482.18 1080.14 482.18 1080.14 517.67 1083.3 517.67 1083.3 485.34 1146.66 485.34 1146.66 536.47 1081.72 536.47 1081.72 539.63 1146.66 539.63 1146.66 593.41 1083.3 593.41 1083.3 556.42 1080.14 556.42 1080.14 593.41 1077.95 593.41 1077.95 596.57 1146.66 596.57 1146.66 701.1 925.32 701.1 925.32 623.2 920.05 623.2 920.05 706.36 1151.93 706.36 1151.93 319.37 1050.14 319.37 1050.14 277.37"></polygon>
  <polygon class="cls-3" points="920.05 606.21 925.32 606.21 925.32 596.57 1051.85 596.57 1051.85 546.1 1048.69 546.1 1048.69 593.41 923.19 593.41 923.19 594.45 902.58 594.49 902.59 599.76 920.05 599.72 920.05 606.21"></polygon>
  <path class="cls-3" d="M875.35,594.51V557.59h-3.16v36.92l-38.83.06V509.79h38.83v31.08h3.16V527.21H884v-3.16h-8.68V482.4h-3.16v24.23H851.71V452.21h20.48V465h3.16V449.05H841.43v3.16h7.13v54.42H784.85V452.21h41.34v-3.16H743.45v3.16h7.13v54.42h-48.5v3.16h48.5v84.9l-66.2.1V482.4h-3.16V516h-55v3.16h55V594.8l-53.45.08V537.42h-5.62v3.16h2.46v54.3l-82.87.12V540.58H606v-3.16H541.75v-73h54.57V519.1h3.16V464.38h43.64V449.05h-201v3.16h20.31v53.33h3.16V452.21h73V595l-89.51.13V542.92h3l13.51-13.83v-6.64h-3.16v5.35l-11.68,12H434v3.16h11.92v52.22l-101.24.15V528.07h80.75v-5.62h-3.16v2.46H344.68v-72.7h4.22v-3.16H324.68v3.16h16.84V595.3l-34.54,0v5.26l578.77-.84v-5.26ZM640,452.21v9H541.75v-9Zm113.78,0h27.94v57.58h48.52v84.78l-76.46.11Z"></path>
  <rect class="cls-3" x="254.95" y="449.05" width="53.08" height="3.16"></rect>
  <polygon class="cls-3" points="425.43 505.55 425.43 449.05 366.32 449.05 366.32 452.21 422.27 452.21 422.27 505.55 425.43 505.55"></polygon>
  <polygon class="cls-3" points="659.48 452.21 681.23 452.21 681.23 464.98 684.39 464.98 684.39 452.21 726.66 452.21 726.66 449.05 659.48 449.05 659.48 452.21"></polygon>
  <polygon class="cls-3" points="919.09 543.36 919.35 543.36 922.25 543.36 922.51 543.36 922.51 497.11 968.61 497.11 968.61 564.79 920.14 564.79 920.14 561.4 916.98 561.4 916.98 567.95 971.77 567.95 971.77 527.21 1050.27 527.21 1050.27 524.05 971.77 524.05 971.77 462.13 1038.36 462.13 1048.69 471.08 1048.69 506.97 1051.85 506.97 1051.85 469.64 1039.54 458.97 1033.23 458.97 1033.23 445.95 1030.07 445.95 1030.07 458.97 971.77 458.97 971.77 450.34 918.85 450.34 918.85 459.69 922.01 459.69 922.01 453.5 968.61 453.5 968.61 493.95 922.51 493.95 922.51 480.06 919.35 480.06 919.35 524.05 899.59 524.05 899.59 527.21 919.09 527.21 919.09 543.36"></polygon>
  <polygon class="cls-3" points="960.44 399.33 960.44 402.49 972.84 402.49 972.84 317.05 961.7 317.05 961.7 320.21 969.68 320.21 969.68 399.33 960.44 399.33"></polygon>
  <polygon class="cls-3" points="943.33 402.49 943.33 399.33 871.17 399.33 871.17 320.21 941.63 320.21 941.63 288.11 930.49 288.11 930.49 291.27 938.48 291.27 938.48 317.05 898.35 317.05 898.35 291.27 903.82 291.27 903.82 288.11 891.74 288.11 891.74 291.27 895.19 291.27 895.19 317.05 869.6 317.05 868.02 317.05 859.1 317.05 859.1 291.27 865.07 291.27 865.07 288.11 852.49 288.11 852.49 291.27 855.94 291.27 855.94 317.05 818.58 317.05 818.58 292.27 826.06 292.27 826.06 289.12 818.58 289.12 818.58 208.66 815.43 208.66 815.43 289.12 815.43 290.69 815.43 317.05 801.65 317.05 800.08 317.05 743.97 317.05 743.97 281.57 740.82 281.57 740.82 317.05 727.34 317.05 727.34 402.49 744.85 402.49 744.85 399.33 730.49 399.33 730.49 320.21 800.08 320.21 800.08 399.33 759.86 399.33 759.86 402.49 800.08 402.49 801.65 402.49 828.52 402.49 828.52 399.33 803.23 399.33 803.23 320.21 868.02 320.21 868.02 389.06 848.56 389.06 848.56 399.33 845.33 399.33 845.33 402.49 851.72 402.49 851.72 392.21 868.02 392.21 868.02 402.49 943.33 402.49"></polygon>
  <rect class="cls-3" x="740.81" y="208.66" width="3.16" height="53.61"></rect>
  <rect class="cls-3" x="717.58" y="204.93" width="267.15" height="3.16"></rect>
  <rect class="cls-3" x="147.1" y="399.33" width="107.64" height="3.16"></rect>
  <polygon class="cls-3" points="935.33 158.51 946.6 148.01 944.45 145.7 934.09 155.35 709.87 155.35 709.87 145.28 700.08 145.28 700.08 148.44 706.71 148.44 706.71 158.51 935.33 158.51"></polygon>
  <rect class="cls-3" x="537.07" y="145.28" width="120.86" height="3.16"></rect>
  <polygon class="cls-3" points="958.87 65.17 958.87 133.07 954.58 136.7 956.62 139.11 961.03 135.38 976.11 135.38 976.11 132.22 962.03 132.22 962.03 65.17 958.87 65.17"></polygon>
  <path class="cls-3" d="M887.44,616.15l0-16.43h-2.72v-5.24l6,0,0,18.16c3.63-.6,11.8-3.49,11.87-13.66l3.28,0c-.12,16-16.56,17.1-16.73,17.1Z"></path>
  <path class="cls-3" d="M1132.62,236.64h-16.43v-2.72h-5.31v6h18.23c-.59,3.63-3.46,11.81-13.63,11.91l0,3.28c16-.17,17.05-16.61,17.06-16.77Z"></path>
  <path class="cls-3" d="M1133.84,255.08h-16.43v-3.26h-6.53v6.53h19.45c-.59,3.63-3.46,11.81-13.63,11.91l-.29,3.28c16-.17,17.37-16.61,17.38-16.77Z"></path>
  <path class="cls-3" d="M903.65,608.09l16.43,0v-2.72h5.24l0,6-18.16,0c.6,3.63,3.49,11.8,13.66,11.87l0,3.28c-16-.12-17.1-16.56-17.1-16.73Z"></path>
  <path class="cls-3" d="M291.8,616.31l0-16.43H289v-5.24l6,0,0,18.16c3.63-.6,11.8-3.49,11.87-13.66l3.28,0c-.12,16-16.56,17.1-16.73,17.1Z"></path>
  <path class="cls-3" d="M23.8,338.74l-16.43,0V336H2.14l0,6,18.16,0c-.6,3.63-3.49,11.8-13.66,11.87l0,3.28c16-.12,17.1-16.56,17.1-16.73Z"></path>
  <text class="cls-4" transform="translate(138.27 325.35) scale(0.88 1)">
    <tspan class="cls-5">0</tspan>
    <tspan x="6.57" y="0">28</tspan>
  </text>
  <text class="cls-4" transform="translate(313.04 364.53) scale(0.88 1)">
    <tspan class="cls-5">0</tspan>
    <tspan x="6.57" y="0">22A</tspan>
  </text>
  <text class="cls-4" transform="translate(404.52 364.53) scale(0.88 1)">
    <tspan class="cls-5">0</tspan>
    <tspan x="6.57" y="0">22</tspan>
  </text>
  <text class="cls-4" transform="translate(473.19 368.99) scale(0.88 1)">
    <tspan class="cls-5">0</tspan>
    <tspan x="6.57" y="0">20</tspan>
  </text>
  <text class="cls-6" transform="translate(621.95 392.76) scale(0.88 1)">
    <tspan class="cls-7">0</tspan>
    <tspan x="6.96" y="0">14</tspan>
  </text>
  <text class="cls-4" transform="translate(755.33 360.53) scale(0.88 1)">
    <tspan class="cls-8">0</tspan>
    <tspan x="6.61" y="0">10</tspan>
  </text>
  <text class="cls-4" transform="translate(826.45 359.77) scale(0.88 1)">008</text>
  <text class="cls-4" transform="translate(914.23 349.47) scale(0.88 1)">S0B</text>
  <text class="cls-4" transform="translate(989.71 273.54) scale(0.88 1)">L0A</text>
  <text class="cls-6" transform="translate(907.97 306.65) scale(0.88 1)">L0B</text>
  <text class="cls-6" transform="translate(868.02 306.65) scale(0.88 1)">L0C</text>
  <text class="cls-6" transform="translate(828.97 306.65) scale(0.88 1)">L0D</text>
  <path class="cls-9" d="M963.57,242.55c-.21.12-14.22,7.93-41.22,11.94V219.13h7.06v-1.05H882l-17,38.62.73.07c8.52.77,16.5,1.1,23.94,1.1,48.63,0,74.1-14.23,74.39-14.39Zm-42.27,12.1c-1.22.17-2.47.34-3.74.5v-36h3.74Zm-24-35.52h4.2v37.39q-2.07.1-4.2.17Zm-1.05,37.58q-2.35.06-4.78.08V219.13h4.78Zm6.3-37.58h3.61v37.11c-1.19.08-2.39.16-3.61.22Zm4.67,0h4.59v36.65q-2.25.22-4.59.39Zm5.64,0h3.68v36.14c-1.21.14-2.43.28-3.68.41Zm-30.13,0h3.21v37.64q-2.47,0-5-.13V223.21Zm-6.89,15.69,4-9.21v31q-2-.08-4-.19Zm-1.05,21.54-2.77-.16V242.44l-.41,2,3.18-7.23Zm-3.82-10.45v10.21c-1.43-.1-2.87-.21-4.34-.33Zm16,10.88V219.13h3.42V256.8Z"></path>
  <text class="cls-4" transform="translate(773.23 267.33) scale(0.88 1)">040</text>
  <text class="cls-4" transform="translate(708.05 241.63) scale(0.88 1)">C0E</text>
  <text class="cls-4" transform="translate(826.45 181.72) scale(0.88 1)">C0C</text>
  <text class="cls-4" transform="translate(743.97 95.13) scale(0.88 1)">
    <tspan class="cls-5">0</tspan>
    <tspan class="cls-8" x="6.57" y="0">3</tspan>
    <tspan x="12.19" y="0">5</tspan>
  </text>
  <text class="cls-6" transform="translate(590.68 262.27) scale(0.88 1)">
    <tspan class="cls-10">0</tspan>
    <tspan x="6.92" y="0">30</tspan>
  </text>
  <text class="cls-6" transform="translate(586.94 173.52) scale(0.88 1)">
    <tspan class="cls-10">0</tspan>
    <tspan x="6.92" y="0">33</tspan>
  </text>
  <text class="cls-6" transform="translate(597.5 92.64) scale(0.88 1)">
    <tspan class="cls-10">0</tspan>
    <tspan x="6.92" y="0">34</tspan>
  </text>
  <text class="cls-6" transform="translate(889.71 92.64) scale(0.88 1)">
    <tspan class="cls-10">0</tspan>
    <tspan x="6.92" y="0">36</tspan>
  </text>
  <text class="cls-6" transform="translate(1085.73 92.64) scale(0.88 1)">
    <tspan class="cls-10">0</tspan>
    <tspan class="cls-11" x="6.92" y="0">3</tspan>
    <tspan x="12.69" y="0">7</tspan>
  </text>
  <text class="cls-6" transform="translate(1129.87 173.52) scale(0.88 1)">
    <tspan class="cls-10">0</tspan>
    <tspan x="6.92" y="0">38</tspan>
  </text>
  <text class="cls-6" transform="translate(1062 241.63) scale(0.88 1)">V0A</text>
  <text class="cls-6" transform="translate(1043.09 364.53) scale(0.88 1)">005</text>
  <text class="cls-6" transform="translate(1110.56 364.53) scale(0.88 1)">004</text>
  <text class="cls-6" transform="translate(1085.73 443.47) scale(0.88 1)">0<tspan class="cls-10" x="7.01" y="0">0</tspan><tspan x="13.93" y="0">3</tspan></text>
  <text class="cls-6" transform="translate(1056.66 532.69) scale(0.88 1)">C0D</text>
  <text class="cls-6" transform="translate(959.13 432) scale(0.88 1)">C0B</text>
  <text class="cls-6" transform="translate(996.09 495.7) scale(0.88 1)">0<tspan class="cls-10" x="7.01" y="0">0</tspan><tspan x="13.93" y="0">2B</tspan></text>
  <text class="cls-6" transform="translate(996.09 560.98) scale(0.88 1)">0<tspan class="cls-10" x="7.01" y="0">0</tspan><tspan x="13.93" y="0">2A</tspan></text>
  <text class="cls-6" transform="translate(1103.66 570.9) scale(0.88 1)">0<tspan class="cls-10" x="7.01" y="0">0</tspan><tspan x="13.93" y="0">2D</tspan></text>
  <text class="cls-6" transform="translate(1103.66 516.24) scale(0.88 1)">0<tspan class="cls-10" x="7.01" y="0">0</tspan><tspan x="13.93" y="0">2C</tspan></text>
  <text class="cls-6" transform="translate(1046.92 652.58) scale(0.88 1)">0<tspan class="cls-7" x="7.01" y="0">0</tspan><tspan x="13.98" y="0">1</tspan></text>
  <rect class="cls-9" x="963.39" y="611.5" width="4.01" height="90.59"></rect>
  <text class="cls-6" transform="translate(933.63 656.8) scale(0.88 1)">0<tspan class="cls-7" x="7.01" y="0">0</tspan><tspan x="13.98" y="0">1A</tspan></text>
  <text class="cls-6" transform="translate(887.39 555.11) scale(0.88 1)">V0B</text>
  <text class="cls-6" transform="translate(843.85 548.43) scale(0.88 1)">
    <tspan class="cls-7">0</tspan>
    <tspan x="6.96" y="0">12</tspan>
  </text>
  <text class="cls-6" transform="translate(784.85 543.43) scale(0.88 1)">
    <tspan class="cls-7">0</tspan>
    <tspan x="6.96" y="0">11A</tspan>
  </text>
  <text class="cls-6" transform="translate(853.98 479.34) scale(0.88 1)">0<tspan class="cls-12" x="7.01" y="0">0</tspan><tspan x="13.78" y="0">7</tspan></text>
  <text class="cls-6" transform="translate(807.26 483.91) scale(0.88 1)">009</text>
  <text class="cls-6" transform="translate(710.08 544.93) scale(0.88 1)">
    <tspan class="cls-7">0</tspan>
    <tspan x="6.96" y="0">11B</tspan>
  </text>
  <text class="cls-6" transform="translate(712.54 479.34) scale(0.88 1)">
    <tspan class="cls-7">0</tspan>
    <tspan x="6.96" y="0">11</tspan>
  </text>
  <text class="cls-6" transform="translate(649.94 552.7) scale(0.88 1)">
    <tspan class="cls-7">0</tspan>
    <tspan x="6.96" y="0">15A</tspan>
  </text>
  <text class="cls-6" transform="translate(641.71 493.7) scale(0.88 1)">
    <tspan class="cls-7">0</tspan>
    <tspan x="6.96" y="0">15</tspan>
  </text>
  <text class="cls-6" transform="translate(574.07 570.9) scale(0.88 1)">
    <tspan class="cls-7">0</tspan>
    <tspan x="6.96" y="0">15B</tspan>
  </text>
  <text class="cls-6" transform="translate(559.89 499.57) scale(0.88 1)">
    <tspan class="cls-7">0</tspan>
    <tspan x="6.96" y="0">15C</tspan>
  </text>
  <text class="cls-6" transform="translate(494.49 497.75) scale(0.88 1)">
    <tspan class="cls-7">0</tspan>
    <tspan x="6.96" y="0">19A</tspan>
  </text>
  <text class="cls-6" transform="translate(380.64 567.95) scale(0.88 1)">
    <tspan class="cls-7">0</tspan>
    <tspan x="6.96" y="0">18C</tspan>
  </text>
  <text class="cls-6" transform="translate(374.68 493.7) scale(0.88 1)">
    <tspan class="cls-7">0</tspan>
    <tspan x="6.96" y="0">19D</tspan>
  </text>
  <text class="cls-6" transform="translate(436.94 495.7) scale(0.88 1)">
    <tspan class="cls-7">0</tspan>
    <tspan x="6.96" y="0">19</tspan>
  </text>
  <text class="cls-13" transform="translate(290.51 532.69) scale(0.88 1)">0<tspan class="cls-14" x="6.92" y="0">21</tspan></text>
  <text class="cls-13" transform="translate(216.11 489.02) scale(0.88 1)">0<tspan class="cls-14" x="6.92" y="0">21A</tspan></text>
  <text class="cls-6" transform="translate(170.75 489.9) scale(0.88 1)">
    <tspan class="cls-10">0</tspan>
    <tspan class="cls-15" x="6.92" y="0">2</tspan>
    <tspan x="12.85" y="0">7</tspan>
  </text>
  <text class="cls-13" transform="translate(133.7 489) scale(0.88 1)">0<tspan class="cls-14" x="6.92" y="0">28</tspan></text>
  <text class="cls-13" transform="translate(97.69 493.7) scale(0.88 1)">0<tspan class="cls-14" x="6.92" y="0">29</tspan></text>
  <text class="cls-6" transform="translate(35.62 479.34) scale(0.88 1)">
    <tspan class="cls-10">0</tspan>
    <tspan x="6.92" y="0">30</tspan>
  </text>
  <text class="cls-6" transform="translate(95.37 401.62) scale(0.88 1)">S0A</text>
  <path class="cls-9" d="M84.26,413.8v-33h-1v33H79.88V381.31h-1V413.8H75.15v-33H68.8v33H65.68V378.62l-5.55.72v33.4l-4.69-6.46V380.92h-1v24l-3.33-4.58h0v-19.4h-1V399L47,394.6V380.39H46v12.83l-3.13-4.3v-9.14h-1v7.76l-5.4-7.44-.81.59,18.82,25.92v.12h.09l5.64,7.77v.3H84.9v-1Zm-19.57,0H61.13V380.22l3.55-.46Zm9.46,0H69.8v-32h4.34Z"></path>
  <text class="cls-4" transform="translate(49.28 544.35) scale(0.88 1)">
    <tspan class="cls-5">0</tspan>
    <tspan x="6.57" y="0">31</tspan>
  </text>
  <rect class="cls-9" x="821.84" y="57.66" width="3" height="97.68"></rect>
  <path class="cls-3" d="M486.58,34.54V61.92h30V268.56H473v49.94H291.36V282.83H255V255.72H187.9v-7.85H108.43v9.28H30v20.69H2.13v59H7.39V283.1H35.22V262.41H113.7v-9.28h68.94V261H249.7V288.1h36.39v35.67h4.2v75.56H268.58v3.16h160v-3.16H352.13v-7.56H349v7.56H293.45V323.77H349V373h3.16V323.77H462.41v75.56h-17.2v3.16h25.4v-3.16h-5V323.77h12.72v-1.19H500.5v12.1h56.26v29.51h-53.4V350.34h-3.16v29.94h3.16V367.34h53.4v32h-71.4v3.16h77.81v-3.16h-3.26V322.58h46.14v76.75H580.41v3.16h39v-3.16H609.21V322.58h11.36v56.56h31.15v20.19h-16v3.16h21.47v-3.16h-2.35V376H623.73v-53.4h59.75v76.75h-8.4v3.16h11.56V303.08h-3.33v-58.6h-3.16v61.76h3.33v13.18H478.29V273.83h43.52V56.66h-30V39.8h41.78V192.45H669.41v15.64h34.39v-3.16H672.57V189.29H652.05v-20.8h-3.16v20.8H536.79V39.8H677.4V145.28h-2.31v3.16h7.83v-3.16h-2.37V39.8H958.87V51.74H962V39.8h255.16v92.42H993.27v3.16h48.78v18.19h3.16V135.38h172v69.55h-172V185.28h-3.16v19.66h-23.74v3.16h92.57v26.53h5.26V211h106.31V34.54Zm17.07,288h53.1v8.94h-53.1Z"></path>
  <ellipse class="cls-16" cx="530.63" cy="348.9" rx="12.13" ry="12.42"></ellipse>
  <circle class="cls-17" cx="525.14" cy="341.49" r="1.37"></circle>
  <path class="cls-17" d="M527.73,343.5h-5.19c-.33,0-.59.61-.59.93v5.69a.59.59,0,1,0,1.18,0v-3.89l.15,0a.74.74,0,0,1,.21,0v10.7a.74.74,0,0,0,1.47,0v-6h.34v6a.74.74,0,0,0,1.47,0v-10.7a.74.74,0,0,1,.21,0l.15,0v3.89a.59.59,0,1,0,1.18,0v-5.69C528.32,344.11,528.06,343.5,527.73,343.5Z"></path>
  <circle class="cls-17" cx="535.5" cy="341.49" r="1.37"></circle>
  <path class="cls-17" d="M538,344.43c0-.33-.26-.93-.59-.93h-3.82c-.33,0-.59.61-.59.93l-1.37,5.69a.59.59,0,1,0,1.18,0l1-4.8h.1l-1.13,6.06a.38.38,0,0,0,.34.4h.7v5.16a.74.74,0,0,0,1.47,0v-5.16h.34v5.16a.74.74,0,0,0,1.47,0v-5.16h.58a.38.38,0,0,0,.34-.4l-1-6.06h.1l.91,4.8a.59.59,0,1,0,1.18,0Z"></path>
  <path class="cls-17" d="M530.69,357.85c0,.11-.15.2-.33.2h0c-.18,0-.33-.09-.33-.2V340c0-.11.15-.2.33-.2h0c.18,0,.33.09.33.2Z"></path>
  <ellipse class="cls-16" cx="530.63" cy="383.41" rx="12.13" ry="12.42"></ellipse>
  <circle class="cls-17" cx="525.14" cy="376" r="1.37"></circle>
  <path class="cls-17" d="M527.73,378h-5.19c-.33,0-.59.61-.59.93v5.69a.59.59,0,1,0,1.18,0v-3.89l.15,0a.74.74,0,0,1,.21,0v10.7a.74.74,0,0,0,1.47,0v-6h.34v6a.74.74,0,0,0,1.47,0v-10.7a.74.74,0,0,1,.21,0l.15,0v3.89a.59.59,0,1,0,1.18,0v-5.69C528.32,378.62,528.06,378,527.73,378Z"></path>
  <circle class="cls-17" cx="535.5" cy="376" r="1.37"></circle>
  <path class="cls-17" d="M538,378.94c0-.33-.26-.93-.59-.93h-3.82c-.33,0-.59.61-.59.93l-1.37,5.69a.59.59,0,1,0,1.18,0l1-4.8h.1l-1.13,6.06a.38.38,0,0,0,.34.4h.7v5.16a.74.74,0,0,0,1.47,0V386.3h.34v5.16a.74.74,0,0,0,1.47,0V386.3h.58a.38.38,0,0,0,.34-.4l-1-6.06h.1l.91,4.8a.59.59,0,1,0,1.18,0Z"></path>
  <path class="cls-17" d="M530.69,392.36c0,.11-.15.2-.33.2h0c-.18,0-.33-.09-.33-.2V374.47c0-.11.15-.2.33-.2h0c.18,0,.33.09.33.2Z"></path>
  <ellipse class="cls-16" cx="583.9" cy="359.77" rx="12.13" ry="12.42"></ellipse>
  <circle class="cls-17" cx="583.82" cy="352.36" r="1.37"></circle>
  <path class="cls-17" d="M586.37,355.3c0-.33-.26-.93-.59-.93H582c-.33,0-.59.61-.59.93L580,361a.59.59,0,1,0,1.18,0l1-4.8h.1l-1.13,6.06a.38.38,0,0,0,.34.4h.7v5.16a.74.74,0,0,0,1.47,0v-5.16H584v5.16a.74.74,0,0,0,1.47,0v-5.16h.58a.38.38,0,0,0,.34-.4l-1-6.06h.1l.91,4.8a.59.59,0,1,0,1.18,0Z"></path>
  <ellipse class="cls-16" cx="653.84" cy="353.73" rx="12.13" ry="12.42"></ellipse>
  <circle class="cls-17" cx="653.93" cy="346.31" r="1.37"></circle>
  <path class="cls-17" d="M656.52,348.32h-5.19c-.33,0-.59.61-.59.93v5.69a.59.59,0,1,0,1.18,0v-3.89l.15,0a.74.74,0,0,1,.21,0v10.7a.74.74,0,0,0,1.47,0v-6h.34v6a.74.74,0,0,0,1.47,0v-10.7a.74.74,0,0,1,.21,0l.15,0v3.89a.59.59,0,1,0,1.18,0v-5.69C657.11,348.93,656.85,348.32,656.52,348.32Z"></path>
  <text class="cls-6" transform="translate(933.63 532.69) scale(0.88 1)">
    <tspan class="cls-7">0</tspan>
    <tspan x="6.96" y="0">12A</tspan>
  </text>
  <ellipse class="cls-18" cx="945.72" cy="472.52" rx="12.09" ry="12.38"></ellipse>
  <path class="cls-17" d="M938.56,467.57v12.31h6.9V467.57Zm3.45,2.26a.61.61,0,1,1-.61.61A.61.61,0,0,1,942,469.84Zm1.41,4.43a.26.26,0,0,1-.52,0v-1.72h-.16v4.74a.33.33,0,1,1-.65,0v-2.66h-.15v2.66a.33.33,0,1,1-.65,0v-4.74h-.16v1.72a.26.26,0,0,1-.52,0v-2.52c0-.15.12-.41.26-.41h2.3c.14,0,.26.27.26.41Z"></path>
  <path class="cls-17" d="M946,467.57v12.31h6.9V467.57Zm3.45,2.26a.61.61,0,1,1-.61.61A.61.61,0,0,1,949.43,469.84Zm1.41,4.43a.26.26,0,1,1-.52,0v-1.72h-.16v4.74a.33.33,0,1,1-.65,0v-2.66h-.15v2.66a.33.33,0,1,1-.65,0v-4.74h-.16v1.72a.26.26,0,1,1-.52,0v-2.52c0-.15.12-.41.26-.41h2.3c.14,0,.26.27.26.41Z"></path>
  <rect class="cls-17" x="941.89" y="465.16" width="7.66" height="2.07"></rect>
  <polygon class="cls-17" points="954.77 471.04 953.41 472.88 954.17 472.88 954.17 475.35 955.38 475.35 955.38 472.88 956.13 472.88 954.77 471.04"></polygon>
  <polygon class="cls-17" points="936.67 475.35 935.31 473.52 936.06 473.52 936.06 471.04 937.28 471.04 937.28 473.52 938.03 473.52 936.67 475.35"></polygon>
  <path class="cls-9" d="M906.95,360.92V345.8l-11.39,8.67-.32.22-.32.27-9.45,7.2h0l-.43.33-9.06,6.9,30,0v31.32h.5v-1.41h28.86V360.92Zm-1,7.33-26.59,0,6.4-4.88h20.19Zm0-6.08H887.31l8.55-6.51h10.09Zm0-7.69H897.4l8.55-6.51Zm1,46.68V362.1h4.84l.14,39.05Zm9-1.82h-3l-.13-37.23H916Zm4.17,0H917V362.1h3.17Zm4,0h-3V362.1h3Zm5,0h-4V362.1h4Zm5.14,0h-4.14V362.1h4.14Z"></path>
  <line class="cls-19" x1="430.38" y1="626.56" x2="423" y2="626.56"></line>
  <polygon class="cls-9" points="460.88 598.84 460.88 626.07 456.79 626.07 456.79 598.1 455.79 598.1 455.79 626.07 453.58 626.07 450.8 626.07 450.8 598.52 449.8 598.52 449.8 626.07 447.56 626.07 445.36 626.07 445.36 598.52 444.36 598.52 444.36 626.07 441.46 626.07 439.55 626.07 439.55 598.52 438.55 598.52 438.55 626.06 426.69 626.06 426.69 626.07 280.47 626.07 280.47 598.1 279.47 598.1 279.47 627.07 435.73 627.07 441.46 627.07 447.56 627.07 453.58 627.07 461.88 627.07 461.88 598.84 460.88 598.84"></polygon>
  <polyline class="cls-9" points="876.57 597.59 876.57 630.65 876.57 636.39 876.57 642.48 876.57 648.5 876.57 656.8 921.42 656.8 921.42 655.8 878.16 655.8 878.16 651.72 922.6 651.72 922.6 650.72 878.16 650.72 878.16 648.5 878.16 645.72 921.93 645.72 921.93 644.72 878.16 644.72 878.16 642.48 878.16 640.28 921.93 640.28 921.93 639.28 878.16 639.28 878.16 636.39 878.16 634.48 921.93 634.48 921.93 633.48 878.18 633.48 878.18 621.61 878.16 621.61 878.16 598.59"></polyline>
  <rect class="cls-9" x="1044.92" y="264.16" width="4" height="9.38"></rect>
  <rect class="cls-9" x="1045.05" y="206.51" width="4" height="27.4"></rect>
</svg>
