<?xml version="1.0" encoding="UTF-8"?>
<svg xmlns="http://www.w3.org/2000/svg" id="Layer_1" data-name="Layer 1" viewBox="0 0 1224 792">
  <defs>
    <style>.cls-1{fill:#d2d3d4;}.cls-2{fill:#ffce10;}.cls-3,.cls-4,.cls-5{fill:#58595b;}.cls-4{stroke:#58595b;stroke-miterlimit:10;}.cls-5{font-size:9.12px;font-family:Gotham-Bold, Gotham;font-weight:700;}.cls-6{letter-spacing:0em;}.cls-7{letter-spacing:-0.02em;}.cls-8{letter-spacing:-0.02em;}.cls-9{letter-spacing:0em;}.cls-10{letter-spacing:-0.01em;}.cls-11{fill:#1b75bc;}.cls-12{fill:#fff;}.cls-13{fill:#8dc63f;}.cls-14{fill:#7c878e;}.cls-15{letter-spacing:-0.01em;}.cls-16{letter-spacing:0em;}.cls-17{letter-spacing:-0.03em;}</style>
  </defs>
  <title>Gentry_03</title>
  <rect class="cls-1" x="589.97" y="364.13" width="377.22" height="70.76"></rect>
  <rect class="cls-2" x="873.39" y="362.79" width="94.55" height="72.37"></rect>
  <rect class="cls-2" x="4.59" y="418.48" width="87.42" height="86.13"></rect>
  <polyline class="cls-2" points="525.78 360.15 385.52 360.15 385.52 247.16 525.78 247.16"></polyline>
  <polygon class="cls-1" points="90.42 393.87 123.69 393.87 123.69 434.9 177.56 434.9 177.56 393.87 209.18 393.87 209.18 319.75 90.42 319.75 90.42 318.16 7.64 318.16 7.64 414.98 90.42 414.98 90.42 393.87"></polygon>
  <polygon class="cls-1" points="292.82 434.9 544.17 434.9 544.17 355.29 292.82 355.29 292.82 320.71 213.24 320.71 213.24 434.9 280.99 434.9 292.82 434.9"></polygon>
  <polygon class="cls-1" points="1023.17 434.9 1095.37 434.9 1095.37 489.16 925.94 489.16 925.94 535.76 875.65 535.76 875.65 489.16 329.39 489.16 321.53 489.16 266.06 489.16 266.06 533.12 230.91 533.12 230.91 489.15 160.33 489.15 160.33 533.12 89.33 533.12 89.33 506.78 7.64 506.78 7.64 600.41 89.33 600.41 89.33 600.12 321.53 600.12 321.53 626.81 925.94 626.81 925.94 734.13 1148.99 734.13 1148.99 489.16 1148.99 434.9 1148.99 406.81 1148.99 359.04 1023.17 359.04 1023.17 434.9"></polygon>
  <polygon class="cls-1" points="1172.33 72.68 1149.92 72.68 1046.58 72.68 518.07 72.68 518.07 168.16 966.92 168.16 966.92 204.14 815.46 204.14 815.46 246.03 973.3 246.03 973.3 243.45 1149.92 243.45 1176.73 243.45 1216.93 243.45 1216.93 72.68 1172.33 72.68"></polygon>
  <polygon class="cls-3" points="967.19 383.48 967.19 434.9 962.6 434.9 962.6 438.95 971.24 438.95 971.24 383.48 967.19 383.48"></polygon>
  <polygon class="cls-3" points="921.88 495.66 925.94 495.66 925.94 489.16 973.3 489.16 973.3 560.12 977.35 560.12 977.35 485.1 921.88 485.1 921.88 495.66"></polygon>
  <polygon class="cls-3" points="879.61 514.45 875.55 514.45 875.55 531.91 861.8 531.91 861.8 489.16 875.55 489.16 875.55 495.77 879.61 495.77 879.61 485.1 855.19 485.1 855.19 489.16 857.74 489.16 857.74 531.91 857.74 533.93 857.74 544.49 861.8 544.49 861.8 535.96 895.38 535.96 895.38 531.91 879.61 531.91 879.61 514.45"></polygon>
  <path class="cls-3" d="M971.24,200.09H926.8v4.05h40.39V242H892V204.09h10.24V200H849.77v4.05H888V242H818.65V192.18h-4.05V242H585.91V439h22.9V434.9H590V364.63l86.56-.23v70.5H625.1V439h63.12V434.9h-7.64V364.39l8.67,0v53.72h23.93V434.9H702V439h26.47V434.9H717.23V414H693.3V364.36l56-.15V434.9H743.2V439h26.47V434.9h-16.3V364.2l52.45-.14v58.11H788.51v14.75h4.05V426.23h13.25V439H816.5V434.9h-6.63V364.05l30.56-.08V434.9H832V439h12.46V364l27-.07v71H859.77V439h86V434.9H875.54v-71l101.81-.27V242h-6.11Zm2.05,159.48-383.33,1V246H973.3Z"></path>
  <polygon class="cls-3" points="704.88 206.14 746.16 206.14 746.16 241.94 750.22 241.94 750.22 202.08 700.83 202.08 700.83 230.7 704.88 230.7 704.88 206.14"></polygon>
  <path class="cls-4" d="M67.22,450.57V418.9H66.09v30.65H62V418.32H60.87v31.24H56.46V418.9H55.33v30.65H51.24V418.9H50.11v30.65H45.69V418.9H44.56v30.65H39.49V418.9H38.36v30.65H3.46V475h34.9v29.78h1.13V475h5.07v29.78h1.13V475h4.42v28.9h1.13V475h4.09v29.78h1.13V475h3.76v29.78h1.13V475h4.74v29.78h1.13V474H39.49V450.57ZM38.36,468.72H4.59v-4.25H38.36Zm0-5.27H4.59v-4.11H38.36Zm0-5.12H4.59v-3.08H38.36Zm0-7.76v3.67H4.59v-3.67ZM4.59,474v-4.25H38.36V474Z"></path>
  <path class="cls-4" d="M933.93,388.74v-27h-1.06v26.1h-3.82v-26.6H928v26.6h-4.13v-26.1h-1.06v26.1H919v-26.1h-1.06v26.1h-4.13v-26.1h-1.06v26.1H908v-26.1H907v26.1H874.34v21.67H907V434.9H908V409.54h4.74V434.9h1.06V409.54h4.13v24.61H919V409.54h3.82V434.9h1.06V409.54h3.52V434.9h1.06V409.54h4.43V434.9h1.06V408.68H908V388.74ZM907,404.2H875.39v-3.62H907Zm0-4.48H875.39v-3.5H907Zm0-4.36H875.39v-2.62H907Zm0-6.61v3.12H875.39v-3.12Zm-31.57,19.94v-3.62H907v3.62Z"></path>
  <polygon class="cls-3" points="745.23 129.17 741.17 129.17 741.17 135.58 723.35 135.58 723.35 139.64 741.17 139.64 741.17 168.16 680.58 168.16 680.58 139.64 707.57 139.64 707.57 135.58 676.52 135.58 676.52 172.22 773.74 172.22 773.74 168.16 745.23 168.16 745.23 129.17"></polygon>
  <path class="cls-3" d="M1223,249.54V66.59H512.73V242.38H380.08V350.22H295.58V314.63H1.56V606.49h314.9v28l602.83,1.08V740.21h235.78V355.61H1047.23V249.54ZM421.07,351.23h-34.9V248.46H525.78V246h43.32V242H518.81V172.22h50.29v-4.05H518.81V72.68h76v95.49h-8.89v46.5h20.82V210.6H590V172.22h47.46V210.6H622.07v4.05h19.41V172.22h20.78v-4.05h-63.4V72.68H741.17v42.5h4.05V72.68H817v95.49H790.54v4.05h83v-4.05H821.08V72.68h72.81v97.51h4.05V72.68h69.25v95.49h-53v4.05h102.83v-4.05H971.24V72.68h71.28v95.49h-8.66v4.05h12.72V145.75H1127v-4.05h-80.44v-69h99.28v73.59h4.05V72.68h67v92.43h-69v4.05h69v74.29h-67v-57h-4.05V200H1138v4.05h7.85v39.36h-39.1V204.09h13.36V200h-34.33v4.05h16.92v39.36H1056.3V204.09h10.86V200h-14.91v43.42h-11.09V355h-22v84h20.1V434.9h-16V359h18v2.65h21.48V434.9h-6.88V439h17.82V434.9h-6.88V361.69H1149v49.79h-57.6v52.93h4.05V415.54H1149V485.1h-53.54v-2.87h-4.05v2.87H993.84v4.05h97.55v26.16h4.05V489.16H1149v45.77h-53.54v-2.81h-4.05v9.67h4.05V539H1149v42.6h-53.54V560.12h-4.05v24.94h1.7v.58H1149v41.17h-53.54v-21.9h-4.05v21.9H996.2v4.05h90.62v27h4.05v-27H1149v44.3h-60.15v4.05H1149v54.91h-58.12V697.51h-4.05v36.62H977.35V657.86H973.3v76.28H925.37V632.57h.57v-1.7H973.3v6.63h4.05v-6.63h4.08v-4.05h-4.08v-23.2H973.3v23.2H925.94V584H973.3v2.83h4.05v-9.71H973.3V580H925.94v-62.1h-4.05v14H911.22V536h10.66v90.85H861.8V563.17h-4.05v7.4H816.5v4.05h41.24v52.2H797.13v-52.2h2.07v-4.05H783.33v4.05h9.75v52.2H736.22v-52.2H767.9v-4.05h-7.31v-20H774.8v-4.05H693.3V489.16h99.77v57.36h-2.53v4.05h6.59V489.16h41V485.1H612.29v4.05h6.6v61.42h49.94v-4.05H622.95V489.16h66.3v57.36h-3.37v4.05h46.29v5.28h4.05v-5.28h20.31v20H736.22v-3.34h-4.05v59.59H580.32V489.16h12.59V485.1H472.32v4.05H576.26V626.81H455.67V485.1h-110v4.05h106V626.81H322.54v-26.4h-1V489.16h7.07V485.1H317.47V600.41H266.06V511.6h24V489.16H302.2V485.1H282.31v4.05H286v18.39h-19.9V489.16h2.84V485.1H262v44h-6.5v4.05H262v67.29H200.84V533.12h37.21v-4.05H234v-44h-7.31v4.05h3.25v17.93h-29.1V489.16h10.37V485.1H196.78v26h33.15v17.93H161.72V489.16h17.87V485.1H126.8v4.05h30.86v39.91h-2v4.05h41.15v67.29H137.36V533.12h2v-4.05H117.93v4.05H133.3v67.29H83.36V533.12H97.27v-4.05h-18v71.35H7.64V507.13h88.3V479.53H91.89v23.55H7.64V419H90.26v25.58h4.05V415H7.64V320.71H58v70.43H90.26v6.91h4.05v-.13h7.94v-4.05H94.31v-6.78H62.07V320.71h95.59v73.16H117.93v4.05h4v41h20.7V434.9H126v-37h51.57v37H159.69V439h21.92v-41h.29v-4.05H161.72V320.71h47.46v73.16H198.81v4.05h10.37V414.1h4.05V320.71H289.5V356.3h1v78.6H213.24v-3h-4.05V439h117V434.9H294.57V356.3h57.21v78.6h-9.53V439h51.29V434.9H355.83V356.3h30.33v-.05h28.71V434.9h-6.63V439h46.83V434.9H418.93V356.24h58V434.9h-6.12V439h45.31V434.9H481V356.24h63.14V434.9H533V439h15.26V351.23H525.56m-40.42-4.54,37.38,4.54H485.6"></path>
  <text class="cls-5" transform="translate(242.33 379.45) scale(0.88 1)">330</text>
  <text class="cls-5" transform="translate(178.09 359.28) scale(0.88 1)">332</text>
  <text class="cls-5" transform="translate(104.25 359.28) scale(0.88 1)">336</text>
  <text class="cls-5" transform="translate(24.49 359.28) scale(0.88 1)">338</text>
  <text class="cls-5" transform="translate(143.14 418.32) scale(0.88 1)">334</text>
  <text class="cls-5" transform="translate(50.3 464.35) scale(0.88 1)">S3A</text>
  <text class="cls-5" transform="translate(36.4 555.54) scale(0.88 1)">3<tspan class="cls-6" x="5.67" y="0">3</tspan><tspan x="11.28" y="0">9</tspan></text>
  <text class="cls-5" transform="translate(104.25 567.37) scale(0.88 1)">3<tspan class="cls-7" x="5.67" y="0">3</tspan><tspan x="11.15" y="0">7</tspan></text>
  <text class="cls-5" transform="translate(172.11 511.68) scale(0.88 1)">333</text>
  <text class="cls-5" transform="translate(162.26 567.37) scale(0.88 1)">3<tspan class="cls-6" x="5.67" y="0">3</tspan><tspan x="11.28" y="0">5</tspan></text>
  <text class="cls-5" transform="translate(224.38 567.37) scale(0.88 1)">331</text>
  <text class="cls-5" transform="translate(284.39 555.54) scale(0.88 1)">329</text>
  <text class="cls-5" transform="translate(380.7 560.72) scale(0.88 1)">325</text>
  <text class="cls-5" transform="translate(366.51 463.68) scale(0.88 1)">C3A</text>
  <text class="cls-5" transform="translate(315.81 398.28) scale(0.88 1)">328</text>
  <text class="cls-5" transform="translate(377.97 398.28) scale(0.88 1)">326</text>
  <text class="cls-5" transform="translate(441.58 398.28) scale(0.88 1)">3<tspan class="cls-8" x="5.67" y="0">2</tspan><tspan class="cls-9" x="11.21" y="0">4</tspan></text>
  <text class="cls-5" transform="translate(506.46 398.28) scale(0.88 1)">322</text>
  <text class="cls-5" transform="translate(551.73 316.89) scale(0.88 1)">C3E</text>
  <text class="cls-5" transform="translate(646.45 520.18) scale(0.88 1)">315D</text>
  <text class="cls-5" transform="translate(653.76 595.01) scale(0.88 1)">315E</text>
  <text class="cls-5" transform="translate(734.73 520.18) scale(0.88 1)">315C</text>
  <text class="cls-5" transform="translate(757.66 604.11) scale(0.88 1)">315B</text>
  <text class="cls-5" transform="translate(824.03 531.37) scale(0.88 1)">315</text>
  <text class="cls-5" transform="translate(820.08 604.11) scale(0.88 1)">315A</text>
  <text class="cls-5" transform="translate(885.48 582.72) scale(0.88 1)">313</text>
  <text class="cls-5" transform="translate(939.4 558.12) scale(0.88 1)">313D</text>
  <text class="cls-5" transform="translate(939.4 604.11) scale(0.88 1)">313E</text>
  <text class="cls-5" transform="translate(1024.74 562.34) scale(0.88 1)">3<tspan class="cls-10" x="5.67" y="0">0</tspan><tspan x="12.23" y="0">3</tspan></text>
  <text class="cls-5" transform="translate(1024.74 684.39) scale(0.88 1)">3<tspan class="cls-6" x="5.67" y="0">0</tspan><tspan x="12.28" y="0">1</tspan></text>
  <text class="cls-5" transform="translate(939.4 684.39) scale(0.88 1)">3<tspan class="cls-6" x="5.67" y="0">0</tspan><tspan x="12.28" y="0">1A</tspan></text>
  <text class="cls-5" transform="translate(1111.81 607.11) scale(0.88 1)">3<tspan class="cls-10" x="5.67" y="0">0</tspan><tspan x="12.23" y="0">3C</tspan></text>
  <text class="cls-5" transform="translate(1111.81 560.72) scale(0.88 1)">3<tspan class="cls-10" x="5.67" y="0">0</tspan><tspan x="12.23" y="0">3B</tspan></text>
  <text class="cls-5" transform="translate(1111.81 512.72) scale(0.88 1)">3<tspan class="cls-10" x="5.67" y="0">0</tspan><tspan x="12.23" y="0">3A</tspan></text>
  <text class="cls-5" transform="translate(1111.81 451.43) scale(0.88 1)">304A</text>
  <text class="cls-5" transform="translate(1102.32 387.07) scale(0.88 1)">306</text>
  <text class="cls-5" transform="translate(1035.12 398.28) scale(0.88 1)">308</text>
  <text class="cls-5" transform="translate(996.46 320.27) scale(0.88 1)">C3C</text>
  <text class="cls-5" transform="translate(914.35 401.4) scale(0.88 1)">S3B</text>
  <text class="cls-5" transform="translate(1067.58 179.22) scale(0.88 1)">340</text>
  <text class="cls-5" transform="translate(1086.83 109.75) scale(0.88 1)">340C</text>
  <text class="cls-5" transform="translate(1174.81 109.75) scale(0.88 1)">340B</text>
  <text class="cls-5" transform="translate(1174.81 206.05) scale(0.88 1)">340A</text>
  <text class="cls-5" transform="translate(996.46 123.38) scale(0.88 1)">340D</text>
  <text class="cls-5" transform="translate(920.54 123.38) scale(0.88 1)">340E</text>
  <text class="cls-5" transform="translate(886.48 187.23) scale(0.88 1)">C3D</text>
  <text class="cls-5" transform="translate(770.67 209.32) scale(0.88 1)">342A</text>
  <text class="cls-5" transform="translate(774.47 119.14) scale(0.88 1)">342C</text>
  <text class="cls-5" transform="translate(653.76 119.14) scale(0.88 1)">342E</text>
  <text class="cls-5" transform="translate(659.93 213.8) scale(0.88 1)">342</text>
  <text class="cls-5" transform="translate(547.98 123.38) scale(0.88 1)">342F</text>
  <text class="cls-5" transform="translate(774.47 401.4) scale(0.88 1)">314</text>
  <text class="cls-5" transform="translate(869.5 465.13) scale(0.88 1)">C3B</text>
  <text class="cls-5" transform="translate(845.2 119.14) scale(0.88 1)">34B</text>
  <ellipse class="cls-11" cx="632.16" cy="399.78" rx="12.13" ry="12.42"></ellipse>
  <circle class="cls-12" cx="632.08" cy="392.37" r="1.37"></circle>
  <path class="cls-12" d="M634.64,395.31c0-.33-.26-.93-.59-.93h-3.82c-.33,0-.59.61-.59.93L628.27,401a.59.59,0,1,0,1.18,0l1-4.8h.1l-1.13,6.06a.38.38,0,0,0,.34.4h.7v5.16a.74.74,0,0,0,1.47,0v-5.16h.34v5.16a.74.74,0,0,0,1.47,0v-5.16h.58a.38.38,0,0,0,.34-.4l-1-6.06h.1l.91,4.8a.59.59,0,1,0,1.18,0Z"></path>
  <ellipse class="cls-11" cx="824.7" cy="402.4" rx="12.13" ry="12.42"></ellipse>
  <circle class="cls-12" cx="819.21" cy="394.99" r="1.37"></circle>
  <path class="cls-12" d="M821.8,397h-5.19c-.33,0-.59.61-.59.93v5.69a.59.59,0,1,0,1.18,0v-3.89l.15,0a.74.74,0,0,1,.21,0v10.7a.74.74,0,0,0,1.47,0v-6h.34v6a.74.74,0,0,0,1.47,0v-10.7a.74.74,0,0,1,.21,0l.15,0v3.89a.59.59,0,1,0,1.18,0v-5.69C822.39,397.61,822.13,397,821.8,397Z"></path>
  <circle class="cls-12" cx="829.56" cy="394.99" r="1.37"></circle>
  <path class="cls-12" d="M832.12,397.93c0-.33-.26-.93-.59-.93h-3.82c-.33,0-.59.61-.59.93l-1.37,5.69a.59.59,0,1,0,1.18,0l1-4.8h.1l-1.13,6.06a.38.38,0,0,0,.34.4h.7v5.16a.74.74,0,0,0,1.47,0v-5.16h.34v5.16a.74.74,0,0,0,1.47,0v-5.16h.58a.38.38,0,0,0,.34-.4l-1-6.06h.1l.91,4.8a.59.59,0,1,0,1.18,0Z"></path>
  <path class="cls-12" d="M824.76,411.35c0,.11-.15.2-.33.2h0c-.18,0-.33-.09-.33-.2V393.46c0-.11.15-.2.33-.2h0c.18,0,.33.09.33.2Z"></path>
  <ellipse class="cls-11" cx="857.33" cy="402.39" rx="12.13" ry="12.42"></ellipse>
  <circle class="cls-12" cx="851.84" cy="394.98" r="1.37"></circle>
  <path class="cls-12" d="M854.43,397h-5.19c-.33,0-.59.61-.59.93v5.69a.59.59,0,1,0,1.18,0v-3.89l.15,0a.74.74,0,0,1,.21,0v10.7a.74.74,0,0,0,1.47,0v-6H852v6a.74.74,0,0,0,1.47,0v-10.7a.74.74,0,0,1,.21,0l.15,0v3.89a.59.59,0,1,0,1.18,0v-5.69C855,397.59,854.76,397,854.43,397Z"></path>
  <circle class="cls-12" cx="862.19" cy="394.98" r="1.37"></circle>
  <path class="cls-12" d="M864.75,397.92c0-.33-.26-.93-.59-.93h-3.82c-.33,0-.59.61-.59.93l-1.37,5.69a.59.59,0,1,0,1.18,0l1-4.8h.1l-1.13,6.06a.38.38,0,0,0,.34.4h.7v5.16a.74.74,0,0,0,1.47,0v-5.16h.34v5.16a.74.74,0,0,0,1.47,0v-5.16h.58a.38.38,0,0,0,.34-.4l-1-6.06h.1l.91,4.8a.59.59,0,1,0,1.18,0Z"></path>
  <path class="cls-12" d="M857.38,411.34c0,.11-.15.2-.33.2h0c-.18,0-.33-.09-.33-.2V393.44c0-.11.15-.2.33-.2h0c.18,0,.33.09.33.2Z"></path>
  <ellipse class="cls-11" cx="715.11" cy="154.49" rx="12.13" ry="12.42"></ellipse>
  <circle class="cls-12" cx="709.62" cy="147.08" r="1.37"></circle>
  <path class="cls-12" d="M712.21,149.08H707c-.33,0-.59.61-.59.93v5.69a.59.59,0,1,0,1.18,0v-3.89l.15,0a.74.74,0,0,1,.21,0v10.7a.74.74,0,0,0,1.47,0v-6h.34v6a.74.74,0,0,0,1.47,0v-10.7a.74.74,0,0,1,.21,0l.15,0v3.89a.59.59,0,1,0,1.18,0V150C712.8,149.69,712.53,149.08,712.21,149.08Z"></path>
  <circle class="cls-12" cx="719.97" cy="147.08" r="1.37"></circle>
  <path class="cls-12" d="M722.52,150c0-.33-.26-.93-.59-.93h-3.82c-.33,0-.59.61-.59.93l-1.37,5.69a.59.59,0,1,0,1.18,0l1-4.8h.1L717.34,157a.38.38,0,0,0,.34.4h.7v5.16a.74.74,0,0,0,1.47,0v-5.16h.34v5.16a.74.74,0,0,0,1.47,0v-5.16h.58a.38.38,0,0,0,.34-.4l-1-6.06h.1l.91,4.8a.59.59,0,1,0,1.18,0Z"></path>
  <path class="cls-12" d="M715.16,163.43c0,.11-.15.2-.33.2h0c-.18,0-.33-.09-.33-.2V145.54c0-.11.15-.2.33-.2h0c.18,0,.33.09.33.2Z"></path>
  <ellipse class="cls-13" cx="948.54" cy="509.85" rx="12.09" ry="12.38"></ellipse>
  <path class="cls-12" d="M941.39,504.9v12.31h6.9V504.9Zm3.45,2.26a.61.61,0,1,1-.61.61A.61.61,0,0,1,944.84,507.16Zm1.41,4.43a.26.26,0,0,1-.52,0v-1.72h-.16v4.74a.33.33,0,1,1-.65,0V512h-.15v2.66a.33.33,0,1,1-.65,0v-4.74h-.16v1.72a.26.26,0,0,1-.52,0v-2.52c0-.15.12-.41.26-.41H946c.14,0,.26.27.26.41Z"></path>
  <path class="cls-12" d="M948.8,504.9v12.31h6.9V504.9Zm3.45,2.26a.61.61,0,1,1-.61.61A.61.61,0,0,1,952.25,507.16Zm1.41,4.43a.26.26,0,1,1-.52,0v-1.72H953v4.74a.33.33,0,1,1-.65,0V512h-.15v2.66a.33.33,0,1,1-.65,0v-4.74h-.16v1.72a.26.26,0,1,1-.52,0v-2.52c0-.15.12-.41.26-.41h2.3c.14,0,.26.27.26.41Z"></path>
  <rect class="cls-12" x="944.72" y="502.49" width="7.66" height="2.07"></rect>
  <polygon class="cls-12" points="957.6 508.37 956.24 510.2 956.99 510.2 956.99 512.68 958.2 512.68 958.2 510.2 958.96 510.2 957.6 508.37"></polygon>
  <polygon class="cls-12" points="939.49 512.68 938.13 510.85 938.89 510.85 938.89 508.37 940.1 508.37 940.1 510.85 940.85 510.85 939.49 512.68"></polygon>
  <ellipse class="cls-11" cx="724.61" cy="389.07" rx="12.13" ry="12.42"></ellipse>
  <circle class="cls-12" cx="724.69" cy="381.66" r="1.37"></circle>
  <path class="cls-12" d="M727.28,383.66H722.1c-.33,0-.59.61-.59.93v5.69a.59.59,0,1,0,1.18,0V386.4l.15,0a.74.74,0,0,1,.21,0v10.7a.74.74,0,0,0,1.47,0v-6h.34v6a.74.74,0,0,0,1.47,0v-10.7a.74.74,0,0,1,.21,0l.15,0v3.89a.59.59,0,1,0,1.18,0V384.6C727.87,384.27,727.61,383.66,727.28,383.66Z"></path>
  <rect class="cls-14" x="589.97" y="246.03" width="383.33" height="115.25"></rect>
  <polygon class="cls-3" points="525.78 356.15 523.51 356.24 523.51 308.77 428.01 308.77 428.01 353.14 425.99 353.14 425.99 306.74 525.78 306.64 525.78 356.15"></polygon>
  <polygon class="cls-3" points="486.85 355.62 486.85 308.77 484.13 308.77 484.13 353.44 476.89 353.44 476.89 308.77 473.93 308.77 473.93 353.44 467.28 353.44 467.28 308.77 463.61 308.77 463.61 353.44 456.6 353.44 456.6 308.77 453.64 308.77 453.64 353.44 446.28 353.44 446.28 308.77 442.96 308.77 442.96 353.44 435.24 353.44 435.24 308.77 433 308.77 433 351.54 430.97 351.54 430.97 306.74 437.27 306.74 437.27 351.41 440.94 351.41 440.94 306.74 448.3 306.74 448.3 351.41 451.62 351.41 451.62 306.74 458.63 306.74 458.63 351.41 461.58 351.41 461.58 306.74 469.3 306.74 469.3 351.41 471.9 351.41 471.9 306.74 478.91 306.74 478.91 351.41 482.1 351.41 482.1 306.74 488.88 306.74 488.88 349.23 518.54 307.17 520.2 308.34 486.85 355.62"></polygon>
  <polygon class="cls-3" points="494.4 343.96 492.37 344.97 492.37 307.76 494.4 307.76 494.4 343.96"></polygon>
  <polygon class="cls-3" points="498.85 337.57 496.82 338.58 496.82 307.76 498.85 307.76 498.85 337.57"></polygon>
  <rect class="cls-3" x="501.98" y="307.76" width="2.03" height="23.22"></rect>
  <polygon class="cls-3" points="508.1 324.43 506.07 325.44 506.07 307.76 508.1 307.76 508.1 324.43"></polygon>
  <rect class="cls-3" x="510.35" y="307.76" width="2.03" height="11.14"></rect>
  <polygon class="cls-3" points="925.04 531.84 973.3 531.84 973.3 536.13 925.94 536.13 925.04 531.84"></polygon>
  <text class="cls-5" transform="translate(506.98 559.37) scale(0.92 1)">319</text>
  <text class="cls-5" transform="translate(455.65 284.9) scale(0.92 1)">S3D</text>
  <text class="cls-5" transform="translate(736.74 309.3) scale(0.88 1)">Open <tspan class="cls-15" x="27.92" y="0">t</tspan><tspan class="cls-16" x="31.57" y="0">o floor bel</tspan><tspan class="cls-17" x="79.78" y="0">o</tspan><tspan class="cls-16" x="85.61" y="0">w</tspan></text>
</svg>
