<?xml version="1.0" encoding="UTF-8"?>
<svg xmlns="http://www.w3.org/2000/svg" id="Layer_1" data-name="Layer 1" viewBox="0 0 1224 792">
  <defs>
    <style>.cls-1{fill:#d2d3d4;}.cls-2{fill:#ffce10;}.cls-3{fill:#59595b;}.cls-18,.cls-22,.cls-25,.cls-26,.cls-4{font-size:9px;fill:#58595b;font-family:Gotham-Bold, Gotham;font-weight:700;}.cls-22,.cls-5{letter-spacing:-0.04em;}.cls-6{letter-spacing:-0.01em;}.cls-7{letter-spacing:-0.03em;}.cls-8{letter-spacing:-0.02em;}.cls-9{letter-spacing:0em;}.cls-10{letter-spacing:-0.01em;}.cls-11{letter-spacing:0em;}.cls-12{letter-spacing:-0.01em;}.cls-13{letter-spacing:0em;}.cls-14,.cls-26{letter-spacing:-0.02em;}.cls-15{letter-spacing:-0.02em;}.cls-16{letter-spacing:-0.02em;}.cls-17{letter-spacing:-0.03em;}.cls-18,.cls-20{letter-spacing:-0.04em;}.cls-19{letter-spacing:-0.08em;}.cls-21{letter-spacing:0.01em;}.cls-23{letter-spacing:0em;}.cls-24,.cls-25{letter-spacing:-0.01em;}.cls-27{letter-spacing:-0.05em;}.cls-28{fill:none;stroke:#59595b;stroke-miterlimit:10;}.cls-29{letter-spacing:-0.03em;}.cls-30{fill:#8dc63f;}.cls-31{fill:#fff;}.cls-32{fill:#1b75bc;}</style>
  </defs>
  <title>HomerBabbidgeLibrary_LevelA</title>
  <rect class="cls-1" x="5.37" y="118.34" width="424.41" height="125.48"></rect>
  <rect class="cls-1" x="429.78" y="195.72" width="216.15" height="89.79"></rect>
  <rect class="cls-1" x="599.83" y="279.89" width="46.1" height="40.82"></rect>
  <rect class="cls-1" x="601.13" y="369.02" width="21.76" height="178.19"></rect>
  <rect class="cls-1" x="432.41" y="462.46" width="170.97" height="81.39"></rect>
  <rect class="cls-1" x="622.15" y="412.2" width="79.37" height="131.78"></rect>
  <rect class="cls-1" x="649.15" y="403.74" width="52.37" height="20.94"></rect>
  <rect class="cls-1" x="730.45" y="403.74" width="455.12" height="110.3"></rect>
  <rect class="cls-1" x="1106.19" y="496.94" width="79.4" height="20.65"></rect>
  <rect class="cls-1" x="1084.7" y="343.3" width="100.87" height="60.44"></rect>
  <rect class="cls-1" x="1106.19" y="251.01" width="79.38" height="92.29"></rect>
  <rect class="cls-1" x="1071.6" y="251.01" width="31.56" height="52.59"></rect>
  <rect class="cls-1" x="680.77" y="283.41" width="365.8" height="90.61"></rect>
  <rect class="cls-1" x="794.48" y="235.92" width="120.93" height="44.26"></rect>
  <rect class="cls-1" x="813.6" y="197.91" width="101.9" height="54.92"></rect>
  <rect class="cls-1" x="915.52" y="113.88" width="105.49" height="170.22"></rect>
  <rect class="cls-1" x="802.28" y="118.34" width="124.84" height="76.35"></rect>
  <rect class="cls-1" x="690.84" y="118.34" width="108.22" height="51.19"></rect>
  <rect class="cls-1" x="650.13" y="118.34" width="37.48" height="42.38"></rect>
  <rect class="cls-1" x="472.55" y="115.6" width="177.58" height="53.94"></rect>
  <rect class="cls-1" x="426.93" y="118.34" width="45.6" height="60.5"></rect>
  <rect class="cls-1" x="176.47" y="201.05" width="247.94" height="84.62"></rect>
  <rect class="cls-1" x="5.37" y="217.49" width="167.9" height="46.77"></rect>
  <rect class="cls-1" x="5.91" y="256.15" width="83.53" height="457.82"></rect>
  <rect class="cls-1" x="78.54" y="566.86" width="26.99" height="48.18"></rect>
  <rect class="cls-1" x="137.79" y="599.98" width="39.73" height="27.35"></rect>
  <rect class="cls-1" x="256.86" y="567.19" width="27.97" height="46.24"></rect>
  <rect class="cls-1" x="436.36" y="569.64" width="79.14" height="144.33"></rect>
  <rect class="cls-1" x="512.55" y="676.09" width="92.62" height="37.88"></rect>
  <rect class="cls-1" x="652.96" y="678.12" width="41.52" height="35.84"></rect>
  <rect class="cls-1" x="540.83" y="563.97" width="118.12" height="91.29"></rect>
  <rect class="cls-1" x="699.18" y="614.11" width="132.87" height="99.85"></rect>
  <rect class="cls-1" x="681.88" y="563.97" width="45.34" height="31.22"></rect>
  <rect class="cls-1" x="753.68" y="565.94" width="12.03" height="56.57"></rect>
  <rect class="cls-1" x="681.88" y="598.42" width="56.49" height="86.06"></rect>
  <rect class="cls-1" x="787.47" y="538.63" width="58.74" height="72.26"></rect>
  <rect class="cls-1" x="849.48" y="538.63" width="231.99" height="57.07"></rect>
  <polygon class="cls-1" points="832.06 592.12 1187.21 592.12 1187.94 695.13 1206.55 695.66 1202.74 705.23 1190.09 711.59 1187.21 714.85 832.06 713.77 832.06 592.12"></polygon>
  <rect class="cls-1" x="1106.38" y="542.34" width="81.86" height="66.4"></rect>
  <rect class="cls-1" x="1057.49" y="561.67" width="48.89" height="37.25"></rect>
  <polygon class="cls-1" points="680.78 197.72 764.73 197.72 764.73 263.14 699.28 263.67 693.54 265 687.16 256.15 679.37 248.89 680.78 242.29 680.78 197.72"></polygon>
  <rect class="cls-1" x="1017.32" y="111.02" width="170.67" height="107.95"></rect>
  <rect class="cls-2" x="106.68" y="201.56" width="29.01" height="65.93"></rect>
  <rect class="cls-2" x="108.23" y="566.86" width="29.01" height="61.82"></rect>
  <rect class="cls-2" x="723.87" y="562.72" width="29.01" height="64.33"></rect>
  <rect class="cls-2" x="721.58" y="198.81" width="29.01" height="64.57"></rect>
  <rect class="cls-2" x="1189.15" y="108.78" width="33.86" height="64.57"></rect>
  <rect class="cls-2" x="1189.15" y="154.57" width="16.93" height="91.84"></rect>
  <polygon class="cls-2" points="1222.7 504.75 1206.2 504.75 1205.45 493.65 1198.73 494.44 1192.51 499.19 1191.48 505.03 1188.84 504.75 1188.84 436.87 1222.7 436.87 1222.7 504.75"></polygon>
  <rect class="cls-3" x="659.01" y="580.15" width="5.37" height="62.18"></rect>
  <polygon class="cls-3" points="1103.16 558.43 1099 558.43 1099 561.65 1103.16 561.65 1103.16 598.38 1106.38 598.38 1106.38 542.34 1119.82 542.34 1119.82 539.12 1103.16 539.12 1103.16 558.43"></polygon>
  <rect class="cls-3" x="1001.71" y="595.7" width="45.94" height="3.22"></rect>
  <polygon class="cls-3" points="1009.52 405.11 1009.52 401.88 936.58 401.88 936.58 517.27 1009.52 517.27 1009.52 514.05 939.8 514.05 939.8 405.11 1009.52 405.11"></polygon>
  <polygon class="cls-3" points="926.21 514.05 885.35 514.05 885.35 453.84 885.35 452.23 885.35 403.74 924.04 403.74 924.04 400.52 848.9 400.52 848.9 403.74 882.13 403.74 882.13 450.62 835.26 450.62 835.26 403.74 837.06 403.74 837.06 400.52 774.3 400.52 774.3 403.74 780.86 403.74 780.86 427.32 784.08 427.32 784.08 403.74 832.04 403.74 832.04 453.84 882.13 453.84 882.13 514.05 749.77 514.05 749.77 495.26 745.96 495.26 745.96 471.56 742.74 471.56 742.74 498.49 746.55 498.49 746.55 514.05 741.09 514.05 741.09 517.27 926.21 517.27 926.21 514.05"></polygon>
  <polygon class="cls-3" points="763.39 403.49 760.17 403.49 760.17 449.53 730.45 449.53 730.45 403.74 749.94 403.74 749.94 400.52 727.22 400.52 727.22 515.66 730.45 515.66 730.45 452.75 763.39 452.75 763.39 403.49"></polygon>
  <rect class="cls-3" x="1022.07" y="402.13" width="3.22" height="113.53"></rect>
  <polygon class="cls-3" points="1037.29 405.11 1081.48 405.11 1081.48 514.05 1036.2 514.05 1036.2 517.27 1092.29 517.27 1092.29 514.05 1084.7 514.05 1084.7 403.49 1084.7 401.88 1084.7 371.89 1103.16 371.89 1103.16 520.81 1172.18 520.81 1172.18 517.59 1106.38 517.59 1106.38 370.28 1106.38 368.67 1106.38 340.08 1081.48 340.08 1081.48 354.76 1084.7 354.76 1084.7 343.31 1103.16 343.31 1103.16 368.67 1081.48 368.67 1081.48 401.88 1037.29 401.88 1037.29 405.11"></polygon>
  <rect class="cls-3" x="922.67" y="374.19" width="72.15" height="3.22"></rect>
  <rect class="cls-3" x="856.77" y="307.86" width="41.77" height="3.22"></rect>
  <polygon class="cls-3" points="763.08 374.44 734.28 374.44 734.28 377.66 763.08 377.66 764.69 377.66 835.38 377.66 835.38 374.44 766.3 374.44 766.3 283.41 853.25 283.41 853.25 374.19 846.77 374.19 846.77 377.41 858.06 377.41 858.06 374.19 856.47 374.19 856.47 283.41 910.29 283.41 910.29 373.84 869.59 373.84 869.59 377.06 913.52 377.06 913.52 283.41 1009.38 283.41 1009.38 316.59 1012.6 316.59 1012.6 283.41 1046.57 283.41 1046.57 327.19 1010.99 327.19 1010.99 330.41 1046.57 330.41 1046.57 374.19 1012.6 374.19 1012.6 341.69 1009.38 341.69 1009.38 374.19 1006.8 374.19 1006.8 377.41 1049.79 377.41 1049.79 280.19 917.11 280.19 917.11 194.69 802.57 194.69 802.57 197.91 810.38 197.91 810.38 220.45 813.6 220.45 813.6 197.91 913.89 197.91 913.89 280.19 912.74 280.19 910.29 280.19 854.86 280.19 853.25 280.19 832.72 280.19 832.72 233.68 792.87 233.68 792.87 236.9 829.49 236.9 829.49 280.19 794.48 280.19 794.48 248.12 791.26 248.12 791.26 261.6 784.57 261.6 784.57 264.83 791.26 264.83 791.26 280.19 778.88 280.19 778.88 272.27 775.66 272.27 775.66 280.19 764.69 280.19 763.08 280.19 722.53 280.19 720.92 280.19 677.55 280.19 677.55 377.41 700.04 377.41 700.04 374.19 680.77 374.19 680.77 283.41 719.31 283.41 719.31 374.19 710.86 374.19 710.86 377.41 722.53 377.41 722.53 283.41 763.08 283.41 763.08 374.44"></polygon>
  <rect class="cls-3" x="701.52" y="471.56" width="3.22" height="56.23"></rect>
  <polygon class="cls-3" points="89.44 285.94 55.66 285.94 55.66 289.16 89.44 289.16 89.44 319.11 92.66 319.11 92.66 280.54 89.44 280.54 89.44 285.94"></polygon>
  <polygon class="cls-3" points="1017.79 197.72 1013.79 197.72 1013.79 200.94 1021.01 200.94 1021.01 161.55 1017.79 161.55 1017.79 197.72"></polygon>
  <path class="cls-3" d="M723.83,266.57V200.94h25.26v61.75h-13.4v3.22h31.64V249.76H764.1v12.93H752.3V229.15h14.36v-3.22H752.3v-8.07h15V197.72h-88v9.73h3.22v-6.51h38V228H679.37v22.34l14.9,16.18Zm40.27-65.63v13.7H752.3v-13.7Zm-81.51,30.33h38v32.08H695.68l-13.09-14.22Z"></path>
  <polygon class="cls-3" points="541.96 502.57 538.74 502.57 538.74 539.37 527.81 539.37 527.81 542.59 538.74 542.59 538.74 547.21 574.42 547.21 574.42 543.99 541.96 543.99 541.96 502.57"></polygon>
  <path class="cls-3" d="M704.74,439.26V400.52H645.93V409h-17.5V363.65H595.76v93.58H426.93v92h5.37V462.6h37.49v21.54H431.42v3.22h38.37V544H448.32v3.51h33.27V544H473V487.36h36.86v52h-2v3.38H500.1V544h-7v3.51h7v4.37h3.22V546h7.78v-3.38h7.45v-3.22h-3.31V505.17h65.69v6.4h4.24v35.63H633V544h-44.6V511.58h55v35.63h61.4v-7.46h-3.22V544h-55V507.4h54.8v-3.22h-54.8V471.56h-3.22v36.8h-59.2V462.6h17V369h21.93v40H610.71v3.22h35.22V455H610.71v3.22h38.44v-3.38h52.37v4.11h3.22v-7.33H649.15V403.74h52.37v35.52ZM509.87,484.14H473V462.6h36.86ZM580.92,502H517.68V462.6h63.24Z"></path>
  <polygon class="cls-3" points="658.95 652.56 658.95 655.27 625.75 655.27 625.75 612.86 661.69 612.86 661.69 609.63 625.75 609.63 625.75 566.69 657.65 566.69 657.65 568.02 660.88 568.02 660.88 563.47 625.75 563.47 624.14 563.47 537.61 563.47 537.61 566.69 622.53 566.69 622.53 609.63 622.53 612.86 622.53 655.27 540.72 655.27 540.72 578.97 537.5 578.97 537.5 658.49 662.17 658.49 662.17 652.56 658.95 652.56"></polygon>
  <polygon class="cls-3" points="284.82 585.13 284.82 613.43 256.86 613.43 256.86 567.19 284.82 567.19 284.82 574.58 288.05 574.58 288.05 563.97 235.37 563.97 235.37 616.65 288.05 616.65 288.05 585.13 284.82 585.13"></polygon>
  <polygon class="cls-3" points="475.75 169.53 475.75 143.31 475.77 143.31 475.77 115.6 472.55 115.6 472.55 141.79 459.9 141.79 459.9 127.12 456.68 127.12 456.68 145.01 472.53 145.01 472.53 169.53 472.53 171.14 472.53 178.84 439.93 178.84 439.93 182.06 475.75 182.06 475.75 172.75 491.48 172.75 491.48 180.45 494.7 180.45 494.7 172.75 504.58 172.75 504.58 169.53 475.75 169.53"></polygon>
  <text class="cls-4" transform="translate(50.84 174.24) scale(0.95 1)">
    <tspan class="cls-5">A</tspan>
    <tspan x="6.75" y="0">-81</tspan>
  </text>
  <text class="cls-4" transform="translate(188.67 221.93) scale(0.95 1)">A83</text>
  <text class="cls-4" transform="translate(149.65 174.24) scale(0.95 1)">A85</text>
  <text class="cls-4" transform="translate(206.96 267) scale(0.95 1)">
    <tspan class="cls-5">A</tspan>
    <tspan x="6.75" y="0">-82</tspan>
  </text>
  <text class="cls-4" transform="translate(288.95 249.25) scale(0.95 1)">
    <tspan class="cls-5">A</tspan>
    <tspan x="6.75" y="0">-86</tspan>
  </text>
  <text class="cls-4" transform="translate(348.46 241.67) scale(0.95 1)">
    <tspan class="cls-5">A</tspan>
    <tspan x="6.75" y="0">-</tspan>
    <tspan class="cls-6" x="10.42" y="0">8</tspan>
    <tspan x="16" y="0">7</tspan>
  </text>
  <text class="cls-4" transform="translate(386.3 249.25) scale(0.95 1)">A05A</text>
  <text class="cls-4" transform="translate(464.17 241.87) scale(0.95 1)">A05</text>
  <text class="cls-4" transform="translate(439.93 158.98) scale(0.95 1)">A06</text>
  <text class="cls-4" transform="translate(485.89 146.62) scale(0.95 1)">A<tspan class="cls-7" x="7.11" y="0">0</tspan><tspan x="13.45" y="0">7</tspan></text>
  <text class="cls-4" transform="translate(527.81 146.62) scale(0.95 1)">A08</text>
  <text class="cls-4" transform="translate(568.56 146.62) scale(0.95 1)">A09</text>
  <text class="cls-4" transform="translate(618.43 146.62) scale(0.95 1)">A10</text>
  <text class="cls-4" transform="translate(663.25 141.07) scale(0.95 1)">A11</text>
  <text class="cls-4" transform="translate(527.81 243.82) scale(0.95 1)">C<tspan class="cls-8" x="6.64" y="0">A</tspan><tspan class="cls-9" x="13.57" y="0">A</tspan></text>
  <text class="cls-4" transform="translate(563.41 224.95) scale(0.95 1)">A04</text>
  <text class="cls-4" transform="translate(611.68 224.95) scale(0.95 1)">A<tspan class="cls-10" x="7.11" y="0">0</tspan><tspan class="cls-11" x="13.59" y="0">3</tspan></text>
  <text class="cls-4" transform="translate(588.5 268.07) scale(0.95 1)">A<tspan class="cls-10" x="7.11" y="0">0</tspan><tspan x="13.59" y="0">2</tspan></text>
  <text class="cls-4" transform="translate(694.98 249.25) scale(0.95 1)">A19</text>
  <text class="cls-4" transform="translate(692.41 219.14) scale(0.95 1)">A18</text>
  <text class="cls-4" transform="translate(735.36 145.96) scale(0.95 1)">A12</text>
  <text class="cls-4" transform="translate(850.09 154.59) scale(0.95 1)">A13</text>
  <text class="cls-4" transform="translate(863.67 232.7) scale(0.95 1)">A14</text>
  <text class="cls-4" transform="translate(804.19 263.2) scale(0.95 1)">A16</text>
  <text class="cls-4" transform="translate(929.25 256.15) scale(0.95 1)">A<tspan class="cls-12" x="7.11" y="0">2</tspan><tspan class="cls-13" x="12.67" y="0">7</tspan></text>
  <text class="cls-4" transform="translate(800.72 334.21) scale(0.95 1)">A22</text>
  <text class="cls-4" transform="translate(734.28 334.21) scale(0.95 1)">A21</text>
  <text class="cls-4" transform="translate(689.19 334.21) scale(0.95 1)">A20</text>
  <text class="cls-4" transform="translate(875.35 345.45) scale(0.95 1)">A23</text>
  <text class="cls-4" transform="translate(875.35 299) scale(0.95 1)">A15</text>
  <text class="cls-4" transform="translate(952.1 332.29) scale(0.95 1)">A<tspan class="cls-14" x="7.11" y="0">2</tspan><tspan x="12.58" y="0">4</tspan></text>
  <text class="cls-4" transform="translate(1021.01 355.51) scale(0.95 1)">A26</text>
  <text class="cls-4" transform="translate(1021.01 307.86) scale(0.95 1)">A25</text>
  <text class="cls-4" transform="translate(1078.54 279.89) scale(0.95 1)">A33</text>
  <text class="cls-4" transform="translate(1125.87 279.89) scale(0.95 1)">A<tspan class="cls-12" x="7.11" y="0">3</tspan><tspan x="12.65" y="0">5</tspan></text>
  <text class="cls-4" transform="translate(1165.74 279.89) scale(0.95 1)">A36</text>
  <text class="cls-4" transform="translate(1044.24 459.58) scale(0.95 1)">A<tspan class="cls-15" x="7.11" y="0">3</tspan><tspan class="cls-13" x="12.52" y="0">7</tspan></text>
  <text class="cls-4" transform="translate(970.71 459.58) scale(0.95 1)">A38</text>
  <text class="cls-4" transform="translate(901.7 458.11) scale(0.95 1)">A<tspan class="cls-12" x="7.11" y="0">3</tspan><tspan x="12.65" y="0">9</tspan></text>
  <text class="cls-4" transform="translate(846.4 430.45) scale(0.95 1)">A40</text>
  <text class="cls-4" transform="translate(799.53 470.53) scale(0.95 1)">A<tspan class="cls-16" x="7.11" y="0">4</tspan><tspan x="13.13" y="0">1</tspan></text>
  <text class="cls-4" transform="translate(736.09 430.45) scale(0.95 1)">A43</text>
  <text class="cls-4" transform="translate(664.38 430.45) scale(0.95 1)">A44</text>
  <text class="cls-4" transform="translate(664.33 480.6) scale(0.95 1)">A45</text>
  <text class="cls-4" transform="translate(664.38 529.93) scale(0.95 1)">A46</text>
  <text class="cls-4" transform="translate(603.27 486.91) scale(0.95 1)">A50</text>
  <text class="cls-4" transform="translate(612 436.87) scale(0.95 1)">A<tspan class="cls-10" x="7.11" y="0">4</tspan><tspan x="13.22" y="0">9</tspan></text>
  <text class="cls-4" transform="translate(602.19 392.43) scale(0.95 1)">A48</text>
  <text class="cls-4" transform="translate(552.5 530.99) scale(0.95 1)">A<tspan class="cls-10" x="7.11" y="0">5</tspan><tspan x="12.69" y="0">2</tspan></text>
  <text class="cls-4" transform="translate(517.89 529.92) scale(0.95 1)">A<tspan class="cls-12" x="7.11" y="0">5</tspan><tspan x="12.73" y="0">3</tspan></text>
  <text class="cls-4" transform="translate(456.79 592.12) scale(0.95 1)">A55</text>
  <text class="cls-4" transform="translate(464.17 655.21) scale(0.95 1)">A54</text>
  <text class="cls-4" transform="translate(570.78 613.75) scale(0.95 1)">A65</text>
  <text class="cls-4" transform="translate(631.17 596.79) scale(0.95 1)">A64</text>
  <text class="cls-4" transform="translate(633.38 636.82) scale(0.95 1)">A<tspan class="cls-10" x="7.11" y="0">6</tspan><tspan x="12.98" y="0">3</tspan></text>
  <text class="cls-4" transform="translate(692.41 585.13) scale(0.95 1)">A62</text>
  <text class="cls-4" transform="translate(691.75 615.04) scale(0.95 1)">A<tspan class="cls-10" x="7.11" y="0">6</tspan><tspan x="12.98" y="0">1</tspan></text>
  <text class="cls-4" transform="translate(719.4 662.9) scale(0.95 1)">A60</text>
  <text class="cls-4" transform="translate(663.25 697.48) scale(0.95 1)">A<tspan class="cls-12" x="7.11" y="0">5</tspan><tspan x="12.73" y="0">9</tspan></text>
  <text class="cls-4" transform="translate(782.57 676.09) scale(0.95 1)">A<tspan class="cls-16" x="7.11" y="0">7</tspan><tspan x="12.5" y="0">6</tspan></text>
  <text class="cls-4" transform="translate(912.05 664.84) scale(0.95 1)">A<tspan class="cls-17" x="7.11" y="0">7</tspan><tspan x="12.46" y="0">5</tspan></text>
  <text class="cls-18" transform="translate(1048.55 666.99) scale(0.95 1)">A-<tspan class="cls-19" x="10.06" y="0">7</tspan><tspan class="cls-13" x="14.87" y="0">4</tspan></text>
  <text class="cls-4" transform="translate(804.65 575.53) scale(0.95 1)">
    <tspan class="cls-20">A</tspan>
    <tspan x="6.75" y="0">-66</tspan>
  </text>
  <text class="cls-4" transform="translate(1136.81 617.66) scale(0.95 1)">
    <tspan class="cls-20">A-</tspan>
    <tspan class="cls-15" x="10.06" y="0">7</tspan>
    <tspan x="15.45" y="0">3</tspan>
  </text>
  <text class="cls-4" transform="translate(1038 573.05) scale(0.95 1)">
    <tspan class="cls-20">A-</tspan>
    <tspan class="cls-14" x="10.06" y="0">7</tspan>
    <tspan x="15.5" y="0">2</tspan>
  </text>
  <text class="cls-4" transform="translate(994.43 573.38) scale(0.95 1)">
    <tspan class="cls-20">A-</tspan>
    <tspan class="cls-21" x="10.06" y="0">7</tspan>
    <tspan x="15.72" y="0">1</tspan>
  </text>
  <text class="cls-4" transform="translate(958.77 574.45) scale(0.95 1)">
    <tspan class="cls-20">A-</tspan>
    <tspan class="cls-15" x="10.06" y="0">7</tspan>
    <tspan x="15.45" y="0">0</tspan>
  </text>
  <text class="cls-4" transform="translate(924.49 574.45) scale(0.95 1)">
    <tspan class="cls-20">A</tspan>
    <tspan x="6.75" y="0">-</tspan>
    <tspan class="cls-10" x="10.42" y="0">6</tspan>
    <tspan x="16.29" y="0">9</tspan>
  </text>
  <text class="cls-4" transform="translate(890.04 574.45) scale(0.95 1)">
    <tspan class="cls-20">A</tspan>
    <tspan x="6.75" y="0">-68</tspan>
  </text>
  <text class="cls-4" transform="translate(856.25 574.83) scale(0.95 1)">
    <tspan class="cls-20">A</tspan>
    <tspan x="6.75" y="0">-</tspan>
    <tspan class="cls-14" x="10.42" y="0">6</tspan>
    <tspan x="16.24" y="0">7</tspan>
  </text>
  <text class="cls-4" transform="translate(260.35 583.18) scale(0.95 1)">A<tspan class="cls-12" x="7.11" y="0">0</tspan><tspan x="13.63" y="0">1A</tspan></text>
  <text class="cls-4" transform="translate(146.12 616.65) scale(0.95 1)">A<tspan class="cls-12" x="7.11" y="0">0</tspan><tspan x="13.63" y="0">1B</tspan></text>
  <text class="cls-22" transform="translate(36.06 680.71) scale(0.95 1)">A-<tspan class="cls-23" x="10.06" y="0">77</tspan></text>
  <text class="cls-22" transform="translate(36.06 547.21) scale(0.95 1)">A-<tspan class="cls-10" x="10.06" y="0">7</tspan><tspan class="cls-23" x="15.54" y="0">8</tspan></text>
  <text class="cls-4" transform="translate(242.86 494.85) scale(0.95 1)">A<tspan class="cls-12" x="7.11" y="0">0</tspan><tspan x="13.63" y="0">1</tspan></text>
  <text class="cls-4" transform="translate(31.43 426.19) scale(0.95 1)">
    <tspan class="cls-5">A-</tspan>
    <tspan class="cls-14" x="10.06" y="0">7</tspan>
    <tspan x="15.5" y="0">9</tspan>
  </text>
  <text class="cls-4" transform="translate(33.43 335.66) scale(0.95 1)">
    <tspan class="cls-5">A</tspan>
    <tspan x="6.75" y="0">-80</tspan>
  </text>
  <text class="cls-4" transform="translate(374.95 159.96) scale(0.95 1)">
    <tspan class="cls-5">A</tspan>
    <tspan x="6.75" y="0">-</tspan>
    <tspan class="cls-12" x="10.42" y="0">8</tspan>
    <tspan x="16.05" y="0">9</tspan>
  </text>
  <text class="cls-4" transform="translate(206.96 160.73) scale(0.95 1)">A84</text>
  <text class="cls-4" transform="translate(288.95 160.73) scale(0.95 1)">A88</text>
  <text class="cls-4" transform="translate(540.83 485.06) scale(0.95 1)">
    <tspan class="cls-24">S</tspan>
    <tspan x="5.62" y="0">AE</tspan>
  </text>
  <text class="cls-25" transform="translate(111.15 580.07) scale(0.95 1)">S<tspan class="cls-8" x="5.62" y="0">A</tspan><tspan class="cls-9" x="12.55" y="0">A</tspan></text>
  <text class="cls-4" transform="translate(727.22 585.13) scale(0.95 1)">
    <tspan class="cls-14">S</tspan>
    <tspan x="5.62" y="0">AD</tspan>
  </text>
  <text class="cls-26" transform="translate(727.22 250.22) scale(0.95 1)">S<tspan class="cls-27" x="5.62" y="0">A</tspan><tspan class="cls-11" x="12.33" y="0">C</tspan></text>
  <text class="cls-4" transform="translate(110.08 256.87) scale(0.95 1)">
    <tspan class="cls-24">S</tspan>
    <tspan x="5.62" y="0">AB</tspan>
  </text>
  <path class="cls-3" d="M120.67,600H104.93l8,4.6v1.65h1v-1.07l3.38,1.94h-10.4v1.07h12.27l1.48.85v1.33H107.75v1.07h12.93v2.72H106.92v1.07h13.75v2.63H107.75v1.07h12.93v2.65H106.92v1.07h13.75v.65h1v-1.45H137v-1.07H121.68V618h15.74V617H121.68V614h15.74v-1.07H121.68v-2.14H137v-1.07H121.68v-2.95H137v-1.07H121.68v-2.55H137v-1.07H121.68v-2.27H137v-1.07H121.68V596h15.74v-1.07H121.68v-2.72H106.92v1.07h13.75v2.48H106.92v1.07h13.75Zm-6.73,4v-1.33h-1v.75l-4-2.31h11.75v6.05h-1.23Z"></path>
  <path class="cls-3" d="M736.8,597H721.05l8,4.6v1.65h1v-1.07l3.38,1.94H723v1.07h12.27l1.48.85v1.33H723.87v1.07H736.8v2.72H723v1.07H736.8v2.63H723.87V616H736.8v2.65H723v1.07H736.8v.65h1v-1.45h15.36v-1.07H737.8v-2.75h15.74V614H737.8V611h15.74V610H737.8v-2.14h15.36v-1.07H737.8V603.8h15.36v-1.07H737.8v-2.55h15.36V599.1H737.8v-2.27h15.36v-1.07H737.8V593h15.74V592H737.8v-2.72H723v1.07H736.8v2.48H723v1.07H736.8Zm-6.73,4v-1.33h-1v.75l-4-2.31H736.8v6.05h-1.23Z"></path>
  <path class="cls-3" d="M1204.89,137.11h-16.38l8.33,4.6v1.65h1v-1.07l3.52,1.94h-10.82v1.07h12.77l1.54.85v1.33h-13.45v1.07h13.45v2.72h-14.31v1.07h14.31V155h-13.45v1.07h13.45v2.65h-14.31v1.07h14.31v.65h1V159h16v-1.07h-16v-2.75h16.38v-1.07h-16.38v-2.95h16.38v-1.07h-16.38v-2.14h16v-1.07h-16V143.9h16v-1.07h-16v-2.55h16V139.2h-16v-2.27h16v-1.07h-16v-2.73h16.38v-1.07h-16.38v-2.72h-15.36v1.07h14.31v2.48h-14.31V134h14.31Zm-7,4v-1.33h-1v.75l-4.18-2.31h12.23v6.05h-1.28Z"></path>
  <polyline class="cls-28" points="1221.43 166.51 1205.42 166.51 1205.42 163.42 1221.43 163.42 1221.43 158.58 1205.42 158.59 1205.42 168.72"></polyline>
  <text class="cls-4" transform="translate(967.39 158.98) scale(0.95 1)">A29</text>
  <text class="cls-4" transform="translate(1029.17 158.58) scale(0.95 1)">A28</text>
  <text class="cls-4" transform="translate(1086.95 139.71) scale(0.95 1)">A31</text>
  <text class="cls-4" transform="translate(1092.59 188.94) scale(0.95 1)">A30</text>
  <text class="cls-4" transform="translate(1150.83 161.55) scale(0.95 1)">A32</text>
  <path class="cls-3" d="M750.48,219.68V216h-28.8v3.64h13.87v1.72H721.68v4.09h13.87v1h0v1H723.29v4.12h12.25V234h-12.2v1.07h13.28v-4.5h0v-2h.45l13.41,8.31v-9.38H736.62v-2h13.85V221.4H736.62v-1.72ZM749.4,235,745,232.21l4.42-.1Zm0-3.92-6.09.14-4.2-2.59H749.4Zm-13.86-.48H724.36v-2h11.18Zm13.86-8.09v1.94H722.75v-1.94Zm-13.85-3.86h-12.8v-1.49H749.4v1.49Z"></path>
  <rect class="cls-1" x="1104.26" y="86.07" width="83.72" height="32.27"></rect>
  <path class="cls-3" d="M1185.57,539.12h-46.43v3.22h48.07v147H1107.8V621.48h-90.59v-10.8H1014V714H820V635h12V614.11h17.38v-15h21.41v-3.22H849.48V538.63h67v56.66h-29v-56H884.2v59.26h56.25v-3.22H919.68V538.63h32.74v59.88h39.2v-3.22H988.8V538.63h31.48v57h3.22v-57h58v57H1058.2v3.22h26.5V535.41H806.79v3.22h39.47v57.24h0v15H832.06v-.11H787.47V538.63h8.19v-3.22H784.25v75.37H765.57v16.33H753.68V602.74h14.25v-3.22H753.68V565.94h11.89V578h3.22V562.72H737v3.22h13.5v61.17h-25.4V562.72h-46.4v3.2h6.59v0h36.58V595.2h-40V576.67h-3.22v22.2h3.22v-.45h40v28.69H682v-7H677.9v13.33H682v-3.08h81.43v1.47h-.07V714H699.85V672.79H682V645.25h-5.37v27.55h-9v5.37h26.93V714H653V675.48h-5.37V714h-.05v1.78l-18.08,15,3.43,4.14,18.74-15.52h540.95v-11.2h-5.37V714H1107.8v-7.39h-3.22V714h-87.37V624.7h87.37v70.81h3.22v-2.93h79.41v3.74h5.37v-158h-5.37Zm-229.93-.49h29.94v56.66H955.64ZM816.82,714H766.54V635h40.25V631.8h-38v-1.47h0V614h52.53v.11h7.51V631.8h-12Z"></path>
  <path class="cls-3" d="M1221.39,470v-4.27l-13.87.13v-2h12.14v-1.07h-12.14V448.15h-1.07v26.75h-16.3V476h16.3v2.25h-16.31v4.5h30.59v-4.36l-13.21-.13V476h12.54v-4h-12.54v-2Zm-13.87-3.06,12.8-.12v2.11h-12.8Zm-16.31,14.72v-2.35h15.23v2.35Zm28.44-2.22v2.22h-12.13V479.3ZM1219,473v1.85h-11.47V473Z"></path>
  <path class="cls-3" d="M118.74,219H103.36l7.82,4.6v1.65h1v-1.07l3.3,1.94H105.31v1.07h12l1.45.85v1.33H106.12v1.07h12.63v2.72H105.31v1.07h13.43v2.63H106.12v1.07h12.63v2.65H105.31v1.07h13.43v.65h1v-1.45h15v-1.07h-15V237H135.1v-1.07H119.73V233H135.1v-1.07H119.73v-2.14h15V228.7h-15v-2.95h15v-1.07h-15v-2.55h15v-1.07h-15v-2.27h15v-1.07h-15V215H135.1v-1.07H119.73v-2.72H105.31v1.07h13.43v2.48H105.31v1.07h13.43Zm-6.57,4v-1.33h-1v.75L107.26,220h11.48v6.05h-1.2Z"></path>
  <text class="cls-4" transform="translate(531.39 700.86) scale(0.95 1)">A56</text>
  <text class="cls-4" transform="translate(578.61 700.86) scale(0.95 1)">A<tspan class="cls-29" x="7.11" y="0">5</tspan><tspan x="12.51" y="0">7</tspan></text>
  <text class="cls-4" transform="translate(607.83 530.85) scale(0.95 1)">A51</text>
  <rect class="cls-3" x="1058.37" y="112.12" width="3.22" height="107.02"></rect>
  <rect class="cls-3" x="1037.11" y="218.97" width="24.48" height="3.22"></rect>
  <path class="cls-3" d="M1208,251.78V173.85h16V106.57h-32V80.7h-86.64V58.53H933.61V113H429.78v-32h-173v28.82h-81.1V58.53H86V79.91L0,80.73V719.34H617.13V714h-8.73v-40h-3.22v40H565.51V677.09h29.24v-3.22H562.29V714H518.72V677.09H550v-3.22H518.72V566.41h-85V568H431V714H91.2V630.56h89.54V598.37h-3.22v29H137.79V600h17.68v-3.22H137.79V565.25h-3.22v62.08H108.38V566.86H119.8v-3.22H89.44v17.65h3.22V566.86h12.5v34.56H91v3.22h14.11v7.43H88V714H5.37V630.56H43.52v-3.22H5.37V461.52H89.44v90.31h3.22V388.93H89.44V458.3H5.37V375.23H92.66V343.34H89.44V372H5.37V289.16H33.69V278H30.46v8H5.37V258.56H30.46v7.31h3.22V255.34H5.37v-137h127.1v80h-29v65.93h-14v5.12h3.22v-1.9H119.1v-3.22H106.68v-62.7h25.78v65.93h40.8v21.68h50v-3.22H176.49V238.48h15.94v-3.22H176.49v-33.7h42.68v35.93h-6.51v3.22h9.73v-4.46h33.44v49.69h-12.1v3.22h52.65v-3.22H259.05V201.56h83.8v84.38h-36v3.22h51.64v-3.22H346.07V194.36h-3.22v4H259.37v-80h83.48v67.42h3.22v-3.71H362v4.64h3.22v-7.86H346.07v-60.5h78.33v82.91H365.19v-6H362v9.19h62.44v25.08H376.56v-25h-3.22v52.91l5.65,9.91v18h-1.06v3.22h46.48v1.41H527.57V206.21h1V196.9H551v77.38h.09v15.77h44.65v35h29.08v-1.07h24.32V284.41h-3.22v36.3h-21.1V285.1h-5.37v34.53H601.13v-35H554.24V247h91.69v25.31h3.22v-80.6H614.9v3.22h31v48.85H598.51V193.28h-3.22v50.46H554.24V196.9h25.05v-3.22H429.78v-65h17.45v-3.22H429.78v-7.17h85v52.8H518v-52.8h38.41v51.19H529.73v3.22h56.6v-3.22H559.65V118.34h38.66v52.8h3.22v-52.8h48.6v51.19H614.9v3.22h38.45V118.34h34.26v42.38H664.33V164h23.29v8.8H695v-3.22h-4.14V118.34H799.06v51.19H703.31v3.22h95.74V184h3.22V118.34H934V147H910.29v47.65h3.22V150.18H934v71.71h29.12v45.74H1021V222.19h4.29V219h-7.51v45.45H966.31V218.67H937.2V200.94h67.15v-3.22H937.2V118.34H939v-4.46h78.81v36.46H1021V113.88h106v50.93h-51.35v24.48h3.22V168H1127v35h-51.35v19.16h87.49V219h-84.27V206.25h51.35V113.88h6.45v-3.22h-32.39V86.07h60.5v24.59h-18.69v3.22h42V233.56h3.22V111.94h27.33v56.55h-16v77.93h-17.08v1.38H1068.38v57.42h3.22V251h31.56V303.6h-20.07v3.22h20.07v21h3.22V251h55.13V303.6H1117.6v3.22h52V303.6h-4.87V251h20.8V303.6h-6.26v3.22h6.26V438.6h0v66.15h0v12.84h-1.83v6.21h8.82v-19h-.13V438.6h26.18v66.15H1206.2v5.37H1224V433.23h-33.09V251.78ZM436.36,608.6H494.7V580.15h-3.22v25.23H436.36V569.64H515.5V714H436.36ZM135.69,63.9h34.65V113H135.69ZM87.08,113H5.37V86l81.71-.78Zm45.38,0H90.3V85.24h1.07V63.9h41.09Zm40.8,151.29H135.69V203.41h37.58ZM255.83,233H222.39V209.61h33.44Zm-3.59-28.84v-.11h.66v.11Zm3.92-5.84H183.8V141.07h-3.22v57.27h-7.3v1.86H135.69V118.34h44.88v8.78h3.22v-8.78h72.36ZM342.85,113H262.18V86.32h80.67Zm3.22,0V86.32h78.33V113ZM503,196.9v23.8h3.22V206.21h18.16v78.47H429.78v-4.49h-5.37v5.23h-42.2V266.57l-5.65-9.91V232.78h47.85V271h5.37V196.9Zm514.82-86.25H939V63.9h78.81Zm83.25,0h-80V63.9h79V86.07H1101Zm85.56,0H1168V86.07h18.62Z"></path>
  <path class="cls-3" d="M1189.21,696.34v-5.9h3.22v2.68h16.16l-.05,1.66c0,.16-.67,16.34-16.38,16.5l0-3.22c10-.1,12.43-8.14,13-11.71Z"></path>
  <path class="cls-3" d="M1204.95,538.73h-16.16v2.68h-3.22v-5.9h15.93c-.58-3.57-3-11.61-13-11.71l0-3.22c15.71.16,16.38,16.34,16.38,16.5Z"></path>
  <path class="cls-3" d="M1207.55,490.73v16.16h2.68v3.22h-5.9V494.18c-3.57.58-11.61,3-11.71,13l-3.22,0c.16-15.71,16.34-16.38,16.5-16.38Z"></path>
  <ellipse class="cls-30" cx="451.47" cy="472.67" rx="11.93" ry="12.21"></ellipse>
  <path class="cls-31" d="M444.4,467.79v12.15h6.81V467.79Zm3.4,2.23a.6.6,0,1,1-.6.6A.6.6,0,0,1,447.81,470Zm1.39,4.37a.26.26,0,0,1-.52,0v-1.7h-.16v4.68a.32.32,0,1,1-.64,0v-2.62h-.15v2.62a.32.32,0,1,1-.65,0V472.7h-.16v1.7a.26.26,0,0,1-.52,0V471.9c0-.14.12-.41.26-.41h2.27c.14,0,.25.27.25.41Z"></path>
  <path class="cls-31" d="M451.72,467.79v12.15h6.81V467.79Zm3.4,2.23a.6.6,0,1,1-.6.6A.6.6,0,0,1,455.13,470Zm1.39,4.37a.26.26,0,1,1-.52,0v-1.7h-.16v4.68a.32.32,0,1,1-.65,0v-2.62h-.15v2.62a.32.32,0,1,1-.65,0V472.7h-.16v1.7a.26.26,0,1,1-.52,0V471.9c0-.14.12-.41.26-.41h2.27c.14,0,.25.27.25.41Z"></path>
  <rect class="cls-31" x="447.69" y="465.4" width="7.55" height="2.04"></rect>
  <polygon class="cls-31" points="460.4 471.21 459.06 473.02 459.8 473.02 459.8 475.46 461 475.46 461 473.02 461.74 473.02 460.4 471.21"></polygon>
  <polygon class="cls-31" points="442.54 475.46 441.2 473.65 441.94 473.65 441.94 471.21 443.14 471.21 443.14 473.65 443.88 473.65 442.54 475.46"></polygon>
  <ellipse class="cls-32" cx="491.45" cy="514.82" rx="11.97" ry="12.25"></ellipse>
  <circle class="cls-31" cx="491.53" cy="507.51" r="1.35"></circle>
  <path class="cls-31" d="M494.09,509.49H489c-.32,0-.58.6-.58.92V516a.58.58,0,1,0,1.16,0v-3.83l.14,0a.73.73,0,0,1,.21,0v10.55a.73.73,0,0,0,1.45,0v-5.92h.34v5.92a.73.73,0,0,0,1.45,0V512.21a.73.73,0,0,1,.21,0l.14,0V516a.58.58,0,1,0,1.16,0v-5.61C494.67,510.09,494.41,509.49,494.09,509.49Z"></path>
  <ellipse class="cls-32" cx="451.9" cy="514.82" rx="11.97" ry="12.25"></ellipse>
  <circle class="cls-31" cx="451.82" cy="507.51" r="1.35"></circle>
  <path class="cls-31" d="M454.34,510.41c0-.32-.26-.92-.58-.92H450c-.32,0-.58.6-.58.92L448.06,516a.58.58,0,1,0,1.16,0l1-4.73h.1l-1.11,6a.37.37,0,0,0,.34.39h.69v5.09a.73.73,0,0,0,1.45,0v-5.09H452v5.09a.73.73,0,0,0,1.45,0v-5.09h.57a.37.37,0,0,0,.34-.39l-1-6h.1l.9,4.73a.58.58,0,1,0,1.16,0Z"></path>
  <ellipse class="cls-30" cx="492.89" cy="472.67" rx="11.93" ry="12.21"></ellipse>
  <path class="cls-31" d="M485.82,467.79v12.15h6.81V467.79Zm3.4,2.23a.6.6,0,1,1-.6.6A.6.6,0,0,1,489.23,470Zm1.39,4.37a.26.26,0,0,1-.52,0v-1.7h-.16v4.68a.32.32,0,1,1-.64,0v-2.62h-.15v2.62a.32.32,0,1,1-.65,0V472.7h-.16v1.7a.26.26,0,0,1-.52,0V471.9c0-.14.12-.41.26-.41h2.27c.14,0,.25.27.25.41Z"></path>
  <path class="cls-31" d="M493.14,467.79v12.15h6.81V467.79Zm3.4,2.23a.6.6,0,1,1-.6.6A.6.6,0,0,1,496.55,470Zm1.39,4.37a.26.26,0,1,1-.52,0v-1.7h-.16v4.68a.32.32,0,1,1-.65,0v-2.62h-.15v2.62a.32.32,0,1,1-.65,0V472.7h-.16v1.7a.26.26,0,1,1-.52,0V471.9c0-.14.12-.41.26-.41h2.27c.14,0,.25.27.25.41Z"></path>
  <rect class="cls-31" x="489.11" y="465.4" width="7.55" height="2.04"></rect>
  <polygon class="cls-31" points="501.82 471.21 500.48 473.02 501.22 473.02 501.22 475.46 502.42 475.46 502.42 473.02 503.16 473.02 501.82 471.21"></polygon>
  <polygon class="cls-31" points="483.96 475.46 482.62 473.65 483.36 473.65 483.36 471.21 484.56 471.21 484.56 473.65 485.3 473.65 483.96 475.46"></polygon>
  <ellipse class="cls-30" cx="238.86" cy="221.93" rx="11.93" ry="12.21"></ellipse>
  <path class="cls-31" d="M231.79,217.05V229.2h6.81V217.05Zm3.4,2.23a.6.6,0,1,1-.6.6A.6.6,0,0,1,235.2,219.28Zm1.39,4.37a.26.26,0,0,1-.52,0V222h-.16v4.68a.32.32,0,1,1-.64,0V224h-.15v2.62a.32.32,0,1,1-.65,0V222h-.16v1.7a.26.26,0,0,1-.52,0v-2.49c0-.14.12-.41.26-.41h2.27c.14,0,.25.27.25.41Z"></path>
  <path class="cls-31" d="M239.11,217.05V229.2h6.81V217.05Zm3.4,2.23a.6.6,0,1,1-.6.6A.6.6,0,0,1,242.52,219.28Zm1.39,4.37a.26.26,0,1,1-.52,0V222h-.16v4.68a.32.32,0,1,1-.65,0V224h-.15v2.62a.32.32,0,1,1-.65,0V222h-.16v1.7a.26.26,0,1,1-.52,0v-2.49c0-.14.12-.41.26-.41h2.27c.14,0,.25.27.25.41Z"></path>
  <rect class="cls-31" x="235.08" y="214.67" width="7.55" height="2.04"></rect>
  <polygon class="cls-31" points="247.79 220.47 246.45 222.28 247.19 222.28 247.19 224.72 248.39 224.72 248.39 222.28 249.13 222.28 247.79 220.47"></polygon>
  <polygon class="cls-31" points="229.93 224.72 228.59 222.91 229.33 222.91 229.33 220.47 230.53 220.47 230.53 222.91 231.27 222.91 229.93 224.72"></polygon>
</svg>
