<?xml version="1.0" encoding="UTF-8"?>
<svg xmlns="http://www.w3.org/2000/svg" id="Layer_1" data-name="Layer 1" viewBox="0 0 1224 792">
  <defs>
    <style>.cls-1{fill:#d2d3d4;}.cls-2{fill:#ffce10;}.cls-3,.cls-5{fill:#58595b;}.cls-4{fill:#59595b;}.cls-5{font-size:9px;font-family:Gotham-Bold, Gotham;font-weight:700;}.cls-6{letter-spacing:-0.03em;}.cls-7{letter-spacing:-0.02em;}.cls-8{letter-spacing:-0.01em;}.cls-9{letter-spacing:0em;}.cls-10{letter-spacing:-0.02em;}.cls-11{letter-spacing:-0.01em;}.cls-12{letter-spacing:0em;}.cls-13{letter-spacing:-0.01em;}.cls-14{letter-spacing:-0.03em;}.cls-15{letter-spacing:-0.02em;}.cls-16{letter-spacing:-0.03em;}.cls-17{fill:#8dc63f;}.cls-18{fill:#fff;}.cls-19{fill:#1b75bc;}</style>
  </defs>
  <title>HomerBabbidgeLibrary_LevelB</title>
  <polygon class="cls-1" points="1.41 93.6 1.41 306.15 95.33 306.15 95.33 273.61 93.24 271.51 93.24 249.86 110.09 249.86 110.09 182.37 136.37 182.37 136.37 202.24 176.98 202.24 176.98 246.77 268.14 246.77 268.14 355.56 354.13 355.56 354.13 276.58 354.13 273.49 357.35 270.28 435.28 270.28 435.28 182.37 354.13 182.37 354.13 88.37 1.41 93.6"></polygon>
  <polygon class="cls-1" points="5.14 525.72 5.14 700.42 183.69 700.42 183.69 619.9 435.28 619.9 435.28 554.87 354.13 554.87 354.13 531.61 327.53 531.61 327.53 527.42 290.58 527.42 290.58 531.61 266.94 531.61 266.94 598.83 245.81 598.83 245.81 554.87 98.41 554.87 98.41 522.63 5.14 525.72"></polygon>
  <polygon class="cls-1" points="780.06 423.38 780.06 528.52 435.28 528.52 435.28 445.13 698.21 445.13 698.21 423.38 780.06 423.38"></polygon>
  <rect class="cls-1" x="694.26" y="551.88" width="85.8" height="64.93"></rect>
  <rect class="cls-1" x="581.11" y="181.14" width="50.32" height="89.83"></rect>
  <polygon class="cls-1" points="676.58 181.14 676.58 270.44 780.06 270.44 780.06 180.85 676.58 181.14"></polygon>
  <rect class="cls-1" x="974.48" y="189.48" width="46.48" height="75.02"></rect>
  <polygon class="cls-1" points="1049.48 379.18 1045.75 379.18 1045.75 421.84 1063.69 421.84 1063.69 442.59 1102.46 442.59 1102.46 421.84 1120.05 421.84 1120.05 379.18 1105.41 379.18 1105.41 359.15 1063.34 359.15 1063.34 379.2 1049.48 379.18"></polygon>
  <polygon class="cls-1" points="974.48 534.75 974.48 611.73 1020.96 611.73 1020.96 596.33 1037.47 596.33 1037.47 555.09 1020.96 555.09 1020.96 534.75 974.48 534.75"></polygon>
  <rect class="cls-2" x="107.19" y="179.48" width="30.72" height="69.85"></rect>
  <rect class="cls-2" x="109.95" y="551.79" width="30.72" height="68.39"></rect>
  <rect class="cls-2" x="735.81" y="548.8" width="30.72" height="69.85"></rect>
  <rect class="cls-2" x="524.44" y="442.04" width="71.04" height="49.41"></rect>
  <path class="cls-3" d="M694.1,95.26V176H671.44v32.67h-35.9V176H615.91v-7.6h-5.14V177h-3.67v4.21h3.67v-.1h20.66v41.28H581.59v3.08h49.84v44.94H612.94v-.5h-5.83V273h2.75v82.54H435.28v176h8.14v-3.08h-5.05V472.8h37.76v11.69h3.08V472.8h25.44v17.07H455.6V501.7h66.93v26.83H458.13V518.11H455v10.41h-.85v3.08H592.92v-3.08h0V517.65h-3.08v10.88H525.61V501.7h75.27v-3.08H458.68v-5.66h49.06V472.8h5.7V445.13h9.09v47.82H597.1V445.13h16.58v21.94h3.08V445.13h52.17v2.25H672v-2.25h8.92V442H592v3.08h2v44.74H525.61V445.13H529V442H438.37v-83.4H612.94V340.23c7.16,1.28,12.27,7.62,12.27,15.75a16,16,0,0,1-28.45,10l-2.4,1.94a19.08,19.08,0,0,0,33.94-12c0-9.9-6.44-17.57-15.36-18.87V273.53h21.58V248.77h39v24.76h21.64v62.12h3.08V273.53h25.22v-3.08H676.58v-89.3h22.66v-.29h17.27v-3.08H699.24V100.39h509.83v55.22h5.14V95.26ZM483.4,445.13h27v24.58h-27Zm-32.7,0h29.62v24.58H450.69Zm-3.08,0v24.58h-9.24V445.13ZM673.5,245.69h-39V213.81h39Z"></path>
  <rect class="cls-3" x="1209.07" y="166.61" width="5.14" height="375.3"></rect>
  <path class="cls-3" d="M357.21,179.29v-6.9h-3.08v6.9H302v3.08H435.28v85.18H354.62v5.94H268.22V246.77h-.08v-4.7h-3.08v4.7h-32.8v-29h32.8V224h3.08V182.37h12.51v-3.08H268.14v-7.07h-3.08v7.07h-7.16v9.59h-15v-9.59H206.06v3.08h23.11v64.4H206.06v3.08h59v26.76h3.08v0h41.45v40.18H268.14V287.4h-3.08v29.35h-.44v3.08h.44v38.81h8.61v-3.08h-5.53V319.84h41.45v35.73H284.45v3.08h50v-3.08H312.68V319.84h41.45v35.73h-8.88v3.08h12V287.4h-3.08v29.35H312.68V276.58h41.45v0h3.08v0h.49v-5.94h80.66V179.29Zm-117.39,3.08V192H261v-9.59h4.08v32.3h-32.8v-32.3Z"></path>
  <path class="cls-3" d="M595.48,458.9v-4.41H525.37v1h14.39v1.92H524.44v4.53h15.32v2H524.44v4.17h15.32v1.59H525v1.14H540.5v20.79h41.29V470.84h13.69v-3.5H582.39v-1.88h13.09V461H582.39V458.9Zm-13.09-3.27h12v2.13h-12ZM539.76,467H525.5v-1.89h14.26Zm0-6.18H525.5v-2.25h14.26Zm4.38,29.71h-2.58V470.84h2.58Zm2.71,0H545.2V470.87h1.65Zm1.06,0V470.84h2.38V486l-2.3,4.51Zm1.29,0,4.74-9.31h2.14l-4.59,9.31Zm3.53-9.31-1.38,2.72V470.84h2v9l-.08.16h-1v1.14Zm3.67,9.31h-3.72l3.72-7.53ZM554.53,480l4.68-9.19h2L556.65,480Zm-.07-2.25v-6.95H558Zm4.6,12.7h-1.59v-9.31h1.26V480h-.87l1.21-2.45Zm3.37,0h-2.31V475.43l2.26-4.59h0Zm3.14,0h-2.08V470.84h2.08Zm2.91,0h-1.85V470.84h1.85Zm3,0h-1.92V470.84h1.92Zm3.18,0h-2.12V470.84h2.12Zm3.11,0h-2V470.84h2Zm3,0h-1.92V470.84h1.92Zm.6-33.47V469.7H540.82V455.62h40.51Zm13.09,11.47v1.21h-12v-1.21Zm0-6.34v2.17h-12v-2.17Z"></path>
  <path class="cls-3" d="M138.46,208.63v-4.08h-15V201.9h14.48v-1H123.46v-1.31h-.79v0H107v1H121.4V203H106.64v3.58H121.4v2.31H106.75v4H121.4v1.81H106.78v4.75H121.4v1.75H106.86v4.2H121.4v1.31H107.26v1H121.4v1.52h2.06v0h14.17v-1H123.46v-1.64h15v-4.7h-15v-1.64h15v-4.46h-15v-1.62h15v-3.78h-15v-1.76Zm-1-3.05v2h-14v-2Zm-29.76,0V204H121.4v1.52Zm.11,6.34v-2H121.4v2Zm0,6.56v-2.7h13.6v2.7Zm.08,5.95v-2.14H121.4v2.14Zm29.54-1.47v2.64h-14v-2.64Zm0-6.1v2.41h-14v-2.41Zm0-5.4v1.72h-14v-1.72Z"></path>
  <path class="cls-3" d="M141.22,580.2v-4.08h-15v-2.64H140.7v-1H126.22v-1.31h-.79v0H109.81v1h14.35v2.43H109.4v3.58h14.76v2.31H109.51v4h14.65v1.81H109.54V591h14.62v1.75H109.62V597h14.55v1.31H110v1h14.14v1.52h2.06v0h14.17v-1H126.22v-1.64h15v-4.7h-15v-1.64h15v-4.46h-15v-1.62h15V582h-15V580.2Zm-1-3.05v2h-14v-2Zm-29.76,0V575.6h13.73v1.52Zm.11,6.34v-2h13.63v2Zm0,6.56v-2.7h13.6V590Zm.08,5.95v-2.14h13.52V596Zm29.54-1.47v2.64h-14v-2.64Zm0-6.1v2.41h-14v-2.41Zm0-5.4v1.72h-14V583Z"></path>
  <path class="cls-3" d="M767.08,580.2v-4.08h-15v-2.64h14.48v-1H752.08v-1.31h-.79v0H735.67v1H750v2.43H735.26v3.58H750v2.31H735.37v4H750v1.81H735.4V591H750v1.75H735.47V597H750v1.31H735.88v1H750v1.52h2.06v0h14.17v-1H752.08v-1.64h15v-4.7h-15v-1.64h15v-4.46h-15v-1.62h15V582h-15V580.2Zm-1-3.05v2h-14v-2Zm-29.76,0V575.6H750v1.52Zm.11,6.34v-2H750v2Zm0,6.56v-2.7H750V590Zm.08,5.95v-2.14H750V596ZM766,594.49v2.64h-14v-2.64Zm0-6.1v2.41h-14v-2.41Zm0-5.4v1.72h-14V583Z"></path>
  <rect class="cls-2" x="736.21" y="179.48" width="30.72" height="90.96"></rect>
  <rect class="cls-2" x="749.33" y="248.18" width="30.72" height="22.26"></rect>
  <path class="cls-3" d="M767.48,212v-4.08h-15v-2.64H767v-1H752.48V203h-.79v0H736.07v1h14.35v2.43H735.67V210h14.76v2.31H735.77v4h14.65v1.81H735.8v4.75h14.62v1.75H735.88v4.2h14.55v1.31H736.29v1h14.14v1.52h2.06v0h14.17v-1H752.48V230h15v-4.7h-15v-1.64h15v-4.46h-15v-1.62h15v-3.78h-15V212Zm-1-3.05v2h-14v-2Zm-29.76,0v-1.52h13.73v1.52Zm.11,6.34v-2h13.63v2Zm0,6.56v-2.7h13.6v2.7Zm.08,5.95v-2.14h13.52v2.14Zm29.54-1.47V229h-14v-2.64Zm0-6.1v2.41h-14v-2.41Zm0-5.4v1.72h-14v-1.72Z"></path>
  <polygon class="cls-3" points="438.37 619.9 438.37 554.87 463.29 554.87 463.29 551.78 436.82 551.78 435.28 551.78 374.24 551.78 374.24 554.87 435.28 554.87 435.28 616.81 357.21 616.81 357.21 567.17 410.81 567.17 410.81 564.09 357.21 564.09 357.21 554.87 363.46 554.87 363.46 551.78 357.21 551.78 357.21 528.52 330.62 528.52 330.62 524.33 287.5 524.33 287.5 528.52 263.86 528.52 263.86 535.51 266.94 535.51 266.94 531.61 290.58 531.61 290.58 527.42 307.55 527.42 307.55 565.63 310.64 565.63 310.64 527.42 327.53 527.42 327.53 531.61 354.13 531.61 354.13 553.33 354.13 554.87 354.13 616.81 237.69 616.81 237.69 619.9 438.37 619.9"></polygon>
  <path class="cls-3" d="M1209.07,550.9V700.42H183.69V619.9h38.18v-3.08H179.19V598h10v-43.1H226.9v-3.08H136.78v3.08h2.35v60.79H112.58V554.87H126v-3.08H98.41V522.64H5.14V309.24h5.22v-3.08H5.14V273.61h43v32.54h-27v3.08H98.41V284.6H95.33v21.55H51.26V273.61H95.33v.21h3.08v-3.3H94v-5.09H90.88v5.09H76.15v-2.89H73.06v2.89H5.14V168.7H46V199H76.15v-3.08H49.05V168.7h27.1v-3.13H73.06v0H5.14V137H73.06v17.76h3.08V137h4v-3.08h-75V93.47h40.4v31.86h3.08V93.47H90.88V137H94V93.47h85.49V130h5.48v-3.08h-2.4V93.54h2.07v0h80.45v33.44H195.71V130h69.35v22.3h5.16v0h30.43v-3.08h-32.5V93.51h86v7.21h3.08V93.51H610.77v63.82h5.14v-69H0V705.56H1214.21V550.9Zm-1066.86,4h43.92v40h-10v21.93h-33.9Zm39.42,145.56H5.14V619.9H79.74v-3.08h-.27V544.94H76.39v71.88H5.14v-91.1H76.39v8.44h3.08v-8.44H95.33v40.55h3.08v-11.4h11.08v32.64H98.41v3.08h11.08v26.22H98.41V600.23H95.33v16.58H90.52v3.08h91.11Z"></path>
  <polygon class="cls-4" points="780.06 356.33 693.75 356.33 693.75 359.42 783.14 359.42 783.14 333.12 780.06 333.12 780.06 356.33"></polygon>
  <rect class="cls-4" x="275.43" y="573.17" width="69.48" height="3.08"></rect>
  <path class="cls-4" d="M868,447.07h19.22v7.47h46.87v-7.47h20v-24.2h10.25V378.48H954.14V356.34h-20V346.1H887.27v10.24H868v19.08H859v47.45H868Zm64,5.42H889.32v-5.42h42.76Zm0-8.5H889.32v-8.71h42.76Zm30.26-63.45v40.28h-8.19V380.53Zm-11.28,40.28h-4.78V380.53h4.78Zm-61.74-72.66h42.76v8.18H889.32Zm0,11.26h42.76v6.37H889.32Zm-18.19,0h16.13v8.42h46.87v-8.42h16.92v19.06h-6.83v44.39h6.83V444H934.14V433.22H887.27V444H871.13V422.87h7.07V375.42h-7.07Zm0,61.39V377.47h5v43.34Zm-10.1,0V377.47h7v43.34Z"></path>
  <path class="cls-4" d="M921,391.13H903.7V410H921ZM920,409H904.72V392.16H920Z"></path>
  <polygon class="cls-4" points="578.02 177.03 578.02 273.02 596.33 273.02 596.33 269.94 581.11 269.94 581.11 181.32 596.33 181.32 596.33 177.03 578.02 177.03"></polygon>
  <polygon class="cls-4" points="322.18 152.37 354.13 152.37 354.13 152.5 357.21 152.5 357.21 111.5 354.13 111.5 354.13 149.29 322.18 149.29 322.18 152.37"></polygon>
  <rect class="cls-4" x="73.06" y="179.48" width="3.08" height="18.93"></rect>
  <rect class="cls-4" x="73.06" y="209.2" width="3.08" height="47.66"></rect>
  <rect class="cls-4" x="539.8" y="442.04" width="41.44" height="3.08"></rect>
  <polygon class="cls-4" points="263.86 546.29 263.86 551.78 242.73 551.78 237.69 551.78 237.69 554.87 242.73 554.87 242.73 601.91 266.94 601.91 266.94 554.87 266.94 551.78 266.94 546.29 263.86 546.29"></polygon>
  <polygon class="cls-4" points="679.37 566.83 679.37 563.75 676.58 563.75 676.58 551.78 664.73 551.78 664.73 542.12 661.64 542.12 661.64 551.78 474.07 551.78 474.07 554.87 673.5 554.87 673.5 566.83 679.37 566.83"></polygon>
  <polygon class="cls-4" points="971.39 252.16 974.48 252.16 974.48 201.93 971.39 201.93 971.39 204.75 954.78 204.75 954.78 248 971.39 248 971.39 252.16"></polygon>
  <polygon class="cls-4" points="1024.04 204.75 1024.04 186.4 971.39 186.4 971.39 191.15 974.48 191.15 974.48 189.48 1020.96 189.48 1020.96 264.5 974.48 264.5 974.48 262.94 971.39 262.94 971.39 267.59 1024.04 267.59 1024.04 249.24 1039.02 249.24 1039.02 204.75 1024.04 204.75"></polygon>
  <path class="cls-4" d="M1120.06,375.91v9h0v36.94h-34.9V379.2h20.26V379h3.87v-3.08H1107V356.07h-46.7v17.07h0v6.06h21.8v42.64h-36.31V379.17h3.72v-3.08h-6.81v48.85h17.94v0h3.08v0h18.37v17.67h-18.37V430.35h-3.08v15.32h44.94V430.35h-3.08v12.24h-17.32V424.92h17.32v0h3.08v0h17.59v-49Zm-34.91-16.76h18.72v17h-18.72Zm-3.08,17h-18.72v-17h18.72Z"></path>
  <polygon class="cls-4" points="1034.85 552 1034.85 555.09 1037.47 555.09 1037.47 573.17 1024.04 573.17 1024.04 555.09 1024.07 555.09 1024.07 552 1024.04 552 1024.04 531.67 971.39 531.67 971.39 540.34 974.48 540.34 974.48 534.75 1020.96 534.75 1020.96 553.54 1020.96 555.09 1020.96 573.17 974.48 573.17 974.48 551.12 971.39 551.12 971.39 597.87 974.48 597.87 974.48 576.26 1020.96 576.26 1020.96 596.33 1020.96 597.87 1020.96 611.73 974.48 611.73 974.48 608.65 971.39 608.65 971.39 614.81 1024.04 614.81 1024.04 599.41 1024.07 599.41 1024.07 596.33 1024.04 596.33 1024.04 576.26 1037.47 576.26 1037.47 596.33 1034.85 596.33 1034.85 599.41 1040.56 599.41 1040.56 552 1034.85 552"></polygon>
  <path class="cls-4" d="M180.06,182.37h3.6v-3.08H173.05v3.08H177v19.86H139.45V182.37h22.82v-3.08H90.88V193H94V182.37h13v21.34H96.64v.1H90.88v3H94v0h13v40H94v-18.4H90.88v26.28H94v-4.8h31.62v-3.08H110.09v-64.4h26.28v19.86h0v44.54h0v3.08h47.31v-3.08h-3.6v-64.4Z"></path>
  <polygon class="cls-4" points="783.14 566.55 783.14 548.8 749.85 548.8 749.85 552.06 766.97 552.17 766.97 616.66 737.19 616.66 737.19 551.98 739.07 552 739.07 548.8 729.45 548.8 729.45 551.88 734.11 551.88 734.11 616.81 695.29 616.81 695.29 551.88 718.67 551.88 718.67 548.8 692.21 548.8 692.21 563.75 690.15 563.75 690.15 566.83 692.21 566.83 692.21 619.9 783.14 619.9 783.14 600.02 780.06 600.02 780.06 616.81 770.05 616.81 770.05 590.42 780.04 590.42 780.04 587.34 770.05 587.34 770.05 551.88 780.06 551.88 780.06 566.55 783.14 566.55"></polygon>
  <path class="cls-4" d="M783.14,447.38V420.3h-88V442h-3.42v3.08h3.42v20.4h-3.42v3.08h3.42v30H672v-30h8.92v-3.08H672v-7.37h-3.08v24.48H616.76v-6.45h-3.08v52.33h-10v3.08H677v-3.08h-5v-2.18h-3.08v2.18H616.76V492.95h52.17v22.62H672v-5.5h23.12v18.46h-5v3.08h93V458.16h-3.08v70.36H698.21V423.38h81.84v24ZM668.93,489.87H616.76v-4.14h52.17ZM695.13,507H672.06V501.7h23.08Z"></path>
  <polygon class="cls-4" points="783.14 292.51 783.14 273.53 783.15 273.53 783.1 264.46 780.02 264.46 780.05 270.44 737.19 270.44 737.19 180.85 764.46 180.85 764.46 209.69 764.46 211.24 764.46 248.77 779.94 248.77 779.96 253.68 783.05 253.68 782.94 233.58 779.86 233.58 779.92 245.69 767.54 245.69 767.54 212.78 777.4 212.78 777.4 212.76 782.84 212.76 782.82 209.73 777.75 209.73 777.75 209.69 767.54 209.69 767.54 180.85 779.59 180.85 779.68 198.95 782.76 198.95 782.66 177.77 727.29 177.77 727.29 180.85 734.11 180.85 734.11 266.09 734.21 266.09 734.21 273.53 780.06 273.53 780.06 292.51 783.14 292.51"></polygon>
  <path class="cls-4" d="M1209.07,541.91v-4.54h2.48v2.06H1224l0,1.28c0,.13-.52,12.58-12.62,12.71l0-2.48c7.7-.08,9.57-6.27,10-9Z"></path>
  <path class="cls-4" d="M1209.07,157.6v-4.54h2.48v2.06H1224l0,1.28c0,.13-.52,12.58-12.62,12.71l0-2.48c7.7-.08,9.57-6.27,10-9Z"></path>
  <path class="cls-4" d="M625.66,168.89H613.21V171h-2.48v-4.54H623c-.45-2.75-2.32-8.94-10-9l0-2.48c12.1.13,12.61,12.58,12.62,12.71Z"></path>
  <text class="cls-5" transform="translate(703.63 589) scale(0.88 1)">B<tspan class="cls-6" x="6.5" y="0">-</tspan><tspan x="9.9" y="0">155</tspan></text>
  <text class="cls-5" transform="translate(726.31 483.89) scale(0.88 1)">B<tspan class="cls-6" x="6.5" y="0">-</tspan><tspan x="9.9" y="0">1</tspan><tspan class="cls-7" x="13.7" y="0">7</tspan><tspan x="19.09" y="0">0</tspan></text>
  <text class="cls-5" transform="translate(613.82 406.19) scale(0.88 1)">B1<tspan class="cls-8" x="10.3" y="0">8</tspan><tspan class="cls-9" x="15.88" y="0">7</tspan></text>
  <text class="cls-5" transform="translate(729.08 324.58) scale(0.88 1)">B<tspan class="cls-6" x="6.5" y="0">-</tspan><tspan x="9.9" y="0">168</tspan></text>
  <text class="cls-5" transform="translate(693.75 228.34) scale(0.88 1)">B<tspan class="cls-6" x="6.5" y="0">-</tspan><tspan x="9.9" y="0">1</tspan><tspan class="cls-10" x="13.7" y="0">3</tspan><tspan class="cls-9" x="19.11" y="0">7</tspan></text>
  <text class="cls-5" transform="translate(744.18 257.74) scale(0.88 1)">S0C</text>
  <text class="cls-5" transform="translate(594.94 249.32) scale(0.88 1)">B<tspan class="cls-6" x="6.5" y="0">-</tspan><tspan x="9.9" y="0">1</tspan><tspan class="cls-11" x="13.7" y="0">3</tspan><tspan class="cls-12" x="19.24" y="0">5</tspan></text>
  <text class="cls-5" transform="translate(594.94 205.73) scale(0.88 1)">B<tspan class="cls-6" x="6.5" y="0">-</tspan><tspan x="9.9" y="0">134</tspan></text>
  <text class="cls-5" transform="translate(903.69 319.92) scale(0.88 1)">B119</text>
  <text class="cls-5" transform="translate(987.28 212.41) scale(0.88 1)">B<tspan class="cls-6" x="6.5" y="0">-</tspan><tspan x="9.9" y="0">1</tspan><tspan class="cls-7" x="13.7" y="0">4</tspan><tspan class="cls-12" x="19.72" y="0">1A</tspan></text>
  <text class="cls-5" transform="translate(984.72 248.29) scale(0.88 1)">B<tspan class="cls-6" x="6.5" y="0">-</tspan><tspan x="9.9" y="0">1</tspan><tspan class="cls-7" x="13.7" y="0">4</tspan><tspan class="cls-12" x="19.72" y="0">1B</tspan></text>
  <text class="cls-5" transform="translate(1088.51 403.88) scale(0.88 1)">B<tspan class="cls-6" x="6.5" y="0">-</tspan><tspan x="9.9" y="0">144B</tspan></text>
  <text class="cls-5" transform="translate(1047.67 404.13) scale(0.88 1)">B<tspan class="cls-6" x="6.5" y="0">-</tspan><tspan x="9.9" y="0">144A</tspan></text>
  <text class="cls-5" transform="translate(983.55 559.07) scale(0.88 1)">B<tspan class="cls-6" x="6.5" y="0">-</tspan><tspan x="9.9" y="0">1</tspan><tspan class="cls-13" x="13.7" y="0">4</tspan><tspan class="cls-12" x="19.81" y="0">9A</tspan></text>
  <text class="cls-5" transform="translate(983.55 597.54) scale(0.88 1)">B<tspan class="cls-6" x="6.5" y="0">-</tspan><tspan x="9.9" y="0">1</tspan><tspan class="cls-13" x="13.7" y="0">4</tspan><tspan class="cls-12" x="19.81" y="0">9B</tspan></text>
  <text class="cls-5" transform="translate(490.15 217.81) scale(0.88 1)">B108</text>
  <text class="cls-5" transform="translate(294.12 125.11) scale(0.88 1)">B<tspan class="cls-6" x="6.5" y="0">-</tspan><tspan x="9.9" y="0">108A</tspan></text>
  <text class="cls-5" transform="translate(332.88 219.94) scale(0.88 1)">B1<tspan class="cls-14" x="10.3" y="0">0</tspan><tspan class="cls-9" x="16.64" y="0">7</tspan></text>
  <text class="cls-5" transform="translate(174.53 432.94) scale(0.88 1)">B1<tspan class="cls-15" x="10.3" y="0">6</tspan><tspan x="16.12" y="0">7</tspan></text>
  <text class="cls-5" transform="translate(203.09 595.48) scale(0.88 1)">B<tspan class="cls-6" x="6.5" y="0">-</tspan><tspan x="9.9" y="0">1</tspan><tspan class="cls-13" x="13.7" y="0">6</tspan><tspan class="cls-12" x="19.57" y="0">1</tspan></text>
  <text class="cls-5" transform="translate(298.86 601.91) scale(0.88 1)">B<tspan class="cls-6" x="6.5" y="0">-</tspan><tspan x="9.9" y="0">1</tspan><tspan class="cls-11" x="13.7" y="0">5</tspan><tspan x="19.32" y="0">9</tspan></text>
  <text class="cls-5" transform="translate(278.03 555.34) scale(0.88 1)">B<tspan class="cls-6" x="6.5" y="0">-</tspan><tspan x="9.9" y="0">160</tspan></text>
  <text class="cls-5" transform="translate(321.55 555.76) scale(0.88 1)">B<tspan class="cls-6" x="6.5" y="0">-</tspan><tspan x="9.9" y="0">158</tspan></text>
  <text class="cls-5" transform="translate(382.19 595.48) scale(0.88 1)">B<tspan class="cls-6" x="6.5" y="0">-</tspan><tspan x="9.9" y="0">1</tspan><tspan class="cls-16" x="13.7" y="0">5</tspan><tspan x="19.1" y="0">7</tspan></text>
  <text class="cls-5" transform="translate(341.1 671.81) scale(0.88 1)">B<tspan class="cls-6" x="6.5" y="0">-</tspan><tspan x="9.9" y="0">120</tspan></text>
  <text class="cls-5" transform="translate(73.06 665.57) scale(0.88 1)">B<tspan class="cls-6" x="6.5" y="0">-</tspan><tspan x="9.9" y="0">120A</tspan></text>
  <text class="cls-5" transform="translate(29.24 576.26) scale(0.88 1)">B<tspan class="cls-6" x="6.5" y="0">-</tspan><tspan x="9.9" y="0">1</tspan><tspan class="cls-13" x="13.7" y="0">6</tspan><tspan class="cls-12" x="19.57" y="0">3</tspan></text>
  <text class="cls-5" transform="translate(16.54 293.83) scale(0.88 1)">B<tspan class="cls-6" x="6.5" y="0">-</tspan><tspan x="9.9" y="0">185</tspan></text>
  <text class="cls-5" transform="translate(59.4 293.78) scale(0.88 1)">B<tspan class="cls-6" x="6.5" y="0">-</tspan><tspan x="9.9" y="0">186</tspan></text>
  <text class="cls-5" transform="translate(31.96 255.96) scale(0.88 1)">B123</text>
  <text class="cls-5" transform="translate(31.96 214.41) scale(0.88 1)">B1<tspan class="cls-15" x="10.3" y="0">2</tspan><tspan x="15.77" y="0">4</tspan></text>
  <text class="cls-5" transform="translate(14.76 184.82) scale(0.88 1)">B125</text>
  <text class="cls-5" transform="translate(51.85 179.48) scale(0.88 1)">B126</text>
  <text class="cls-5" transform="translate(29.24 154.9) scale(0.88 1)">B<tspan class="cls-6" x="6.5" y="0">-</tspan><tspan x="9.9" y="0">100</tspan></text>
  <text class="cls-5" transform="translate(58.69 115.71) scale(0.88 1)">B<tspan class="cls-6" x="6.5" y="0">-</tspan><tspan x="9.9" y="0">1</tspan><tspan class="cls-13" x="13.7" y="0">0</tspan><tspan x="20.18" y="0">2</tspan></text>
  <text class="cls-5" transform="translate(15.51 115.71) scale(0.88 1)">B<tspan class="cls-6" x="6.5" y="0">-</tspan><tspan x="9.9" y="0">1</tspan><tspan class="cls-11" x="13.7" y="0">0</tspan><tspan x="20.22" y="0">1</tspan></text>
  <text class="cls-5" transform="translate(131.75 147.84) scale(0.88 1)">B106</text>
  <text class="cls-5" transform="translate(148.39 196.46) scale(0.88 1)">B<tspan class="cls-6" x="6.5" y="0">-</tspan><tspan x="9.9" y="0">131</tspan></text>
  <text class="cls-5" transform="translate(193.84 214.41) scale(0.88 1)">B<tspan class="cls-6" x="6.5" y="0">-</tspan><tspan x="9.9" y="0">132</tspan></text>
  <text class="cls-5" transform="translate(236.29 234.54) scale(0.88 1)">B<tspan class="cls-6" x="6.5" y="0">-</tspan><tspan x="9.9" y="0">133</tspan></text>
  <text class="cls-5" transform="translate(277.5 302.91) scale(0.88 1)">B<tspan class="cls-6" x="6.5" y="0">-</tspan><tspan x="9.9" y="0">184</tspan></text>
  <text class="cls-5" transform="translate(279.06 343.3) scale(0.88 1)">B<tspan class="cls-6" x="6.5" y="0">-</tspan><tspan x="9.9" y="0">1</tspan><tspan class="cls-15" x="13.7" y="0">6</tspan><tspan x="19.52" y="0">7</tspan></text>
  <text class="cls-5" transform="translate(322.58 302.91) scale(0.88 1)">B<tspan class="cls-6" x="6.5" y="0">-</tspan><tspan x="9.9" y="0">183</tspan></text>
  <text class="cls-5" transform="translate(320.67 340.57) scale(0.88 1)">B<tspan class="cls-6" x="6.5" y="0">-</tspan><tspan x="9.9" y="0">1</tspan><tspan class="cls-15" x="13.7" y="0">6</tspan><tspan x="19.52" y="0">7B</tspan></text>
  <text class="cls-5" transform="translate(151.47 585.98) scale(0.88 1)">B<tspan class="cls-6" x="6.5" y="0">-</tspan><tspan x="9.9" y="0">162</tspan></text>
  <text class="cls-5" transform="translate(551.04 465.77) scale(0.88 1)">S0E</text>
  <text class="cls-5" transform="translate(743.15 566.83) scale(0.88 1)">S0B</text>
  <text class="cls-5" transform="translate(117.98 567.86) scale(0.88 1)">S0A</text>
  <text class="cls-5" transform="translate(113.62 241.09) scale(0.88 1)">S0D</text>
  <ellipse class="cls-17" cx="250.76" cy="202.94" rx="11.93" ry="12.21"></ellipse>
  <path class="cls-18" d="M243.7,198.06v12.15h6.81V198.06Zm3.4,2.23a.6.6,0,1,1-.6.6A.6.6,0,0,1,247.11,200.29Zm1.39,4.37a.26.26,0,0,1-.52,0V203h-.16v4.68a.32.32,0,1,1-.64,0V205H247v2.62a.32.32,0,1,1-.65,0V203h-.16v1.7a.26.26,0,0,1-.52,0v-2.49c0-.14.12-.41.26-.41h2.27c.14,0,.25.27.25.41Z"></path>
  <path class="cls-18" d="M251,198.06v12.15h6.81V198.06Zm3.4,2.23a.6.6,0,1,1-.6.6A.6.6,0,0,1,254.42,200.29Zm1.39,4.37a.26.26,0,1,1-.52,0V203h-.16v4.68a.32.32,0,1,1-.65,0V205h-.15v2.62a.32.32,0,1,1-.65,0V203h-.16v1.7a.26.26,0,1,1-.52,0v-2.49c0-.14.12-.41.26-.41h2.27c.14,0,.25.27.25.41Z"></path>
  <rect class="cls-18" x="246.99" y="195.68" width="7.55" height="2.04"></rect>
  <polygon class="cls-18" points="259.69 201.48 258.35 203.29 259.1 203.29 259.1 205.73 260.29 205.73 260.29 203.29 261.04 203.29 259.69 201.48"></polygon>
  <polygon class="cls-18" points="241.84 205.73 240.49 203.93 241.24 203.93 241.24 201.48 242.43 201.48 242.43 203.93 243.18 203.93 241.84 205.73"></polygon>
  <ellipse class="cls-17" cx="497.34" cy="457.21" rx="11.93" ry="12.21"></ellipse>
  <path class="cls-18" d="M490.28,452.32v12.15h6.81V452.32Zm3.4,2.23a.6.6,0,1,1-.6.6A.6.6,0,0,1,493.68,454.56Zm1.39,4.37a.26.26,0,0,1-.52,0v-1.7h-.16v4.68a.32.32,0,1,1-.64,0v-2.62h-.15v2.62a.32.32,0,1,1-.65,0v-4.68h-.16v1.7a.26.26,0,0,1-.52,0v-2.49c0-.14.12-.41.26-.41h2.27c.14,0,.25.27.25.41Z"></path>
  <path class="cls-18" d="M497.6,452.32v12.15h6.81V452.32Zm3.4,2.23a.6.6,0,1,1-.6.6A.6.6,0,0,1,501,454.56Zm1.39,4.37a.26.26,0,1,1-.52,0v-1.7h-.16v4.68a.32.32,0,1,1-.65,0v-2.62h-.15v2.62a.32.32,0,1,1-.65,0v-4.68h-.16v1.7a.26.26,0,1,1-.52,0v-2.49c0-.14.12-.41.26-.41h2.27c.14,0,.25.27.25.41Z"></path>
  <rect class="cls-18" x="493.56" y="449.94" width="7.55" height="2.04"></rect>
  <polygon class="cls-18" points="506.27 455.75 504.93 457.56 505.67 457.56 505.67 460 506.87 460 506.87 457.56 507.61 457.56 506.27 455.75"></polygon>
  <polygon class="cls-18" points="488.41 460 487.07 458.19 487.81 458.19 487.81 455.75 489.01 455.75 489.01 458.19 489.75 458.19 488.41 460"></polygon>
  <ellipse class="cls-17" cx="465.29" cy="458.21" rx="11.93" ry="12.21"></ellipse>
  <path class="cls-18" d="M458.23,453.32v12.15H465V453.32Zm3.4,2.23a.6.6,0,1,1-.6.6A.6.6,0,0,1,461.63,455.56Zm1.39,4.37a.26.26,0,0,1-.52,0v-1.7h-.16v4.68a.32.32,0,1,1-.64,0v-2.62h-.15v2.62a.32.32,0,1,1-.65,0v-4.68h-.16v1.7a.26.26,0,0,1-.52,0v-2.49c0-.14.12-.41.26-.41h2.27c.14,0,.25.27.25.41Z"></path>
  <path class="cls-18" d="M465.55,453.32v12.15h6.81V453.32Zm3.4,2.23a.6.6,0,1,1-.6.6A.6.6,0,0,1,469,455.56Zm1.39,4.37a.26.26,0,1,1-.52,0v-1.7h-.16v4.68a.32.32,0,1,1-.65,0v-2.62h-.15v2.62a.32.32,0,1,1-.65,0v-4.68h-.16v1.7a.26.26,0,1,1-.52,0v-2.49c0-.14.12-.41.26-.41h2.27c.14,0,.25.27.25.41Z"></path>
  <rect class="cls-18" x="461.52" y="450.94" width="7.55" height="2.04"></rect>
  <polygon class="cls-18" points="474.22 456.75 472.88 458.56 473.62 458.56 473.62 461 474.82 461 474.82 458.56 475.56 458.56 474.22 456.75"></polygon>
  <polygon class="cls-18" points="456.36 461 455.02 459.19 455.76 459.19 455.76 456.75 456.96 456.75 456.96 459.19 457.7 459.19 456.36 461"></polygon>
  <ellipse class="cls-19" cx="559.96" cy="514.88" rx="11.97" ry="12.25"></ellipse>
  <circle class="cls-18" cx="560.04" cy="507.56" r="1.35"></circle>
  <path class="cls-18" d="M562.6,509.54h-5.12c-.32,0-.58.6-.58.92v5.61a.58.58,0,1,0,1.16,0v-3.83l.14,0a.73.73,0,0,1,.21,0v10.55a.73.73,0,0,0,1.45,0v-5.92h.34v5.92a.73.73,0,0,0,1.45,0V512.26a.73.73,0,0,1,.21,0l.14,0v3.83a.58.58,0,1,0,1.16,0v-5.61C563.18,510.14,562.92,509.54,562.6,509.54Z"></path>
  <ellipse class="cls-19" cx="489.28" cy="515.54" rx="11.97" ry="12.25"></ellipse>
  <circle class="cls-18" cx="489.2" cy="508.23" r="1.35"></circle>
  <path class="cls-18" d="M491.72,511.13c0-.32-.26-.92-.58-.92h-3.76c-.32,0-.58.6-.58.92l-1.35,5.61a.58.58,0,1,0,1.16,0l1-4.73h.1l-1.11,6a.37.37,0,0,0,.34.39h.69v5.09a.73.73,0,0,0,1.45,0v-5.09h.34v5.09a.73.73,0,0,0,1.45,0v-5.09h.57a.37.37,0,0,0,.34-.39l-1-6h.1l.9,4.73a.58.58,0,1,0,1.16,0Z"></path>
  <ellipse class="cls-19" cx="641.79" cy="510.21" rx="11.97" ry="12.25"></ellipse>
  <circle class="cls-18" cx="641.88" cy="502.9" r="1.35"></circle>
  <path class="cls-18" d="M644.43,504.88h-5.12c-.32,0-.58.6-.58.92v5.61a.58.58,0,1,0,1.16,0v-3.83l.14,0a.73.73,0,0,1,.21,0v10.55a.73.73,0,0,0,1.45,0v-5.92H642v5.92a.73.73,0,0,0,1.45,0V507.59a.73.73,0,0,1,.21,0l.14,0v3.83a.58.58,0,1,0,1.16,0V505.8C645,505.48,644.76,504.88,644.43,504.88Z"></path>
  <ellipse class="cls-19" cx="645.02" cy="464.47" rx="11.97" ry="12.25"></ellipse>
  <circle class="cls-18" cx="644.94" cy="457.16" r="1.35"></circle>
  <path class="cls-18" d="M647.46,460.06c0-.32-.26-.92-.58-.92h-3.76c-.32,0-.58.6-.58.92l-1.35,5.61a.58.58,0,1,0,1.16,0l1-4.73h.1l-1.11,6a.37.37,0,0,0,.34.39h.69v5.09a.73.73,0,0,0,1.45,0v-5.09h.34v5.09a.73.73,0,0,0,1.45,0v-5.09h.57a.37.37,0,0,0,.34-.39l-1-6h.1l.9,4.73a.58.58,0,1,0,1.16,0Z"></path>
  <polygon class="cls-2" points="453.36 389.34 465.55 375.67 589.35 375.67 589.35 389.34 453.36 389.34"></polygon>
  <text class="cls-5" transform="translate(499.01 386.06) scale(0.88 1)">Escal<tspan class="cls-11" x="23.73" y="0">a</tspan><tspan class="cls-15" x="29.02" y="0">t</tspan><tspan x="32.62" y="0">or</tspan></text>
</svg>
