<?xml version="1.0" encoding="UTF-8"?>
<svg xmlns="http://www.w3.org/2000/svg" id="Layer_1" data-name="Layer 1" viewBox="0 0 1224 792">
  <defs>
    <style>.cls-1{fill:#d2d3d4;}.cls-2{fill:#ffce10;}.cls-3{fill:#415fac;}.cls-4,.cls-6{fill:#58595b;}.cls-5{fill:#59595b;}.cls-6{font-size:9px;font-family:Gotham-Bold, Gotham;font-weight:700;}.cls-7{letter-spacing:-0.03em;}.cls-8{letter-spacing:-0.01em;}.cls-9{letter-spacing:-0.02em;}.cls-10{letter-spacing:0.01em;}.cls-11{letter-spacing:-0.01em;}.cls-12{fill:#8dc63f;}.cls-13{fill:#fff;}.cls-14{fill:#1b75bc;}</style>
  </defs>
  <title>HomerbabbidgeLibrary_Level3</title>
  <rect class="cls-1" x="612.12" y="2.09" width="198.12" height="638.29"></rect>
  <rect class="cls-1" x="910.85" y="566.83" width="99.07" height="75.83" transform="translate(1920.76 1209.48) rotate(180)"></rect>
  <rect class="cls-1" x="909" y="145.42" width="99.07" height="76.75" transform="translate(1917.07 367.58) rotate(180)"></rect>
  <rect class="cls-1" x="221.09" y="566.99" width="93.82" height="75.83" transform="translate(536 1209.82) rotate(180)"></rect>
  <rect class="cls-1" x="218.53" y="145.06" width="200.41" height="75.83" transform="translate(637.47 365.95) rotate(180)"></rect>
  <rect class="cls-2" x="956.7" y="144.47" width="33.47" height="79.01"></rect>
  <rect class="cls-2" x="956.52" y="564.22" width="33.47" height="79.37"></rect>
  <rect class="cls-2" x="239.59" y="566.3" width="33.47" height="76.09"></rect>
  <rect class="cls-2" x="238.11" y="144.13" width="33.47" height="77.69"></rect>
  <rect class="cls-3" x="302.53" y="42.74" width="5.84" height="9.69" transform="translate(353.04 -257.87) rotate(90)"></rect>
  <polygon class="cls-1" points="147.56 448 117.32 448 117.32 144.69 78.97 144.69 78.97 649.43 117.32 649.43 117.32 647.52 122.56 647.52 122.56 546.18 147.56 546.18 147.56 448"></polygon>
  <rect class="cls-1" x="216.58" y="8.43" width="99.03" height="37.92" transform="translate(532.19 54.78) rotate(180)"></rect>
  <rect class="cls-1" x="608.48" y="4.14" width="15.44" height="17.48" transform="translate(1232.39 25.75) rotate(180)"></rect>
  <rect class="cls-1" x="906.66" y="1.49" width="98.79" height="43.69" transform="translate(1912.1 46.68) rotate(180)"></rect>
  <polygon class="cls-1" points="1144.6 536.02 1144.6 143.64 1103.47 143.64 1103.47 442.17 1077.75 442.17 1077.75 539.59 1103.47 539.59 1106.42 539.59 1106.42 638.52 1146.67 638.52 1146.67 536.02 1144.6 536.02"></polygon>
  <rect class="cls-1" x="938.93" y="711.69" width="40.25" height="100.38" transform="translate(197.17 1720.93) rotate(-90)"></rect>
  <rect class="cls-1" x="687.97" y="665.62" width="45.73" height="201.1" transform="translate(1477.01 55.34) rotate(90)"></rect>
  <rect class="cls-1" x="249.98" y="718.56" width="42.37" height="97.92" transform="translate(1038.68 496.35) rotate(90)"></rect>
  <polygon class="cls-2" points="790.13 501.04 713.43 501.04 713.43 440.69 728.66 440.69 730.76 447.45 773.05 447.77 774.34 440.69 790.13 440.69 790.13 501.04"></polygon>
  <path class="cls-4" d="M271.45,174.61v-4.44H255.11v-2.88h15.78v-1.12H255.11v-1.42h-.86v0h-17v1.12h15.64v2.64H236.8v3.9h16.08v2.51h-16v4.39h16v2H236.95v5.18h15.93v1.91H237v4.57h15.85v1.42h-15.4v1.12h15.4v1.65h2.24v0h15.43V196H255.11v-1.79h16.34v-5.12H255.11v-1.79h16.34v-4.86H255.11v-1.77h16.34v-4.12H255.11v-1.92Zm-1.12-3.32v2.2H255.11v-2.2Zm-32.42,0V169.6h15v1.66Zm.12,6.9V176h14.84v2.15Zm0,7.15v-2.94h14.81v2.94Zm.08,6.48v-2.33h14.73v2.33Zm32.18-1.61v2.88H255.11v-2.88Zm0-6.65v2.62H255.11v-2.62Zm0-5.89v1.88H255.11v-1.88Z"></path>
  <path class="cls-4" d="M273.65,601.8v-4.44H257.31v-2.88h15.78v-1.12H257.31v-1.42h-.86v0h-17V593h15.64v2.64H239v3.9h16.08v2.51h-16v4.39h16v2H239.14v5.18h15.93v1.91H239.23v4.57h15.85v1.42h-15.4v1.12h15.4v1.65h2.24v0h15.43v-1.12H257.31v-1.79h16.34v-5.12H257.31v-1.79h16.34V609.6H257.31v-1.77h16.34v-4.12H257.31V601.8Zm-1.12-3.32v2.2H257.31v-2.2Zm-32.42,0v-1.66h15v1.66Zm.12,6.9V603.2h14.84v2.15Zm0,7.15v-2.94h14.81v2.94Zm.08,6.48v-2.33h14.73V619Zm32.18-1.61v2.88H257.31v-2.88Zm0-6.65v2.62H257.31v-2.62Zm0-5.89v1.88H257.31v-1.88Z"></path>
  <path class="cls-4" d="M990.58,598.44V594H974.25v-2.88H990V590H974.25v-1.42h-.86v0h-17v1.12H972v2.64H955.93v3.9H972v2.51H956v4.39h16v2H956.08v5.18H972v1.91H956.16v4.57H972v1.42H956.6v1.12H972v1.65h2.24v0h15.43V619.8H974.25V618h16.34v-5.12H974.25v-1.79h16.34v-4.86H974.25v-1.77h16.34v-4.12H974.25v-1.92Zm-1.12-3.32v2.2H974.25v-2.2Zm-32.42,0v-1.66h15v1.66Zm.12,6.9v-2.15H972V602Zm0,7.15V606.2H972v2.94Zm.08,6.48v-2.33H972v2.33ZM989.46,614v2.88H974.25V614Zm0-6.65V610H974.25v-2.62Zm0-5.89v1.88H974.25v-1.88Z"></path>
  <path class="cls-4" d="M990,175.25v-4.44H973.65v-2.88h15.78v-1.12H973.65v-1.42h-.86v0h-17v1.12h15.64v2.64H955.33V173h16.08v2.51h-16v4.39h16v2H955.48v5.18h15.93V189H955.57v4.57h15.85V195H956v1.12h15.4v1.65h2.24v0h15.43v-1.12H973.65v-1.79H990v-5.12H973.65v-1.79H990v-4.86H973.65v-1.77H990v-4.12H973.65v-1.92Zm-1.12-3.32v2.2H973.65v-2.2Zm-32.42,0v-1.66h15v1.66Zm.12,6.9v-2.15h14.84v2.15Zm0,7.15V183h14.81V186Zm.08,6.48V190.1h14.73v2.33Zm32.18-1.61v2.88H973.65v-2.88Zm0-6.65v2.62H973.65v-2.62Zm0-5.89v1.88H973.65v-1.88Z"></path>
  <path class="cls-4" d="M791.79,467.79v-4.35H711.6v1h16.46v1.89H710.54v4.46h17.52v2H710.54v4.11h17.52v1.57H711.14v1.12h17.76V500h47.22V479.55h15.66v-3.44h-15v-1.85h15v-4.39h-15v-2.08Zm-15-3.22h13.76v2.1H776.81Zm-48.76,11.17H711.75v-1.86h16.31Zm0-6.08H711.75v-2.22h16.31Zm5,29.24h-2.95V479.55h2.95Zm3.1,0h-1.89V479.58h1.89Zm1.21,0V479.55h2.72v14.9l-2.63,4.44Zm1.48,0,5.42-9.17h2.45l-5.25,9.17Zm4-9.17-1.58,2.68V479.55h2.34v8.89l-.1.16h-1.09v1.12Zm4.2,9.17h-4.25l4.25-7.41Zm-2.15-10.29,5.35-9h2.26l-5.19,9Zm-.07-2.21v-6.84h4Zm5.26,12.5h-1.82v-9.17h1.44V488.6h-1l1.38-2.42Zm3.85,0h-2.64V484.07l2.59-4.52H754Zm3.59,0H755.2V479.55h2.38Zm3.33,0H758.8V479.55h2.12Zm3.4,0h-2.19V479.55h2.19Zm3.63,0h-2.42V479.55H768Zm3.56,0h-2.34V479.55h2.34Zm3.41,0h-2.19V479.55h2.19Zm.69-32.95v12.48H729.27V464.57H775.6Zm15,11.29v1.19H776.81v-1.19Zm0-6.24v2.14H776.81V471Z"></path>
  <path class="cls-5" d="M216.85,142.15v23.17h3.36V145.51h16v30.78h-16V175h-3.36v5.82h3.36v-1.18h16v40.8h-16V202.25h-3.36V223.8h37.58v-3.36H239.58V145.51h30v74.94h-2.4v3.36H386v-3.36H321V145.51h53.71v41.21h43.68v33.73H407.45v3.36h14.27V142.15Zm100.76,78.3H273V145.51H317.6Zm100.76-37.09H378V145.51h40.32Z"></path>
  <path class="cls-5" d="M268.24,566.3v3.36h2.83v70.49H241.15V569.66h17.4V566.3H219.41v23.1h3.36V569.66h15v41.77h-15v-.6h-3.36v5.82h3.36V614.8h15v25.36h-15V626.34h-3.36v17.17h97V566.3ZM313,640.16H274.42V569.66H313Z"></path>
  <path class="cls-5" d="M1008.61,623.62v17.83H993.53V612h15.09v2H1012v-7.38h-3.36v2.07H993.53v-41h15.09v18.55H1012v-21.9H969.8v3.36h20.37v73.87H958.39V567.58h1.72v-3.36H908.25v80.58H1012V623.62ZM955,641.45H911.61V567.58H955Z"></path>
  <path class="cls-5" d="M1009.21,163.56v-21.5H907.86v81.42h51.81v-3.36h-1.73v-74.7h30.36v74.7H969.36v3.36h39.85V201h-3.36v19.07H991.67V178.77h14.18v1.85h3.36v-7.38h-3.36v2.17H991.67v-30h14.18v18.14Zm-54.62,56.56H911.22v-74.7h43.37Z"></path>
  <polygon class="cls-5" points="1079.37 442.17 1088.32 442.17 1088.32 438.81 1076.01 438.81 1076.01 542.39 1089.09 542.39 1089.09 539.03 1079.37 539.03 1079.37 442.17"></polygon>
  <polygon class="cls-5" points="807.31 555.99 796.86 555.99 796.86 559.35 808.55 559.35 808.55 640.38 613.8 640.38 613.8 559.35 626.54 559.35 626.54 555.99 616.28 555.99 613.8 555.99 610.44 555.99 610.44 643.74 811.91 643.74 811.91 556.01 807.31 556.01 807.31 555.99"></polygon>
  <rect class="cls-5" x="625.98" y="343.41" width="167.19" height="3.36"></rect>
  <polygon class="cls-5" points="613.8 245.22 617.06 245.22 617.06 241.86 613.8 241.86 613.8 146.98 616.3 146.98 616.3 143.62 613.8 143.62 613.8 63.37 610.44 63.37 610.44 395.54 613.8 395.54 613.8 346.77 617.06 346.77 617.06 343.41 613.8 343.41 613.8 245.22"></polygon>
  <polygon class="cls-5" points="808.55 62.04 808.55 241.86 739.81 241.86 739.81 143.62 625.21 143.62 625.21 146.98 736.45 146.98 736.45 241.86 625.98 241.86 625.98 245.22 808.55 245.22 808.55 343.41 802.08 343.41 802.08 346.77 808.55 346.77 808.55 394.19 811.91 394.19 811.91 62.04 808.55 62.04"></polygon>
  <rect class="cls-5" x="725.65" y="45.06" width="16.12" height="3.36"></rect>
  <path class="cls-5" d="M805.1,478.11v3.36h3.45v0h3.36V416.82h-3.36v23.87h-22.7v3.36h3.72V498.4H713.43V444.05h3v-3.36H613.8V418.34h-3.36V547.15H811.91v-41.3h-3.36V543.8H613.8V444.05h11.06v80.18h3.36V476.64H689.1v23.69H638.87V511.9H709.5v31.17h3.36V511.9h80.08V481.47h3.26v-3.36h-3.26V444.05h15.62v34.06ZM628.22,444.05h31.65v29.23H628.22Zm35,29.23V444.05h34.32v29.23Zm126.34,35.26H642.22v-4.85h50.24V476.64h8.45V444.05h9.16v57.71h79.5Z"></path>
  <polygon class="cls-5" points="775.54 449.11 775.54 444.05 776.95 444.05 776.95 440.69 772.18 440.69 772.18 445.75 731.59 445.75 731.59 440.69 725.38 440.69 725.38 444.05 728.23 444.05 728.23 449.11 775.54 449.11"></polygon>
  <path class="cls-5" d="M1127.62,140V117.34h16.85V114h-16.85V93.68h16.85V90.32h-16.85v-19h16.85V68h-16.85V46.54h16.85V43.18h-16.85V17.3h-29.68V1.53h-3.36V17.3h-20.3V1.53h-3.36V17.3h-19V1.53h-3.36V17.3h-21.42V1.53h-3.36V17.3h-15V0H901.06V21.23H813V0H605.39V18.09H583.16V4.24H579.8V18.09h-19V4.24h-3.36V18.09H536V4.24h-3.36V18.09H514.08V3.94h-3.36V18.09h-19V3.94h-3.36V18.09H466.94V3.94h-3.36V18.09h-19V4h-3.36V18.09H415.65V4h-3.36V18.09H392.21V4h-3.36V18.09H369.1V4h-3.36V18.09h-19V4h-3.36V18.09H319.53V4.72H214.31V22l-20.37.23V6.15h-3.36V22.32l-20.12.23V6.15H167.1V22.58l-20.3.23V6.15h-3.36V22.84L123,23.07V7.47h-3.36V23.11l-24,.27V47H78.37v3.36H95.6V70.48H78.37v3.36H95.6v20.3H78.37v3.36H95.6V118h-17v3.36h17v23.35H76.17V652H95.6v17H80.28v3.36H95.6v20.12H80.28v3.36H95.6v20.3H80.28v3.36H95.6V740h-14v3.36h14v32.13h31.28v15.27h3.36V775.44h20.47v15.06h3.36V775.44h20.3v15.06h3.36V775.44h20.12v15.06h3.36V775.44h18.87v15.73H321.25V774.66h22.47v16.51h3.36V774.66h20.84v16.51h3.36V774.66h19v16.51h3.36V774.66h24.53v16.51h3.36V774.66h21.42v16.51h3.36V774.66h19v16.51h3.36V774.66H489v16.51h3.36V774.66h22.83V789h3.36V774.66h21.42V789h3.36V774.66h19V789h3.36V774.66H586V789h3.36V774.66h18.42v16.51H814.18V771.51h22V787h3.36V771.51h21.42V787h3.36V771.51h19V787h3.36V771.51h19.12v13.37h104.58V769.94h19.14V787h3.36v-17.1h21.42V787h3.36v-17.1h19V787H1080v-17.1h20.3V787h3.36v-17.1h27.11V644.12h17.3V140ZM292,10.32h21.88V23.68h1.68V46.49h-24Zm850.42,429.05h-38V418h38Zm0-272.43h-38v-8h-3.36v21.47h3.36V169.18h38v22.15h-38V190h-3.36v4.59h3.36v-1.07h38v21.65h-38V204.32h-3.36v26.53h3.36v-13.4h38v24.14h-38v-1.05h-3.36v4.59h3.36v-1.29h38v22.65h-38V254.82h-3.36v25h3.36V268.72h38v22.15h-38v-1.37h-3.36v4.59h3.36v-1h38v22.65h-38v-12h-3.36V329.1h3.36V318h38v22.15h-38v-1.35h-3.36v4.59h3.36v-1h38V365h-38v-12h-3.36v26.46h3.36V367.27h38v23.47h-38v-1.53h-3.36v4.59h3.36V393h38v22.82h-38V403.48h-3.36v35.33H1098v3.36h6.51v-.56h38v98h-35V539h-8.74v3.36h5.38v3.85h3.36v-4.41h35v22.28h-35v-8.18h-3.36V578.2h3.36V566.35h35V589h-35v-1.1h-3.36v4.59h3.36v-1.24h35v23.14h-35V602.16h-3.36V625.1h3.36v-8.48h35v21.91h-17.3v1.12h-17.65v-4.85h-3.36V643h21V764.34H1009.24v-24h-6.77v3.36h3.41v20.66h-1.12v14.94H986.19v-35.6h6.59v-3.36h-21v3.36H984v35.6H960.11v-35.6h2v-3.36h-5.4v3.36h1.2v35.6H934.79v-35.6H947v-3.36H924.92v3.36h7.63v35.6H911.37V765.91h-1.12V743.68h5v-3.36H906.9v25.59H813.06V742h-6.88v3.36h3.52v20.53h-1.12v19.66H787.71V745.38h8.79V742H774.36v3.36h11.11v40.19H763.06V745.38h1.61V742h-5.4v3.36h1.55v40.19H739.25V745.38h10.34V742H723.4v3.36H737v40.19H712.08V745.38h1.63V742h-5.4v3.36h1.53v40.19h-20.1V745.38h8.89V742h-23v3.36H687.5v40.19H663.78V745.38H666V742h-5.4v3.36h1v40.19h-22.1V745.38h11.46V742H629v3.36h8.24v40.19H613.34V769.06h-1.12V745.38h7V742h-10.4v27H322V744.58h-7.92v3.36h4.56v21.12h-3v16.51H296.06V747.94h8.3v-3.36h-20.3v3.36h9.76v37.63H272.7V747.94h1.68v-3.36H269v3.36h1.48v37.63H247.29V747.94h12v-3.36H236.57v3.36H245v37.63H225.67V769.84h-1.12v-21.9h2.33v-3.36h-5.69v25.26h-120V649.43h23.46v-7.77H121.3v4.41H98.4v.32H81.77v-22.3H121.3V632h3.36V610H121.3v11.87H81.77V598.7H121.3v1.59h3.36v-5.4H121.3v1.57H81.77V574.31H121.3V585.2h3.36V562.8H121.3v9.28H81.77v-23H121.3v4h3.36v-3.47H127v-3.36h-5.7v.56H81.77V501.2h64.12v45.08h-9.2v3.36h12.56V445.2H136v3.36h9.91V499H81.77V448h35.55v.56h9V445.2h-5.61V442h-3.36v3.72H81.77V424h35.55v8.35h3.36V410h-3.36v11.81H81.77v-23h35.55v1.53h3.36V395h-3.36v1.53H81.77V373.74h35.55v11.55h3.36V359.76h-3.36V371.5H81.77V348.35h35.55v1.72h3.36v-5.3h-3.36v1.34H81.77V324.46h35.55v10.62h3.36V309.66h-3.36v12.56H81.77V298.58h35.55V300h3.36v-5.3h-3.36v1.67H81.77V274.19h35.55V285h3.36V259.53h-3.36V272H81.77V248.31h35.55v1.53h3.36v-5.3h-3.36v1.54H81.77V224.42h35.55v10.43h3.36v-24.7h-3.36v12H81.77V199h35.55v1.42h3.36v-5.3h-3.36v1.64H81.77V174.65h35.55v10.82h3.36V163.11h-3.36v9.31H81.77V150.29H101.2v-1.12h16.12v4.25h3.36v-7.61H101.2V28.92L216,27.63v21.1h7V46.49h-4.77V27.6l1.68,0V10.32h19.72V46.49h-6.94v2.24h22.42V46.49H241.87V10.32H265.8V46.49h-1v2.24h4.59V46.49H268V10.32h21.77l-.45,36.18H279.07v2.24h38.77v-25H610.44v30h3.36V48.54h4.51V45.18H613.8V20.89H611V5.6H656.1V45.18H628v3.36h71.23V45.18H659.45V5.6h50V45.18h-.58v3.36h4.59V45.18h-.65V5.6h42.78V45.18h-.57v3.36h4.59V45.18H759V5.6h48.44V26.83h1.12V45.18H769.34v3.36h39.22v3.81h3.36V26.83h92.66V48.54h5.36V45.18h-2V24h-1.27V5.6H928.4V45.18h-8.79v3.36h24.53V45.18H930.64V5.6H955V45.18h-1.14v3.36h4.59V45.18h-1.21V5.6h19.47V45.18h-8.57v3.36h20.41V45.18h-9.6V5.6h24.22V22.9h1.12V45.18h-6v3.36h9.41V22.9H1122V140.71h-20.87v8.49h3.36v-5.13H1122v1.5h20.45Z"></path>
  <rect class="cls-5" x="1130.8" y="710.74" width="17.27" height="3.36"></rect>
  <rect class="cls-5" x="1130.8" y="734.41" width="17.27" height="3.36"></rect>
  <rect class="cls-5" x="1130.8" y="688.38" width="17.27" height="3.36"></rect>
  <rect class="cls-5" x="1130.8" y="663.6" width="17.27" height="3.36"></rect>
  <rect class="cls-5" x="875.72" y="3.94" width="3.36" height="17.27"></rect>
  <rect class="cls-5" x="853.36" y="3.94" width="3.36" height="17.27"></rect>
  <rect class="cls-5" x="828.58" y="3.94" width="3.36" height="17.27"></rect>
  <text class="cls-6" transform="translate(244.73 158.26) scale(0.88 1)">S3D</text>
  <text class="cls-6" transform="translate(96.96 477.32) scale(0.88 1)">3<tspan class="cls-7" x="5.59" y="0">-</tspan><tspan x="8.99" y="0">166B</tspan></text>
  <text class="cls-6" transform="translate(96.96 527.47) scale(0.88 1)">3<tspan class="cls-7" x="5.59" y="0">-</tspan><tspan x="8.99" y="0">166A</tspan></text>
  <text class="cls-6" transform="translate(121.07 750.14) scale(0.88 1)">31<tspan class="cls-8" x="9.39" y="0">6</tspan><tspan x="15.25" y="0">1</tspan></text>
  <text class="cls-6" transform="translate(248.48 583.64) scale(0.88 1)">S3A</text>
  <text class="cls-6" transform="translate(455.25 758.62) scale(0.88 1)">3156</text>
  <text class="cls-6" transform="translate(699.78 602.32) scale(0.88 1)">3<tspan class="cls-7" x="5.59" y="0">-</tspan><tspan x="8.99" y="0">1</tspan><tspan class="cls-8" x="12.79" y="0">9</tspan><tspan x="18.66" y="0">3</tspan></text>
  <text class="cls-6" transform="translate(646.42 491.62) scale(0.88 1)">3204</text>
  <text class="cls-6" transform="translate(695.67 387.23) scale(0.88 1)">3<tspan class="cls-7" x="5.59" y="0">-</tspan><tspan x="8.99" y="0">199</tspan></text>
  <text class="cls-6" transform="translate(697.51 302.76) scale(0.88 1)">3<tspan class="cls-7" x="5.59" y="0">-</tspan><tspan x="8.99" y="0">198</tspan></text>
  <text class="cls-6" transform="translate(663.11 203.79) scale(0.88 1)">3<tspan class="cls-7" x="5.59" y="0">-</tspan><tspan x="8.99" y="0">183</tspan></text>
  <text class="cls-6" transform="translate(693.79 106.97) scale(0.88 1)">3<tspan class="cls-7" x="5.59" y="0">-</tspan><tspan x="8.99" y="0">185</tspan></text>
  <text class="cls-6" transform="translate(626.23 30.84) scale(0.88 1)">3<tspan class="cls-7" x="5.59" y="0">-</tspan><tspan x="8.99" y="0">1</tspan><tspan class="cls-9" x="12.79" y="0">0</tspan><tspan x="19.13" y="0">7</tspan></text>
  <text class="cls-6" transform="translate(671.46 29.98) scale(0.88 1)">3<tspan class="cls-7" x="5.59" y="0">-</tspan><tspan x="8.99" y="0">110</tspan></text>
  <text class="cls-6" transform="translate(717.15 27.46) scale(0.88 1)">3<tspan class="cls-7" x="5.59" y="0">-</tspan><tspan x="8.99" y="0">111</tspan><tspan class="cls-10" x="20.38" y="0">/</tspan><tspan x="25.24" y="0">12</tspan></text>
  <text class="cls-6" transform="translate(772.21 30.84) scale(0.88 1)">3<tspan class="cls-7" x="5.59" y="0">-</tspan><tspan x="8.99" y="0">113</tspan></text>
  <text class="cls-6" transform="translate(852.71 48.14) scale(0.88 1)">3<tspan class="cls-7" x="5.59" y="0">-</tspan><tspan x="8.99" y="0">116</tspan></text>
  <text class="cls-6" transform="translate(1080.61 49.26) scale(0.88 1)">3122</text>
  <text class="cls-6" transform="translate(1096.28 494.89) scale(0.88 1)">3<tspan class="cls-7" x="5.59" y="0">-</tspan><tspan x="8.99" y="0">1</tspan><tspan class="cls-11" x="12.79" y="0">3</tspan><tspan x="18.33" y="0">5</tspan></text>
  <text class="cls-6" transform="translate(1082.63 743.45) scale(0.88 1)">3140</text>
  <text class="cls-6" transform="translate(851.26 751.27) scale(0.88 1)">3146</text>
  <text class="cls-6" transform="translate(332.05 168.48) scale(0.88 1)">3<tspan class="cls-7" x="5.59" y="0">-</tspan><tspan x="8.99" y="0">182</tspan></text>
  <text class="cls-6" transform="translate(117.71 54.74) scale(0.88 1)">3100</text>
  <text class="cls-6" transform="translate(450.92 48.14) scale(0.88 1)">3105</text>
  <text class="cls-6" transform="translate(944.86 383.23) scale(0.88 1)">31<tspan class="cls-11" x="9.39" y="0">8</tspan><tspan x="15.01" y="0">9</tspan></text>
  <text class="cls-6" transform="translate(363.84 401.52) scale(0.88 1)">31<tspan class="cls-8" x="9.39" y="0">9</tspan><tspan x="15.25" y="0">7</tspan></text>
  <text class="cls-6" transform="translate(963.9 582.52) scale(0.88 1)">S3B</text>
  <text class="cls-6" transform="translate(966.07 158.26) scale(0.88 1)">S3C</text>
  <text class="cls-6" transform="translate(742.22 459.05) scale(0.88 1)">S3E</text>
  <ellipse class="cls-12" cx="679.48" cy="457.67" rx="11.93" ry="12.21"></ellipse>
  <path class="cls-13" d="M672.42,452.79v12.15h6.81V452.79Zm3.4,2.23a.6.6,0,1,1-.6.6A.6.6,0,0,1,675.82,455Zm1.39,4.37a.26.26,0,0,1-.52,0v-1.7h-.16v4.68a.32.32,0,1,1-.64,0v-2.62h-.15v2.62a.32.32,0,1,1-.65,0V457.7h-.16v1.7a.26.26,0,0,1-.52,0v-2.49c0-.14.12-.41.26-.41H677c.14,0,.25.27.25.41Z"></path>
  <path class="cls-13" d="M679.74,452.79v12.15h6.81V452.79Zm3.4,2.23a.6.6,0,1,1-.6.6A.6.6,0,0,1,683.14,455Zm1.39,4.37a.26.26,0,1,1-.52,0v-1.7h-.16v4.68a.32.32,0,1,1-.65,0v-2.62h-.15v2.62a.32.32,0,1,1-.65,0V457.7h-.16v1.7a.26.26,0,1,1-.52,0v-2.49c0-.14.12-.41.26-.41h2.27c.14,0,.25.27.25.41Z"></path>
  <rect class="cls-13" x="675.71" y="450.4" width="7.55" height="2.04"></rect>
  <polygon class="cls-13" points="688.41 456.21 687.07 458.02 687.81 458.02 687.81 460.46 689.01 460.46 689.01 458.02 689.75 458.02 688.41 456.21"></polygon>
  <polygon class="cls-13" points="670.55 460.46 669.21 458.65 669.95 458.65 669.95 456.21 671.15 456.21 671.15 458.65 671.89 458.65 670.55 460.46"></polygon>
  <ellipse class="cls-12" cx="644.43" cy="458.67" rx="11.93" ry="12.21"></ellipse>
  <path class="cls-13" d="M637.37,453.79v12.15h6.81V453.79Zm3.4,2.23a.6.6,0,1,1-.6.6A.6.6,0,0,1,640.78,456Zm1.39,4.37a.26.26,0,0,1-.52,0v-1.7h-.16v4.68a.32.32,0,1,1-.64,0v-2.62h-.15v2.62a.32.32,0,1,1-.65,0V458.7h-.16v1.7a.26.26,0,0,1-.52,0v-2.49c0-.14.12-.41.26-.41h2.27c.14,0,.25.27.25.41Z"></path>
  <path class="cls-13" d="M644.69,453.79v12.15h6.81V453.79Zm3.4,2.23a.6.6,0,1,1-.6.6A.6.6,0,0,1,648.09,456Zm1.39,4.37a.26.26,0,1,1-.52,0v-1.7h-.16v4.68a.32.32,0,1,1-.65,0v-2.62H648v2.62a.32.32,0,1,1-.65,0V458.7h-.16v1.7a.26.26,0,1,1-.52,0v-2.49c0-.14.12-.41.26-.41h2.27c.14,0,.25.27.25.41Z"></path>
  <rect class="cls-13" x="640.66" y="451.4" width="7.55" height="2.04"></rect>
  <polygon class="cls-13" points="653.36 457.21 652.02 459.02 652.76 459.02 652.76 461.46 653.96 461.46 653.96 459.02 654.7 459.02 653.36 457.21"></polygon>
  <polygon class="cls-13" points="635.5 461.46 634.16 459.65 634.9 459.65 634.9 457.21 636.1 457.21 636.1 459.65 636.84 459.65 635.5 461.46"></polygon>
  <ellipse class="cls-14" cx="747.1" cy="527.34" rx="11.97" ry="12.25"></ellipse>
  <circle class="cls-13" cx="747.18" cy="520.03" r="1.35"></circle>
  <path class="cls-13" d="M749.74,522h-5.12c-.32,0-.58.6-.58.92v5.61a.58.58,0,1,0,1.16,0v-3.83l.14,0a.73.73,0,0,1,.21,0v10.55a.73.73,0,0,0,1.45,0v-5.92h.34v5.92a.73.73,0,0,0,1.45,0V524.72a.73.73,0,0,1,.21,0l.14,0v3.83a.58.58,0,1,0,1.16,0v-5.61C750.32,522.61,750.06,522,749.74,522Z"></path>
  <ellipse class="cls-14" cx="676.42" cy="528.01" rx="11.97" ry="12.25"></ellipse>
  <circle class="cls-13" cx="676.34" cy="520.69" r="1.35"></circle>
  <path class="cls-13" d="M678.86,523.59c0-.32-.26-.92-.58-.92h-3.76c-.32,0-.58.6-.58.92l-1.35,5.61a.58.58,0,1,0,1.16,0l1-4.73h.1l-1.11,6a.37.37,0,0,0,.34.39h.69v5.09a.73.73,0,0,0,1.45,0v-5.09h.34v5.09a.73.73,0,0,0,1.45,0v-5.09h.57a.37.37,0,0,0,.34-.39l-1-6h.1l.9,4.73a.58.58,0,1,0,1.16,0Z"></path>
  <ellipse class="cls-12" cx="399.06" cy="164.72" rx="11.93" ry="12.21"></ellipse>
  <path class="cls-13" d="M392,159.84V172h6.81V159.84Zm3.4,2.23a.6.6,0,1,1-.6.6A.6.6,0,0,1,395.4,162.07Zm1.39,4.37a.26.26,0,0,1-.52,0v-1.7h-.16v4.68a.32.32,0,1,1-.64,0v-2.62h-.15v2.62a.32.32,0,1,1-.65,0v-4.68h-.16v1.7a.26.26,0,0,1-.52,0V164c0-.14.12-.41.26-.41h2.27c.14,0,.25.27.25.41Z"></path>
  <path class="cls-13" d="M399.31,159.84V172h6.81V159.84Zm3.4,2.23a.6.6,0,1,1-.6.6A.6.6,0,0,1,402.71,162.07Zm1.39,4.37a.26.26,0,1,1-.52,0v-1.7h-.16v4.68a.32.32,0,1,1-.65,0v-2.62h-.15v2.62a.32.32,0,1,1-.65,0v-4.68h-.16v1.7a.26.26,0,1,1-.52,0V164c0-.14.12-.41.26-.41h2.27c.14,0,.25.27.25.41Z"></path>
  <rect class="cls-13" x="395.28" y="157.45" width="7.55" height="2.04"></rect>
  <polygon class="cls-13" points="407.99 163.26 406.64 165.07 407.39 165.07 407.39 167.51 408.58 167.51 408.58 165.07 409.33 165.07 407.99 163.26"></polygon>
  <polygon class="cls-13" points="390.13 167.51 388.79 165.7 389.53 165.7 389.53 163.26 390.73 163.26 390.73 165.7 391.47 165.7 390.13 167.51"></polygon>
</svg>
