<?xml version="1.0" encoding="UTF-8"?>
<svg xmlns="http://www.w3.org/2000/svg" id="Layer_1" data-name="Layer 1" viewBox="0 0 1224 792">
  <defs>
    <style>.cls-1{fill:#d2d3d4;}.cls-2{fill:#ffce10;}.cls-3,.cls-5,.cls-7,.cls-9{fill:#58595b;}.cls-4{fill:#59595b;}.cls-5,.cls-7,.cls-9{font-size:9px;font-family:Gotham-Bold, Gotham;font-weight:700;}.cls-5{letter-spacing:-0.02em;}.cls-6{letter-spacing:0em;}.cls-8{letter-spacing:-0.03em;}.cls-13,.cls-9{letter-spacing:-0.02em;}.cls-10{letter-spacing:0em;}.cls-11{letter-spacing:-0.03em;}.cls-12{letter-spacing:-0.03em;}.cls-14{letter-spacing:0em;}.cls-15{letter-spacing:0em;}.cls-16{letter-spacing:-0.01em;}.cls-17{letter-spacing:-0.01em;}.cls-18{fill:#1b75bc;}.cls-19{fill:#fff;}.cls-20{fill:#8dc63f;}</style>
  </defs>
  <title>HomerBabbidgeLibrary_Level4</title>
  <rect class="cls-1" x="731.5" y="432" width="43.9" height="18.14" transform="translate(1506.9 882.14) rotate(180)"></rect>
  <rect class="cls-1" x="911.19" y="569.23" width="99.96" height="76.51" transform="translate(1922.34 1214.98) rotate(180)"></rect>
  <rect class="cls-1" x="909.33" y="144.05" width="99.96" height="77.43" transform="translate(1918.62 365.54) rotate(180)"></rect>
  <rect class="cls-1" x="215.25" y="569.4" width="94.66" height="76.51" transform="translate(525.17 1215.32) rotate(180)"></rect>
  <rect class="cls-1" x="212.67" y="143.69" width="202.21" height="76.51" transform="translate(627.55 363.89) rotate(180)"></rect>
  <polygon class="cls-1" points="114.79 44.45 213.86 44.45 213.86 5.19 105.39 5.19 105.39 6.37 77.61 6.37 77.61 243.84 114.79 243.84 114.79 44.45"></polygon>
  <rect class="cls-1" x="77.61" y="343.98" width="36.86" height="106.98"></rect>
  <rect class="cls-1" x="91.65" y="547.85" width="48.75" height="101.94"></rect>
  <rect class="cls-1" x="75.39" y="649.99" width="40.64" height="96.85"></rect>
  <rect class="cls-1" x="75.39" y="748.23" width="142.15" height="41.03"></rect>
  <rect class="cls-1" x="312.8" y="749.49" width="301.38" height="41.28"></rect>
  <rect class="cls-1" x="810.67" y="745.75" width="102.13" height="46.24"></rect>
  <polygon class="cls-1" points="1108.3 747.1 1012.47 747.1 1012.47 789.51 1149.48 789.51 1149.48 755.75 1150.72 755.75 1150.72 546.77 1108.3 546.77 1108.3 747.1"></polygon>
  <rect class="cls-1" x="1109.5" y="343.39" width="42.42" height="101.36"></rect>
  <polygon class="cls-1" points="1109.5 144.37 1079.9 144.37 1079.9 243.79 1130.04 243.79 1130.04 144.37 1149.79 144.37 1149.79 4.19 1146.58 4.19 1146.58 2.36 1006.39 2.36 1006.39 39.1 1109.5 39.1 1109.5 144.37"></polygon>
  <polygon class="cls-1" points="911.34 42.68 911.34 4.03 809.99 4.03 809.99 20 615.49 20 615.49 3.55 313.77 3.55 313.77 45.79 613.6 45.79 613.6 243.66 613.6 441.07 613.6 444.87 613.6 645.74 810.53 645.74 810.53 444.87 810.53 441.07 810.53 243.66 810.53 42.68 911.34 42.68"></polygon>
  <rect class="cls-2" x="957.45" y="143.1" width="33.77" height="79.72"></rect>
  <rect class="cls-2" x="957.27" y="566.61" width="33.77" height="80.08"></rect>
  <rect class="cls-2" x="233.92" y="568.71" width="33.77" height="76.77"></rect>
  <rect class="cls-2" x="232.42" y="142.75" width="33.77" height="78.39"></rect>
  <polygon class="cls-2" points="796.16 504.36 712.41 504.36 712.41 441.48 731.3 441.48 731.33 450.28 775.25 450.61 776.36 441.07 797 441.07 796.16 504.36"></polygon>
  <path class="cls-3" d="M266.07,173.51V169H249.58v-2.9H265.5V165H249.58v-1.44h-.87v0H231.55v1.13h15.78v2.67H231.1v3.93h16.22v2.54H231.22v4.43h16.11v2H231.25v5.22h16.07v1.92h-16V192h16v1.44H231.78v1.13h15.54v1.67h2.26v0h15.57v-1.13H249.58v-1.8h16.48v-5.16H249.58v-1.8h16.48v-4.91H249.58V179.6h16.48v-4.15H249.58v-1.93Zm-1.13-3.35v2.22H249.58v-2.22Zm-32.71,0v-1.67h15.09v1.67Zm.12,7v-2.17h15v2.17Zm0,7.21v-3h14.94v3Zm.08,6.54v-2.35h14.86v2.35Zm32.47-1.62v2.9H249.58v-2.9Zm0-6.71v2.65H249.58v-2.65Zm0-5.94v1.9H249.58v-1.9Z"></path>
  <path class="cls-3" d="M268.28,604.52V600H251.8v-2.9h15.92V596H251.8v-1.44h-.87v0H233.76v1.13h15.78v2.67H233.32v3.93h16.22v2.54H233.43v4.43h16.11v2H233.47v5.22h16.07v1.92h-16V623h16v1.44H234v1.13h15.54v1.67h2.26v0h15.57v-1.13H251.8v-1.8h16.48V619.1H251.8v-1.8h16.48V612.4H251.8v-1.79h16.48v-4.15H251.8v-1.93Zm-1.13-3.35v2.22H251.8v-2.22Zm-32.71,0v-1.67h15.09v1.67Zm.12,7v-2.17h15v2.17Zm0,7.21v-3h14.94v3Zm.08,6.54V619.5h14.86v2.35Zm32.47-1.62v2.9H251.8v-2.9Zm0-6.71v2.65H251.8v-2.65Zm0-5.94v1.9H251.8v-1.9Z"></path>
  <path class="cls-3" d="M991.64,601.13v-4.48H975.16v-2.9h15.92v-1.13H975.16v-1.44h-.87v0H957.12v1.13H972.9v2.67H956.67v3.93H972.9v2.54H956.79v4.43H972.9v2H956.83v5.22H972.9V615h-16v4.61h16V621H957.36v1.13H972.9v1.67h2.26v0h15.57v-1.13H975.16v-1.8h16.48v-5.16H975.16v-1.8h16.48V609H975.16v-1.79h16.48v-4.15H975.16v-1.93Zm-1.13-3.35V600H975.16v-2.22Zm-32.71,0v-1.67H972.9v1.67Zm.12,7v-2.17h15v2.17Zm0,7.21v-3H972.9v3Zm.08,6.54v-2.35H972.9v2.35Zm32.47-1.62v2.9H975.16v-2.9Zm0-6.71v2.65H975.16v-2.65Zm0-5.94v1.9H975.16v-1.9Z"></path>
  <path class="cls-3" d="M991,174.16v-4.48H974.56v-2.9h15.92v-1.13H974.56V164.2h-.87v0H956.52v1.13H972.3V168H956.08v3.93H972.3v2.54H956.19v4.43H972.3v2H956.23v5.22H972.3V188h-16v4.61h16v1.44H956.76v1.13H972.3v1.67h2.26v0h15.57V195.7H974.56v-1.8H991v-5.16H974.56v-1.8H991V182H974.56v-1.79H991v-4.15H974.56v-1.93Zm-1.13-3.35V173H974.56V170.8Zm-32.71,0V169.1H972.3v1.67Zm.12,7v-2.17h15v2.17Zm0,7.21v-3H972.3v3Zm.08,6.54v-2.35H972.3v2.35Zm32.47-1.62v2.9H974.56v-2.9Zm0-6.71v2.65H974.56v-2.65Zm0-5.94v1.9H974.56v-1.9Z"></path>
  <rect class="cls-3" x="73.33" y="267.21" width="17.9" height="3.39"></rect>
  <rect class="cls-3" x="73.33" y="291.16" width="17.9" height="3.39"></rect>
  <rect class="cls-3" x="73.33" y="314.94" width="17.9" height="3.39"></rect>
  <rect class="cls-3" x="73.75" y="474.3" width="17.9" height="3.39"></rect>
  <rect class="cls-3" x="73.75" y="498.25" width="17.9" height="3.39"></rect>
  <rect class="cls-3" x="73.75" y="522.03" width="17.9" height="3.39"></rect>
  <rect class="cls-3" x="73.75" y="546.02" width="17.9" height="3.39"></rect>
  <rect class="cls-3" x="73.75" y="571.66" width="17.9" height="3.39"></rect>
  <rect class="cls-3" x="73.75" y="596.29" width="17.9" height="3.39"></rect>
  <rect class="cls-3" x="75.01" y="620.91" width="17.9" height="3.39"></rect>
  <rect class="cls-3" x="243.55" y="774.44" width="3.39" height="17.9"></rect>
  <rect class="cls-3" x="265.91" y="772.87" width="3.39" height="17.9"></rect>
  <rect class="cls-3" x="289.7" y="772.87" width="3.39" height="17.9"></rect>
  <rect class="cls-3" x="639.78" y="770.13" width="3.39" height="17.9"></rect>
  <rect class="cls-3" x="663.42" y="770.13" width="3.39" height="17.9"></rect>
  <rect class="cls-3" x="686.76" y="770.13" width="3.39" height="17.9"></rect>
  <rect class="cls-3" x="710.52" y="770.13" width="3.39" height="17.9"></rect>
  <rect class="cls-3" x="733.4" y="770.09" width="3.39" height="17.9"></rect>
  <rect class="cls-3" x="757.03" y="770.09" width="3.39" height="17.9"></rect>
  <rect class="cls-3" x="780.71" y="770.09" width="3.39" height="17.9"></rect>
  <rect class="cls-3" x="931.54" y="770.09" width="3.39" height="17.9"></rect>
  <rect class="cls-3" x="955.06" y="770.09" width="3.39" height="17.9"></rect>
  <rect class="cls-3" x="978.42" y="770.09" width="3.39" height="17.9"></rect>
  <rect class="cls-3" x="1131.71" y="516.26" width="17.9" height="3.39"></rect>
  <rect class="cls-3" x="1131.13" y="492.63" width="17.9" height="3.39"></rect>
  <rect class="cls-3" x="1130.71" y="468.99" width="17.9" height="3.39"></rect>
  <rect class="cls-3" x="1130.12" y="315.52" width="17.9" height="3.39"></rect>
  <rect class="cls-3" x="1130.12" y="292.14" width="17.9" height="3.39"></rect>
  <rect class="cls-3" x="1130.12" y="268.13" width="17.9" height="3.39"></rect>
  <rect class="cls-3" x="1130" y="242.1" width="17.9" height="3.39"></rect>
  <rect class="cls-3" x="1130" y="218.49" width="17.9" height="3.39"></rect>
  <rect class="cls-3" x="1130" y="192.14" width="17.9" height="3.39"></rect>
  <rect class="cls-3" x="1130" y="170.67" width="17.9" height="3.39"></rect>
  <rect class="cls-3" x="929.9" y="0.91" width="3.39" height="17.9"></rect>
  <rect class="cls-3" x="953.13" y="0.91" width="3.39" height="17.9"></rect>
  <rect class="cls-3" x="976.22" y="0.91" width="3.39" height="17.9"></rect>
  <rect class="cls-3" x="779.01" y="1.81" width="3.39" height="17.9"></rect>
  <rect class="cls-3" x="755.73" y="1.81" width="3.39" height="17.9"></rect>
  <rect class="cls-3" x="732.1" y="1.81" width="3.39" height="17.9"></rect>
  <rect class="cls-3" x="709.01" y="1.81" width="3.39" height="17.9"></rect>
  <rect class="cls-3" x="685.98" y="1.81" width="3.39" height="17.9"></rect>
  <rect class="cls-3" x="661.6" y="1.81" width="3.39" height="17.9"></rect>
  <rect class="cls-3" x="638.46" y="1.81" width="3.39" height="17.9"></rect>
  <rect class="cls-3" x="284.91" y="3.55" width="3.39" height="17.9"></rect>
  <rect class="cls-3" x="261.18" y="2.65" width="3.39" height="17.9"></rect>
  <rect class="cls-3" x="238.25" y="2.65" width="3.39" height="17.9"></rect>
  <path class="cls-3" d="M795.31,466.56v-5H713.84v1.13h16.72v2.17h-17.8V470h17.8v2.28h-17.8V477h17.8v1.81H713.37v1.29h18v23.58h48V480.11h15.91v-4H780.09V474h15.21V469H780.09v-2.4Zm-15.21-3.71h14v2.42h-14Zm-49.53,12.86H714v-2.14h16.57Zm0-7H714v-2.55h16.57Zm5.09,33.69h-3V480.11h3Zm3.15,0h-1.92V480.14h1.92Zm1.23,0V480.11h2.76v17.16l-2.67,5.12Zm1.5,0L747,491.83h2.49l-5.34,10.56Zm4.11-10.56L744,494.92v-14.8h2.38v10.24l-.1.19H745.2v1.29Zm4.27,10.56h-4.32l4.32-8.54Zm-2.19-11.86,5.44-10.42h2.3l-5.27,10.42Zm-.08-2.55v-7.88h4.11Zm5.35,14.4h-1.85V491.83h1.46v-1.29h-1l1.41-2.78Zm3.91,0h-2.68V485.32l2.63-5.2h.05Zm3.65,0h-2.42V480.11h2.42Zm3.38,0h-2.15V480.11h2.15Zm3.46,0h-2.23V480.11h2.23Zm3.69,0h-2.46V480.11h2.46Zm3.61,0h-2.38V480.11h2.38Zm3.46,0h-2.23V480.11h2.23Zm.7-38v14.38H731.79v-16h47.07Zm15.21,13v1.37h-14v-1.37Zm0-7.19v2.47h-14v-2.47Z"></path>
  <rect class="cls-4" x="377.97" y="571.53" width="36.91" height="24.75"></rect>
  <path class="cls-4" d="M211,140.75v23.37h3.39v-20h16.15V175.2H214.36v-1.3H211v5.87h3.39v-1.19h16.15v41.17H214.36V201.4H211v21.74h37.92v-3.39h-15V144.14H264.2v75.61h-2.43v3.39H381.66v-3.39H316V144.14h54.2v41.58h44.07v34h-11v3.39h14.4V140.75Zm101.66,79h-45V144.14h45Zm101.66-37.42H373.61V144.14h40.68Z"></path>
  <path class="cls-4" d="M235.49,643.22V572.1H253v-3.39H213.56V592h3.39V572.1H232.1v42.15H216.95v-.61h-3.39v5.87h3.39v-1.88H232.1v25.59H216.95V629.28h-3.39v17.33h97.82v-77.9H262.82v3.39h2.85v71.12m42.32,0H269.07V572.1H308Z"></path>
  <path class="cls-4" d="M1009.83,626.53v18H994.61V614.79h15.22v2h3.39v-7.45h-3.39v2.08H994.61V570h15.22v18.71h3.39v-22.1H970.67V570h20.55v74.53H959.16V570h1.74v-3.39H908.57v81.31h104.65V626.53Zm-54.06,18H912V570h43.81Z"></path>
  <path class="cls-4" d="M1010.44,162.35V140.66H908.18v82.15h52.28v-3.39h-1.74V144.05h30.63v75.37H970.23v3.39h40.21V200.18H1007v19.25H992.74V177.71H1007v1.87h3.39v-7.45H1007v2.19H992.74V144.05H1007v18.3Zm-55.11,57.07H911.57V144.05h43.76Z"></path>
  <polygon class="cls-4" points="812.72 562.44 796.82 562.44 796.82 559.06 800.21 559.06 800.21 559.05 812.72 559.05 812.72 562.44"></polygon>
  <polygon class="cls-4" points="796.16 241.51 796.16 244.9 809.51 244.9 809.51 342.37 804.01 342.37 804.01 345.76 809.51 345.76 809.51 394.63 812.9 394.63 812.9 66.27 809.51 66.27 809.51 241.51 796.16 241.51"></polygon>
  <polygon class="cls-4" points="615.49 395.81 615.49 345.76 617.93 345.76 617.93 342.37 615.49 342.37 615.49 244.9 624.86 244.9 624.86 241.51 615.49 241.51 615.49 66.27 612.1 66.27 612.1 395.81 615.49 395.81"></polygon>
  <rect class="cls-4" x="634.64" y="241.51" width="151.75" height="3.39"></rect>
  <rect class="cls-4" x="627.71" y="342.37" width="166.53" height="3.39"></rect>
  <polygon class="cls-4" points="809.33 644.53 615.49 644.53 615.49 564.19 627.8 564.19 627.8 560.75 624.41 560.75 624.41 560.8 612.1 560.8 612.1 647.91 812.72 647.91 812.72 561.53 809.33 561.53 809.33 644.53"></polygon>
  <path class="cls-4" d="M1152.05,146.24V.72H1004.21V17.21H914.1V.72H807V16.11H618.22V.72H311.36V18.31H216.82V.72H72V248.4H88.83v92.69H72V453.6H88.83V646.25H72V792.9h148.1V779.69h90.19V792.9h307.5V773.08H808.2V792.9H916.3V774.18h92.4V792.9h143.35V542.69h-16.52v-94.6h16.52V340h-19.83V194.6h.48v-2.26h-.48v-46.1ZM340.48,6.37h23.1V43.45h-3.19v3h-9.77v-3H340.48Zm786.1,134.22V142h-16v-4.59h-3.39V142h-6.37v3.39h25.74v46.91h-43.8V145.44h8.29V142h-11.68V244.9h11.68v-3.39h-8.29V194.6h43.8v46.91h-25.74v3.39h25.74v97.47h-19.37v6.56h3.39v-3.17h18.8v-.12h17V369H1110.6V358.7h-3.39v23.19h3.39V371.21h35.81v22.32H1110.6v-1.87h-3.39v5.92h3.39v-1.79h35.81v22.39H1110.6V407.36h-3.39v21.7h3.39v-8.61h35.81v22h-16.52v1.13H1110.6v-4.74h-3.39V447h22.67v96.42h-22.67v6.33h3.39v-2.94h19.29v1.57h16.52v18.83H1110.6v-7.69h-3.39v22.88h3.39V569.43h35.81v24.23H1110.6v-1.52h-3.39v4.73h3.39v-1h35.81v23.22H1110.6V606.65h-3.39V630h3.39v-8.63h35.81v23.69H1110.6v-5.28h-3.39v11.43h3.39v-3.89h35.81V669H1110.6V661h-3.39v21.34h3.39V671.21h35.81v23.22H1110.6v-2.31h-3.39v6.45h3.39v-1.89h35.81v23.22H1110.6V708.36h-3.39V730h3.39v-7.87h35.81v22.73H1110.6v-5.09h-3.39v4.53h-5v3.39h8.37v-.56h35.81v40.09h-61.57V747.73h7.62v-3.39h-19.58v3.39h9.7v39.52h-20.66V747.73h1.19v-3.39h-5v3.39h1.57v39.52h-24.42V747.73h13.08v-3.39h-24v3.39H1033v39.52h-18.62V768.53h-1.13v-20.8h1.33v-3.39h-4.72v24.18H913.39V744.34h-8.19v3.39H910v23.62h.66v15.9h-22V747.73h6.77v-3.39H873.91v3.39h12.48v39.52h-23.9V747.73h1.65v-3.39h-5.65v3.39h1.75v39.52H838.49V747.73h10.22v-3.39h-22v3.39h9.51v39.52H813.85V767.43h-1.13V747.73h4.22v-3.39h-7.61v23.08H615.49V747.15H607v3.39h5.11v19.71h0v17h-20.7V750.54h5.81v-3.39h-19v3.39h11v36.71H566.08V750.54h2.34v-3.39h-6.6v3.39h2v36.71H542.44V750.54h9.61v-3.39H529.48v3.39h10.7v36.71H515.76V750.54h3.95v-3.39H509.15v3.39h4.35v36.71H492.79V750.54h6.58v-3.39H475.92v3.39h14.62v36.71h-26V750.54h1.57v-3.39H461v3.39h1.28v36.71H440.78V750.54h10.47v-3.39H431v3.39h7.48v36.71H417.14V750.54h4.12v-3.39H410.75v3.39h4.14v36.71H392.15V750.54H401v-3.39H378v3.39h11.92v36.71H367.16V750.54h1v-3.39h-4.75v3.39h1.45v36.71H341.16V750.54h12.52v-3.39H329.35v3.39h9.55v36.71h-23V774h-1.13V750.54h4.8v-3.39h-8.19V774H219.23V746.22h-8.56v3.39h5.17V774h-1.42v13.22H194.25V749.61h6.64v-3.39H179.56v3.39H192v37.65H168V749.61h1.81v-3.39h-5.45v3.39h1.39v37.65H143.59V749.61h11v-3.39H131.45v3.39h9.88v37.65H77.61V748.85h36.86v.76h7.2v-3.39h-3.81v-3.09h-3.39v3.46H77.61V726.08h36.86v7.27h3.39V710.6h-3.39v13.22H77.61V699.4h36.86v1.43h3.39v-5.16h-3.39v1.48H77.61v-23h36.86v11.79h3.39V663.83h-3.39v8H77.61V651.89H94.48v-.18h20v2.35h3.39v-2.35h2.91v-3.39H94.48V600.09h44.08v48.23h-8v3.39h11.39V546.21H130v3.39h8.56v48.23H94.48V549.6h25.74v-3.39H94.48V452.68h23.38V441.13h-3.39v8.15h-20V448H77.61V423.89h36.86v7.47h3.39V409.28h-3.39v12.35H77.61V397.94h36.86v1.56h3.39v-5.6h-3.39v1.79H77.61V372.37h36.86v11.75h3.39V361.49h-3.39v8.63H77.61V346.74H94.48v-1.13h20v6.1h3.39v-9.49H94.48v-95h23.26V240.3h-3.39v3.54H94.48v-1.09H77.61v-22h36.74v9.8h3.39V207.85h-3.39v10.61H77.61V196.08h36.74v2h3.39V192h-3.39v1.85H77.61V170.94h36.74v11.25h3.39V159.37h-3.39v9.32H77.61v-22h36.74v2.87h3.39v-9.76h-3.39v4.63H77.61V121.25h36.74v7.38h0v-.08h3.38v-21h-3.39V119H77.61V95.77h36.74v2h3.39V93.51H77.61V70.3h36.74V83.73h3.39V60.3h-3.39V68H77.61V46.14h36.74v4.38h3.39V46.71h1.65V43.32h-5v.56H77.61V6.37h61.17V43.32h-9.62v3.39h22.36V43.32H141V6.37h21.54V43.32h-1.29v3.39h5V43.32h-1.44V6.37h24.89V43.32H176.06v3.39h22.27V43.32H192V6.37h21.87V24h0V43.32H208.1v3.39h9.14V24h94V46.84H318V43.45h-3.28V24l0-.28V6.09l23.51.28V43.45H327.74v3.39h41V43.45h-2.94V6.37h23.48V43.45H378.55v3.39h18.76V43.45h-5.73V6.37h20.13V43.45h-4.62v3.39h11V43.45H414V6.37h24.21V43.45H427.89v3.39h24.76V43.45H440.44V6.37H465V43.45h-2.61v3.39h7.47V43.45H467.3V6.37h20.95V43.45h-8.58v3.39h17.83V43.45h-7V6.37H514.1V43.45h-6.83v3.39H518.6V43.45h-2.24V6.37h22.07V43.45H528.37v3.39h22.11V43.45h-9.8V6.37h22.58V43.45h-3v3.39H567V43.45h-1.52V6.37h21.89V43.45h-10.6v3.39h19.36V43.45h-6.51V6.37h22.9V18.93h-.47V43.45H606v3.39h6.14v9.65h3.39V21.75h194V56.49h3.39V44.58h2.56V41.19H812.9V18.93h-.21V6.37h22.7V41.19H825.23v3.39H847.9V41.19H837.65V6.37h22.45V41.19h-2.44v3.39h6.49V41.19h-1.79V6.37h21.36V41.19h-9.79v3.39h19.82V41.19H886V6.37h22.46V22.86h1.13V41.19h-6.05v3.39H913V22.86h93.67V42.49h6.27V39.1H1010V20h-.17V6.37h22.4V39.1h-9.57v3.39h23.06V39.1h-11.23V6.37h23.18V39.1h-2.17v3.39h6.1V39.1H1060V6.37h20V39.1h-8.55v3.39h19.93V39.1h-9.13V6.37h64.2v33.3H1110.6V39.1h-9.49v3.39h6.1v6.32h3.39V41.93h35.81V66.06H1110.6V58.59h-3.39V80h3.39V68.32h35.81V91.54H1110.6V89.77h-3.39v5.4h3.39V93.8h35.81V117H1110.6V104.95h-3.39v22.73h3.39v-8.4h35.81v21.31Z"></path>
  <polygon class="cls-4" points="727.56 441.48 727.56 444.87 731.02 444.87 731.02 450.66 776.72 450.66 776.72 444.46 779.75 444.46 779.75 441.07 773.33 441.07 773.33 447.27 734.41 447.27 734.41 441.48 727.56 441.48"></polygon>
  <path class="cls-4" d="M807.35,478.66v3.39h5.55V417.27h-3.39v23.79h-20v3.39h4.66v57.22h-80V444.87h3.59v-3.39H613.7V415.75h-3.39v67.82h3.38v-3.39h0V444.87h10.6v35.31h0v25.13l0,4.61h3.35v-4.86h1.54v-3.39h-1.54v-19.8h0v-1.79h64.14v21.59h-2.51v3.39h5.9v-25h8.16V444.87h7.42v60.2h83.37v5.7H644.25v-5.7h38.6v-3.39H638.34v3.39h2.52v9.09H710l.8,29.69H613.7v-.46h0V509.93h0v-3.39h-3.41v40.69H812.72V505.76h-5.37v3.39h2v34.69H714.15l-.8-29.69h80.83v11.75h3.39V509.15h0v-3.39h0V482.05h0v-3.39h0V444.46h11.94v34.21Zm-147-2H627.69V444.87H660.3Zm39.69,0h-36.3V444.87H700Z"></path>
  <text class="cls-5" transform="translate(253.59 38.41) scale(0.88 1)">4<tspan class="cls-6" x="6.02" y="0">104</tspan></text>
  <text class="cls-5" transform="translate(354.85 97.35) scale(0.88 1)">4<tspan class="cls-6" x="6.02" y="0">113</tspan></text>
  <text class="cls-7" transform="translate(698.1 130.29) scale(0.88 1)">4<tspan class="cls-8" x="6.2" y="0">-</tspan><tspan class="cls-6" x="9.6" y="0">118</tspan></text>
  <text class="cls-7" transform="translate(327.74 167.89) scale(0.88 1)">4-200</text>
  <text class="cls-9" transform="translate(95.48 298.29) scale(0.81 1)">4<tspan class="cls-10" x="6.02" y="0">188</tspan></text>
  <text class="cls-9" transform="translate(95.48 501.63) scale(0.81 1)">4<tspan class="cls-10" x="6.02" y="0">183</tspan></text>
  <text class="cls-7" transform="translate(101.09 576.05) scale(0.81 1)">4<tspan class="cls-11" x="6.2" y="0">-</tspan><tspan class="cls-10" x="9.6" y="0">182B</tspan></text>
  <text class="cls-7" transform="translate(101.09 622.31) scale(0.81 1)">4<tspan class="cls-11" x="6.2" y="0">-</tspan><tspan class="cls-10" x="9.6" y="0">182A</tspan></text>
  <text class="cls-7" transform="translate(95.48 776.86) scale(0.81 1)">4<tspan class="cls-12" x="6.2" y="0">-</tspan><tspan class="cls-10" x="9.6" y="0">177</tspan></text>
  <text class="cls-7" transform="translate(255.66 762.85) scale(0.81 1)">
    <tspan class="cls-13">4</tspan>
    <tspan class="cls-10" x="6.02" y="0">1</tspan>
    <tspan class="cls-13" x="9.82" y="0">7</tspan>
    <tspan x="15.21" y="0">3</tspan>
  </text>
  <text class="cls-7" transform="translate(698.1 604.31) scale(0.81 1)">4-209</text>
  <text class="cls-9" transform="translate(702.24 760.16) scale(0.81 1)">4<tspan class="cls-10" x="6.02" y="0">1</tspan><tspan class="cls-14" x="9.82" y="0">5</tspan><tspan class="cls-15" x="15.44" y="0">9</tspan></text>
  <text class="cls-9" transform="translate(949.52 760.16) scale(0.81 1)">4<tspan class="cls-10" x="6.02" y="0">154</tspan></text>
  <text class="cls-7" transform="translate(1107.17 771.35) scale(0.81 1)">4<tspan class="cls-11" x="6.2" y="0">-</tspan><tspan class="cls-10" x="9.6" y="0">1</tspan><tspan class="cls-16" x="13.4" y="0">4</tspan><tspan x="19.51" y="0">9</tspan></text>
  <text class="cls-9" transform="translate(1107.17 497.46) scale(0.81 1)">4<tspan class="cls-10" x="6.02" y="0">140</tspan></text>
  <text class="cls-7" transform="translate(944.1 486.02) scale(0.81 1)">4215</text>
  <text class="cls-9" transform="translate(1105.24 299.79) scale(0.81 1)">4<tspan class="cls-10" x="6.02" y="0">1</tspan><tspan class="cls-14" x="9.82" y="0">3</tspan><tspan class="cls-15" x="15.36" y="0">5</tspan></text>
  <text class="cls-7" transform="translate(1088.93 220.18) scale(0.81 1)">4<tspan class="cls-12" x="6.2" y="0">-</tspan><tspan class="cls-10" x="9.6" y="0">134B</tspan></text>
  <text class="cls-7" transform="translate(1088.93 171.59) scale(0.81 1)">4<tspan class="cls-11" x="6.2" y="0">-</tspan><tspan class="cls-10" x="9.6" y="0">134A</tspan></text>
  <text class="cls-7" transform="translate(966.48 157.01) scale(0.81 1)">S4C</text>
  <text class="cls-7" transform="translate(1105.24 22.17) scale(0.81 1)">4<tspan class="cls-12" x="6.2" y="0">-</tspan><tspan class="cls-10" x="9.6" y="0">129</tspan></text>
  <text class="cls-7" transform="translate(948.21 36.76) scale(0.81 1)">
    <tspan class="cls-13">4</tspan>
    <tspan class="cls-10" x="6.02" y="0">1</tspan>
    <tspan class="cls-17" x="9.82" y="0">2</tspan>
    <tspan x="15.29" y="0">4</tspan>
  </text>
  <text class="cls-7" transform="translate(701.69 305.91) scale(0.88 1)">4-214</text>
  <text class="cls-7" transform="translate(701.69 400.07) scale(0.88 1)">4-222</text>
  <text class="cls-7" transform="translate(747.16 459.54) scale(0.88 1)">S4E</text>
  <text class="cls-7" transform="translate(351.4 400.07) scale(0.88 1)">4213</text>
  <text class="cls-7" transform="translate(240.85 588.81) scale(0.88 1)">S4A</text>
  <text class="cls-7" transform="translate(966.48 584.95) scale(0.81 1)">S4B</text>
  <text class="cls-7" transform="translate(239.1 157.01) scale(0.88 1)">S4D</text>
  <ellipse class="cls-18" cx="756.37" cy="529.61" rx="11.97" ry="12.25"></ellipse>
  <circle class="cls-19" cx="756.45" cy="522.29" r="1.35"></circle>
  <path class="cls-19" d="M759,524.27H753.9c-.32,0-.58.6-.58.92v5.61a.58.58,0,1,0,1.16,0V527l.14,0a.73.73,0,0,1,.21,0v10.55a.73.73,0,0,0,1.45,0v-5.92h.34v5.92a.73.73,0,0,0,1.45,0V527a.73.73,0,0,1,.21,0l.14,0v3.83a.58.58,0,1,0,1.16,0v-5.61C759.59,524.87,759.33,524.27,759,524.27Z"></path>
  <ellipse class="cls-18" cx="665.32" cy="529.27" rx="11.97" ry="12.25"></ellipse>
  <circle class="cls-19" cx="665.24" cy="521.96" r="1.35"></circle>
  <path class="cls-19" d="M667.76,524.86c0-.32-.26-.92-.58-.92h-3.76c-.32,0-.58.6-.58.92l-1.35,5.61a.58.58,0,1,0,1.16,0l1-4.73h.1l-1.11,6a.37.37,0,0,0,.34.39h.69v5.09a.73.73,0,0,0,1.45,0v-5.09h.34v5.09a.73.73,0,0,0,1.45,0v-5.09h.57a.37.37,0,0,0,.34-.39l-1-6h.1l.9,4.73a.58.58,0,1,0,1.16,0Z"></path>
  <ellipse class="cls-20" cx="643.14" cy="460.14" rx="11.93" ry="12.21"></ellipse>
  <path class="cls-19" d="M636.08,455.26V467.4h6.81V455.26Zm3.4,2.23a.6.6,0,1,1-.6.6A.6.6,0,0,1,639.48,457.49Zm1.39,4.37a.26.26,0,0,1-.52,0v-1.7h-.16v4.68a.32.32,0,1,1-.64,0v-2.62h-.15v2.62a.32.32,0,1,1-.65,0v-4.68h-.16v1.7a.26.26,0,0,1-.52,0v-2.49c0-.14.12-.41.26-.41h2.27c.14,0,.25.27.25.41Z"></path>
  <path class="cls-19" d="M643.39,455.26V467.4h6.81V455.26Zm3.4,2.23a.6.6,0,1,1-.6.6A.6.6,0,0,1,646.8,457.49Zm1.39,4.37a.26.26,0,1,1-.52,0v-1.7h-.16v4.68a.32.32,0,1,1-.65,0v-2.62h-.15v2.62a.32.32,0,1,1-.65,0v-4.68h-.16v1.7a.26.26,0,1,1-.52,0v-2.49c0-.14.12-.41.26-.41h2.27c.14,0,.25.27.25.41Z"></path>
  <rect class="cls-19" x="639.36" y="452.87" width="7.55" height="2.04"></rect>
  <polygon class="cls-19" points="652.07 458.68 650.73 460.49 651.47 460.49 651.47 462.93 652.67 462.93 652.67 460.49 653.41 460.49 652.07 458.68"></polygon>
  <polygon class="cls-19" points="634.21 462.93 632.87 461.12 633.61 461.12 633.61 458.68 634.81 458.68 634.81 461.12 635.55 461.12 634.21 462.93"></polygon>
  <ellipse class="cls-20" cx="681.42" cy="460.11" rx="11.93" ry="12.21"></ellipse>
  <path class="cls-19" d="M674.36,455.23v12.15h6.81V455.23Zm3.4,2.23a.6.6,0,1,1-.6.6A.6.6,0,0,1,677.76,457.46Zm1.39,4.37a.26.26,0,0,1-.52,0v-1.7h-.16v4.68a.32.32,0,1,1-.64,0V462.2h-.15v2.62a.32.32,0,1,1-.65,0v-4.68h-.16v1.7a.26.26,0,0,1-.52,0v-2.49c0-.14.12-.41.26-.41h2.27c.14,0,.25.27.25.41Z"></path>
  <path class="cls-19" d="M681.68,455.23v12.15h6.81V455.23Zm3.4,2.23a.6.6,0,1,1-.6.6A.6.6,0,0,1,685.08,457.46Zm1.39,4.37a.26.26,0,1,1-.52,0v-1.7h-.16v4.68a.32.32,0,1,1-.65,0V462.2H685v2.62a.32.32,0,1,1-.65,0v-4.68h-.16v1.7a.26.26,0,1,1-.52,0v-2.49c0-.14.12-.41.26-.41h2.27c.14,0,.25.27.25.41Z"></path>
  <rect class="cls-19" x="677.65" y="452.85" width="7.55" height="2.04"></rect>
  <polygon class="cls-19" points="690.35 458.65 689.01 460.46 689.75 460.46 689.75 462.9 690.95 462.9 690.95 460.46 691.69 460.46 690.35 458.65"></polygon>
  <polygon class="cls-19" points="672.49 462.9 671.15 461.09 671.89 461.09 671.89 458.65 673.09 458.65 673.09 461.09 673.83 461.09 672.49 462.9"></polygon>
  <ellipse class="cls-20" cx="393.42" cy="163.01" rx="11.93" ry="12.21"></ellipse>
  <path class="cls-19" d="M386.36,158.13v12.15h6.81V158.13Zm3.4,2.23a.6.6,0,1,1-.6.6A.6.6,0,0,1,389.77,160.36Zm1.39,4.37a.26.26,0,0,1-.52,0V163h-.16v4.68a.32.32,0,1,1-.64,0V165.1h-.15v2.62a.32.32,0,1,1-.65,0V163h-.16v1.7a.26.26,0,0,1-.52,0v-2.49c0-.14.12-.41.26-.41h2.27c.14,0,.25.27.25.41Z"></path>
  <path class="cls-19" d="M393.68,158.13v12.15h6.81V158.13Zm3.4,2.23a.6.6,0,1,1-.6.6A.6.6,0,0,1,397.08,160.36Zm1.39,4.37a.26.26,0,1,1-.52,0V163h-.16v4.68a.32.32,0,1,1-.65,0V165.1H397v2.62a.32.32,0,1,1-.65,0V163h-.16v1.7a.26.26,0,1,1-.52,0v-2.49c0-.14.12-.41.26-.41h2.27c.14,0,.25.27.25.41Z"></path>
  <rect class="cls-19" x="389.65" y="155.74" width="7.55" height="2.04"></rect>
  <polygon class="cls-19" points="402.35 161.55 401.01 163.36 401.75 163.36 401.75 165.8 402.95 165.8 402.95 163.36 403.69 163.36 402.35 161.55"></polygon>
  <polygon class="cls-19" points="384.49 165.8 383.15 163.99 383.89 163.99 383.89 161.55 385.09 161.55 385.09 163.99 385.83 163.99 384.49 165.8"></polygon>
</svg>
