<?xml version="1.0" encoding="UTF-8"?>
<svg xmlns="http://www.w3.org/2000/svg" id="Layer_1" data-name="Layer 1" viewBox="0 0 1224 792">
  <defs>
    <style>.cls-1{fill:#2d4da1;}.cls-2{fill:#d2d3d4;}.cls-3{fill:#ffce10;}.cls-4,.cls-5{fill:#58595b;}.cls-5{font-size:9px;font-family:Gotham-Bold, Gotham;font-weight:700;}.cls-6{letter-spacing:-0.03em;}.cls-7{letter-spacing:-0.02em;}.cls-8{letter-spacing:-0.03em;}.cls-9{letter-spacing:-0.02em;}.cls-10{letter-spacing:-0.01em;}.cls-11{letter-spacing:-0.01em;}.cls-12{letter-spacing:-0.02em;}.cls-13{fill:#1b75bc;}.cls-14{fill:#fff;}.cls-15{fill:#8dc63f;}.cls-16{fill:#0b3757;}</style>
  </defs>
  <title>HomerBabbidge_Level1</title>
  <rect class="cls-1" x="1103.86" y="325.53" width="10.02" height="10.02"></rect>
  <rect class="cls-2" x="216.29" y="296.33" width="98.56" height="200.11"></rect>
  <rect class="cls-2" x="216.29" y="555.64" width="193.79" height="91.04"></rect>
  <rect class="cls-2" x="216.28" y="546.88" width="165.54" height="20.15"></rect>
  <rect class="cls-2" x="230.45" y="624.39" width="80.75" height="25.16"></rect>
  <rect class="cls-2" x="441.17" y="547" width="69.71" height="49.71"></rect>
  <rect class="cls-2" x="76.81" y="441.85" width="63.53" height="209.64"></rect>
  <rect class="cls-2" x="76.91" y="249.02" width="65.72" height="100.74"></rect>
  <rect class="cls-2" x="216.29" y="69.62" width="155.03" height="173.95"></rect>
  <rect class="cls-2" x="318.82" y="46.02" width="194.51" height="138.65"></rect>
  <rect class="cls-2" x="441.8" y="29.73" width="43.59" height="31.83"></rect>
  <rect class="cls-2" x="411.82" y="184.18" width="101.52" height="59.39"></rect>
  <rect class="cls-2" x="613.52" y="6.47" width="197.39" height="181.32"></rect>
  <rect class="cls-2" x="611.32" y="446.52" width="198.7" height="340.87"></rect>
  <rect class="cls-2" x="910.73" y="148.85" width="99.27" height="97.4"></rect>
  <rect class="cls-2" x="911.3" y="300.16" width="96.4" height="45.37"></rect>
  <rect class="cls-2" x="911.88" y="449.79" width="95.39" height="41.87"></rect>
  <rect class="cls-2" x="910.63" y="548.74" width="98.99" height="98.99"></rect>
  <rect class="cls-2" x="1110.6" y="148.82" width="36.07" height="194.22"></rect>
  <rect class="cls-2" x="1111.73" y="447.67" width="37.84" height="101.07"></rect>
  <rect class="cls-2" x="911.78" y="750.04" width="94.8" height="36.94"></rect>
  <rect class="cls-2" x="910.65" y="6.47" width="97.06" height="38.33"></rect>
  <polygon class="cls-2" points="215.44 2.87 315.37 2.87 315.37 66.09 216.59 66.09 215.44 2.87"></polygon>
  <polygon class="cls-2" points="623.61 191.24 623.61 224.07 610.45 233.88 610.45 356.96 642.04 373.81 776.36 373.81 810.9 354.07 810.9 236.44 802.86 223.7 802.86 191.24 799.87 179.75 628.33 183.78 623.61 191.24"></polygon>
  <rect class="cls-3" x="959.2" y="148.32" width="33.52" height="97.94"></rect>
  <rect class="cls-3" x="958.05" y="548.12" width="33.52" height="99.61"></rect>
  <rect class="cls-3" x="233.62" y="143.95" width="30.28" height="99.61"></rect>
  <polygon class="cls-2" points="160.28 673.36 118.69 673.36 118.69 745.44 189.38 745.44 189.38 702.46 160.28 673.36"></polygon>
  <rect class="cls-3" x="232.38" y="547" width="35.75" height="102.55"></rect>
  <rect class="cls-4" x="212.84" y="546.42" width="3.45" height="30.65"></rect>
  <path class="cls-4" d="M417.57,543.55h-7.48v8.89H404.5v3.45h5.58v40.82H384V555.89h10.45v-3.45H384v-8.9H331.34V547h49.24v98H315.22V547h6v-3.45H262.36V547h3.47V649.55H232.18V547h20.09v-3.45h-36V523.79h-3.45V547h15.88v55.8H214.57v3.45h14.16v26.28H216.29V614.71h-3.45V653H314.65v-1.28h.57v-3.27h96.59V645H384V600.16h26.06v29.5h3.45V547h4ZM311.77,645h-.57v4.55H269.28v-49.4h42.49Zm0-48.3H269.28V547h42.49Z"></path>
  <rect class="cls-4" x="510.88" y="662.83" width="3.45" height="62.15"></rect>
  <rect class="cls-4" x="510.88" y="735.08" width="3.45" height="12.09"></rect>
  <polygon class="cls-4" points="437.72 562.46 437.72 600.15 510.88 600.15 510.88 652.74 514.33 652.74 514.33 543.55 427.66 543.55 427.66 547 437.72 547 437.72 552.44 441.17 552.44 441.17 547 510.88 547 510.88 596.71 441.17 596.71 441.17 562.46 437.72 562.46"></polygon>
  <rect class="cls-4" x="214.57" y="630.81" width="15.88" height="3.45"></rect>
  <polygon class="cls-4" points="913.23 492.08 911.88 492.08 911.88 449.79 958.03 449.79 958.03 492.08 923.26 492.08 923.26 495.53 958.03 495.53 958.03 497.04 960.33 497.04 960.33 495.53 997.25 495.53 997.25 492.08 960.33 492.08 960.33 449.79 1007.13 449.79 1007.13 488.16 1007.27 488.16 1007.27 495.53 1010.58 495.53 1010.58 446.34 908.43 446.34 908.43 495.53 913.23 495.53 913.23 492.08"></polygon>
  <polygon class="cls-4" points="914.03 300.16 914.03 297.86 909 297.86 909 347.83 1010 347.83 1010 297.86 1006.68 297.86 1006.68 300.16 1007.7 300.16 1007.7 345.53 960.65 345.53 960.65 300.16 996.65 300.16 996.65 297.86 924.06 297.86 924.06 300.16 958.35 300.16 958.35 345.53 911.3 345.53 911.3 300.16 914.03 300.16"></polygon>
  <rect class="cls-4" x="607.87" y="574.88" width="3.45" height="143.5"></rect>
  <path class="cls-4" d="M786.51,446.52h4.42v57.21H708.6V446.52h9.22v-3.45H607.87v40.71h3.45V446.52h12.87v32.3h-.08v48.7h3.45V482.27h59.77v14.88h3.45V482.27h9.66V446.52h4.71v60.66h85.79v5H640.73v-5h50v-3.45H637.28v11.91h71.66v30.79H611.32V509.69h-3.45v55.16h3.45v-15H810V720.28h3.45V509.69H810v36.73H712.4V515.63h82V446.52H810v37.26h3.45V443.07h-27Zm-126,32.3H627.64v-32.3h32.91Zm36.44,0H664v-32.3h33Z"></path>
  <path class="cls-4" d="M971.78,548.74h19v98.42H958.91V548.74h2.85v-3.45h-9.3v3.45h3v48H910.63v-48h31.8v-3.45H907.18V650.61h83.63v.63h3.45v-.63h16.91V616.27h-3.45v14.53H994.27V606.25h16.91V602.8H994.27V548.74h13.47v30h3.45V545.29h-39.4Zm22.49,85.52h13.47v12.9H994.27Z"></path>
  <polygon class="cls-4" points="230.17 296.33 311.46 296.33 311.46 399.56 216.29 399.56 216.29 296.33 220.15 296.33 220.15 292.88 216.29 292.88 216.29 271.97 212.84 271.97 212.84 515.59 216.29 515.59 216.29 500.52 219.58 500.52 219.58 497.07 216.29 497.07 216.29 403.01 311.46 403.01 311.46 497.07 229.6 497.07 229.6 500.52 314.91 500.52 314.91 292.88 230.17 292.88 230.17 296.33"></polygon>
  <polygon class="cls-4" points="352.74 285.06 352.74 343.26 356.19 343.26 356.19 288.51 500.69 288.51 539.55 320.62 539.55 342.55 528.26 353.85 528.26 442.63 539.55 452.65 539.55 471.07 501.54 503.73 356.19 503.73 356.19 444.79 352.74 444.79 352.74 507.18 502.81 507.18 543 472.65 543 451.1 531.71 441.07 531.71 355.27 543 343.98 543 318.99 501.93 285.06 352.74 285.06"></polygon>
  <path class="cls-4" d="M993.75,185.29v-4.56H977v-3h16.2v-1.15H977v-1.46h-.88v0H958.62v1.15h16.06V179H958.16v4h16.51v2.58h-16.4v4.51h16.4v2H958.31v5.32h16.36v2H958.4v4.7h16.27v1.46H958.85v1.15h15.82v1.7H977v0h15.85v-1.15H977v-1.84h16.78v-5.26H977V198.3h16.78v-5H977v-1.82h16.78v-4.23H977v-2Zm-1.15-3.41v2.26H977v-2.26Zm-33.29,0v-1.7h15.36v1.7Zm.12,7.09v-2.21h15.25v2.21Zm0,7.34v-3h15.21v3Zm.09,6.65v-2.4h15.12v2.4Zm33.05-1.65v3H977v-3Zm0-6.83v2.69H977v-2.69Zm0-6v1.93H977v-1.93Z"></path>
  <path class="cls-4" d="M943.92,246.26h-32V199h43.58v47.24h-1.51v3.45h6.7v-3.45h-1.74V148.32h33.52v97.94H970.67v3.45h39.9V216.34h-3.45v29.92H995.88v-55h14.7v-3.45h-14.7V164.61h11.25v13.16h3.45V144.87H908.43V249.71h35.49Zm52-97.94h11.25v12.83H995.88Z"></path>
  <path class="cls-4" d="M992.6,585.09v-4.56H975.82v-3H992v-1.15h-16.2V575h-.88v0H957.47v1.15h16.06v2.72H957v4h16.51v2.58h-16.4v4.51h16.4v2H957.16v5.32h16.36v2H957.25v4.7h16.27v1.46H957.7v1.15h15.82v1.7h2.3v0h15.85V607H975.82v-1.84H992.6v-5.26H975.82v-1.84H992.6v-5H975.82v-1.82H992.6v-4.23H975.82v-2Zm-1.15-3.41v2.26H975.82v-2.26Zm-33.29,0v-1.7h15.36v1.7Zm.12,7.09v-2.21h15.25v2.21Zm0,7.34v-3h15.21v3Zm.09,6.65v-2.4h15.12v2.4Zm33.05-1.65v3H975.82v-3Zm0-6.83v2.69H975.82v-2.69Zm0-6v1.93H975.82V588.2Z"></path>
  <path class="cls-4" d="M266.56,182.4v-4.56H249.78v-3H266v-1.15h-16.2v-1.46h-.88v0H231.42v1.15h16.06v2.72H231v4h16.51v2.58h-16.4v4.51h16.4v2H231.12v5.32h16.36v2H231.2v4.7h16.27v1.46H231.66v1.15h15.82v1.7h2.3v0h15.85v-1.15H249.78V202.5h16.78v-5.26H249.78v-1.84h16.78v-5H249.78V188.6h16.78v-4.23H249.78v-2ZM265.41,179v2.26H249.78V179Zm-33.29,0v-1.7h15.36V179Zm.12,7.09v-2.21h15.25V186Zm0,7.34v-3h15.21v3Zm.09,6.65v-2.4h15.12V200Zm33.05-1.65v3H249.78v-3Zm0-6.83v2.69H249.78v-2.69Zm0-6v1.93H249.78v-1.93Z"></path>
  <path class="cls-4" d="M268.13,587.66v-4.56H250.61v-3h16.92V579H250.61v-1.46h-.92v0H231.44v1.15h16.77v2.72H231v4h17.25v2.58H231.09v4.51h17.12v2H231.12v5.32h17.08v2h-17v4.7h17v1.46H231.69v1.15h16.52v1.7h2.4v0h16.55v-1.15H250.61v-1.84h17.52V602.5H250.61v-1.84h17.52v-5H250.61v-1.82h17.52v-4.23H250.61v-2Zm-1.2-3.41v2.26H250.61v-2.26Zm-34.77,0v-1.7h16v1.7Zm.12,7.09v-2.21h15.92v2.21Zm0,7.34v-3h15.88v3Zm.09,6.65v-2.4h15.79v2.4Zm34.52-1.65v3H250.61v-3Zm0-6.83v2.69H250.61v-2.69Zm0-6v1.93H250.61v-1.93Z"></path>
  <rect class="cls-4" x="730.33" y="443.07" width="40.71" height="3.45"></rect>
  <rect class="cls-3" x="707.93" y="446.26" width="83" height="57.47"></rect>
  <path class="cls-4" d="M792.84,466.28v-5.1H706.3v1.15h17.76v2.21H705.15v5.23h18.91v2.32H705.15v4.82h18.91v1.84H705.8v1.32H725v24h51v-24h16.9v-4H776.68v-2.17h16.16v-5.15H776.68v-2.44Zm-16.16-3.78h14.85V465H776.68ZM724.06,475.6h-17.6v-2.18h17.6Zm0-7.13h-17.6v-2.6h17.6Zm5.41,34.29h-3.18V480.08h3.18Zm3.35,0h-2V480.11h2Zm1.31,0V480.08h2.94v17.47l-2.84,5.21Zm1.59,0L741.57,492h2.65l-5.67,10.75ZM740.08,492l-1.71,3.14V480.08h2.53V490.5l-.1.19h-1.18V492Zm4.54,10.75H740l4.59-8.69Zm-2.33-12.07,5.78-10.61h2.44l-5.6,10.61Zm-.08-2.59v-8h4.37Zm5.68,14.66h-2V492h1.55v-1.32h-1.08l1.49-2.83Zm4.16,0H749.2V485.37l2.79-5.3H752Zm3.88,0h-2.57V480.08h2.57Zm3.59,0h-2.28V480.08h2.28Zm3.67,0h-2.37V480.08h2.37Zm3.92,0H764.5V480.08h2.61Zm3.84,0h-2.53V480.08H771Zm3.68,0h-2.37V480.08h2.37Zm.74-38.63v14.64h-50V462.51h50Zm16.16,13.24v1.4H776.68v-1.4Zm0-7.32v2.51H776.68V470Z"></path>
  <rect class="cls-3" x="701.99" y="316.1" width="13.67" height="135.98" transform="translate(1092.91 -324.73) rotate(90)"></rect>
  <polygon class="cls-2" points="191.91 87.61 191.91 46.02 119.83 46.02 119.83 116.71 162.81 116.71 191.91 87.61"></polygon>
  <text class="cls-5" transform="translate(701.46 632.53) scale(0.88 1)">1<tspan class="cls-6" x="3.8" y="0">-</tspan><tspan x="7.2" y="0">1</tspan><tspan class="cls-7" x="11" y="0">0</tspan><tspan x="17.34" y="0">7</tspan></text>
  <text class="cls-5" transform="translate(921.35 772.85) scale(0.88 1)">1<tspan class="cls-6" x="3.8" y="0">-</tspan><tspan x="7.2" y="0">106B</tspan></text>
  <text class="cls-5" transform="translate(968.93 772.85) scale(0.88 1)">1<tspan class="cls-6" x="3.8" y="0">-</tspan><tspan x="7.2" y="0">106A</tspan></text>
  <text class="cls-5" transform="translate(922.11 575.35) scale(0.88 1)">1<tspan class="cls-6" x="3.8" y="0">-</tspan><tspan x="7.2" y="0">128</tspan></text>
  <text class="cls-5" transform="translate(966.63 569.35) scale(0.88 1)">S1B</text>
  <text class="cls-5" transform="translate(917.9 475.98) scale(0.88 1)">1<tspan class="cls-6" x="3.8" y="0">-</tspan><tspan x="7.2" y="0">105A</tspan></text>
  <text class="cls-5" transform="translate(970.67 475.98) scale(0.88 1)">1<tspan class="cls-6" x="3.8" y="0">-</tspan><tspan x="7.2" y="0">105B</tspan></text>
  <text class="cls-5" transform="translate(971.78 325.53) scale(0.88 1)">1<tspan class="cls-6" x="3.8" y="0">-</tspan><tspan x="7.2" y="0">104B</tspan></text>
  <text class="cls-5" transform="translate(916.43 325.53) scale(0.88 1)">1<tspan class="cls-6" x="3.8" y="0">-</tspan><tspan x="7.2" y="0">104A</tspan></text>
  <text class="cls-5" transform="translate(923.26 226.26) scale(0.88 1)">1<tspan class="cls-6" x="3.8" y="0">-</tspan><tspan x="7.2" y="0">121</tspan></text>
  <text class="cls-5" transform="translate(1039.69 263.63) scale(0.88 1)">1<tspan class="cls-6" x="3.8" y="0">-</tspan><tspan x="7.2" y="0">104</tspan></text>
  <text class="cls-5" transform="translate(1113.89 322.85) scale(0.88 1)">1<tspan class="cls-6" x="3.8" y="0">-</tspan><tspan x="7.2" y="0">104F</tspan></text>
  <text class="cls-5" transform="translate(1111.73 271.52) scale(0.88 1)">1<tspan class="cls-6" x="3.8" y="0">-</tspan><tspan x="7.2" y="0">104E</tspan></text>
  <text class="cls-5" transform="translate(1111.73 223.21) scale(0.88 1)">1<tspan class="cls-6" x="3.8" y="0">-</tspan><tspan x="7.2" y="0">104D</tspan></text>
  <text class="cls-5" transform="translate(1111.73 173.75) scale(0.88 1)">1<tspan class="cls-6" x="3.8" y="0">-</tspan><tspan x="7.2" y="0">104C</tspan></text>
  <text class="cls-5" transform="translate(1114.47 475.98) scale(0.88 1)">1<tspan class="cls-6" x="3.8" y="0">-</tspan><tspan x="7.2" y="0">105C</tspan></text>
  <text class="cls-5" transform="translate(1114.47 524.94) scale(0.88 1)">1<tspan class="cls-6" x="3.8" y="0">-</tspan><tspan x="7.2" y="0">105D</tspan></text>
  <text class="cls-5" transform="translate(741.79 458.15) scale(0.88 1)">S1E</text>
  <text class="cls-5" transform="translate(647.91 497.03) scale(0.88 1)">1<tspan class="cls-8" x="3.8" y="0">-</tspan><tspan x="7.2" y="0">142</tspan></text>
  <text class="cls-5" transform="translate(333.95 601.16) scale(0.88 1)">1<tspan class="cls-8" x="3.8" y="0">-</tspan><tspan x="7.2" y="0">131</tspan></text>
  <text class="cls-5" transform="translate(280.5 577.07) scale(0.88 1)">1<tspan class="cls-8" x="3.8" y="0">-</tspan><tspan x="7.2" y="0">131</tspan></text>
  <text class="cls-5" transform="translate(241.18 567.21) scale(0.88 1)">S1A</text>
  <text class="cls-5" transform="translate(431.71 626.88) scale(0.88 1)">1<tspan class="cls-8" x="3.8" y="0">-</tspan><tspan x="7.2" y="0">130</tspan></text>
  <text class="cls-5" transform="translate(465.72 574.81) scale(0.88 1)">1<tspan class="cls-8" x="3.8" y="0">-</tspan><tspan x="7.2" y="0">129</tspan></text>
  <text class="cls-5" transform="translate(455 707.2) scale(0.88 1)">1<tspan class="cls-8" x="3.8" y="0">-</tspan><tspan x="7.2" y="0">108</tspan></text>
  <text class="cls-5" transform="translate(247.14 760.54) scale(0.88 1)">1<tspan class="cls-8" x="3.8" y="0">-</tspan><tspan x="7.2" y="0">109A</tspan></text>
  <text class="cls-5" transform="translate(244.91 687.45) scale(0.88 1)">1<tspan class="cls-8" x="3.8" y="0">-</tspan><tspan x="7.2" y="0">109</tspan></text>
  <text class="cls-5" transform="translate(136 718.38) scale(0.88 1)">1<tspan class="cls-8" x="3.8" y="0">-</tspan><tspan x="7.2" y="0">109B</tspan></text>
  <text class="cls-5" transform="translate(93.19 628.6) scale(0.88 1)">1<tspan class="cls-8" x="3.8" y="0">-</tspan><tspan x="7.2" y="0">109C</tspan></text>
  <text class="cls-5" transform="translate(92.04 548.27) scale(0.88 1)">1<tspan class="cls-8" x="3.8" y="0">-</tspan><tspan x="7.2" y="0">110A</tspan></text>
  <text class="cls-5" transform="translate(94.21 474.91) scale(0.88 1)">1<tspan class="cls-8" x="3.8" y="0">-</tspan><tspan x="7.2" y="0">110B</tspan></text>
  <text class="cls-5" transform="translate(165.46 462.5) scale(0.88 1)">1<tspan class="cls-8" x="3.8" y="0">-</tspan><tspan x="7.2" y="0">110</tspan></text>
  <text class="cls-5" transform="translate(249.35 451.15) scale(0.88 1)">1<tspan class="cls-8" x="3.8" y="0">-</tspan><tspan x="7.2" y="0">136</tspan></text>
  <text class="cls-5" transform="translate(248.76 349.75) scale(0.88 1)">1<tspan class="cls-8" x="3.8" y="0">-</tspan><tspan x="7.2" y="0">1</tspan><tspan class="cls-9" x="11" y="0">3</tspan><tspan x="16.41" y="0">7</tspan></text>
  <text class="cls-5" transform="translate(240 226.26) scale(0.88 1)">S1D</text>
  <text class="cls-5" transform="translate(170.26 247.02) scale(0.88 1)">1<tspan class="cls-8" x="3.8" y="0">-</tspan><tspan x="7.2" y="0">111</tspan></text>
  <text class="cls-5" transform="translate(136.01 81.36) scale(0.88 1)">1<tspan class="cls-8" x="3.8" y="0">-</tspan><tspan x="7.2" y="0">100B</tspan></text>
  <text class="cls-5" transform="translate(250.5 40.56) scale(0.88 1)">1<tspan class="cls-8" x="3.8" y="0">-</tspan><tspan x="7.2" y="0">100A</tspan></text>
  <text class="cls-5" transform="translate(251.73 106.67) scale(0.88 1)">1<tspan class="cls-8" x="3.8" y="0">-</tspan><tspan x="7.2" y="0">100</tspan></text>
  <text class="cls-5" transform="translate(448.8 104.16) scale(0.88 1)">1<tspan class="cls-8" x="3.8" y="0">-</tspan><tspan x="7.2" y="0">117</tspan></text>
  <text class="cls-5" transform="translate(449.81 195.32) scale(0.88 1)">1<tspan class="cls-8" x="3.8" y="0">-</tspan><tspan x="7.2" y="0">116</tspan></text>
  <text class="cls-5" transform="translate(596.14 396.72) scale(0.88 1)">1<tspan class="cls-8" x="3.8" y="0">-</tspan><tspan x="7.2" y="0">144</tspan></text>
  <text class="cls-5" transform="translate(749.98 97.06) scale(0.88 1)">1<tspan class="cls-6" x="3.8" y="0">-</tspan><tspan x="7.2" y="0">1</tspan><tspan class="cls-10" x="11" y="0">0</tspan><tspan x="17.48" y="0">2</tspan></text>
  <text class="cls-5" transform="translate(834.01 201.38) scale(0.88 1)">1<tspan class="cls-6" x="3.8" y="0">-</tspan><tspan x="7.2" y="0">1</tspan><tspan class="cls-10" x="11" y="0">0</tspan><tspan x="17.48" y="0">3</tspan></text>
  <text class="cls-5" transform="translate(649.06 98.21) scale(0.88 1)">1<tspan class="cls-8" x="3.8" y="0">-</tspan><tspan x="7.2" y="0">1</tspan><tspan class="cls-11" x="11" y="0">0</tspan><tspan x="17.52" y="0">1</tspan></text>
  <text class="cls-5" transform="translate(920.29 28.1) scale(0.88 1)">1<tspan class="cls-6" x="3.8" y="0">-</tspan><tspan x="7.2" y="0">1</tspan><tspan class="cls-10" x="11" y="0">0</tspan><tspan x="17.48" y="0">3A</tspan></text>
  <text class="cls-5" transform="translate(972.38 27.95) scale(0.88 1)">1<tspan class="cls-6" x="3.8" y="0">-</tspan><tspan x="7.2" y="0">1</tspan><tspan class="cls-10" x="11" y="0">0</tspan><tspan x="17.48" y="0">3B</tspan></text>
  <text class="cls-5" transform="translate(951.07 703.76) scale(0.88 1)">1<tspan class="cls-6" x="3.8" y="0">-</tspan><tspan x="7.2" y="0">106</tspan></text>
  <text class="cls-5" transform="translate(1046.42 472.55) scale(0.88 1)">1<tspan class="cls-6" x="3.8" y="0">-</tspan><tspan x="7.2" y="0">105</tspan></text>
  <text class="cls-5" transform="translate(94.21 319.06) scale(0.88 1)">1<tspan class="cls-8" x="3.8" y="0">-</tspan><tspan x="7.2" y="0">111A</tspan></text>
  <text class="cls-5" transform="translate(94.21 271.97) scale(0.88 1)">1<tspan class="cls-8" x="3.8" y="0">-</tspan><tspan x="7.2" y="0">111B</tspan></text>
  <text class="cls-5" transform="translate(966.63 231.87) scale(0.88 1)">S1C</text>
  <text class="cls-5" transform="translate(686.47 386.65) scale(0.88 1)">Escal<tspan class="cls-11" x="23.73" y="0">a</tspan><tspan class="cls-12" x="29.02" y="0">t</tspan><tspan x="32.62" y="0">or</tspan></text>
  <text class="cls-5" transform="translate(923.26 415.27) scale(0.88 1)">Escal<tspan class="cls-11" x="23.73" y="0">a</tspan><tspan class="cls-12" x="29.02" y="0">t</tspan><tspan x="32.62" y="0">or</tspan></text>
  <path class="cls-4" d="M447.87,243.57H412.6v-56.2h4.81V145.92H371v99.27H318.3v-36h-3.45v39.46h59.63V187.37h34.67v56.2h-19.6V247h58.32Zm-73.39-59.65V149.36H414v34.56Z"></path>
  <polygon class="cls-4" points="513.34 135.64 513.34 243.57 478.08 243.57 478.08 247.02 516.78 247.02 516.78 135.64 513.34 135.64"></polygon>
  <path class="cls-4" d="M1152.42,348.79V143.08h-40.67V121.38h11.37v-3.45h-11.37V96.21h11.37V92.76h-11.37v-21h11.37V68.27h-11.37V43.66H1087V31.75h-3.45v11.9h-21.72V31.75h-3.45v11.9h-21V31.75h-3.45v11.9h-20.48V.72H904.9v41.8H888V32.44h-3.45V42.53H862.79V32.44h-3.45V42.53h-21V32.44h-3.45V42.53h-19.1V.72H608.92v41.8H589.46V31.14H586V42.53H564.29V31.14h-3.45V42.53h-21V31.14h-3.45V42.53h-46V24H436V40.27H391.42V31.14H388v9.13H366.24V31.14h-3.45v9.13h-21V31.14h-3.45v9.13H320V.72H210.4l.39,39.54H191.11V26.86h-3.45V40.27H165.93V26.86h-3.45V40.27h-21V26.86H138V40.27H114.07V65.14H102.14v3.45h11.92V90.32H102.14v3.45h11.92v21H102.14v3.45h11.92v47.38H102.14v3.45h11.92v21.72H102.14v3.45h11.92v21H102.14v3.45h11.92v25.67H71.16V352.18h41.78v14.89H102.14v3.45h10.79v21.72H102.14v3.45h10.79v21H102.14v3.45h10.79V439H71.16V656.09h41.78v13.48H101V673h11.93v21.72H101v3.45h11.93v21H101v3.45h11.93v28.51h24.65v11.22H141V751.19h21v11.22h3.45V751.19h21.72v11.22h3.45V751.19h19.11v41.54H317.52V751.19h18.12v9h3.45v-9h21v9h3.45v-9H385.3v9h3.45v-9H430.4v12.23h58.85V751.19h45.86v9.49h3.45v-9.49h21v9.49H563v-9.49h21.72v9.49h3.45v-9.49h18.42v41.54h208V751.19h18.45v9.49h3.45v-9.49h21v9.49H861v-9.49h21.72v9.49h3.45v-9.49H906v41.54h106.3V751.19h19.84v10.87h3.45V751.19h21v10.87h3.45V751.19h21.72v10.87h3.45V751.19H1114V723.31H1124v-3.45H1114V698.14H1124v-3.45H1114v-21H1124V670.2H1114V623.26h10.08v-3.45H1114V598.09h10.08v-3.45H1114v-21h10.08v-3.45H1114v-18h38.4V441.92h-39.54V423.28h11.22v-3.45h-11.22V398.11h11.22v-3.45h-11.22v-21h11.22v-3.45h-11.22V348.79ZM613.52,48.28h0V6.47h91.63V187.79H660.39v3.45h102.3v-3.45H708.6V6.47H810v41.8h.9V187.79H790.4v3.45h12.66l-.2,32.46,8,12.74V354.07l-34.55,19.74H642L610.45,357V233.88l13.16-9.81V191.24h12.18v-3.45H613.52Zm96,738.7H660.84V750h48.68Zm49.94,0H711.82V750h47.64Zm387.21-339.31v48.22h-34.94V465.24h-3.45V532h3.45V498.19h34.94V546.4h-34.94v-4.33h-3.45v4.33h0v199H1006.58v0h-4.25V750h4.25V787H963.93V750h28.38v-4.56H927.92V750h33.7V787H911.78V750h6.11v-4.56h-6.11v0H813.47V730.31H810v15.13h-1.15v1.15h-5.48V750h5.48V787H761.76V750h31.6v-3.45H626V750h32.54V787H612.39V750H616v-3.45h-3.58v-1.15h-1.07v-17h-3.45v17H483.5v12.23H471.42V745.83h-2.3v11.84H455V745.83h-2.3v11.84H436.15V745.44H316.37V685.61h-3.45v59.83h-1.15V787H215.55V745.44H192.83V701l-31.13-31.13H130.28v3.45h30l29.1,29.1v43h-70.7v-90.5h6.11v-3.45H76.91V599.58h63.44v51.91h-5.53v3.45h9V505h-3.45v92.3H76.91V495H143.8v-2.3H76.91V444.72h41.78v.07h21.66v37.83h3.45v-42.5H118.69V353.2h27.39V308.34h-3.45v41.41H118.69v-3.32H76.91V295.75h65.72v2.56h3.45v-8.59h-3.45v3.73H76.91V249h65.72V279.7h3.45V245.57H119.81V120.51h46.37l26.65-33.75V62.88h-3.45V85.56l-24.87,31.5h-44.7V46h69.57v6.84h3.45V46h23.68l-.22-39.54h97.93V46h0V66.09H212.84V177.77h3.45V144.43h13.88v43.36H212.84v3.45h17.33v52.33H216.29V214.22h-3.45v47.73h3.45V247h37.53v-3.45h-20.2V144.43h30.23V247h34.88v-3.45H267.3V199.14h51V141h-102V69.54H318.82V46h123V29.73h12.75V45.4h2.3V29.73h14.87V44.81H474V29.73h10.61V48.28h28.71v77.27h3.45V48.28h93.28v143h10.09v31.1L607,232.15V359l34.18,18.23h136.1l37.08-21.19V235.44l-8-12.73.19-31.47h7.84v-143h96.3v0H918V44.81h-7.33V6.47h51V44.81H928v3.45h65.37V44.81H963.93V6.47h43.79V44.81h-4.31v3.45h4.31V49.4h99.44V152.86h3.45v-4h36.07v42.85H1110.6V162.88h-3.45v67.06h3.45V194h36.07v52.86H1110.6V240h-3.45V253.6h3.45v-4.47h36.07v44.77H1110.6V263.63h-3.45V343h0V447.67h0v7.55h4.6v-7.55ZM1110.6,343V296.21h36.07V343Z"></path>
  <ellipse class="cls-13" cx="397.23" cy="578.68" rx="11.97" ry="12.25"></ellipse>
  <circle class="cls-14" cx="391.81" cy="571.36" r="1.35"></circle>
  <path class="cls-14" d="M394.37,573.34h-5.12c-.32,0-.58.6-.58.92v5.61a.58.58,0,1,0,1.16,0V576l.14,0a.73.73,0,0,1,.21,0v10.55a.73.73,0,0,0,1.45,0V580.7H392v5.92a.73.73,0,0,0,1.45,0V576.06a.73.73,0,0,1,.21,0l.14,0v3.83a.58.58,0,1,0,1.16,0v-5.61C395,573.94,394.69,573.34,394.37,573.34Z"></path>
  <circle class="cls-14" cx="402.03" cy="571.36" r="1.35"></circle>
  <path class="cls-14" d="M404.55,574.26c0-.32-.26-.92-.58-.92H400.2c-.32,0-.58.6-.58.92l-1.35,5.61a.58.58,0,1,0,1.16,0l1-4.73h.1l-1.11,6a.37.37,0,0,0,.34.39h.69v5.09a.73.73,0,0,0,1.45,0v-5.09h.34v5.09a.73.73,0,0,0,1.45,0v-5.09h.57a.37.37,0,0,0,.34-.39l-1-6h.1l.9,4.73a.58.58,0,1,0,1.16,0Z"></path>
  <path class="cls-14" d="M397.28,587.5c0,.11-.14.2-.32.2h0c-.18,0-.32-.09-.32-.2V569.85c0-.11.14-.2.32-.2h0c.18,0,.32.09.32.2Z"></path>
  <ellipse class="cls-15" cx="394.17" cy="166.89" rx="11.93" ry="12.21"></ellipse>
  <path class="cls-14" d="M387.11,162v12.15h6.81V162Zm3.4,2.23a.6.6,0,1,1-.6.6A.6.6,0,0,1,390.51,164.24Zm1.39,4.37a.26.26,0,0,1-.52,0v-1.7h-.16v4.68a.32.32,0,1,1-.64,0V169h-.15v2.62a.32.32,0,1,1-.65,0v-4.68h-.16v1.7a.26.26,0,0,1-.52,0v-2.49c0-.14.12-.41.26-.41h2.27c.14,0,.25.27.25.41Z"></path>
  <path class="cls-14" d="M394.43,162v12.15h6.81V162Zm3.4,2.23a.6.6,0,1,1-.6.6A.6.6,0,0,1,397.83,164.24Zm1.39,4.37a.26.26,0,1,1-.52,0v-1.7h-.16v4.68a.32.32,0,1,1-.65,0V169h-.15v2.62a.32.32,0,1,1-.65,0v-4.68H397v1.7a.26.26,0,1,1-.52,0v-2.49c0-.14.12-.41.26-.41H399c.14,0,.25.27.25.41Z"></path>
  <rect class="cls-14" x="390.39" y="159.62" width="7.55" height="2.04"></rect>
  <polygon class="cls-14" points="403.1 165.43 401.76 167.24 402.5 167.24 402.5 169.68 403.7 169.68 403.7 167.24 404.44 167.24 403.1 165.43"></polygon>
  <polygon class="cls-14" points="385.24 169.68 383.9 167.87 384.64 167.87 384.64 165.43 385.84 165.43 385.84 167.87 386.58 167.87 385.24 169.68"></polygon>
  <ellipse class="cls-13" cx="757.33" cy="531" rx="11.97" ry="12.25"></ellipse>
  <circle class="cls-14" cx="757.41" cy="523.68" r="1.35"></circle>
  <path class="cls-14" d="M760,525.67h-5.12c-.32,0-.58.6-.58.92v5.61a.58.58,0,1,0,1.16,0v-3.83l.14,0a.73.73,0,0,1,.21,0v10.55a.73.73,0,0,0,1.45,0V533h.34v5.92a.73.73,0,0,0,1.45,0V528.38a.73.73,0,0,1,.21,0l.14,0v3.83a.58.58,0,1,0,1.16,0v-5.61C760.55,526.26,760.29,525.67,760,525.67Z"></path>
  <ellipse class="cls-13" cx="662.28" cy="531.66" rx="11.97" ry="12.25"></ellipse>
  <circle class="cls-14" cx="662.2" cy="524.35" r="1.35"></circle>
  <path class="cls-14" d="M664.72,527.25c0-.32-.26-.92-.58-.92h-3.76c-.32,0-.58.6-.58.92l-1.35,5.61a.58.58,0,1,0,1.16,0l1-4.73h.1l-1.11,6a.37.37,0,0,0,.34.39h.69v5.09a.73.73,0,0,0,1.45,0v-5.09h.34v5.09a.73.73,0,0,0,1.45,0v-5.09h.57a.37.37,0,0,0,.34-.39l-1-6h.1l.9,4.73a.58.58,0,1,0,1.16,0Z"></path>
  <ellipse class="cls-15" cx="644.1" cy="463.53" rx="11.93" ry="12.21"></ellipse>
  <path class="cls-14" d="M637,458.65V470.8h6.81V458.65Zm3.4,2.23a.6.6,0,1,1-.6.6A.6.6,0,0,1,640.44,460.88Zm1.39,4.37a.26.26,0,0,1-.52,0v-1.7h-.16v4.68a.32.32,0,1,1-.64,0v-2.62h-.15v2.62a.32.32,0,1,1-.65,0v-4.68h-.16v1.7a.26.26,0,0,1-.52,0v-2.49c0-.14.12-.41.26-.41h2.27c.14,0,.25.27.25.41Z"></path>
  <path class="cls-14" d="M644.35,458.65V470.8h6.81V458.65Zm3.4,2.23a.6.6,0,1,1-.6.6A.6.6,0,0,1,647.76,460.88Zm1.39,4.37a.26.26,0,1,1-.52,0v-1.7h-.16v4.68a.32.32,0,1,1-.65,0v-2.62h-.15v2.62a.32.32,0,1,1-.65,0v-4.68h-.16v1.7a.26.26,0,1,1-.52,0v-2.49c0-.14.12-.41.26-.41h2.27c.14,0,.25.27.25.41Z"></path>
  <rect class="cls-14" x="640.32" y="456.27" width="7.55" height="2.04"></rect>
  <polygon class="cls-14" points="653.03 462.07 651.69 463.88 652.43 463.88 652.43 466.32 653.63 466.32 653.63 463.88 654.37 463.88 653.03 462.07"></polygon>
  <polygon class="cls-14" points="635.17 466.32 633.83 464.51 634.57 464.51 634.57 462.07 635.77 462.07 635.77 464.51 636.51 464.51 635.17 466.32"></polygon>
  <ellipse class="cls-15" cx="682.38" cy="462.5" rx="11.93" ry="12.21"></ellipse>
  <path class="cls-14" d="M675.32,457.62v12.15h6.81V457.62Zm3.4,2.23a.6.6,0,1,1-.6.6A.6.6,0,0,1,678.72,459.85Zm1.39,4.37a.26.26,0,0,1-.52,0v-1.7h-.16v4.68a.32.32,0,1,1-.64,0v-2.62h-.15v2.62a.32.32,0,1,1-.65,0v-4.68h-.16v1.7a.26.26,0,0,1-.52,0v-2.49c0-.14.12-.41.26-.41h2.27c.14,0,.25.27.25.41Z"></path>
  <path class="cls-14" d="M682.64,457.62v12.15h6.81V457.62Zm3.4,2.23a.6.6,0,1,1-.6.6A.6.6,0,0,1,686,459.85Zm1.39,4.37a.26.26,0,1,1-.52,0v-1.7h-.16v4.68a.32.32,0,1,1-.65,0v-2.62H686v2.62a.32.32,0,1,1-.65,0v-4.68h-.16v1.7a.26.26,0,1,1-.52,0v-2.49c0-.14.12-.41.26-.41h2.27c.14,0,.25.27.25.41Z"></path>
  <rect class="cls-14" x="678.61" y="455.24" width="7.55" height="2.04"></rect>
  <polygon class="cls-14" points="691.31 461.04 689.97 462.85 690.71 462.85 690.71 465.29 691.91 465.29 691.91 462.85 692.65 462.85 691.31 461.04"></polygon>
  <polygon class="cls-14" points="673.45 465.29 672.11 463.48 672.85 463.48 672.85 461.04 674.05 461.04 674.05 463.48 674.79 463.48 673.45 465.29"></polygon>
  <ellipse class="cls-13" cx="397.28" cy="624.39" rx="11.97" ry="12.25"></ellipse>
  <circle class="cls-14" cx="391.87" cy="617.08" r="1.35"></circle>
  <path class="cls-14" d="M394.42,619.06h-5.12c-.32,0-.58.6-.58.92v5.61a.58.58,0,1,0,1.16,0v-3.83l.14,0a.73.73,0,0,1,.21,0v10.55a.73.73,0,0,0,1.45,0v-5.92H392v5.92a.73.73,0,0,0,1.45,0V621.78a.73.73,0,0,1,.21,0l.14,0v3.83a.58.58,0,1,0,1.16,0V620C395,619.66,394.75,619.06,394.42,619.06Z"></path>
  <circle class="cls-14" cx="402.08" cy="617.08" r="1.35"></circle>
  <path class="cls-14" d="M404.6,620c0-.32-.26-.92-.58-.92h-3.76c-.32,0-.58.6-.58.92l-1.35,5.61a.58.58,0,1,0,1.16,0l1-4.73h.1l-1.11,6a.37.37,0,0,0,.34.39h.69v5.09a.73.73,0,0,0,1.45,0v-5.09h.34v5.09a.73.73,0,0,0,1.45,0v-5.09h.57a.37.37,0,0,0,.34-.39l-1-6h.1l.9,4.73a.58.58,0,1,0,1.16,0Z"></path>
  <path class="cls-14" d="M397.34,633.22c0,.11-.14.2-.32.2h0c-.18,0-.32-.09-.32-.2V615.57c0-.11.14-.2.32-.2h0c.18,0,.32.09.32.2Z"></path>
  <ellipse class="cls-16" cx="595.69" cy="123.38" rx="11.97" ry="12.25"></ellipse>
  <rect class="cls-14" x="593.02" y="127.06" width="4.54" height="0.9"></rect>
  <rect class="cls-14" x="593.01" y="125.24" width="5.46" height="0.89"></rect>
  <path class="cls-14" d="M602.58,119.75H589a.59.59,0,0,0-.59.59v6.16a.59.59,0,0,0,.59.59h2.15v.13c0,.83,0,1.65,0,2.48a1,1,0,0,0,.71,1l0,0h7.65a2.28,2.28,0,0,0,.34-.16.89.89,0,0,0,.4-.78q0-1.27,0-2.54v-.14h2.27a.59.59,0,0,0,.59-.59v-6.16A.59.59,0,0,0,602.58,119.75Zm-3.19,7.33v2.7h-7.29v-5.46h7.29Zm1.83-4.54a.91.91,0,1,1,.91-.91A.91.91,0,0,1,601.22,122.54Z"></path>
  <path class="cls-14" d="M592.1,118.82V117h7.3v1.81h.91v-2.09a.67.67,0,0,0-.66-.66h-7.77a.67.67,0,0,0-.66.66v.07a1.32,1.32,0,0,0,0,.28q0,.8,0,1.6v.15h.91Z"></path>
</svg>
