<?xml version="1.0" encoding="UTF-8"?>
<svg xmlns="http://www.w3.org/2000/svg" id="Layer_1" data-name="Layer 1" viewBox="0 0 1224 792">
  <defs>
    <style>.cls-1{fill:#d2d3d4;}.cls-2{fill:#fff;}.cls-3{fill:#59595b;}.cls-4{fill:#ffce10;}.cls-5{fill:#ffce06;}.cls-6{font-size:9px;fill:#58595b;font-family:Gotham-Bold, Gotham;font-weight:700;}.cls-7{letter-spacing:-0.01em;}.cls-8{letter-spacing:0em;}.cls-9{letter-spacing:-0.01em;}.cls-10{letter-spacing:0em;}.cls-11{letter-spacing:-0.01em;}.cls-12{letter-spacing:0em;}.cls-13{fill:none;stroke:#59595b;stroke-width:2px;}.cls-13,.cls-15{stroke-miterlimit:10;}.cls-14{fill:#ed1c24;}.cls-15{fill:#231f20;stroke:#231f20;stroke-width:0.19px;}.cls-16{fill:#1b75bc;}.cls-17{fill:#8dc63f;}.cls-18{fill:#b52025;}</style>
  </defs>
  <title>Rowe_First_Floor</title>
  <polygon class="cls-1" points="11.58 26.04 14.05 191.36 116.86 191.26 123.01 189.36 140.29 189.36 186.84 189.36 185.82 241.8 184.17 292.04 185.29 299.78 85.71 299.78 85.46 568.01 406.36 570.59 411.15 546.72 442.22 544.73 441.34 510.12 479.19 508.94 479.95 545.44 477.13 570.59 457.79 574.44 457.79 599.94 670.33 599.94 670.33 568.01 855.51 568.01 855.51 784.91 1193.66 784.91 1196.81 629.6 1221.33 630.33 1220.83 541.78 1203.77 541.78 1202.06 381.85 1202.06 308.4 1202.06 260.59 1114.07 263.13 1111.62 254.35 1103.2 247.38 1026.07 249.21 1021.3 258.02 921.35 259.13 921.35 296.58 741.95 297.31 741.95 251.05 695.14 250.15 693.55 202.58 704.1 201.85 703.18 22.67 536.46 22.67 442.94 22.67 320.28 22.67 215 22.67 117.33 22.67 11.58 21.2 11.58 26.04"></polygon>
  <polygon class="cls-2" points="184.42 378 184.44 441.17 209.33 441.32 210.84 427.24 443.75 427.9 443.58 510.12 482.55 510.78 482.55 429.19 1006.87 428.57 1007.24 540.31 1065.32 539.93 1090.56 583.07 1106.36 583.54 1104.41 738.95 1090.44 739.95 1066.18 756.92 1050.01 766.93 1042.57 784.08 1131.65 786.9 1131.55 765.12 1134.12 760.42 1169.35 752.74 1197.15 749.43 1196.89 721.49 1130.76 721.49 1129.86 572.41 1130.76 542.55 1114.93 542.16 1113.94 358.01 1092.21 358.01 1088.42 378.69 537.49 379.33 539.57 328.26 596.09 327.62 594.46 296.95 635.39 299.12 635.39 308.26 681.15 304.52 677.79 299.73 741.95 297.31 741.95 251.05 704.1 186.26 652.75 189.68 261.07 186.42 262.09 152.96 185.79 152.96 184.04 301.76 213.53 300.83 213.71 342.45 213.71 378 184.42 378"></polygon>
  <rect class="cls-3" x="615.9" y="327.35" width="3.36" height="31.47"></rect>
  <polygon class="cls-4" points="100.91 377.52 184.42 376.88 184.46 440.12 116.67 440.12 90.98 439.46 83.73 438.39 84.52 432.21 82.07 425.91 82.07 423.1 73.02 421.08 74.25 412.78 82.07 409.64 76.34 405.24 72.03 394.91 82.07 395.31 85.32 382.4 100.91 377.52"></polygon>
  <polygon class="cls-5" points="1205.93 429.29 1115.73 427.98 1113.94 358.01 1175.39 358.01 1175.9 375.41 1206.21 377.79 1204.14 396 1211.4 406.44 1218.87 420.13 1203.87 421.68 1205.93 429.29"></polygon>
  <polygon class="cls-1" points="253.1 302.06 254.8 379.96 428.94 379.28 428.94 372.31 449.16 372.31 449.9 379.17 496.08 379.15 496.08 330.82 440.51 330.82 438.79 303.13 253.1 302.06"></polygon>
  <rect class="cls-3" x="324.72" y="377.72" width="16.37" height="3.12"></rect>
  <polygon class="cls-3" points="353.54 380.84 363.62 380.84 363.62 377.72 353.31 377.72 353.54 380.84"></polygon>
  <rect class="cls-3" x="1128.85" y="719.65" width="66.13" height="3.36"></rect>
  <polygon class="cls-5" points="678.1 253.01 678.1 299.18 741.47 299.18 741.47 250.18 678.1 253.01"></polygon>
  <rect class="cls-3" x="1128.85" y="678.55" width="3.36" height="42.79"></rect>
  <path class="cls-3" d="M215.21,308.78h2.26V294.7h-8.93V296H183.27V239.38h-3.49l-.05,16.31H120.83V236.38h-5.6v24.9h49.06V293.5h13.39V299H82.17v71.86H76.34v16H82v8.37h5.79v-13.1h93.31V390h3.36v-7.94h10.85v-6.79H184.42v-3.14h-6.28v2.46H93.64v-2.26H87.77V304.64H208.54v4.15h3.31v1.13h3.36Zm-49.81-16.4V261.29h2.22v28.94h10.05v2.15Z"></path>
  <rect class="cls-3" x="211.85" y="350.62" width="3.36" height="29.82"></rect>
  <polygon class="cls-3" points="613.42 484.38 613.42 487.74 621.63 487.74 621.63 427.29 515.2 427.29 515.2 430.65 550.07 430.65 550.07 487.74 596.65 487.74 596.65 484.38 553.43 484.38 553.43 430.65 618.27 430.65 618.27 484.38 613.42 484.38"></polygon>
  <rect class="cls-3" x="791.04" y="427.29" width="80.58" height="3.36"></rect>
  <polygon class="cls-3" points="1089.07 738.78 1064.77 755.3 1066.65 758.09 1090.1 742.14 1107.77 742.14 1107.77 582.9 1090.56 582.9 1067.61 542.17 1095.13 542.17 1095.13 538.81 1037.91 538.81 1037.91 542.17 1067.56 542.17 1063.12 541.04 1088.6 586.26 1104.41 586.26 1104.41 738.78 1089.07 738.78"></polygon>
  <polygon class="cls-3" points="1092.21 252.88 1084.43 252.88 1084.43 376.97 1054.61 376.97 1054.61 380.33 1092.21 380.33 1092.21 252.88"></polygon>
  <polygon class="cls-3" points="955.2 350.83 951.84 350.83 951.84 355.12 945.12 355.12 945.12 360.72 951.84 360.72 951.84 377.49 913.88 377.49 913.88 380.85 955.2 380.85 955.2 350.83"></polygon>
  <polygon class="cls-3" points="955.2 307.47 949.1 307.47 949.1 310.83 951.84 310.83 951.84 334.91 955.2 334.91 955.2 307.47"></polygon>
  <polygon class="cls-3" points="932.28 359.6 932.28 356.24 886.12 356.24 886.12 376.37 883.28 376.37 883.28 381.96 896.91 381.96 896.91 376.37 889.48 376.37 889.48 359.6 932.28 359.6"></polygon>
  <rect class="cls-3" x="759.91" y="377.49" width="107.39" height="3.36"></rect>
  <rect class="cls-3" x="833.43" y="350.42" width="3.36" height="26.95"></rect>
  <polygon class="cls-3" points="739.35 377.49 700.9 377.49 700.9 380.85 742.71 380.85 742.71 351.97 739.35 351.97 739.35 377.49"></polygon>
  <rect class="cls-3" x="648.1" y="377.49" width="37.2" height="3.36"></rect>
  <rect class="cls-3" x="621.52" y="377.49" width="10.89" height="3.36"></rect>
  <polygon class="cls-3" points="627.82 379.17 627.82 356.06 624.46 356.06 624.46 356.26 600 356.26 600 376.87 575.62 376.87 575.62 380.23 609.93 380.23 609.93 376.87 603.36 376.87 603.36 359.62 624.46 359.62 624.46 379.17 627.82 379.17"></polygon>
  <path class="cls-3" d="M546,186.16v17.12l11.11.11V189.52h61.91v13.87h11.37V189.52h19v25h3.36v-25H701v11.67h-9.38l.16,15.83h5.6l-.16-10.23h9.38V155.46H701v30.7H589.52V114.74H552.63v39h33.53v32.45ZM556,150.35V118.09h30.17v32.26Z"></path>
  <polygon class="cls-3" points="606.19 119.24 645.93 119.24 645.93 188.31 649.29 188.31 649.29 115.88 606.19 115.88 606.19 119.24"></polygon>
  <path class="cls-3" d="M16.6,182.53l.08-.35H16.6V123h3.9V114.6H16.6V101.16h3.9V92H16.6V28.15H85V30.2H96.38V28.15h12.2V30.2h11.16V28.15h64.2v127h79.88v-3.36H187.3V130.89H193v-9H187.3V104.48H193V97.84H187.3V30.2H193V28.15h64.71V30.2h7.56V28.15h63.58V30.2H336V186.32H266.55v-2.87H263.7V172.88h-3.36v10.58h-4.27v19.94h10.48V189.68h61.91v13.71h10.7V188.17h.21v.34H400.8v14.88h10.74V188.51h62.23v13.26h9.48V188.51h47.48v-3.36H465.61v-66.4H532v-3.36H462.25v69.76h-54v-66.4h37.89v-3.36H404.91v69.76H339.37V132.58h32.94V118.75h16.3l-.22-3.36H368.95v13.83H339.37V91l48.35-.08V87.51l-48.35.08V28.54h-.21v-.39h63.18V30.2h2.57V91.27h39.84V87.91H408.27V28.54H408v-.39h54.3V91.27H501.3V87.91H465.61V28.15h5.32V30.2h12.83V28.15H519.1V91.27h3.36V28.15h24.65V30.2h9.34V28.15h9.3V87.49H540.21v3.36h28.9V28.15h55.35l-.08,59.31H586.22v3.36h41.52l.08-62.67h71.12V42.39H707V22.58h-.42v0h-3V8.09H689.08V22.55h-55.7V8.75H618.9v13.8H557.62V8.09H543.13V22.55H485.42v-14H470.93v14h-1.38V2.84H416.22V22.55h-2.39V8.31H399.34V22.55H341.93V9.23H327.44V22.55H269.27V9.23H254.78V22.55h-59v-14H181.29v14H127V9H112.49V22.55H95.09V9H80.6V22.55H25V7.91H10.5V18.1H1.12V32.59H11V84.77H1.12V99.26H11V111.5H1.12V126H11v56.19H0v14.49H9.44v9.45H23.93V195h9.86v-5.6H16.6ZM417.34,4h51.09V22.55h-1.79V5.87H419.1V22.55h-1.75ZM16.47,22.55h-.91v-.22Z"></path>
  <polygon class="cls-3" points="706.71 142.27 706.58 59.61 700.99 59.61 700.99 87.91 645.8 87.92 645.8 91.28 700.99 91.27 700.99 115.88 666.07 115.88 666.07 119.24 700.99 119.24 701.11 142.27 706.71 142.27"></polygon>
  <path class="cls-3" d="M618.27,327.33l-22.18.13v-19.6h4.5v-7.28h34.8v7.69h42.4v69.35h3.36v-77h57.08v1.12h1.12v35.61h3.36V301.7h90.72v33.21h3.36V301.7h81.82v9.13h16.55v-3.36H923.08V301.7h0V286.41h26v21.06h3.36V279H949.1V283h-26V262.76h111.6V377.49h-62.3v3.36H1038V262.76h1.12v-8.08h67.13V265h92.57v92h-86.53v24.2h3.36V360.37h57.37v28.16h5.6V378h20.2v11.92h7.34V375.2h2.29v-6.68h-4v-9.83h4v-13h-4V299.52h4v-5.61h-4V259.36H1179.8V236.83h-16.29v16.05h-5.67v6.48h-41.64v-7.49h-4.31v-2.8h-3.76V236.83h-8.25v-4.9h-13.78v17.15h-46.52V231.93h-14.24v4.9h-8.75v16.05h-5v4.28H969.09v-4.91h-9.48V236.83H945.12v20.33H917.49V296.1H803.93a4.28,4.28,0,1,0-5.73,0H743.83v-47H651.08v5.6h87.15v42.54H677.79v7.69h-39v-7.69H600.59v-3.35h-14v14h6.13v16.88H543.14v-3.57h-5.25v3.57h-1.68v56.11h24.85v-3.36H539.57l.19-46.7h54.84l-.19,0h23.72Zm560.39,45.07v-12h20.2v12Z"></path>
  <polygon class="cls-3" points="1192.99 749.28 1192.99 783.92 1046.14 783.92 1052.24 766.93 1049.12 765.71 1042.57 783.92 857.7 783.92 857.7 751.92 866.82 752.68 867.45 748.31 852.1 746.85 852.1 789.52 1198.59 789.52 1198.59 739.61 1192.99 739.61 1192.99 749.28"></polygon>
  <polygon class="cls-3" points="1192.99 727.42 1192.99 662.22 1128.85 662.22 1128.85 660.54 1128.85 660.54 1128.85 625.18 1132.21 625.18 1132.21 658.86 1194 658.86 1194 628.9 1194.11 628.9 1194.11 608.06 1128.85 608.06 1128.85 570.36 1132.21 570.36 1132.21 604.7 1194.11 604.7 1194.11 544.46 1197.47 544.46 1197.47 628.9 1218.4 628.9 1218.4 545.61 1198.87 545.61 1198.87 544.49 1112.34 544.49 1112.34 499.66 1115.7 499.66 1115.7 541.13 1198.87 541.13 1198.87 450.2 1115.7 450.2 1115.7 485.08 1112.34 485.08 1112.34 427.29 1199.47 427.29 1199.47 430.65 1115.7 430.65 1115.7 446.84 1198.87 446.84 1198.87 419.38 1205.81 419.38 1205.81 425.62 1208.49 425.62 1208.49 432.99 1204.47 432.99 1204.47 444.72 1208.49 444.72 1208.49 456.73 1204.47 456.73 1204.47 501.2 1208.49 501.2 1208.49 508.59 1204.47 508.59 1204.47 540.01 1224 540.01 1224 634.5 1198.59 634.5 1198.59 660.54 1198.59 661.86 1198.59 727.42 1192.99 727.42"></polygon>
  <path class="cls-3" d="M468.41,508.94H444.7V496.1h-3.36v46.85H409.9V430.65h31.43V483.9h3.36V427.29H208.29v57.37h56.23v-3.36H211.65V430.65h69.79v53.68h3.36V430.65h66.81v50.22h-50v3.36H355V430.65h51.58v71.91h-56.3v3.36h56.3v37h-1.12v18.32H397v7.39H355V523.38h-3.36v45.28H334v-5.93h-9.83v5.93H282.25V514.73h46.82v17.44h3.36v-20.8H228.75v3.36h50.14v53.93H218.26v-4.48h-6.61V511.64h-3.36v57h-56.6V515.27h40.18v-3.36H148.33v56.75H91.62v-4.48H87.77V505.92h36.71V493.16H151V489.8H121.12v12.76H87.77V443.09h5.46v-1h55.11v29.1h3.36v-29.1h32.75V418.33h-3.36v20.43H93.23v-2.51H87.77V423.1h-5.6V429H75.24v14.12h6.92V574.26H411V548.55h46.09v-5.6H444.7V512.29h23.67Zm10.78,34.43H477v2.08h-3.25v25.43H456.12v34.25H674v-32H852.1v156h5.6V572h66.87V542.17h97v-3.36h-12.68V517.87h-3.36v20.93H924.58V517.88h-3.36v50.79h-42V547.12h13.11V501.34h31.14V480.58h81.85v4.92h3.36V427.29H998.43v3.36h6.91v46.58H923.49V430.65h58.3v-3.36H913.89v3.36h6.25V498H892.35V430.65h5.09v-3.36H889V543.76H875.88v24.92H857.7v-1.12H836.79V447.64h-3.36v61.29H806.86v3.36h26.57v55.26h-30v-4.07h-6.87v4.07h-7.83V509.29h-3.36v58.27H741.1V512.29h26v-3.36h-26V430.65h34.07v-3.36H636.47v3.36h49.2v51.19h52.07v27.1H693.49v3.36h44.25v55.26H681.15V564h-4.69V508.81H673.1v58.75h-4.67v6.87H617.35V512.29h38.53v-3.36H614v65.49H554V512.29h42.63v-3.36h-46v65.49H488.46V561.27H484.1V543.36h-1.55V484.23h46.52v28h3.36V480.87H482.54V430.65h15.33v-3.36H479.19Zm207.61-62.64V430.65h51v50.07ZM461.71,599.52V576.46h17.47v1.32H668.44v21.73Z"></path>
  <rect class="cls-3" x="921.22" y="358.82" width="3.36" height="19.67"></rect>
  <polygon class="cls-3" points="917.27 763.55 918.08 759.96 879.93 752.3 879.12 755.89 917.27 763.55"></polygon>
  <polygon class="cls-3" points="1130.76 766.03 1134.12 766.03 1134.12 760.25 1171.73 754.38 1171.21 751.06 1130.76 757.38 1130.76 766.03"></polygon>
  <polygon class="cls-3" points="81.89 205.02 96.38 205.02 96.38 194.98 108.58 194.98 108.58 206.12 123.07 206.12 123.07 194.23 182.16 194.21 182.16 206.12 193.67 206.12 193.67 186.45 187.3 186.45 187.3 172.6 183.94 172.6 183.94 186.45 182.16 186.45 182.16 187.75 119.03 187.75 119.03 183.45 108.58 183.45 108.58 189.38 96.38 189.38 96.38 183.45 84.97 183.45 84.97 189.38 81.89 189.38 51.71 189.38 51.71 194.98 81.89 194.98 81.89 205.02"></polygon>
  <polygon class="cls-3" points="459.92 377.49 451.49 377.49 451.51 370.89 448.15 370.89 448.13 380.85 459.92 380.85 459.92 377.49"></polygon>
  <polygon class="cls-3" points="474.63 380.85 497.39 380.85 497.39 327.46 440.51 327.46 440.51 305.73 445.97 305.73 445.97 293.87 431.24 293.87 431.24 296.79 262.04 296.79 262.04 293.96 253.1 293.96 253.1 296.79 253.1 302.06 253.05 302.06 253.05 380.85 262.02 380.85 262.02 377.49 256.41 377.49 256.41 305.42 298.18 305.42 298.18 377.49 278.1 377.49 278.1 380.85 309.1 380.85 309.1 377.49 301.54 377.49 301.54 305.42 351.61 305.42 351.61 354.94 328.89 354.94 328.86 379.49 332.22 379.49 332.25 358.3 354.97 358.3 354.97 305.42 362.81 305.42 362.81 380.85 404.41 380.85 404.41 377.49 366.18 377.49 366.18 305.42 431.24 305.42 431.24 305.73 437.16 305.73 437.16 329.14 437.16 330.82 437.16 372.31 440.51 372.31 440.51 330.82 494.04 330.82 494.04 377.49 474.63 377.49 474.63 380.85"></polygon>
  <text class="cls-6" transform="translate(87.32 111) scale(0.88 1)">132</text>
  <text class="cls-6" transform="translate(261.7 91.27) scale(0.88 1)">131</text>
  <text class="cls-6" transform="translate(363.35 59.06) scale(0.88 1)">130C</text>
  <text class="cls-6" transform="translate(423.54 59.06) scale(0.88 1)">130D</text>
  <text class="cls-6" transform="translate(362.37 161.76) scale(0.88 1)">130B</text>
  <text class="cls-6" transform="translate(484.91 59.06) scale(0.88 1)">130E</text>
  <text class="cls-6" transform="translate(427.3 161.76) scale(0.88 1)">130A</text>
  <text class="cls-6" transform="translate(534.69 107.52) scale(0.88 1)">130</text>
  <text class="cls-6" transform="translate(588.65 59.06) scale(0.88 1)">130G</text>
  <text class="cls-6" transform="translate(654.1 59.06) scale(0.88 1)">130H</text>
  <text class="cls-6" transform="translate(608.74 161.76) scale(0.88 1)">130J</text>
  <text class="cls-6" transform="translate(667.85 161.76) scale(0.88 1)">130I</text>
  <text class="cls-6" transform="translate(430.94 250.86) scale(0.88 1)">L1A</text>
  <text class="cls-6" transform="translate(668.7 212.51) scale(0.88 1)">V1B</text>
  <text class="cls-6" transform="translate(680.1 277.84) scale(0.88 1)">S1C</text>
  <text class="cls-6" transform="translate(695.42 342.02) scale(0.88 1)">104</text>
  <text class="cls-6" transform="translate(642.52 343.09) scale(0.88 1)">105</text>
  <text class="cls-6" transform="translate(607.62 372.31) scale(0.88 1)">106</text>
  <text class="cls-6" transform="translate(773.79 342.02) scale(0.88 1)">1<tspan class="cls-7" x="3.8" y="0">0</tspan><tspan class="cls-8" x="10.28" y="0">3</tspan></text>
  <text class="cls-6" transform="translate(877.69 342.02) scale(0.87 1)">1<tspan class="cls-9" x="3.8" y="0">0</tspan><tspan x="10.28" y="0">2</tspan></text>
  <text class="cls-6" transform="translate(896.17 373.67) scale(0.87 1)">1<tspan class="cls-9" x="3.8" y="0">0</tspan><tspan x="10.28" y="0">2C</tspan></text>
  <text class="cls-6" transform="translate(928.37 372.31) scale(0.87 1)">1<tspan class="cls-9" x="3.8" y="0">0</tspan><tspan x="10.28" y="0">2B</tspan></text>
  <text class="cls-6" transform="translate(985.58 325.64) scale(0.87 1)">1<tspan class="cls-10" x="3.8" y="0">0</tspan><tspan x="10.32" y="0">1</tspan></text>
  <text class="cls-6" transform="translate(926.58 300.17) scale(0.87 1)">1<tspan class="cls-9" x="3.8" y="0">0</tspan><tspan x="10.28" y="0">2A</tspan></text>
  <text class="cls-6" transform="translate(928.37 277.84) scale(0.87 1)">1<tspan class="cls-10" x="3.8" y="0">0</tspan><tspan x="10.32" y="0">1A</tspan></text>
  <text class="cls-6" transform="translate(1052.45 325.63) scale(0.87 1)">125</text>
  <text class="cls-6" transform="translate(1139.3 315.75) scale(0.87 1)">1<tspan class="cls-11" x="3.8" y="0">2</tspan><tspan x="9.27" y="0">4</tspan></text>
  <text class="cls-6" transform="translate(1175.2 409.64) scale(0.87 1)">S1A</text>
  <text class="cls-6" transform="translate(1049.13 454.2) scale(0.87 1)">C1A</text>
  <text class="cls-6" transform="translate(901.6 472.85) scale(0.87 1)">119</text>
  <text class="cls-6" transform="translate(857.1 504.3) scale(0.87 1)">118</text>
  <text class="cls-6" transform="translate(955.56 511.64) scale(0.87 1)">120</text>
  <text class="cls-6" transform="translate(898.17 545.44) scale(0.87 1)">120A</text>
  <text class="cls-6" transform="translate(801.33 545.44) scale(0.87 1)">117A</text>
  <text class="cls-6" transform="translate(753.68 545.44) scale(0.87 1)">117B</text>
  <text class="cls-6" transform="translate(781.76 477.63) scale(0.87 1)">117</text>
  <text class="cls-6" transform="translate(647.8 472.85) scale(0.87 1)">116</text>
  <text class="cls-6" transform="translate(706.28 460.57) scale(0.87 1)">11E6</text>
  <text class="cls-6" transform="translate(702.9 545.44) scale(0.87 1)">116F</text>
  <text class="cls-6" transform="translate(638.47 545.44) scale(0.87 1)">116G</text>
  <text class="cls-6" transform="translate(570.69 545.44) scale(0.87 1)">116A</text>
  <text class="cls-6" transform="translate(570.69 459.3) scale(0.87 1)">116D</text>
  <text class="cls-6" transform="translate(502.59 544.73) scale(0.87 1)">116B</text>
  <text class="cls-6" transform="translate(505.77 457.51) scale(0.87 1)">116C</text>
  <text class="cls-6" transform="translate(456.51 532.93) scale(0.87 1)">V1C</text>
  <text class="cls-6" transform="translate(456.51 471.73) scale(0.87 1)">C1D</text>
  <text class="cls-6" transform="translate(418.78 519.08) scale(0.87 1)">114</text>
  <text class="cls-6" transform="translate(372.45 459.3) scale(0.87 1)">112C</text>
  <text class="cls-6" transform="translate(372.45 543.61) scale(0.87 1)">112D</text>
  <text class="cls-6" transform="translate(300.28 543.61) scale(0.87 1)">112E</text>
  <text class="cls-6" transform="translate(237.26 543.61) scale(0.87 1)">112F</text>
  <text class="cls-6" transform="translate(241.44 458.35) scale(0.87 1)">112A</text>
  <text class="cls-6" transform="translate(313.27 459.3) scale(0.87 1)">112B</text>
  <text class="cls-6" transform="translate(170.21 543.61) scale(0.87 1)">112G</text>
  <text class="cls-6" transform="translate(177.26 491.48) scale(0.87 1)">112</text>
  <text class="cls-6" transform="translate(111.99 543.61) scale(0.78 1)">112H</text>
  <text class="cls-6" transform="translate(111.99 472.85) scale(0.78 1)">112J</text>
  <text class="cls-6" transform="translate(104.8 412.47) scale(0.78 1)">S1B</text>
  <text class="cls-6" transform="translate(138.79 343.85) scale(0.78 1)">111</text>
  <text class="cls-6" transform="translate(273.94 337.36) scale(0.78 1)">110</text>
  <text class="cls-6" transform="translate(322.16 337.36) scale(0.78 1)">119</text>
  <text class="cls-6" transform="translate(341.89 371.86) scale(0.78 1)">119B</text>
  <text class="cls-6" transform="translate(511.28 396.14) scale(0.78 1)">C1C</text>
  <text class="cls-6" transform="translate(146.83 225.37) scale(0.78 1)">V1A</text>
  <text class="cls-6" transform="translate(974.08 667.17) scale(0.87 1)">122</text>
  <text class="cls-6" transform="translate(875.48 777.54) scale(0.87 1)">122D</text>
  <text class="cls-6" transform="translate(1160.85 774.06) scale(1.07 1)">129</text>
  <text class="cls-6" transform="translate(1120.58 743.06) scale(0.87 1)">C1B</text>
  <text class="cls-6" transform="translate(1160.85 694.51) scale(0.87 1)">128</text>
  <text class="cls-6" transform="translate(1157.85 578.82) scale(0.87 1)">126</text>
  <text class="cls-6" transform="translate(1157.85 497.38) scale(0.87 1)">123</text>
  <text class="cls-6" transform="translate(536.81 59.06) scale(0.88 1)">130F</text>
  <text class="cls-6" transform="translate(1160.85 639.3) scale(0.87 1)">1<tspan class="cls-12" x="3.8" y="0">2</tspan><tspan x="9.36" y="0">7</tspan></text>
  <polygon class="cls-3" points="152.15 441.24 145.79 441.24 145.79 380.61 142.04 380.61 142.04 441.17 134.86 441.17 134.86 380.61 131.94 380.61 131.94 440.12 129.69 440.12 129.69 378.37 137.1 378.37 137.1 438.93 139.8 438.93 139.8 378.37 148.03 378.37 148.03 439 149.91 439 149.91 379.49 152.15 379.49 152.15 441.24"></polygon>
  <line class="cls-13" x1="151.03" y1="408.5" x2="130.18" y2="408.5"></line>
  <path class="cls-3" d="M1155.37,429.6h-7V391.24l-1.75.29v37.11h-2.24V391H1139V388.8h10.36l1.21-.2v.2H1153l10.33-29.94,2.12.73-10.08,29.21h10.14v40.3h-7V391.61l-3.14-.42Zm-4.8-2.24h2.56V391h-2.56Zm10.18-.5h2.55V391h-2.55Z"></path>
  <rect class="cls-3" x="1154.73" y="359.22" width="2.24" height="24.46"></rect>
  <rect class="cls-3" x="1150.59" y="359.22" width="2.24" height="30.7"></rect>
  <rect class="cls-3" x="1145.13" y="359.22" width="2.24" height="30.7"></rect>
  <rect class="cls-3" x="1140.26" y="359.22" width="2.24" height="31.41"></rect>
  <path class="cls-3" d="M729.37,253.16l-.72.66v-2.06h-6.93v35.56h-2.21V251.76h-8v36.32h-3.43V251.76h-7v36.32h-3.68V251.9h-2.24v36.18h-2.33v2.24h49.6V267.57Zm-26,34.92V254h2.52v34.08ZM713.79,254h3.47v34.08h-3.47ZM724,288.08V254h2.45v34.08Zm4.69,0V255.7l2.84,3.12v29.27Zm11.59,0h-6.52v-26.8l6.52,7.16Z"></path>
  <polygon class="cls-3" points="443.42 480.54 409.18 480.54 409.18 483.9 443.13 483.9 443.42 480.54"></polygon>
  <polygon class="cls-3" points="430.63 380.85 427.26 380.85 427.26 370.9 449.16 370.9 449.16 374.26 430.63 374.26 430.63 380.85"></polygon>
  <path class="cls-14" d="M662.21,291.27a5.34,5.34,0,0,1-7.11,0s-3,.66-2.69,3.58,6.24,8,6.24,8,5.9-5,6.24-8S662.21,291.27,662.21,291.27Z"></path>
  <polygon class="cls-2" points="657.68 293.12 656.45 296.55 658.48 296.55 657.8 298.43 659.45 298.43 658.22 301.61 661.77 296.85 659.83 296.85 660.66 295.04 658.76 295.04 659.51 293.12 657.68 293.12"></polygon>
  <path class="cls-15" d="M655,288.69l-.4,1.22H654l1.31-3.87h.6l1.32,3.87h-.53l-.41-1.22Zm1.27-.39-.38-1.11c-.08-.25-.14-.48-.2-.71h0c-.06.23-.12.46-.19.7l-.38,1.12Z"></path>
  <path class="cls-15" d="M659.84,288.09h-1.5v1.4H660v.42h-2.18V286h2.09v.42h-1.59v1.22h1.5Z"></path>
  <path class="cls-15" d="M660.66,286.09a6.67,6.67,0,0,1,1.06-.08,2.22,2.22,0,0,1,1.57.49,1.77,1.77,0,0,1,.55,1.38,2.06,2.06,0,0,1-.56,1.5,2.41,2.41,0,0,1-1.71.56,8.06,8.06,0,0,1-.91,0Zm.5,3.42a3.56,3.56,0,0,0,.5,0,1.48,1.48,0,0,0,1.65-1.64,1.38,1.38,0,0,0-1.56-1.49,3,3,0,0,0-.59.05Z"></path>
  <ellipse class="cls-16" cx="963.03" cy="454.2" rx="11.97" ry="12.25"></ellipse>
  <circle class="cls-2" cx="957.62" cy="446.89" r="1.35"></circle>
  <path class="cls-2" d="M960.17,448.87h-5.12c-.32,0-.58.6-.58.92v5.61a.58.58,0,1,0,1.16,0v-3.83l.14,0a.73.73,0,0,1,.21,0v10.55a.73.73,0,0,0,1.45,0v-5.92h.34v5.92a.73.73,0,0,0,1.45,0V451.58a.73.73,0,0,1,.21,0l.14,0v3.83a.58.58,0,1,0,1.16,0v-5.61C960.76,449.47,960.5,448.87,960.17,448.87Z"></path>
  <circle class="cls-2" cx="967.83" cy="446.89" r="1.35"></circle>
  <path class="cls-2" d="M970.35,449.79c0-.32-.26-.92-.58-.92H966c-.32,0-.58.6-.58.92l-1.35,5.61a.58.58,0,1,0,1.16,0l1-4.73h.1l-1.11,6a.37.37,0,0,0,.34.39h.69v5.09a.73.73,0,0,0,1.45,0V457h.34v5.09a.73.73,0,0,0,1.45,0V457h.57a.37.37,0,0,0,.34-.39l-1-6h.1l.9,4.73a.58.58,0,1,0,1.16,0Z"></path>
  <path class="cls-2" d="M963.09,463c0,.11-.14.2-.32.2h0c-.18,0-.32-.09-.32-.2V445.37c0-.11.14-.2.32-.2h0c.18,0,.32.09.32.2Z"></path>
  <path class="cls-3" d="M468,545.44h6.44v3H471v15l-1.54,0c-.15,0-15.21-.63-15.36-15.25l3,0c.1,9.31,7.58,11.57,10.91,12.12Z"></path>
  <path class="cls-3" d="M102.64,206h15v-2.49h5.42V209H105.85c.54,3.33,3.17,10.81,12.49,10.91l0,3c-14.63-.15-15.62-15.21-15.62-15.36Z"></path>
  <path class="cls-3" d="M102.64,222.47h15V220h3v5.49H105.85c.54,3.33,3.17,10.81,12.49,10.91l0,3c-14.63-.15-15.62-15.21-15.62-15.36Z"></path>
  <path class="cls-3" d="M87.86,421.08v5.49h-3v-2.49h-15l0-1.54c0-.15.63-15.21,15.25-15.36l0,3c-9.31.1-11.57,7.58-12.12,10.91Z"></path>
  <path class="cls-3" d="M69.81,392.91h15v-2.49h3v5.49H73c.54,3.33,2.8,10.81,12.12,10.91l0,3c-14.63-.15-15.25-15.21-15.25-15.36Z"></path>
  <path class="cls-3" d="M1203.87,424.17h-5v-5.49h16.85c-.54-3.33-2.8-10.81-12.12-10.91l0-3c14.63.15,15.25,15.21,15.25,15.36l0,1.54h-15Z"></path>
  <path class="cls-3" d="M1206.82,408a17.75,17.75,0,0,1-3.08-.3l.52-3c3.64.64,4.67-.11,4.91-.35a1,1,0,0,0,.24-.64l-6.91-6.91v-9.94h3.71v8.7l6,6.68.11.38a4.13,4.13,0,0,1-.88,3.74A5.88,5.88,0,0,1,1206.82,408Z"></path>
  <path class="cls-3" d="M712.13,247.34h-15v2.49h-5.42v-5.49h17.26c-.54-3.33-3.17-10.81-12.49-10.91l0-3c14.63.15,15.62,15.21,15.62,15.36Z"></path>
  <path class="cls-3" d="M712.13,230.92h-15v2.49h-3v-5.49h14.83c-.54-3.33-3.17-10.81-12.49-10.91l0-3c14.63.15,15.62,15.21,15.62,15.36Z"></path>
  <ellipse class="cls-16" cx="468.48" cy="356.06" rx="11.97" ry="12.25"></ellipse>
  <circle class="cls-2" cx="463.06" cy="348.75" r="1.35"></circle>
  <path class="cls-2" d="M465.62,350.73H460.5c-.32,0-.58.6-.58.92v5.61a.58.58,0,1,0,1.16,0v-3.83l.14,0a.73.73,0,0,1,.21,0V364a.73.73,0,0,0,1.45,0v-5.92h.34V364a.73.73,0,0,0,1.45,0V353.45a.73.73,0,0,1,.21,0l.14,0v3.83a.58.58,0,1,0,1.16,0v-5.61C466.2,351.33,465.94,350.73,465.62,350.73Z"></path>
  <circle class="cls-2" cx="473.27" cy="348.75" r="1.35"></circle>
  <path class="cls-2" d="M475.79,351.65c0-.32-.26-.92-.58-.92h-3.76c-.32,0-.58.6-.58.92l-1.35,5.61a.58.58,0,1,0,1.16,0l1-4.73h.1l-1.11,6a.37.37,0,0,0,.34.39h.69V364a.73.73,0,0,0,1.45,0v-5.09h.34V364a.73.73,0,0,0,1.45,0v-5.09h.57a.37.37,0,0,0,.34-.39l-1-6h.1l.9,4.73a.58.58,0,1,0,1.16,0Z"></path>
  <path class="cls-2" d="M468.53,364.89c0,.11-.14.2-.32.2h0c-.18,0-.32-.09-.32-.2V347.24c0-.11.14-.2.32-.2h0c.18,0,.32.09.32.2Z"></path>
  <ellipse class="cls-17" cx="426.3" cy="454.2" rx="11.93" ry="12.21"></ellipse>
  <path class="cls-2" d="M419.24,449.32v12.15H426V449.32Zm3.4,2.23a.6.6,0,1,1-.6.6A.6.6,0,0,1,422.64,451.55Zm1.39,4.37a.26.26,0,0,1-.52,0v-1.7h-.16v4.68a.32.32,0,1,1-.64,0v-2.62h-.15v2.62a.32.32,0,1,1-.65,0v-4.68h-.16v1.7a.26.26,0,0,1-.52,0v-2.49c0-.14.12-.41.26-.41h2.27c.14,0,.25.27.25.41Z"></path>
  <path class="cls-2" d="M426.56,449.32v12.15h6.81V449.32Zm3.4,2.23a.6.6,0,1,1-.6.6A.6.6,0,0,1,430,451.55Zm1.39,4.37a.26.26,0,1,1-.52,0v-1.7h-.16v4.68a.32.32,0,1,1-.65,0v-2.62h-.15v2.62a.32.32,0,1,1-.65,0v-4.68h-.16v1.7a.26.26,0,1,1-.52,0v-2.49c0-.14.12-.41.26-.41h2.27c.14,0,.25.27.25.41Z"></path>
  <rect class="cls-2" x="422.53" y="446.93" width="7.55" height="2.04"></rect>
  <polygon class="cls-2" points="435.23 452.74 433.89 454.55 434.63 454.55 434.63 456.99 435.83 456.99 435.83 454.55 436.57 454.55 435.23 452.74"></polygon>
  <polygon class="cls-2" points="417.37 456.99 416.03 455.18 416.77 455.18 416.77 452.74 417.97 452.74 417.97 455.18 418.71 455.18 417.37 456.99"></polygon>
  <ellipse class="cls-16" cx="575.62" cy="356.24" rx="11.97" ry="12.25"></ellipse>
  <circle class="cls-2" cx="575.7" cy="348.93" r="1.35"></circle>
  <path class="cls-2" d="M578.26,350.91h-5.12c-.32,0-.58.6-.58.92v5.61a.58.58,0,1,0,1.16,0v-3.83l.14,0a.73.73,0,0,1,.21,0v10.55a.73.73,0,0,0,1.45,0v-5.92h.34v5.92a.73.73,0,0,0,1.45,0V353.63a.73.73,0,0,1,.21,0l.14,0v3.83a.58.58,0,1,0,1.16,0v-5.61C578.84,351.51,578.58,350.91,578.26,350.91Z"></path>
  <ellipse class="cls-16" cx="405.4" cy="343.09" rx="11.97" ry="12.25"></ellipse>
  <circle class="cls-2" cx="405.33" cy="335.78" r="1.35"></circle>
  <path class="cls-2" d="M407.85,338.68c0-.32-.26-.92-.58-.92H403.5c-.32,0-.58.6-.58.92l-1.35,5.61a.58.58,0,1,0,1.16,0l1-4.73h.1l-1.11,6a.37.37,0,0,0,.34.39h.69V351a.73.73,0,0,0,1.45,0v-5.09h.34V351a.73.73,0,0,0,1.45,0v-5.09h.57a.37.37,0,0,0,.34-.39l-1-6h.1l.9,4.73a.58.58,0,1,0,1.16,0Z"></path>
  <ellipse class="cls-18" cx="224.37" cy="170.94" rx="11.97" ry="12.25"></ellipse>
  <path class="cls-2" d="M220,172h-1.35c-.38,0-.52-.14-.52-.51q0-4.23,0-8.47c0-.42.12-.55.54-.55H230c.4,0,.62.1.61.62,0,1.32,0,2.63,0,4q0,2.23,0,4.46c0,.35-.14.49-.5.49H228.7v.25q0,4,0,8c0,.42-.12.54-.54.54h-7.65c-.33,0-.47-.14-.47-.47q0-1.31,0-2.62,0-2.72,0-5.44C220,172.2,220,172.14,220,172Zm7.88,0h-7.09V180h7.09Zm1.86-.81v-7.94H219v7.94Z"></path>
  <path class="cls-2" d="M222.68,164.55H225a.4.4,0,0,1,.46.46q0,2.27,0,4.53c0,.34-.13.48-.47.48h-4.68c-.36,0-.49-.13-.49-.5q0-2.25,0-4.5c0-.34.14-.48.47-.48Zm2,4.69v-3.91h-4.05v3.91Z"></path>
  <path class="cls-2" d="M228,166.84h-.49a.38.38,0,0,1-.4-.39.38.38,0,0,1,.39-.39h1a.39.39,0,0,1,.39.39.4.4,0,0,1-.4.38H228Z"></path>
  <path class="cls-2" d="M228,168.51h-.49a.39.39,0,1,1,0-.78h1a.39.39,0,0,1,.41.38.4.4,0,0,1-.41.4H228Z"></path>
  <path class="cls-2" d="M228,165.17h-.49a.39.39,0,0,1-.39-.39.37.37,0,0,1,.38-.38h1a.38.38,0,0,1,.37.37.39.39,0,0,1-.37.4H228Z"></path>
  <path class="cls-2" d="M228,169.4h.49a.39.39,0,0,1,.4.38.39.39,0,0,1-.39.39h-1a.37.37,0,0,1-.39-.39.38.38,0,0,1,.4-.38Z"></path>
</svg>
