<?xml version="1.0" encoding="UTF-8"?>
<svg xmlns="http://www.w3.org/2000/svg" id="Layer_1" data-name="Layer 1" viewBox="0 0 1224 792">
  <defs>
    <style>.cls-1{fill:#d2d3d4;}.cls-2{fill:#fff;}.cls-3{fill:#5f6061;}.cls-4{fill:#ffce0c;}.cls-10,.cls-11,.cls-5{fill:#59595b;}.cls-11,.cls-5{stroke:#59595b;stroke-miterlimit:10;}.cls-5{stroke-width:2px;}.cls-6{font-size:9px;fill:#58595b;font-family:Gotham-Bold, Gotham;font-weight:700;}.cls-7{letter-spacing:-0.01em;}.cls-8{letter-spacing:0em;}.cls-9{letter-spacing:0em;}.cls-12{fill:#8dc63f;}.cls-13{fill:#1b75bc;}</style>
  </defs>
  <title>Rowe_Third_Floor</title>
  <polygon class="cls-1" points="17.11 134.4 21.53 295.48 188.14 295.79 188.23 400.82 85.42 398.58 84.9 672.73 927.87 674.97 937.21 648.82 1216.55 648.82 1215.51 368.96 935.03 368.96 933.54 401.13 845.86 401.54 845.86 303.1 711.06 301.47 707.98 136.85 707.71 127.21 683.75 131.06 321.17 128.98 131.41 128.98 17.11 127.76 17.11 134.4"></polygon>
  <path class="cls-2" d="M1082.89,485.15l-398.16,1.58.76-81.25,17.21-2.09.22-43.84L811.63,359l.47,44.52,36.1.46-2.39-103.38-135.54-1.32-1.1-58.78H635.54v18.17l-163.45-1.05-18.51-1.08-194,0-.2-31.91-24.73.2-.53-27.3H199.45l-.17,27.6-10.6-.24,1.7,72.43L185.3,400.9l30.25,2.16-.69,80.61-32.36.22-.63,5.89,2.26,42.13,898.66,2.4,0,16.52h43.68l.07-86.38.24-20.76-43.57.11Zm-827.76,1.18,1.8-80.89,8.34-2.67-.58-112,370.11,5.59.42,107.49L646,402.34,643.49,485Z"></path>
  <polygon class="cls-3" points="264.7 296.15 265.26 402.78 638.2 402.34 636.16 293.68 264.7 296.15"></polygon>
  <polygon class="cls-4" points="84.72 484.74 84.72 546.39 184.71 546.59 184.71 485.54 84.72 484.74"></polygon>
  <polygon class="cls-4" points="1212.38 525.13 1211.66 552.24 1126.44 550.84 1126 523.97 1126 465.82 1179.88 463.98 1213.11 463.98 1213.83 484.92 1216.02 500.29 1217.2 507.56 1217.52 518.55 1212.38 525.13"></polygon>
  <polygon class="cls-4" points="702.92 359.55 702.92 402.34 812.11 402.34 812.11 356.93 702.92 359.55"></polygon>
  <line class="cls-5" x1="147.78" y1="512.86" x2="147.78" y2="546.45"></line>
  <text class="cls-6" transform="translate(336.16 607.38) scale(0.87 1)">318</text>
  <text class="cls-6" transform="translate(441.34 627.33) scale(0.87 1)">319</text>
  <text class="cls-6" transform="translate(249.46 639.33) scale(0.87 1)">317A</text>
  <text class="cls-6" transform="translate(200.43 653.42) scale(0.87 1)">317B</text>
  <text class="cls-6" transform="translate(152.72 653.42) scale(0.87 1)">317C</text>
  <text class="cls-6" transform="translate(98.33 639.33) scale(0.87 1)">317D</text>
  <text class="cls-6" transform="translate(222.28 563.24) scale(0.87 1)">317</text>
  <text class="cls-6" transform="translate(121.57 572.31) scale(0.87 1)">317E</text>
  <text class="cls-6" transform="translate(156.78 519.73) scale(0.87 1)">S3B</text>
  <text class="cls-6" transform="translate(110.67 449.57) scale(0.87 1)">316</text>
  <text class="cls-6" transform="translate(173.7 435.43) scale(0.87 1)">315</text>
  <text class="cls-6" transform="translate(267.48 435.43) scale(0.87 1)">314</text>
  <text class="cls-6" transform="translate(317.48 435.43) scale(0.87 1)">313</text>
  <text class="cls-6" transform="translate(393.92 435.43) scale(0.87 1)">312</text>
  <text class="cls-6" transform="translate(586 478.08) scale(0.87 1)">310</text>
  <text class="cls-6" transform="translate(709.29 442.8) scale(0.87 1)">306</text>
  <text class="cls-6" transform="translate(733.89 336.16) scale(0.87 1)">C3B</text>
  <text class="cls-6" transform="translate(656.69 504.91) scale(0.87 1)">C3A</text>
  <text class="cls-6" transform="translate(952.25 408.94) scale(0.87 1)">3<tspan class="cls-7" x="5.59" y="0">0</tspan><tspan class="cls-8" x="12.07" y="0">3A</tspan></text>
  <text class="cls-6" transform="translate(1012.87 452.05) scale(0.87 1)">3<tspan class="cls-7" x="5.59" y="0">0</tspan><tspan class="cls-8" x="12.07" y="0">3</tspan></text>
  <text class="cls-6" transform="translate(1085.16 408.94) scale(0.87 1)">3<tspan class="cls-7" x="5.59" y="0">0</tspan><tspan class="cls-8" x="12.07" y="0">2</tspan></text>
  <text class="cls-6" transform="translate(1166.64 415.51) scale(0.87 1)">3<tspan class="cls-9" x="5.59" y="0">0</tspan><tspan x="12.11" y="0">1</tspan></text>
  <text class="cls-6" transform="translate(1136.64 511.52) scale(0.87 1)">S3A</text>
  <text class="cls-6" transform="translate(982.41 557.26) scale(0.87 1)">322</text>
  <text class="cls-6" transform="translate(1102.74 576.09) scale(0.87 1)">323</text>
  <text class="cls-6" transform="translate(1166.64 605.31) scale(0.87 1)">323A</text>
  <text class="cls-6" transform="translate(1102.74 625.26) scale(0.87 1)">323B</text>
  <text class="cls-6" transform="translate(736.02 607.38) scale(0.87 1)">321A</text>
  <text class="cls-6" transform="translate(848.89 607.38) scale(0.87 1)">321</text>
  <text class="cls-6" transform="translate(601.71 607.38) scale(0.87 1)">320</text>
  <text class="cls-6" transform="translate(218.94 318.16) scale(0.87 1)">C3D</text>
  <text class="cls-6" transform="translate(441.34 280.8) scale(0.87 1)">C3C</text>
  <text class="cls-6" transform="translate(135.66 246.43) scale(0.87 1)">333</text>
  <text class="cls-6" transform="translate(50.09 256.5) scale(0.87 1)">333A</text>
  <text class="cls-6" transform="translate(58.48 174.78) scale(0.87 1)">333B</text>
  <text class="cls-6" transform="translate(214.19 162.13) scale(0.87 1)">332</text>
  <text class="cls-6" transform="translate(288.63 162.13) scale(0.87 1)">331A</text>
  <text class="cls-6" transform="translate(367.38 162.13) scale(0.87 1)">331</text>
  <text class="cls-6" transform="translate(289.43 230.2) scale(0.87 1)">331C</text>
  <text class="cls-6" transform="translate(361.32 226) scale(0.87 1)">331D</text>
  <text class="cls-6" transform="translate(433.58 197.73) scale(0.87 1)">331E</text>
  <text class="cls-6" transform="translate(506.3 162.13) scale(0.87 1)">330CA</text>
  <text class="cls-6" transform="translate(586 162.13) scale(0.87 1)">330B</text>
  <text class="cls-6" transform="translate(509.1 201.49) scale(0.87 1)">330C</text>
  <text class="cls-6" transform="translate(509.1 243.04) scale(0.87 1)">330CB</text>
  <text class="cls-6" transform="translate(663.35 162.13) scale(0.87 1)">330A</text>
  <text class="cls-6" transform="translate(596.02 201.49) scale(0.87 1)">330</text>
  <text class="cls-6" transform="translate(710.33 392.11) scale(0.87 1)">S3C</text>
  <text class="cls-6" transform="translate(139.33 162.12) scale(0.87 1)">333C</text>
  <text class="cls-6" transform="translate(802.69 442.8) scale(0.87 1)">305</text>
  <text class="cls-6" transform="translate(908.53 479.75) scale(0.87 1)">304</text>
  <rect class="cls-10" x="544.57" y="531.53" width="147.48" height="3.11"></rect>
  <polygon class="cls-10" points="1011.19 534.74 1082.05 534.74 1082.05 552.68 1085.16 552.68 1085.16 531.62 1011.19 531.62 1011.19 534.74"></polygon>
  <rect class="cls-10" x="1124.96" y="525.13" width="3.11" height="25.7"></rect>
  <polygon class="cls-10" points="1124.96 441.78 1112.43 441.78 1112.43 444.89 1128.07 444.89 1128.07 412.07 1124.96 412.07 1124.96 441.78"></polygon>
  <polygon class="cls-10" points="1077.57 444.89 1082.05 444.89 1082.05 484.02 1008.11 484.02 1008.11 487.13 1085.16 487.13 1085.16 444.89 1097.65 444.89 1097.65 441.78 1077.57 441.78 1077.57 444.89"></polygon>
  <rect class="cls-10" x="1058.58" y="439.1" width="3.11" height="23.47"></rect>
  <rect class="cls-10" x="920.84" y="484.02" width="70.24" height="3.11"></rect>
  <polygon class="cls-10" points="930.2 484.97 933.31 484.97 933.31 463.94 897.67 463.94 897.67 486.61 900.78 486.61 900.78 467.05 930.2 467.05 930.2 484.97"></polygon>
  <path class="cls-10" d="M175.86,194.69h-7.94v3.11h7.94v28.54l26.05.21,0-40.89h3.76v-3.11H175.86Zm3.11-9h19.84l0,37.78L179,223.23Z"></path>
  <polygon class="cls-10" points="333 234.02 336.12 234.02 336.12 200.04 336.12 197.72 350.34 197.72 350.34 194.6 336.12 194.6 336.12 190.13 333 190.13 333 194.6 333 194.62 285.45 194.62 285.45 197.73 333 197.73 333 234.02"></polygon>
  <polygon class="cls-10" points="455.11 254.95 336.12 254.95 336.12 250.5 333 250.5 333 254.95 259.2 254.95 259.2 258.06 455.11 258.06 455.11 254.95"></polygon>
  <polygon class="cls-10" points="673.65 221.03 660.68 221.03 660.68 195.9 657.57 195.9 657.57 224.15 673.65 224.15 673.65 221.03"></polygon>
  <rect class="cls-10" x="636.28" y="238.15" width="9.79" height="4.59"></rect>
  <path class="cls-10" d="M573.12,410.67h-35.8v-4.44l41.64,0v60h31v17H589.47v3.11h23.61V463.09h-31v-56.9l56.12-.05v-.69h4.69v77.78H627.82v3.11H646v-84h-7.8V291.74h-.05V286.3H624.72v5.44H566.46v-4.5H553v4.5h-60.9v-4.5H478.71v4.5H417.86v-4.12H404.44v4.12H344.63v-4.5H331.2v4.5H268.38v-5.67H258.27v10.11H262V402.34h-8.22v84.84H278.4v-3.11H256.92V405.45h-.49v1l39.07,0v81h11.77v-3.11h-8.65V406.46L353,406.4v51.25H332.2v26.68H321.93v3.11h18.68v-3.11h-5.3V460.77H353v26.68h34v-3.11H356.09V406.4l91.5-.09v64.13h-9.27v13.89H402.48v3.11h39V473.56h19.9v11.23h3.11V406.3l69.76-.07v7.55H570v69.44H478.75v3.11h94.37ZM461.33,470.44H450.7V406.31h10.63ZM267.22,401.3V296.93h64v3.73h13.43v-3.73h59.81v4.12h13.43v-4.12h60.84v3.73h13.43v-3.73H553v3.73h13.43v-3.73h58.26v2.8H633V401Z"></path>
  <path class="cls-10" d="M1224,404.93v-7.8h-2.62V363.55h-7v-.66H1192V341.51H1178.6v14.24h-6.24v7.14h-43v-7.14h-7.54V341.51h-13.43v14.24h-7.7v7.14h-50.27v-7.14h-7.8V341.51h-13.43v14.24h-6.5v7.14H980.44v-7.14h-7.8V341.51H959.21v21.38H927.09v32.81H852.32V296.18H714.51v-68.8H715V213.94h-.53V124.46h-1V109.34H700.07v15.12H639V109.34H625.52v15.12h-61V109.34H551v15.12h-58.3V109.34H479.32v15.12H417.86V107.64H404.44v16.82h-59V109.34H332v15.12H270V109.34H256.61v15.12H196.07V109.34H182.65v15.12H123.26V109.34H109.83v15.12h-13V109.34H83.39v15.12H23V109.34H9.59v10.25H0V133H13.81v56.43H0v13.43H13.81v12.71H0V229H13.81v56.6h-.38v.08H0v13.43H9.59V310H23V298H83.68V310H97.1V298h11.53V310h13.43V298h59.09v97.74H81.62v148H77.71v5.35h3.91V676.41h.1v3.5h3.53v4H90.6v-4H211.77v4h5.35v-4H403.76V685h5.35V679.9H481.5v3.61h7.41V679.9h68.27v3.64h5.35V679.9H682.05v4.22h5.35V679.9H808.19v2.64h5.35V679.9H934.3v2.89h5.35V679.9h2.69V652.34h32.27v5h7.8v-5h40.31v5h7.8v-5h20.06v4.17h7.8v-4.17h38.76v4.17h7.8v-4.17h17.68v4.17h7.8v-4.17h40.21v4.17h7.8v-4.17h35.92v-.95h7V616.3H1224v-7.8h-2.62v-44h2.13v-7.8h-2.13v-15.9H1224V533h-2.62V481.43H1224v-7.8h-2.62V459.85H1224v-7.8h-2.62V404.93ZM489.73,184.71h7.1l0,39.14H474V184.72h15.75Zm717.35,277.86H1125v28.38h3.11V465.68h79v84H1102.21v3.11h104.87v92.24h-62.25V570.22h-3.11v74.86h-52.84V589.71h36V586.6h-36V572.74h-5.19v72.34H1042v-48h25.89V595H1042V565.66h18.1v-2.08H998.46v17.49h2.08V565.66H1040V595h-34.78v16.93h2.08V597.07H1040v48H933.31V603.42H979v18h2.08V601.35H933.31L933.25,572H979v15.42h2.08V569.94H933.25l-.07-35.2h62.63v-3.11H915.52v3.11h14.55l.13,110.34h-2.08l.06,24.06H775.4l.22-134.41h123.6v-3.11H767.81v3.11h4.7l-.22,134.41H720.42V534.74H751v-3.11H707.3v3.11h10V669.14H489.11V534.64h38.67v-3.11H466.73v3.11H486v134.5H410.66V586.36h39.56V531.62H409.11v.14H307.69V535H389.4v9h18.15V669.14H283.84V550.38H291V534.74h.07v-3.11H275v18.76h5.72V590h-46.2v3.11h46.2v76.07h-43V609.33h-3.11v59.81H187.4V623.91h31.21V620.8H156.3v3.11h28v45.23H140.46v-59.7h-3.11v59.7H88.89V593.07h77.84V590H88.89V551.28h3.33v-3.13H176.7v3.13h4.9v42.45h3.11v-59h72.2v-3.11h-72.2v-9.14H181.6V545H92.22v-4H88.89V486.34H191.76v-3.11h-99v-3.79H88.89V412.27h4.58V403h52.06v60.1h44.39V460H148.64V403h36.14v0h25.94v9.18h3.79v45.47H203.17v5h5l-.12,23.75h2.37v2.88h7.2V399.89H196.86V291.13h-6V243.55H187.7v47.16h-91v-51.3H93.57v51.3H21.07V217.14H77.19V214H21.07v-82.3h98.87V194.6h-1.23v3.11H155.4V194.6H123.06V131.72h52.8v35H179v-35h78.67V194.6h-38.7v3.11h13.8v28.63h24.91v10.35h3.11V214.61h-3.11v8.62H235.86V197.72H270V194.6h-9.28V131.72H333v42.75h3.11V131.72h73.48v62.9h-42.2v3.11h42.2v36.21h3.11V131.72h73.94v49.88H470.87V227h13v29.36H470.25v2.78l166-.07.88-46.64H624.53v3.11H634v41h-33.9V213.94H597V256.5H564.17V215.3H582v-3.11H564.17V198.37H559v57.95H487V227h13V215.5h43.13v-3.11H500V183h43.2v-3.11H489.76V131.72H560V183h57.54v-3.11H563.13V131.72H634v63.2h3.11v-63.2h70.08v61.64H655.19v3.11h46.42v6.89h5.63v10.58h-5.63v13.43h5.63v9.92H660.3v5.19h46.94v51.86h-7.18v13.43h13.43v-4.33H845.05v98.9H813.48V356.92H701.7v45.41H683.12v84.8h38V484H686.23V405.45h60.58V484H736.3v3.11H849.73V484H749.92V451.09h41.81v13.36h3.11V434.62h-3.11V448H749.92V405.45H873.63V403h-.1v40.21H830.38v-15.8h-3.11v18.92h46.26V484H861.68v3.11h15V446.29l36.69,0v-3.11l-36.69,0V403h55.89V446.3h3.11v-47h-1.3V370.16h55.17v71.62H952.08v3.11h40.55V370.16h32.42v42.79h-16.55v3.11h36.21v-3.11h-16.55V370.16h30.41v52.47h3.11V370.16H1125v30.27h3.11V370.16h79ZM410.66,583.25V534.74h36.44v48.51ZM810.37,360v42.3H704.82V360Z"></path>
  <rect class="cls-10" x="1058.71" y="474.77" width="3.11" height="9.97"></rect>
  <path class="cls-11" d="M148.3,514.08V484.72h-5.66v29.36h-3.2V484.72h-5.75v29.36h-3.34V484.56h-1v29.52H126V484.56h-1v29.52h-3.32V484h-5.11l-.25,30H111.7V484.56h-1V547l4-.75.12-.23h0l2-3.82.36-.7h0l13.49-26.37h3.1v3.13l-14,27.29.92.47,4.31-8.43V545h1v-9.4l3.32-6.48v17.81h5.41V515.12h3.68v31.17h5.27V515.12h3.58Zm-19,1v.22L126,521.81v-6.7Zm-4.35,0v8.72l-3.32,6.48V515.12Zm-7.4-30h3v29h-3.28Zm-5.87,30h4.58l-.22,26.11L114,545.31l-2.28.43Zm5.62,0h3.29v16.77h.24l-3.73,7.28Zm13,30.72V527.73H130l3.69-7.21v25.32Zm8.05-31.76h-3.68V485.76h3.68Zm4.23,31.17h-3.2V515.12h3.2Zm4.62-31.17h-3.58V485.76h3.58Zm.39.14,0,32.23"></path>
  <path class="cls-10" d="M811.43,391.58h-9.31V358.3h-2.08v33.31h-3.4L797,358h-7v33.64h-2.59l-.2-33.8h-7.34v33.8h-3l-.2-33.46h-7v33.46h-2.16V357.26H761v34.34h-3.32l-.2-34h-7.74v34h-2.59v-34h-7.63V390l-2.83-3.58V357.73h-7.17v19.61L714,357.66l-1.63,1.29,27.19,34.38v.36h.28l7.35,9.3,1.63-1.29-6.33-8h59.68v0h9.31Zm-76.82-7.8-3-3.82V359.8h3Zm10.46,7.83H741.6V359.68h3.48Zm6.74,0V359.68h3.61l.19,31.92Zm13.73,0h-2.47V359.34h2.47Zm6.31,0V360.22h2.82l.19,31.39Zm10.16,0V359.89h3.2l.19,31.72Zm12.55,0h-2.42V360h2.78Z"></path>
  <path class="cls-10" d="M1187.18,497.75V462.94h-25V550h13.17v.78h6.73V550h5V520.32h22.64V497.75Zm0,7.21h17.31l-16.55,7.47h-.76Zm-2.08-39.83V498H1182V465.14Zm-7.63,0h2.46v32.62h-2.46Zm-4.2,0h2.13v32.62h-2.13Zm-3.83,0h1.76v32.62h-1.76Zm-5.13,0h3.06v32.63h-3.06Zm2.54,82.67h-2.54V520.33h2.54Zm4.35,0h-2.27V520.32h2.27Zm4.2,0h-2.13V520.32h2.13Zm4.66,0h-2.58V520.32h2.58Zm5,0h-3V520.32h3Zm-3-29.69H1164.3V500h15.37v.1h5.43v18.06Zm25.62,0h-20.57v-2.95l1.18-.53h19.39Zm0-5.68h-14.51l14.51-6.55Zm0-9.55h-20.32V500h20.32Z"></path>
  <polygon class="cls-10" points="96.63 222.17 93.63 222.17 93.63 194.93 100.25 194.93 100.25 197.93 96.63 197.93 96.63 222.17"></polygon>
  <ellipse class="cls-12" cx="429.14" cy="560.05" rx="11.93" ry="12.21"></ellipse>
  <path class="cls-2" d="M422.08,555.17v12.15h6.81V555.17Zm3.4,2.23a.6.6,0,1,1-.6.6A.6.6,0,0,1,425.49,557.4Zm1.39,4.37a.26.26,0,0,1-.52,0v-1.7h-.16v4.68a.32.32,0,1,1-.64,0v-2.62h-.15v2.62a.32.32,0,1,1-.65,0v-4.68h-.16v1.7a.26.26,0,0,1-.52,0v-2.49c0-.14.12-.41.26-.41h2.27c.14,0,.25.27.25.41Z"></path>
  <path class="cls-2" d="M429.4,555.17v12.15h6.81V555.17Zm3.4,2.23a.6.6,0,1,1-.6.6A.6.6,0,0,1,432.8,557.4Zm1.39,4.37a.26.26,0,1,1-.52,0v-1.7h-.16v4.68a.32.32,0,1,1-.65,0v-2.62h-.15v2.62a.32.32,0,1,1-.65,0v-4.68h-.16v1.7a.26.26,0,1,1-.52,0v-2.49c0-.14.12-.41.26-.41h2.27c.14,0,.25.27.25.41Z"></path>
  <rect class="cls-2" x="425.37" y="552.79" width="7.55" height="2.04"></rect>
  <polygon class="cls-2" points="438.07 558.59 436.73 560.4 437.48 560.4 437.48 562.85 438.67 562.85 438.67 560.4 439.42 560.4 438.07 558.59"></polygon>
  <polygon class="cls-2" points="420.21 562.85 418.87 561.03 419.62 561.03 419.62 558.59 420.81 558.59 420.81 561.03 421.56 561.03 420.21 562.85"></polygon>
  <ellipse class="cls-13" cx="612.64" cy="435.43" rx="11.97" ry="12.25"></ellipse>
  <circle class="cls-2" cx="612.72" cy="428.12" r="1.35"></circle>
  <path class="cls-2" d="M615.28,430.1h-5.12c-.32,0-.58.6-.58.92v5.61a.58.58,0,1,0,1.16,0V432.8l.14,0a.73.73,0,0,1,.21,0v10.55a.73.73,0,0,0,1.45,0v-5.92h.34v5.92a.73.73,0,0,0,1.45,0V432.82a.73.73,0,0,1,.21,0l.14,0v3.83a.58.58,0,1,0,1.16,0V431C615.86,430.7,615.6,430.1,615.28,430.1Z"></path>
  <ellipse class="cls-13" cx="518.27" cy="449.57" rx="11.97" ry="12.25"></ellipse>
  <circle class="cls-2" cx="518.19" cy="442.26" r="1.35"></circle>
  <path class="cls-2" d="M520.71,445.16c0-.32-.26-.92-.58-.92h-3.76c-.32,0-.58.6-.58.92l-1.35,5.61a.58.58,0,1,0,1.16,0l1-4.73h.1l-1.11,6a.37.37,0,0,0,.34.39h.69v5.09a.73.73,0,0,0,1.45,0v-5.09h.34v5.09a.73.73,0,0,0,1.45,0v-5.09h.57a.37.37,0,0,0,.34-.39l-1-6h.1l.9,4.73a.58.58,0,1,0,1.16,0Z"></path>
</svg>
