<?xml version="1.0" encoding="UTF-8"?>
<svg xmlns="http://www.w3.org/2000/svg" id="Layer_1" data-name="Layer 1" viewBox="0 0 1224 792">
  <defs>
    <style>.cls-1{fill:#d2d3d4;}.cls-2{fill:#ffce10;}.cls-3{fill:#000001;}.cls-4{fill:#59595b;}.cls-14,.cls-5,.cls-7{font-size:9px;font-family:Gotham-Bold, Gotham;font-weight:700;}.cls-12,.cls-14,.cls-5,.cls-7{fill:#58595b;}.cls-19,.cls-5{letter-spacing:-0.01em;}.cls-6{letter-spacing:0em;}.cls-8{letter-spacing:0em;}.cls-14,.cls-9{letter-spacing:-0.03em;}.cls-10{letter-spacing:-0.01em;}.cls-11{letter-spacing:-0.02em;}.cls-13{letter-spacing:-0.09em;}.cls-15{letter-spacing:-0.03em;}.cls-16{letter-spacing:-0.01em;}.cls-17{letter-spacing:-0.03em;}.cls-18{letter-spacing:0em;}.cls-20{letter-spacing:0.01em;}.cls-21{letter-spacing:-0.02em;}.cls-22{fill:#1b75bc;}.cls-23{fill:#fff;}.cls-24{fill:#8dc63f;}</style>
  </defs>
  <title>TechnologyEngBui_04</title>
  <polygon class="cls-1" points="226.17 60.88 233.41 60.88 233.41 22.19 226.17 22.19 226.17 19.07 138.5 19.07 138.5 239.66 226.17 239.66 226.17 60.88"></polygon>
  <polygon class="cls-1" points="1151.11 326.63 1151.11 256.8 1151.11 222.17 1151.11 164.47 996.28 164.47 996.28 256.8 1073.37 256.8 1073.37 322.07 1068.75 322.07 1068.75 611.65 226.17 611.65 226.17 320.31 202.13 320.31 202.13 242.94 141.78 242.94 141.78 320.31 116.47 320.31 116.47 783.73 223.72 783.73 223.72 785.07 1068.75 785.07 1068.75 786.92 1107.78 786.92 1107.78 785.07 1143.77 785.07 1143.77 787.01 1168.89 787.01 1168.89 326.63 1151.11 326.63"></polygon>
  <rect class="cls-2" x="651.14" y="611.65" width="79.32" height="23.59"></rect>
  <rect class="cls-2" x="141.78" y="87.55" width="84.38" height="152.11"></rect>
  <rect class="cls-2" x="1073.58" y="164.46" width="77.53" height="154.32"></rect>
  <polygon class="cls-1" points="305.5 556.21 456.2 556.21 477.94 556.21 1012.16 556.21 1012.16 314.4 477.94 314.4 477.94 210.01 476.36 210.01 476.36 182.03 476.36 166.68 463.21 166.68 463.21 19.07 293.23 19.07 293.23 168.57 304.96 168.57 304.96 182.03 304.96 210.01 293.41 210.01 293.41 322.33 284.07 322.33 284.07 556.41 305.5 556.41 305.5 556.21"></polygon>
  <rect class="cls-3" x="643.48" y="362.15" width="2.94" height="196.61"></rect>
  <rect class="cls-3" x="643.48" y="312.45" width="2.94" height="25.44"></rect>
  <polygon class="cls-4" points="284.07 322.33 293.41 322.33 293.41 316.94 415.96 316.94 415.96 312.7 293.41 312.7 293.41 298.55 290.13 298.55 290.13 319.04 280.79 319.04 280.79 335.32 284.07 335.32 284.07 322.33"></polygon>
  <path class="cls-4" d="M483.33,556.21H328.56v-120H302.39V387.14H284.07V367.77h-3.28V559.49H483.33Z"></path>
  <rect class="cls-4" x="349.89" y="436.22" width="132.14" height="3.28"></rect>
  <rect class="cls-4" x="598.41" y="556.21" width="95.94" height="3.28"></rect>
  <path class="cls-4" d="M1012.16,369.72v4.74h-9v3.28h9v62.45H974.43V377.74h5.8v-3.28h-9.08v73H924.2v3.28h46.95V556.21H931.77v3.28h83.67V369.72Z"></path>
  <polygon class="cls-4" points="1068.75 519.85 1065.46 519.85 1065.46 659.81 1068.75 659.81 1068.75 625.09 1073.03 625.09 1073.03 621.8 1068.75 621.8 1068.75 519.85"></polygon>
  <polygon class="cls-4" points="677.37 611.65 730.46 611.65 730.46 635.24 651.14 635.24 651.14 611.65 654.44 611.65 654.44 608.37 640.38 608.37 640.38 611.65 647.86 611.65 647.86 638.53 730.46 638.53 730.46 657.22 733.74 657.22 733.74 611.65 801.41 611.65 801.41 662.41 804.7 662.41 804.7 611.65 887.3 611.65 887.3 680.15 890.58 680.15 890.58 611.65 909.27 611.65 909.27 608.37 677.37 608.37 677.37 611.65"></polygon>
  <rect class="cls-4" x="932.2" y="608.37" width="106.43" height="3.28"></rect>
  <polygon class="cls-4" points="256.83 611.65 382.65 611.65 382.65 662.41 385.94 662.41 385.94 611.65 540.52 611.65 540.52 662.41 543.81 662.41 543.81 611.65 618.94 611.65 618.94 608.37 256.83 608.37 256.83 611.65"></polygon>
  <polygon class="cls-4" points="226.17 490.53 219.62 490.53 219.62 493.81 226.17 493.81 226.17 524.61 229.45 524.61 229.45 412.34 226.17 412.34 226.17 490.53"></polygon>
  <polygon class="cls-4" points="1157.68 324.47 1157.68 157.9 989.71 157.9 989.71 311.06 482.93 311.06 482.93 164.81 466.5 164.81 466.91 16.62 257.92 16.62 257.92 23.19 289.95 23.19 289.95 30.3 293.23 30.3 293.23 23.19 460.32 23.19 460.12 94.94 362.34 94.94 362.34 56.59 293.23 56.59 293.23 50.64 289.95 50.64 289.95 86.11 293.23 86.11 293.23 59.87 359.06 59.87 359.06 100.61 362.34 100.61 362.34 98.22 460.11 98.22 460.07 115.17 293.23 115.17 293.23 108.83 289.95 108.83 289.95 121.59 293.23 121.59 293.23 118.46 460.06 118.46 459.91 171.38 476.36 171.38 476.36 182.03 359.13 182 355.84 182 355.79 182.03 304.96 182.03 304.96 167.55 293.23 167.55 293.23 146.2 289.95 146.2 289.95 170.83 301.68 170.83 301.68 206.72 290.13 206.72 290.13 213.53 293.41 213.53 293.41 210.01 305.52 210.01 305.52 185.31 355.79 185.31 355.79 239.9 290.13 239.9 290.13 268.05 293.41 268.05 293.41 243.19 359.08 243.19 359.08 221.96 476.36 221.96 476.36 312.7 447.2 312.7 447.2 317.56 476.36 317.56 476.36 317.62 539.23 317.62 539.23 361 527.41 361 527.41 435.73 504.96 435.73 504.96 439.02 527.41 439.02 527.41 556.21 513.83 556.21 513.83 559.49 567.91 559.49 567.91 556.21 530.7 556.21 530.7 364.29 542.51 364.29 542.51 317.62 758.06 317.62 758.06 556.21 725.18 556.21 725.18 559.49 901.27 559.49 901.27 556.21 761.35 556.21 761.35 450.78 901.27 450.78 901.27 447.49 761.35 447.49 761.35 317.62 978.59 317.62 978.59 336.97 1012.16 336.97 1012.16 339.22 1015.45 339.22 1015.45 314.05 996.28 314.05 996.28 259.91 1004.24 259.91 1004.24 256.62 996.28 256.62 996.28 164.47 1070.29 164.47 1070.29 256.62 1027.17 256.62 1027.17 259.91 1070.29 259.91 1070.29 288.38 1073.58 288.38 1073.58 164.47 1151.11 164.47 1151.11 318.78 1065.46 318.78 1065.46 387.46 1068.75 387.46 1068.75 322.07 1151.11 322.07 1151.11 331.04 1168.89 331.04 1168.89 414.48 1068.75 414.48 1068.75 410.39 1065.46 410.39 1065.46 421.85 1068.75 421.85 1068.75 417.76 1168.89 417.76 1168.89 489 1068.75 489 1068.75 444.78 1065.46 444.78 1065.46 496.92 1068.75 496.92 1068.75 492.29 1168.89 492.29 1168.89 641.73 1106.03 641.73 1106.03 621.8 1095.96 621.8 1095.96 625.09 1102.75 625.09 1102.75 645.02 1168.89 645.02 1168.89 783.73 1068.75 783.73 1068.75 678.85 1065.46 678.85 1065.46 712.49 1006.62 712.49 1006.62 715.77 1065.46 715.77 1065.46 783.73 980.14 783.73 980.14 712.49 918.79 712.49 918.79 715.77 976.86 715.77 976.86 783.73 893.18 783.73 893.18 717.61 833.07 717.61 833.07 720.89 889.89 720.89 889.89 783.73 804.7 783.73 804.7 685.34 801.41 685.34 801.41 689.67 743.97 689.67 743.97 692.95 801.41 692.95 801.41 783.73 714.92 783.73 714.92 692.95 720.85 692.95 720.85 689.67 711.64 689.67 711.64 783.73 629.04 783.73 629.04 691.31 625.76 691.31 625.76 783.73 495.4 783.73 495.4 692.95 600.79 692.95 600.79 689.67 543.81 689.67 543.81 685.34 540.52 685.34 540.52 689.67 436.72 689.67 436.72 692.95 492.11 692.95 492.11 783.73 409.04 783.73 409.04 692.95 413.67 692.95 413.67 689.67 385.94 689.67 385.94 685.34 382.65 685.34 382.65 694.69 385.94 694.69 385.94 692.95 405.75 692.95 405.75 783.73 116.47 783.73 116.47 611.65 233.9 611.65 233.9 608.37 229.45 608.37 229.45 547.54 226.17 547.54 226.17 608.37 116.47 608.37 116.47 493.81 196.69 493.81 196.69 490.53 116.47 490.53 116.47 321.96 226.17 321.96 226.17 389.4 229.45 389.4 229.45 318.67 205.42 318.67 205.42 295.3 202.13 295.3 202.13 318.67 141.75 318.65 141.75 315.22 141.78 315.25 141.78 242.94 202.13 242.94 202.13 264.8 205.42 264.8 205.42 242.94 229.45 242.94 229.45 230.4 226.17 230.4 226.17 239.66 141.78 239.66 141.78 87.55 226.17 87.55 226.17 207.47 229.45 207.47 229.45 64.17 236.7 64.17 236.7 48.26 233.41 48.26 233.41 60.88 226.17 60.88 226.17 84.26 141.78 84.26 141.78 23.19 233.41 23.19 233.41 27.92 236.7 27.92 236.7 23.19 243.28 23.19 243.28 16.62 135.22 16.62 135.22 308.68 109.9 308.68 109.9 790.3 1175.46 790.3 1175.46 324.47 1157.68 324.47"></polygon>
  <path class="cls-4" d="M243.27.69V16.62H241L241,23.18l5.55,0L246.43,4c3.48.55,11.33,2.86,11.48,12.61l3.14,0c-.25-15.31-16-16-16.17-16Z"></path>
  <path class="cls-4" d="M1155.35,276.55H1113.5V271.3h40.42v-1H1113.5v-6.5h41.86v-1H1113.5V257.4h40.42v-1H1113.5v-6h40.42v-1H1113.5v-5.4h40.42v-1H1113.5v-6.18h41.86v-1H1113.5v-5.26h39.07v-1H1113.5v-5.8h41.86v-1H1113.5v-5.29h40.42v-1H1113.5v-6h40.42v-1H1113.5v-2.44h-1v2.44H1072.1v1h40.42v6H1072.1v1h40.42v5.29h-36.18l-4.16-.76-.18,1,40.51,7.41v5.38l-41.18-7.28-.17,1,35.83,6.33h-35.75v1h41.27v6.18h-41.27v1h41.27v5.4h-42.22v1h42.22v6H1072.1v1h40.42v5.43H1072.1v1h40.42v6.5H1072.1v1h40.42v5.26H1072.1v1h40.42v2.36h1v-2.36h41.86Zm-73.66-52.65h30.82v5.64Z"></path>
  <path class="cls-4" d="M138.5,198.42h44.76v2.36h1v-2.36h43.22v-1H184.3v-5.26h43.22v-1H184.3v-6.5h43.22v-1H184.3v-5.43h43.22v-1H184.3v-6h45.15v-1H184.3V165h44.12v-1H184.3V157.8h44.12v-1H190.2l38.31-6.33-.18-1-44,7.28v-5.38L227.62,144l-.19-1-4.44.76H184.3v-5.29h43.22v-1H184.3v-6h43.22v-1H184.3v-2.44h-1v2.44H140v1h43.22v6H140v1h43.22v5.29H138.5v1h44.76v5.8H141.47v1h41.78v5.26H138.5v1h44.76V164H140v1h43.22v5.4H140v1h43.22v6H140v1h43.22v5.43H138.5v1h44.76v6.5H140v1h43.22v5.26H138.5Zm45.8-48v-5.64h33Z"></path>
  <polygon class="cls-4" points="731.63 612.14 728.75 614.73 728.75 609.99 727.77 609.99 727.77 615.61 722.84 620.05 722.84 609.99 721.86 609.99 721.86 620.93 717.25 625.08 717.25 609.99 716.27 609.99 716.27 625.97 711.45 630.31 711.45 609.99 710.47 609.99 710.47 631.19 705.54 635.63 705.54 609.99 704.56 609.99 704.56 636.51 703.52 637.45 704.18 638.18 722.74 621.46 722.84 621.46 722.84 621.37 732.28 612.87 731.63 612.14"></polygon>
  <rect class="cls-4" x="699.3" y="609.99" width="0.98" height="26.89"></rect>
  <rect class="cls-4" x="693.39" y="610.42" width="0.98" height="26.43"></rect>
  <rect class="cls-4" x="687.69" y="610.42" width="0.98" height="26.86"></rect>
  <rect class="cls-4" x="682" y="609.99" width="0.98" height="27.29"></rect>
  <text class="cls-5" transform="translate(178.46 57.65) scale(0.88 1)">4<tspan class="cls-6" x="6.11" y="0">90</tspan></text>
  <text class="cls-7" transform="translate(177.44 116.47) scale(0.88 1)">S4B</text>
  <text class="cls-5" transform="translate(325.61 221.27) scale(0.88 1)">49<tspan class="cls-8" x="11.98" y="0">3</tspan></text>
  <text class="cls-7" transform="translate(376.87 273.38) scale(0.88 1)">
    <tspan class="cls-9">4</tspan>
    <tspan class="cls-10" x="5.93" y="0">7</tspan>
    <tspan x="11.37" y="0">9</tspan>
  </text>
  <text class="cls-7" transform="translate(404.97 381.86) scale(0.88 1)">
    <tspan class="cls-9">4</tspan>
    <tspan x="5.93" y="0">77</tspan>
  </text>
  <text class="cls-7" transform="translate(167.99 410.39) scale(0.88 1)">488</text>
  <text class="cls-7" transform="translate(164.53 553.83) scale(0.88 1)">484</text>
  <text class="cls-7" transform="translate(256.83 699.2) scale(0.88 1)">
    <tspan class="cls-9">4</tspan>
    <tspan class="cls-11" x="5.93" y="0">7</tspan>
    <tspan x="11.32" y="0">6</tspan>
  </text>
  <text class="cls-7" transform="translate(380.15 708.38) scale(0.88 1)">
    <tspan class="cls-9">4</tspan>
    <tspan class="cls-11" x="5.93" y="0">7</tspan>
    <tspan x="11.32" y="0">6A</tspan>
  </text>
  <rect class="cls-12" x="382.65" y="713.41" width="3.28" height="9.35"></rect>
  <rect class="cls-12" x="394.1" y="709.94" width="3.28" height="22.35" transform="translate(-325.37 1116.86) rotate(-90)"></rect>
  <text class="cls-7" transform="translate(457.07 652.79) scale(0.88 1)">
    <tspan class="cls-9">4</tspan>
    <tspan class="cls-13" x="5.93" y="0">7</tspan>
    <tspan x="10.74" y="0">4</tspan>
  </text>
  <text class="cls-7" transform="translate(440.96 741.43) scale(0.88 1)">
    <tspan class="cls-9">4</tspan>
    <tspan class="cls-13" x="5.93" y="0">7</tspan>
    <tspan x="10.74" y="0">4A</tspan>
  </text>
  <text class="cls-14" transform="translate(553.05 741.43) scale(0.88 1)">4<tspan class="cls-10" x="5.93" y="0">7</tspan><tspan class="cls-6" x="11.37" y="0">2</tspan></text>
  <text class="cls-7" transform="translate(666.35 676.99) scale(0.88 1)">
    <tspan class="cls-15">4</tspan>
    <tspan class="cls-11" x="5.93" y="0">7</tspan>
    <tspan x="11.32" y="0">0</tspan>
  </text>
  <text class="cls-7" transform="translate(750.95 741.43) scale(0.88 1)">468</text>
  <text class="cls-7" transform="translate(883.74 699.2) scale(0.88 1)">465</text>
  <text class="cls-7" transform="translate(972.26 664.64) scale(0.88 1)">462</text>
  <text class="cls-7" transform="translate(1114.11 706.05) scale(0.88 1)">460</text>
  <text class="cls-7" transform="translate(1115.51 557.83) scale(0.88 1)">456</text>
  <text class="cls-7" transform="translate(1114.11 456.17) scale(0.88 1)">454</text>
  <text class="cls-7" transform="translate(1115.51 371.8) scale(0.88 1)">4<tspan class="cls-16" x="6.2" y="0">5</tspan><tspan x="11.78" y="0">2</tspan></text>
  <text class="cls-7" transform="translate(1101.69 301.27) scale(0.88 1)">S4A</text>
  <text class="cls-7" transform="translate(1026.03 215.4) scale(0.88 1)">450</text>
  <text class="cls-7" transform="translate(984.24 412.34) scale(0.88 1)">451A</text>
  <text class="cls-7" transform="translate(858.24 385.9) scale(0.88 1)">451</text>
  <text class="cls-7" transform="translate(858.24 506.77) scale(0.88 1)">4<tspan class="cls-17" x="6.2" y="0">5</tspan><tspan class="cls-18" x="11.6" y="0">7</tspan></text>
  <text class="cls-7" transform="translate(692.06 441.09) scale(0.88 1)">4<tspan class="cls-19" x="6.2" y="0">6</tspan><tspan x="12.07" y="0">9</tspan></text>
  <text class="cls-7" transform="translate(579.72 441.09) scale(0.88 1)">
    <tspan class="cls-9">4</tspan>
    <tspan class="cls-20" x="5.93" y="0">7</tspan>
    <tspan x="11.59" y="0">1</tspan>
  </text>
  <text class="cls-7" transform="translate(415.96 498.44) scale(0.88 1)">
    <tspan class="cls-9">4</tspan>
    <tspan class="cls-21" x="5.93" y="0">7</tspan>
    <tspan x="11.28" y="0">5</tspan>
  </text>
  <text class="cls-7" transform="translate(657.98 627.22) scale(0.88 1)">S4C</text>
  <text class="cls-7" transform="translate(579.72 585.39) scale(0.88 1)">C4A</text>
  <ellipse class="cls-22" cx="325.61" cy="87.55" rx="11.97" ry="12.25"></ellipse>
  <circle class="cls-23" cx="320.19" cy="80.23" r="1.35"></circle>
  <path class="cls-23" d="M322.75,82.21h-5.12c-.32,0-.58.6-.58.92v5.61a.58.58,0,1,0,1.16,0V84.91l.14,0a.73.73,0,0,1,.21,0V95.48a.73.73,0,0,0,1.45,0V89.57h.34v5.92a.73.73,0,0,0,1.45,0V84.93a.73.73,0,0,1,.21,0l.14,0v3.83a.58.58,0,1,0,1.16,0V83.13C323.33,82.81,323.07,82.21,322.75,82.21Z"></path>
  <circle class="cls-23" cx="330.41" cy="80.23" r="1.35"></circle>
  <path class="cls-23" d="M332.93,83.13c0-.32-.26-.92-.58-.92h-3.76c-.32,0-.58.6-.58.92l-1.35,5.61a.58.58,0,1,0,1.16,0l1-4.73h.1l-1.11,6a.37.37,0,0,0,.34.39h.69v5.09a.73.73,0,0,0,1.45,0V90.39h.34v5.09a.73.73,0,0,0,1.45,0V90.39h.57A.37.37,0,0,0,333,90l-1-6h.1l.9,4.73a.58.58,0,1,0,1.16,0Z"></path>
  <path class="cls-23" d="M325.66,96.37c0,.11-.14.2-.32.2h0c-.18,0-.32-.09-.32-.2V78.72c0-.11.14-.2.32-.2h0c.18,0,.32.09.32.2Z"></path>
  <ellipse class="cls-24" cx="171.46" cy="280.5" rx="11.93" ry="12.21"></ellipse>
  <path class="cls-23" d="M164.4,275.62v12.15h6.81V275.62Zm3.4,2.23a.6.6,0,1,1-.6.6A.6.6,0,0,1,167.8,277.85Zm1.39,4.37a.26.26,0,0,1-.52,0v-1.7h-.16v4.68a.32.32,0,1,1-.64,0v-2.62h-.15v2.62a.32.32,0,1,1-.65,0v-4.68h-.16v1.7a.26.26,0,0,1-.52,0v-2.49c0-.14.12-.41.26-.41h2.27c.14,0,.25.27.25.41Z"></path>
  <path class="cls-23" d="M171.71,275.62v12.15h6.81V275.62Zm3.4,2.23a.6.6,0,1,1-.6.6A.6.6,0,0,1,175.12,277.85Zm1.39,4.37a.26.26,0,1,1-.52,0v-1.7h-.16v4.68a.32.32,0,1,1-.65,0v-2.62H175v2.62a.32.32,0,1,1-.65,0v-4.68h-.16v1.7a.26.26,0,1,1-.52,0v-2.49c0-.14.12-.41.26-.41h2.27c.14,0,.25.27.25.41Z"></path>
  <rect class="cls-23" x="167.68" y="273.23" width="7.55" height="2.04"></rect>
  <polygon class="cls-23" points="180.39 279.04 179.05 280.85 179.79 280.85 179.79 283.29 180.99 283.29 180.99 280.85 181.73 280.85 180.39 279.04"></polygon>
  <polygon class="cls-23" points="162.53 283.29 161.19 281.48 161.93 281.48 161.93 279.04 163.13 279.04 163.13 281.48 163.87 281.48 162.53 283.29"></polygon>
  <ellipse class="cls-22" cx="373.41" cy="150.19" rx="11.97" ry="12.25"></ellipse>
  <circle class="cls-23" cx="373.49" cy="142.88" r="1.35"></circle>
  <path class="cls-23" d="M376.05,144.86h-5.12c-.32,0-.58.6-.58.92v5.61a.58.58,0,1,0,1.16,0v-3.83l.14,0a.73.73,0,0,1,.21,0v10.55a.73.73,0,0,0,1.45,0v-5.92h.34v5.92a.73.73,0,0,0,1.45,0V147.57a.73.73,0,0,1,.21,0l.14,0v3.83a.58.58,0,1,0,1.16,0v-5.61C376.63,145.46,376.37,144.86,376.05,144.86Z"></path>
  <ellipse class="cls-22" cx="409.32" cy="51.1" rx="11.97" ry="12.25"></ellipse>
  <circle class="cls-23" cx="409.24" cy="43.79" r="1.35"></circle>
  <path class="cls-23" d="M411.76,46.69c0-.32-.26-.92-.58-.92h-3.76c-.32,0-.58.6-.58.92l-1.35,5.61a.58.58,0,1,0,1.16,0l1-4.73h.1l-1.11,6a.37.37,0,0,0,.34.39h.69V59a.73.73,0,0,0,1.45,0V53.95h.34V59a.73.73,0,0,0,1.45,0V53.95h.57a.37.37,0,0,0,.34-.39l-1-6h.1l.9,4.73a.58.58,0,1,0,1.16,0Z"></path>
</svg>
