<?xml version="1.0" encoding="UTF-8"?>
<svg xmlns="http://www.w3.org/2000/svg" id="Layer_1" data-name="Layer 1" viewBox="0 0 1224 792">
  <defs>
    <style>.cls-1{fill:#d2d3d4;}.cls-2{fill:#ffce10;}.cls-3,.cls-6{font-size:9px;font-family:Gotham-Bold, Gotham;font-weight:700;}.cls-10,.cls-3,.cls-6{fill:#58595b;}.cls-3,.cls-7{letter-spacing:-0.03em;}.cls-4{letter-spacing:-0.02em;}.cls-5{letter-spacing:0em;}.cls-8{letter-spacing:-0.03em;}.cls-9{letter-spacing:-0.02em;}.cls-11{fill:none;stroke:#58595b;stroke-miterlimit:10;stroke-width:2px;}.cls-12{fill:#8dc63f;}.cls-13{fill:#fff;}</style>
  </defs>
  <title>TechnologyEngBui_05</title>
  <polygon class="cls-1" points="562.71 611.27 562.7 615.8 572.07 616.81 570.99 623.56 562.71 626.01 562.71 739.03 833.25 739.03 833.25 611.27 767.42 611.08 766.6 611.08 766.56 620.85 758.42 619.3 757.86 611.3 562.71 611.27"></polygon>
  <polygon class="cls-2" points="770.05 609.32 766.87 609.32 766.51 621.98 758.47 617.41 757.25 609.32 636.22 609.32 636.22 634.65 770.05 634.65 770.05 609.32"></polygon>
  <polygon class="cls-1" points="377.53 7.61 58.06 7.61 58.06 204.7 58.52 204.7 58.52 231.81 58.06 231.81 58.06 312.48 115.08 312.48 115.08 232.96 130.27 232.96 130.27 232.54 130.47 232.72 154.57 204.7 156.29 204.7 204.4 246.07 204.4 551.01 388.49 551.01 388.49 520.07 398.64 518.76 401.63 510.36 388.52 510.98 388.49 162.03 377.53 162.03 377.53 7.61"></polygon>
  <polygon class="cls-2" points="134.45 186.65 156.44 204.13 151.11 208.72 134.14 228.26 134.45 186.65"></polygon>
  <polygon class="cls-2" points="134.49 232.49 58.77 233.22 58.77 78.56 136.08 78.56 135.74 175.34 135.43 188.36 134.49 232.49"></polygon>
  <text class="cls-3" transform="translate(686.01 677.52) scale(0.88 1)">5<tspan class="cls-4" x="5.4" y="0">7</tspan><tspan class="cls-5" x="10.79" y="0">0</tspan></text>
  <text class="cls-6" transform="translate(673.45 625.29) scale(0.88 1)">S5B</text>
  <text class="cls-6" transform="translate(302.2 521.99) scale(0.88 1)">
    <tspan class="cls-7">5</tspan>
    <tspan class="cls-8" x="5.4" y="0">7</tspan>
    <tspan x="10.75" y="0">5</tspan>
  </text>
  <text class="cls-6" transform="translate(152.25 288.21) scale(0.88 1)">C5A</text>
  <text class="cls-6" transform="translate(90.57 105.84) scale(0.88 1)">S5A</text>
  <text class="cls-6" transform="translate(293.07 248.73) scale(0.88 1)">
    <tspan class="cls-7">5</tspan>
    <tspan class="cls-9" x="5.4" y="0">7</tspan>
    <tspan x="10.84" y="0">9</tspan>
  </text>
  <polygon class="cls-10" points="770.32 611.48 831.75 611.48 831.75 737.53 562.7 737.53 562.7 625.5 559.7 625.5 559.7 740.53 834.75 740.53 834.75 608.48 770.32 608.48 770.32 611.48"></polygon>
  <polygon class="cls-10" points="562.7 611.48 757.85 611.48 757.85 608.48 559.7 608.48 559.7 615.8 562.7 615.8 562.7 611.48"></polygon>
  <path class="cls-10" d="M196.85,539.66l-.07,11.92h1.83v3l-4.2,0,.07-12.35c-2.64.42-8.58,2.17-8.7,9.55l-2.38,0c.19-11.59,12.12-12,12.24-12Z"></path>
  <path class="cls-10" d="M403.4,508.53l-11.92.07v-1.83h-3l0,4.2,12.35-.07c-.42,2.64-2.17,8.58-9.55,8.7l0,2.38c11.59-.19,12-12.12,12-12.24Z"></path>
  <path class="cls-10" d="M574.61,614.42l-11.92.07v-1.83h-3l0,4.2,12.35-.07c-.42,2.64-2.17,8.58-9.55,8.7l0,2.38c11.59-.19,12-12.12,12-12.24Z"></path>
  <path class="cls-10" d="M768.95,623.39l-.07-11.92h1.83v-3l-4.2,0,.07,12.35c-2.64-.42-8.58-2.17-8.7-9.55l-2.38,0c.19,11.59,12.12,12,12.24,12Z"></path>
  <path class="cls-10" d="M1083.59,310V156.69H909.39V312.22h-518v-3.29h-.72V155.73H380.53V1.45L52.77.91V309.8H27.48V791.12H1110V310ZM1104,785.12H33.48V315.8h25.3v-.19H139v239H185.8v-3H142v-239H118v-23h-3v23H58.77v-77H115v23.24h3V235.58h13.55l6.75-7.41-2.22-2-5.85,6.43H58.77V79.12h76.66V188.36l19,16.5-3.31,3.87,2.28,2,3.3-3.85L202.9,247V267.1h3V245.6L138.43,187V76.12H58.77V6.92l315.76.51v154.3h10.18V318.22h3.72V487.37H234.3V438.21H205.9V307h-3V551.61h-5v3H388.43v.33h3V519.63h-3v32H234.3V490.37H388.43v17.49h3V318.22h524V162.69h162.2V316H1104Z"></path>
  <path class="cls-10" d="M137.65,169.25h-1.51l-.41-.41-.41.41H97.93v-6.08H137v-1H97.93v-5.78H137v-1H97.93v-5.15H137v-1H97.93v-6.39H137v-1H97.93v-5.92h38.15v-1H97.93v-5.77h38.15v-1H97.93v-5.52h38.15v-1H57.35v1H96.93v5.52H55.63v1h41.3v5.77H55v1H96.93v5.92H56.55v1H96.93v6.39H56.55v1H96.93v5.15H57.35v1H96.93v5.78H57.35v1H96.93v6.08H56.55v1H96.93v5.67H56.55v1H96.93v5.47H56.55v1H96.93v6H56.55v1H96.93v42.87h1V193l5.32.1v41.39h1V193.15l5,.1v41.28h1V193.27l2.41,0,23.07-23.07h1.91Zm-39.72,7.67h29.73l-5.47,5.47H97.93Zm0,6.47h23.26l-6,6H97.93Zm14.33,8.92L97.93,192v-1.68h16.29Zm15.87-15.87v-.52H97.93v-5.67h36.4Z"></path>
  <polyline class="cls-11" points="770.7 608.48 770.7 635.65 766.02 635.65"></polyline>
  <polygon class="cls-10" points="728.55 634.65 728.55 610.06 727.55 610.06 727.55 634.65 722.66 634.65 722.66 610.06 721.66 610.06 721.66 634.65 716.85 634.65 716.85 610.06 715.85 610.06 715.85 634.65 711.22 634.65 711.22 609.32 710.22 609.32 710.22 634.65 705.48 634.65 705.48 609.32 704.48 609.32 704.48 634.65 699.67 634.65 699.67 610.06 698.67 610.06 698.67 634.65 693.86 634.65 693.86 609.32 692.86 609.32 692.86 634.65 670.14 634.65 670.14 610.06 669.14 610.06 669.14 634.65 664.34 634.65 664.34 609.32 663.34 609.32 663.34 634.65 658.53 634.65 658.53 609.32 657.53 609.32 657.53 634.65 652.72 634.65 652.72 610.06 651.72 610.06 651.72 634.65 646.91 634.65 646.91 610.06 645.91 610.06 645.91 634.65 641.1 634.65 641.1 610.06 640.1 610.06 640.1 634.65 636.22 634.65 636.22 611.23 634.22 611.23 634.22 636.65 744.02 636.65 744.02 634.65 728.55 634.65"></polygon>
  <ellipse class="cls-12" cx="88.19" cy="272.46" rx="11.93" ry="12.21"></ellipse>
  <path class="cls-13" d="M81.12,267.58v12.15h6.81V267.58Zm3.4,2.23a.6.6,0,1,1-.6.6A.6.6,0,0,1,84.53,269.81Zm1.39,4.37a.26.26,0,0,1-.52,0v-1.7h-.16v4.68a.32.32,0,1,1-.64,0v-2.62h-.15v2.62a.32.32,0,1,1-.65,0v-4.68h-.16v1.7a.26.26,0,0,1-.52,0v-2.49c0-.14.12-.41.26-.41h2.27c.14,0,.25.27.25.41Z"></path>
  <path class="cls-13" d="M88.44,267.58v12.15h6.81V267.58Zm3.4,2.23a.6.6,0,1,1-.6.6A.6.6,0,0,1,91.85,269.81Zm1.39,4.37a.26.26,0,1,1-.52,0v-1.7h-.16v4.68a.32.32,0,1,1-.65,0v-2.62h-.15v2.62a.32.32,0,1,1-.65,0v-4.68H91v1.7a.26.26,0,1,1-.52,0v-2.49c0-.14.12-.41.26-.41H93c.14,0,.25.27.25.41Z"></path>
  <rect class="cls-13" x="84.41" y="265.19" width="7.55" height="2.04"></rect>
  <polygon class="cls-13" points="97.12 271 95.78 272.81 96.52 272.81 96.52 275.25 97.72 275.25 97.72 272.81 98.46 272.81 97.12 271"></polygon>
  <polygon class="cls-13" points="79.26 275.25 77.92 273.44 78.66 273.44 78.66 271 79.86 271 79.86 273.44 80.6 273.44 79.26 275.25"></polygon>
</svg>
