<?xml version="1.0" encoding="UTF-8"?>
<svg xmlns="http://www.w3.org/2000/svg" id="Layer_1" data-name="Layer 1" viewBox="0 0 1224 792">
  <defs>
    <style>.cls-1{fill:#d2d3d4;}.cls-2{fill:#ffce10;}.cls-3,.cls-7{fill:#58595b;}.cls-4{fill:#8dc63f;}.cls-5{fill:#fff;}.cls-6{fill:#1b75bc;}.cls-7{font-size:9.06px;font-family:Gotham-Bold, Gotham;font-weight:700;}.cls-8{letter-spacing:-0.03em;}.cls-9{letter-spacing:-0.01em;}.cls-10{letter-spacing:-0.08em;}.cls-11{letter-spacing:0em;}.cls-12{letter-spacing:-0.02em;}</style>
  </defs>
  <title>TechnologyEngBui_01</title>
  <polygon class="cls-1" points="931.34 303.87 911.72 303.87 897.87 303.87 897.87 221.22 840.66 221.22 840.66 194.23 789.82 194.23 789.82 190.18 786.06 190.18 786.06 279.5 787.07 279.5 787.07 382.57 895.32 382.57 895.32 427.1 911.72 427.1 911.72 429.25 968.02 429.25 968.02 539.15 896.36 542.48 896.36 666.5 195.73 666.5 195.73 514.33 125.44 514.33 125.44 666.5 125.44 710.02 125.44 784.81 966.1 784.81 966.1 685.8 966.1 685.8 966.1 546.56 968.02 546.56 968.02 429.25 968.02 303.87 931.34 303.87"></polygon>
  <rect class="cls-1" x="125.44" y="363.21" width="49.47" height="64.46"></rect>
  <polygon class="cls-1" points="193.96 229.75 194.82 229.75 194.82 295.57 246.95 295.57 246.95 325.14 244.6 325.14 244.6 381.23 315.41 381.23 319.92 381.23 404.18 381.23 404.18 299.94 405.73 299.94 405.73 332.68 687.42 332.68 687.42 299.94 687.42 282.5 687.42 196.11 702.67 196.11 702.67 178.51 404.18 178.51 404.18 175.41 315.41 175.41 315.41 178.51 125.44 178.51 125.44 222.53 122.47 222.53 122.47 360.12 193.96 360.12 193.96 229.75"></polygon>
  <polygon class="cls-1" points="553.92 425.76 510.14 425.76 504.71 425.76 500.46 425.76 260.51 425.76 260.51 479.91 258.43 479.91 258.43 481.46 240.06 481.46 240.06 564.76 258.43 564.76 258.43 618.62 501.59 618.62 501.59 594.8 595.79 594.8 595.79 619.97 820.78 619.97 820.78 594.8 820.78 565.05 841.43 565.05 841.43 479 820.78 479 820.78 425.76 553.92 425.76"></polygon>
  <polygon class="cls-2" points="963.07 425.76 895.32 425.76 895.32 303.87 963.07 303.87 963.07 398.83 974 400.17 979.76 407.55 977.77 410.31 963.07 408.5 963.07 425.76"></polygon>
  <polygon class="cls-2" points="194.02 360.3 124.15 360.3 124.15 343.79 109.27 344.41 109.06 338.57 116.56 333.64 124.15 334.26 124.15 231.3 194.02 231.3 194.02 360.3"></polygon>
  <rect class="cls-2" x="504.71" y="446.79" width="99.61" height="19.56"></rect>
  <rect class="cls-2" x="597.91" y="441.82" width="6.85" height="10.53"></rect>
  <rect class="cls-2" x="593.81" y="444.6" width="6.85" height="10.53"></rect>
  <rect class="cls-2" x="501.69" y="576.08" width="104.54" height="18.42"></rect>
  <rect class="cls-2" x="600.81" y="592.4" width="5.43" height="8.63"></rect>
  <rect class="cls-2" x="592.21" y="593" width="10.42" height="4.89"></rect>
  <rect class="cls-2" x="599.54" y="596.33" width="3.76" height="2.52"></rect>
  <polygon class="cls-3" points="807.83 567.31 804.81 567.31 804.81 498.66 825.16 498.66 825.16 501.68 807.83 501.68 807.83 567.31"></polygon>
  <polygon class="cls-3" points="234.06 666.5 344.17 666.5 344.17 766.5 347.27 766.5 347.27 730.37 416.79 730.37 416.79 765.5 419.88 765.5 419.88 706.62 416.79 706.62 416.79 727.27 347.27 727.27 347.27 666.5 416.79 666.5 416.79 687.61 419.88 687.61 419.88 666.5 442.61 666.5 442.61 663.4 234.06 663.4 234.06 666.5"></polygon>
  <rect class="cls-3" x="467.82" y="663.41" width="123.06" height="3.1"></rect>
  <polygon class="cls-3" points="707.48 378.52 690.71 378.52 690.71 300.33 707.48 300.33 707.48 297.24 690.71 297.24 690.71 279.85 687.62 279.85 687.62 381.62 707.48 381.62 707.48 378.52"></polygon>
  <rect class="cls-3" x="407.82" y="332.68" width="279.6" height="3.1"></rect>
  <polygon class="cls-3" points="255.34 609.52 255.34 621.72 504.17 621.72 504.17 597.83 501.07 597.83 501.07 618.62 258.43 618.62 258.43 609.52 255.34 609.52"></polygon>
  <polygon class="cls-3" points="255.34 590.51 258.43 590.51 258.43 566.4 275.67 566.4 275.67 498.79 256.88 498.79 256.88 501.88 272.58 501.88 272.58 563.31 255.34 563.31 255.34 564.7 240.7 564.7 240.7 501.88 242.72 501.88 242.72 498.79 240.7 498.79 240.7 481.46 276.13 481.46 276.13 478.37 260.51 478.37 260.51 456.54 257.41 456.54 257.41 478.37 237.61 478.37 237.61 498.79 237.61 500.34 237.61 567.8 255.34 567.8 255.34 590.51"></polygon>
  <polygon class="cls-3" points="257.41 437.53 260.51 437.53 260.51 425.76 503.16 425.76 503.16 443.61 502.72 443.61 502.72 446.71 521.26 446.71 521.26 443.61 506.25 443.61 506.25 425.76 552.37 425.76 552.37 443.61 537.07 443.61 537.07 446.71 552.37 446.71 552.37 594.8 537.63 594.8 537.63 597.89 566.05 597.89 566.05 594.8 555.47 594.8 555.47 446.71 559.65 446.71 559.65 443.61 555.47 443.61 555.47 425.76 623.22 425.76 623.22 429.69 593.57 443.61 578.66 443.61 578.66 446.71 594.26 446.71 626.32 431.66 626.32 425.76 820.78 425.76 820.78 455.03 823.88 455.03 823.88 422.67 260.51 422.67 258.96 422.67 240.14 422.67 240.14 425.76 257.41 425.76 257.41 437.53"></polygon>
  <path class="cls-3" d="M820.44,620H626.66v-6.59L594.5,594.8h-9.45v3.1h8.62l1,.55-.88-2v26.63H823.53V590.14h-3.1Z"></path>
  <polygon class="cls-3" points="963 531.8 963 539.38 893.26 539.38 893.26 642.26 896.36 642.26 896.36 542.48 963 542.48 963 662.92 844.5 662.92 844.5 666.01 963 666.01 963 784.81 787.17 784.81 787.17 666.01 818.95 666.01 818.95 662.92 781.88 662.92 781.88 666.01 784.08 666.01 784.08 784.81 639.27 784.81 639.27 666.01 756.66 666.01 756.66 662.92 609.89 662.92 609.89 666.01 636.17 666.01 636.17 784.81 125.44 784.81 125.44 660.67 195.67 660.67 195.67 666.5 208.1 666.5 208.1 663.4 198.76 663.4 198.76 590.89 195.67 590.89 195.67 657.57 125.44 657.57 125.44 514.33 195.67 514.33 195.67 571.89 198.76 571.89 198.76 511.23 125.44 511.23 125.44 510.88 119.25 510.88 119.25 791 969.19 791 969.19 531.8 963 531.8"></polygon>
  <polygon class="cls-3" points="193.96 360.12 125.44 360.12 125.44 347.2 119.25 347.2 119.25 487.49 125.44 487.49 125.44 430.77 174.91 430.77 174.91 470.84 178 470.84 178 430.77 178 429.22 178 406.48 174.91 406.48 174.91 427.68 125.44 427.68 125.44 363.21 174.91 363.21 174.91 381.27 178 381.27 178 363.21 197.06 363.21 197.06 352.67 193.96 352.67 193.96 360.12"></polygon>
  <path class="cls-3" d="M901.45,297.68V215H846.69V193H826v-20.7H805.49V.89H727V45.3h-3.76v127h-604V334.26h6.19V232.85H194V333.61h3.1V229.75H125.44V178.51H386.6V303h17.58v78.19H316.09V328.54H247v-33h-3.1v36.07h33.93v49.59H244.6v-24.8h-3.1v27.89h49.25v-3.1h-9.87V331.64H313v52.69h94.28V299.94H389.69V178.51h313v16.06H687.62V240.9h3.1V197.66h54V134.1H729.46V51.49h3.76V7.08H799.3v127H784v65.08h35.83v0h20.7v22h51.72V279.5H786.06v-55H783v58.07H892.22v11.79H784V327.6h3.1V297.47h43.65v53.83H787.07v-3.53H784v10.16h3.1V354.4h46.75V297.47h58.41v82H787.07v-4H784v7.13H892.22v18.08h3.1V303.87H963v96h6.19V297.68Z"></path>
  <path class="cls-3" d="M125.44,508.66v3.83H123v-1.44h-12l0-1.23c0-.12.5-12.12,12.16-12.25l0,2.39c-7.42.08-9.22,6-9.66,8.69Z"></path>
  <path class="cls-3" d="M111.05,486.21h12v-1.84h2.39v4.23H113.62c.43,2.65,2.23,8.62,9.66,8.69l0,2.39c-11.66-.12-12.16-12.12-12.16-12.25Z"></path>
  <path class="cls-3" d="M967,511.68v-3.83h2.39v1.44h12l0,1.23c0,.12-.5,12.12-12.16,12.25l0-2.39c7.42-.08,9.22-6,9.66-8.69Z"></path>
  <path class="cls-3" d="M981.37,534.13h-12V536H967v-4.23h11.82c-.43-2.65-2.23-8.62-9.66-8.69l0-2.39c11.66.12,12.16,12.12,12.16,12.25Z"></path>
  <rect class="cls-3" x="963.07" y="408.5" width="6.12" height="103.16"></rect>
  <rect class="cls-3" x="892.15" y="425.78" width="73.98" height="3.02"></rect>
  <rect class="cls-3" x="913.8" y="428.61" width="3.02" height="70.27"></rect>
  <path class="cls-3" d="M981.19,410.91h-12v1.84H966.8v-4.23h11.82c-.43-2.65-2.23-8.62-9.66-8.69l0-2.39c11.66.12,12.16,12.12,12.16,12.25Z"></path>
  <path class="cls-3" d="M107.25,345.47l12-.07v1.84h6.19l0-4.23-15.62.07c.42-2.65,2.18-8.63,9.61-8.75l0-2.39c-11.66.19-12.09,12.19-12.09,12.31Z"></path>
  <rect class="cls-3" x="501.09" y="594.82" width="17.54" height="3.02"></rect>
  <polygon class="cls-3" points="502.13 597.83 501.13 597.83 501.13 575.32 553.73 575.32 553.73 576.32 502.13 576.32 502.13 597.83"></polygon>
  <rect class="cls-3" x="506.14" y="576.08" width="1.01" height="20.24"></rect>
  <rect class="cls-3" x="511.42" y="575.82" width="1.01" height="20.51"></rect>
  <rect class="cls-3" x="517" y="576.08" width="1.01" height="20.24"></rect>
  <polygon class="cls-3" points="554.13 467.11 503.63 467.11 503.63 442.21 504.64 442.21 504.64 466.1 554.13 466.1 554.13 467.11"></polygon>
  <rect class="cls-3" x="508.04" y="445.24" width="1.01" height="21.1"></rect>
  <rect class="cls-3" x="512.74" y="445.46" width="1.01" height="21.14"></rect>
  <rect class="cls-3" x="517.77" y="445.22" width="1.01" height="21.14"></rect>
  <polygon class="cls-3" points="605.33 467.11 554.83 467.11 554.83 466.1 604.32 466.1 604.32 440.19 605.33 440.19 605.33 467.11"></polygon>
  <rect class="cls-3" x="599.92" y="443.23" width="1.01" height="23.12"></rect>
  <rect class="cls-3" x="595.21" y="444.46" width="1.01" height="22.15"></rect>
  <rect class="cls-3" x="590.18" y="445.22" width="1.01" height="21.14"></rect>
  <polygon class="cls-3" points="607.25 603.86 606.24 603.86 606.24 576.32 554.64 576.32 554.64 575.32 607.25 575.32 607.25 603.86"></polygon>
  <rect class="cls-3" x="601.23" y="576.08" width="1.01" height="24.27"></rect>
  <rect class="cls-3" x="595.95" y="575.82" width="1.01" height="20.51"></rect>
  <rect class="cls-3" x="590.37" y="576.08" width="1.01" height="20.24"></rect>
  <path class="cls-3" d="M194.92,321.56h-29.8V262.71H121.24v-1h44.89v14.44h29.29v-4h-19l2-1h18v6h-30.3v4.24h29.34v6.87H166.13v4.82h29.34v6.29H166.13v4.57h29.34v6.37H166.13v4.8l28.79-.11Zm-28.79-1h27.79V316l-27.79.1Zm0-11.27h28.33v-4.35H166.13Zm0-10.94h28.33v-4.27H166.13Zm0-11.1h28.33v-4.85H166.13Z"></path>
  <rect class="cls-3" x="165.01" y="270.24" width="31.04" height="1.01" transform="translate(-68.19 60.91) rotate(-16.15)"></rect>
  <rect class="cls-3" x="909.06" y="332.01" width="1.01" height="30.33" transform="translate(323.04 1124.25) rotate(-73.85)"></rect>
  <path class="cls-3" d="M923.3,325.71v25.54H895v-3.86h14.22l-1-1H894v5.88H923.3v4.82H894v6.29H923.3v4.57H894v6.37H923.3v4.8L894.51,379v6.57h29.8V326.72h43.88v-1Zm0,58.84H894.51V380l28.79.1Zm0-11.27H895v-4.35H923.3Zm0-10.94H895v-4.27H923.3Z"></path>
  <rect class="cls-3" x="727.42" y="50.85" width="27.55" height="3.02"></rect>
  <rect class="cls-3" x="773.98" y="50.85" width="28.4" height="3.02"></rect>
  <rect class="cls-2" x="807.67" y="479.46" width="32.82" height="19.56"></rect>
  <polygon class="cls-3" points="823.88 474.04 820.78 474.04 820.78 477.57 804.81 477.57 804.81 480.67 839.92 480.67 839.92 564.28 805.26 564.28 805.26 567.38 820.43 567.38 820.43 571.13 823.53 571.13 823.53 567.38 843.01 567.38 843.01 477.57 823.88 477.57 823.88 474.04"></polygon>
  <polygon class="cls-3" points="813.85 500.97 807.67 500.97 807.67 479.47 808.67 479.47 808.67 499.96 812.84 499.96 812.84 478.27 819.82 478.27 819.82 499.97 818.81 499.97 818.81 479.28 813.85 479.28 813.85 500.97"></polygon>
  <ellipse class="cls-4" cx="148.69" cy="395.21" rx="12" ry="12.29"></ellipse>
  <path class="cls-5" d="M141.58,390.29v12.22h6.85V390.29Zm3.43,2.24a.6.6,0,1,1-.6.6A.6.6,0,0,1,145,392.54Zm1.4,4.4a.26.26,0,0,1-.52,0v-1.71h-.16v4.71a.32.32,0,1,1-.65,0v-2.64h-.15v2.64a.32.32,0,1,1-.65,0v-4.71h-.16v1.71a.26.26,0,0,1-.52,0v-2.5c0-.14.12-.41.26-.41h2.29c.14,0,.26.27.26.41Z"></path>
  <path class="cls-5" d="M148.94,390.29v12.22h6.85V390.29Zm3.43,2.24a.6.6,0,1,1-.6.6A.6.6,0,0,1,152.37,392.54Zm1.4,4.4a.26.26,0,1,1-.52,0v-1.71h-.16v4.71a.32.32,0,1,1-.65,0v-2.64h-.15v2.64a.32.32,0,1,1-.65,0v-4.71h-.16v1.71a.26.26,0,1,1-.52,0v-2.5c0-.14.12-.41.26-.41h2.28c.14,0,.26.27.26.41Z"></path>
  <rect class="cls-5" x="144.89" y="387.9" width="7.6" height="2.05"></rect>
  <polygon class="cls-5" points="157.67 393.74 156.32 395.56 157.07 395.56 157.07 398.01 158.28 398.01 158.28 395.56 159.02 395.56 157.67 393.74"></polygon>
  <polygon class="cls-5" points="139.7 398.01 138.35 396.19 139.1 396.19 139.1 393.74 140.31 393.74 140.31 396.19 141.05 396.19 139.7 398.01"></polygon>
  <ellipse class="cls-6" cx="833.64" cy="248.88" rx="12.04" ry="12.33"></ellipse>
  <circle class="cls-5" cx="833.73" cy="241.52" r="1.36"></circle>
  <path class="cls-5" d="M836.3,243.51h-5.15c-.32,0-.59.6-.59.93v5.65a.59.59,0,1,0,1.17,0v-3.86l.15,0a.73.73,0,0,1,.21,0v10.62a.73.73,0,0,0,1.46,0v-6h.34v6a.73.73,0,0,0,1.46,0V246.24a.73.73,0,0,1,.21,0l.14,0v3.86a.59.59,0,1,0,1.17,0v-5.65C836.88,244.11,836.62,243.51,836.3,243.51Z"></path>
  <ellipse class="cls-6" cx="863.41" cy="338.04" rx="12.04" ry="12.33"></ellipse>
  <circle class="cls-5" cx="863.34" cy="330.68" r="1.36"></circle>
  <path class="cls-5" d="M865.87,333.6c0-.32-.26-.93-.59-.93H861.5c-.32,0-.59.6-.59.93l-1.36,5.65a.59.59,0,1,0,1.17,0l1-4.76h.1l-1.12,6a.37.37,0,0,0,.34.4h.69V346a.73.73,0,0,0,1.46,0V340.9h.34V346a.73.73,0,0,0,1.46,0V340.9h.58a.37.37,0,0,0,.34-.4l-1-6h.1l.91,4.76a.59.59,0,1,0,1.17,0Z"></path>
  <ellipse class="cls-6" cx="808.55" cy="326.46" rx="12.04" ry="12.33"></ellipse>
  <circle class="cls-5" cx="803.1" cy="319.1" r="1.36"></circle>
  <path class="cls-5" d="M805.67,321.1h-5.15c-.32,0-.59.6-.59.93v5.65a.59.59,0,1,0,1.17,0v-3.86l.15,0a.73.73,0,0,1,.21,0v10.62a.73.73,0,0,0,1.46,0v-6h.34v6a.73.73,0,0,0,1.46,0V323.83a.73.73,0,0,1,.21,0l.14,0v3.86a.59.59,0,1,0,1.17,0V322C806.26,321.7,806,321.1,805.67,321.1Z"></path>
  <circle class="cls-5" cx="813.38" cy="319.1" r="1.36"></circle>
  <path class="cls-5" d="M815.91,322c0-.32-.26-.93-.59-.93h-3.79c-.32,0-.59.6-.59.93l-1.36,5.65a.59.59,0,1,0,1.17,0l1-4.76h.1l-1.12,6a.37.37,0,0,0,.34.4h.69v5.12a.73.73,0,0,0,1.46,0v-5.12h.34v5.12a.73.73,0,0,0,1.46,0v-5.12h.58a.37.37,0,0,0,.34-.4l-1-6h.1l.91,4.76a.59.59,0,1,0,1.17,0Z"></path>
  <path class="cls-5" d="M808.6,335.34c0,.11-.14.2-.32.2h0c-.18,0-.32-.09-.32-.2V317.58c0-.11.14-.2.32-.2h0c.18,0,.32.09.32.2Z"></path>
  <text class="cls-7" transform="translate(704.29 734.01) scale(0.88 1)">166</text>
  <text class="cls-7" transform="translate(872.99 734.01) scale(0.88 1)">160</text>
  <text class="cls-7" transform="translate(922.91 605.86) scale(0.88 1)">158</text>
  <text class="cls-7" transform="translate(931.08 473.86) scale(0.88 1)">V1A</text>
  <text class="cls-7" transform="translate(916.33 410.54) scale(0.88 1)">S1A</text>
  <text class="cls-7" transform="translate(547.62 387.56) scale(0.88 1)">C1A</text>
  <text class="cls-7" transform="translate(561.35 440.1) scale(0.88 1)">150C</text>
  <text class="cls-7" transform="translate(518.78 440.1) scale(0.88 1)">1<tspan class="cls-8" x="3.82" y="0">7</tspan><tspan x="9.2" y="0">5A</tspan></text>
  <text class="cls-7" transform="translate(385.43 525.7) scale(0.88 1)">1<tspan class="cls-8" x="3.82" y="0">7</tspan><tspan x="9.2" y="0">5</tspan></text>
  <text class="cls-7" transform="translate(245.92 538.74) scale(0.88 1)">1<tspan class="cls-8" x="3.82" y="0">7</tspan><tspan x="9.2" y="0">5B</tspan></text>
  <text class="cls-7" transform="translate(255.34 358.04) scale(0.88 1)">1<tspan class="cls-9" x="3.82" y="0">9</tspan><tspan x="9.73" y="0">2</tspan></text>
  <text class="cls-7" transform="translate(289.7 358.04) scale(0.88 1)">194</text>
  <text class="cls-7" transform="translate(290.52 248.09) scale(0.88 1)">188</text>
  <text class="cls-7" transform="translate(146.22 347.11) scale(0.88 1)">S1B</text>
  <text class="cls-7" transform="translate(143.6 476.92) scale(0.88 1)">V1B</text>
  <text class="cls-7" transform="translate(152.37 592.51) scale(0.88 1)">184</text>
  <text class="cls-7" transform="translate(214.15 740.08) scale(0.88 1)">180</text>
  <text class="cls-7" transform="translate(377.23 700.01) scale(0.88 1)">1<tspan class="cls-10" x="3.82" y="0">7</tspan><tspan class="cls-11" x="8.66" y="0">4</tspan></text>
  <text class="cls-7" transform="translate(377.23 764.48) scale(0.88 1)">1<tspan class="cls-12" x="3.82" y="0">7</tspan><tspan x="9.25" y="0">6</tspan></text>
  <text class="cls-7" transform="translate(523.15 734.01) scale(0.88 1)">1<tspan class="cls-12" x="3.82" y="0">7</tspan><tspan x="9.25" y="0">0</tspan></text>
  <text class="cls-7" transform="translate(546.73 640.13) scale(0.88 1)">C1B</text>
  <text class="cls-7" transform="translate(680.49 528.18) scale(0.88 1)">150</text>
  <text class="cls-7" transform="translate(813.74 523.57) scale(0.88 1)">150A</text>
</svg>
