<?xml version="1.0" encoding="UTF-8"?>
<svg width="513px" height="513px" viewBox="0 0 513 513" version="1.1" xmlns="http://www.w3.org/2000/svg" xmlns:xlink="http://www.w3.org/1999/xlink">
    <!-- Generator: Sketch 57.1 (83088) - https://sketch.com -->
    <title>avatar</title>
    <desc>Created with Sketch.</desc>
    <g id="Page-1" stroke="none" stroke-width="1" fill="none" fill-rule="evenodd" opacity="0.98999999">
        <g id="avatar" fill-rule="nonzero">
            <path d="M512.032738,256.032952 C512.032738,396.997376 398.072879,511.437496 257.10963,512.032738 C116.146368,512.623356 1.22783818,399.14594 0.0419874847,258.18649 C-1.14385328,117.227048 111.849238,1.83229103 252.802516,0.0535419572 C393.755796,-1.72520846 509.624876,110.78144 511.996503,251.72592" fill="#DDDDDD"></path>
            <path d="M254.519109,79.0095631 C189.943494,79.8263728 138.17782,132.763967 138.721034,197.429184 C139.068229,234.118696 156.519794,268.537389 185.895579,290.468756 C130.528899,317.492524 95.5694889,373.941346 96.0040042,435.616329 C96.128106,442.943235 96.7540668,450.252983 97.8774774,457.494085 C101.979044,460.791554 106.181099,463.961697 110.477663,467 C108.098557,456.673292 106.822539,446.122583 106.671119,435.525731 C106.238942,375.667992 141.49689,321.319953 196.289073,297.384963 C214.500392,308.227479 235.304747,313.927692 256.491887,313.880011 C277.352503,313.748925 297.800706,308.04878 315.728174,297.367291 C369.267915,320.76239 404.269191,373.269228 405.310813,431.75385 L405.332879,434.268438 C405.295111,445.170634 404.066776,456.036 401.66978,466.670768 C405.9168,463.81831 410.077533,460.839099 414.146383,457.737142 C415.338174,449.970343 415.957718,442.126271 416,434.268438 L415.977935,431.572666 C414.963247,371.347101 380.300404,316.780441 326.256275,290.331762 C326.158546,290.398199 326.060715,290.464488 325.962786,290.530629 C355.687157,268.408095 373.230011,233.526732 373.282968,196.441467 L373.267523,194.463837 C372.180086,129.804944 319.095279,78.1927356 254.519109,79.0095631 Z M255.156274,89.0086865 C313.79517,88.2656107 361.998316,135.289993 362.984571,194.200141 L363,196.000538 C363,254.918824 315.591115,302.750938 256.948268,303 C198.304819,303.246877 150.496628,255.816441 150.003847,196.89963 C149.510579,137.983326 196.517476,89.7522139 255.156274,89.0086865 Z" id="person" fill="#FFFFFF"></path>
        </g>
    </g>
</svg>