<?xml version="1.0" encoding="utf-8"?>
<!-- Generator: Adobe Illustrator 22.1.0, SVG Export Plug-In . SVG Version: 6.00 Build 0)  -->
<svg version="1.1" id="Layer_1" xmlns="http://www.w3.org/2000/svg" xmlns:xlink="http://www.w3.org/1999/xlink" x="0px" y="0px"
	 viewBox="0 0 512 88" style="enable-background:new 0 0 512 88;" xml:space="preserve">
<style type="text/css">
	.st0{fill:#FFFFFF;}
</style>
<g>
	<g>
		<g>
			<path class="st0" d="M275,33.1v-9.4h3.6V33c0,2.7,1.3,4.1,3.6,4.1c2.2,0,3.6-1.3,3.6-4v-9.5h3.6v9.3c0,5-2.8,7.5-7.2,7.5
				C277.7,40.4,275,37.9,275,33.1z"/>
			<path class="st0" d="M295.4,23.6h3.4l7.7,10.2V23.6h3.6v16.5H307l-8-10.5v10.5h-3.6V23.6z"/>
			<path class="st0" d="M316.6,23.6h3.6v16.5h-3.6V23.6z"/>
			<path class="st0" d="M325.3,23.6h4l4.3,11.6l4.3-11.6h3.9l-6.7,16.6H332L325.3,23.6z"/>
			<path class="st0" d="M346.7,23.6h12.5v3.2h-8.9v3.4h7.8v3.2h-7.8v3.5h9v3.2h-12.6V23.6z"/>
			<path class="st0" d="M364.9,23.6h7.6c2.1,0,3.7,0.6,4.8,1.7c0.9,0.9,1.4,2.2,1.4,3.8v0c0,2.7-1.4,4.3-3.5,5.1l4,5.9H375l-3.5-5.3
				h-2.9v5.3h-3.6V23.6z M372.2,31.6c1.8,0,2.8-0.9,2.8-2.3v0c0-1.6-1.1-2.4-2.9-2.4h-3.6v4.7H372.2z"/>
			<path class="st0" d="M383.2,37.7l2.1-2.6c1.5,1.2,3,2,4.9,2c1.5,0,2.4-0.6,2.4-1.6v0c0-0.9-0.6-1.4-3.3-2.1
				c-3.3-0.9-5.5-1.8-5.5-5.1v0c0-3,2.4-5,5.8-5c2.4,0,4.5,0.8,6.1,2.1l-1.9,2.7c-1.5-1-2.9-1.6-4.3-1.6c-1.4,0-2.1,0.6-2.1,1.4v0
				c0,1.1,0.7,1.4,3.6,2.2c3.4,0.9,5.2,2.1,5.2,5v0c0,3.3-2.5,5.1-6.1,5.1C387.7,40.4,385.2,39.5,383.2,37.7z"/>
			<path class="st0" d="M402,23.6h3.6v16.5H402V23.6z"/>
			<path class="st0" d="M416,27h-5v-3.4h13.7V27h-5v13.2H416V27z"/>
			<path class="st0" d="M434.4,33.6l-6.4-10h4.2l3.9,6.6l4-6.6h4.1l-6.4,9.9v6.6h-3.6V33.6z"/>
			<path class="st0" d="M450.7,31.9L450.7,31.9c0-4.7,3.7-8.6,8.8-8.6c5.1,0,8.8,3.8,8.8,8.5v0c0,4.7-3.7,8.5-8.8,8.5
				C454.3,40.4,450.7,36.6,450.7,31.9z M464.4,31.9L464.4,31.9c0-2.9-2.1-5.2-5-5.2c-2.9,0-5,2.3-5,5.1v0c0,2.8,2.1,5.2,5,5.2
				C462.4,37.1,464.4,34.8,464.4,31.9z"/>
			<path class="st0" d="M473.7,23.6h12.6v3.3h-8.9v3.5h7.9v3.3h-7.9v6.4h-3.6V23.6z"/>
		</g>
		<g>
			<path class="st0" d="M275.1,57.1L275.1,57.1c0-4.9,3.7-8.9,8.9-8.9c3.2,0,5.2,1.1,6.8,2.6l-2.4,2.8c-1.3-1.2-2.7-1.9-4.4-1.9
				c-2.9,0-5,2.4-5,5.3v0c0,2.9,2,5.4,5,5.4c2,0,3.2-0.8,4.5-2l2.4,2.4c-1.8,1.9-3.7,3.1-7,3.1C278.8,65.9,275.1,62,275.1,57.1z"/>
			<path class="st0" d="M295.3,57.1L295.3,57.1c0-4.9,3.8-8.9,9.1-8.9c5.3,0,9.1,3.9,9.1,8.8v0c0,4.9-3.8,8.9-9.1,8.9
				C299.1,65.9,295.3,62,295.3,57.1z M309.6,57.1L309.6,57.1c0-3-2.2-5.4-5.2-5.4c-3,0-5.1,2.4-5.1,5.3v0c0,2.9,2.2,5.4,5.2,5.4
				C307.5,62.4,309.6,60,309.6,57.1z"/>
			<path class="st0" d="M319,48.5h3.5l8,10.6V48.5h3.7v17.1H331l-8.3-10.9v10.9H319V48.5z"/>
			<path class="st0" d="M340.9,48.5h3.5l8,10.6V48.5h3.7v17.1h-3.2l-8.3-10.9v10.9h-3.7V48.5z"/>
			<path class="st0" d="M362.7,48.5h12.9v3.4h-9.2v3.5h8.1v3.4h-8.1v3.6h9.3v3.4h-13.1V48.5z"/>
			<path class="st0" d="M380.9,57.1L380.9,57.1c0-4.9,3.7-8.9,8.9-8.9c3.2,0,5.2,1.1,6.8,2.6l-2.4,2.8c-1.3-1.2-2.7-1.9-4.4-1.9
				c-2.9,0-5,2.4-5,5.3v0c0,2.9,2,5.4,5,5.4c2,0,3.2-0.8,4.5-2l2.4,2.4c-1.8,1.9-3.7,3.1-7,3.1C384.6,65.9,380.9,62,380.9,57.1z"/>
			<path class="st0" d="M406.1,51.9h-5.2v-3.5h14.2v3.5h-5.2v13.7h-3.8V51.9z"/>
			<path class="st0" d="M420.7,48.5h3.8v17.1h-3.8V48.5z"/>
			<path class="st0" d="M430.5,57.1L430.5,57.1c0-4.9,3.7-8.9,8.9-8.9c3.2,0,5.2,1.1,6.8,2.6l-2.4,2.8c-1.3-1.2-2.7-1.9-4.4-1.9
				c-2.9,0-5,2.4-5,5.3v0c0,2.9,2,5.4,5,5.4c2,0,3.2-0.8,4.5-2l2.4,2.4c-1.8,1.9-3.7,3.1-7,3.1C434.2,65.9,430.5,62,430.5,57.1z"/>
			<path class="st0" d="M451.6,58.3v-9.8h3.8v9.7c0,2.8,1.4,4.2,3.7,4.2c2.3,0,3.7-1.4,3.7-4.1v-9.8h3.8v9.7c0,5.2-2.9,7.7-7.5,7.7
				C454.4,65.9,451.6,63.3,451.6,58.3z"/>
			<path class="st0" d="M476.9,51.9h-5.2v-3.5h14.2v3.5h-5.2v13.7h-3.8V51.9z"/>
		</g>
	</g>
	<rect x="256.5" y="23.3" class="st0" width="2.9" height="42.6"/>
	<g>
		<g>
			<path class="st0" d="M53.7,57.6c-2.9,0.9-5.9,1.9-9.5,1.9c-3.6,0-6.6-1.1-9.5-1.9V23.3h-9.5v39c5.2,3.1,11.8,4.9,19,4.9
				c7.2,0,13.9-1.8,19.1-4.9v-39h-9.5V57.6z"/>
			<path class="st0" d="M98.3,31.7V38h9.5V27c-5.2-3.1-11.8-4.8-19-4.8c-7.2,0-13.8,1.8-19,4.8v35.5c5.2,3,11.8,4.8,19,4.8
				c7.2,0,13.9-1.8,19-4.8V49.5h-9.5v8.1c-2.8,0.9-5.9,1.3-9.5,1.3c-3.6,0-6.6-0.5-9.5-1.3V31.7c2.8-0.9,5.8-1.4,9.5-1.4
				C92.4,30.4,95.5,30.9,98.3,31.7z"/>
			<path class="st0" d="M114.6,26.9v35.5c5.2,3,11.8,4.8,19.1,4.8c7.2,0,13.9-1.8,19-4.8V26.9c-5.2-3-11.8-4.8-19-4.8
				C126.5,22.1,119.8,23.9,114.6,26.9z M143.2,57.6c-2.9,0.9-5.9,1.3-9.5,1.3c-3.6,0-6.6-0.5-9.5-1.3V31.7c2.9-0.9,5.9-1.4,9.5-1.4
				c3.6,0,6.6,0.5,9.5,1.4V57.6z"/>
			<polygon class="st0" points="188.2,53.5 188,53.5 169.1,23.3 158.9,23.3 158.9,65.9 167.5,65.9 167.5,35.7 167.8,35.7 
				186.7,65.9 196.9,65.9 196.9,23.3 188.2,23.3 			"/>
			<polygon class="st0" points="232.3,53.5 232.1,53.5 213.2,23.3 203,23.3 203,65.9 211.6,65.9 211.6,35.7 211.9,35.7 230.8,65.9 
				241,65.9 241,23.3 232.3,23.3 			"/>
		</g>
	</g>
</g>
</svg>
