<svg width="1024" height="320" viewBox="0 0 1024 320" fill="none" xmlns="http://www.w3.org/2000/svg">
<path d="M163.84 229.882H131.642V165.718L132.701 122.729H132.277L97.7483 229.882H68.3036L33.7749 122.729H33.3512L34.4104 165.718V229.882H2V90.1176H53.899L75.9296 161.271L83.7674 190.918H84.191L92.2407 161.482L114.059 90.1176H163.84V229.882Z" fill="white"/>
<path d="M257.503 88C271.625 88 283.77 90.8941 293.938 96.6824C304.248 102.329 312.156 110.588 317.664 121.459C323.171 132.188 325.925 145.035 325.925 160C325.925 174.965 323.171 187.882 317.664 198.753C312.156 209.482 304.248 217.741 293.938 223.529C283.77 229.176 271.625 232 257.503 232C243.381 232 231.165 229.176 220.856 223.529C210.547 217.741 202.639 209.482 197.131 198.753C191.623 187.882 188.869 174.965 188.869 160C188.869 145.035 191.623 132.188 197.131 121.459C202.639 110.588 210.547 102.329 220.856 96.6824C231.165 90.8941 243.381 88 257.503 88ZM257.503 116.588C247.335 116.588 239.568 120.259 234.202 127.6C228.835 134.941 226.152 145.741 226.152 160C226.152 174.259 228.835 185.059 234.202 192.4C239.568 199.741 247.335 203.412 257.503 203.412C267.671 203.412 275.368 199.741 280.593 192.4C285.959 185.059 288.643 174.259 288.643 160C288.643 145.741 285.959 134.941 280.593 127.6C275.368 120.259 267.671 116.588 257.503 116.588Z" fill="white"/>
<path d="M410.299 90.1176C432.188 90.1176 448.923 96.1882 460.503 108.329C472.225 120.329 478.085 137.553 478.085 160C478.085 182.447 472.225 199.741 460.503 211.882C448.923 223.882 432.188 229.882 410.299 229.882H350.986V90.1176H410.299ZM406.698 202.353C418.419 202.353 427.034 198.824 432.541 191.765C438.049 184.706 440.803 174.118 440.803 160C440.803 145.882 438.049 135.294 432.541 128.235C427.034 121.176 418.419 117.647 406.698 117.647H387.421V202.353H406.698Z" fill="white"/>
<path d="M616.788 194.941C613.257 206.659 606.69 215.765 597.087 222.259C587.484 228.753 575.622 232 561.499 232C549.213 232 538.339 229.106 528.877 223.318C519.557 217.388 512.284 208.988 507.058 198.118C501.975 187.247 499.433 174.541 499.433 160C499.433 145.459 501.975 132.753 507.058 121.882C512.284 111.012 519.557 102.682 528.877 96.8941C538.198 90.9647 549.072 88 561.499 88C590.732 88 608.809 100.282 615.729 124.847L612.551 126.329C609.021 114.471 603.019 105.647 594.545 99.8588C586.213 93.9294 575.198 90.9647 561.499 90.9647C549.778 90.9647 539.469 93.7882 530.572 99.4353C521.816 105.082 514.967 113.129 510.024 123.576C505.223 133.882 502.822 146.024 502.822 160C502.822 173.976 505.223 186.188 510.024 196.635C514.967 206.941 521.887 214.918 530.784 220.565C539.681 226.212 549.919 229.035 561.499 229.035C574.774 229.035 585.931 226 594.969 219.929C604.148 213.718 610.362 204.965 613.61 193.671L616.788 194.941Z" fill="white"/>
<path d="M700.761 88C713.754 88 725.051 90.9647 734.654 96.8941C744.258 102.682 751.601 111.012 756.685 121.882C761.91 132.612 764.523 145.318 764.523 160C764.523 174.682 761.91 187.459 756.685 198.329C751.601 209.059 744.258 217.388 734.654 223.318C725.051 229.106 713.754 232 700.761 232C687.769 232 676.471 229.106 666.868 223.318C657.265 217.388 649.851 209.059 644.626 198.329C639.542 187.459 637 174.682 637 160C637 145.318 639.542 132.612 644.626 121.882C649.851 111.012 657.265 102.682 666.868 96.8941C676.471 90.9647 687.769 88 700.761 88ZM700.761 90.9647C688.475 90.9647 677.742 93.7882 668.563 99.4353C659.524 105.082 652.534 113.129 647.591 123.576C642.79 133.882 640.389 146.024 640.389 160C640.389 173.976 642.79 186.188 647.591 196.635C652.534 206.941 659.524 214.918 668.563 220.565C677.742 226.212 688.475 229.035 700.761 229.035C713.048 229.035 723.71 226.212 732.748 220.565C741.927 214.918 748.918 206.941 753.719 196.635C758.662 186.188 761.134 173.976 761.134 160C761.134 146.024 758.662 133.882 753.719 123.576C748.918 113.129 741.927 105.082 732.748 99.4353C723.71 93.7882 713.048 90.9647 700.761 90.9647Z" fill="white"/>
<path d="M894.56 229.882L852.193 166.141C851.346 166.282 849.934 166.353 847.957 166.353H800.718V229.882H797.329V90.1176H847.957C861.655 90.1176 872.459 93.5059 880.367 100.282C888.276 107.059 892.23 116.376 892.23 128.235C892.23 138.824 889.052 147.435 882.697 154.071C876.342 160.565 867.516 164.518 856.218 165.929L898.373 229.882H894.56ZM847.957 163.388C860.808 163.388 870.835 160.282 878.037 154.071C885.239 147.859 888.84 139.247 888.84 128.235C888.84 117.224 885.239 108.612 878.037 102.4C870.835 96.1882 860.808 93.0824 847.957 93.0824H800.718V163.388H847.957Z" fill="white"/>
<path d="M1023 226.918V229.882H926.828V90.1176H1019.4V93.0824H930.217V157.035H1001.82V160H930.217V226.918H1023Z" fill="white"/>
</svg>
