<?xml version="1.0" encoding="UTF-8"?>
<svg width="462px" height="46px" viewBox="0 0 462 46" version="1.1" xmlns="http://www.w3.org/2000/svg" xmlns:xlink="http://www.w3.org/1999/xlink">
    <!-- Generator: Sketch 57.1 (83088) - https://sketch.com -->
    <title>logo-light</title>
    <desc>Created with Sketch.</desc>
    <g id="Page-1" stroke="none" stroke-width="1" fill="none" fill-rule="evenodd">
        <g id="logo-light" fill="#FFFFFF" fill-rule="nonzero">
            <g id="Group" transform="translate(250.000000, 1.000000)">
                <g>
                    <path d="M0,10.1 L0,0.7 L3.6,0.7 L3.6,10 C3.6,12.7 4.9,14.1 7.2,14.1 C9.4,14.1 10.8,12.8 10.8,10.1 L10.8,0.6 L14.4,0.6 L14.4,9.9 C14.4,14.9 11.6,17.4 7.2,17.4 C2.7,17.4 0,14.9 0,10.1 Z" id="Path"></path>
                    <polygon id="Path" points="20.4 0.6 23.8 0.6 31.5 10.8 31.5 0.6 35.1 0.6 35.1 17.1 32 17.1 24 6.6 24 17.1 20.4 17.1"></polygon>
                    <polygon id="Path" points="41.6 0.6 45.2 0.6 45.2 17.1 41.6 17.1"></polygon>
                    <polygon id="Path" points="50.3 0.6 54.3 0.6 58.6 12.2 62.9 0.6 66.8 0.6 60.1 17.2 57 17.2"></polygon>
                    <polygon id="Path" points="71.7 0.6 84.2 0.6 84.2 3.8 75.3 3.8 75.3 7.2 83.1 7.2 83.1 10.4 75.3 10.4 75.3 13.9 84.3 13.9 84.3 17.1 71.7 17.1"></polygon>
                    <path d="M89.9,0.6 L97.5,0.6 C99.6,0.6 101.2,1.2 102.3,2.3 C103.2,3.2 103.7,4.5 103.7,6.1 L103.7,6.1 C103.7,8.8 102.3,10.4 100.2,11.2 L104.2,17.1 L100,17.1 L96.5,11.8 L93.6,11.8 L93.6,17.1 L90,17.1 L90,0.6 L89.9,0.6 Z M97.2,8.6 C99,8.6 100,7.7 100,6.3 L100,6.3 C100,4.7 98.9,3.9 97.1,3.9 L93.5,3.9 L93.5,8.6 L97.2,8.6 Z" id="Shape"></path>
                    <path d="M108.2,14.7 L110.3,12.1 C111.8,13.3 113.3,14.1 115.2,14.1 C116.7,14.1 117.6,13.5 117.6,12.5 L117.6,12.5 C117.6,11.6 117,11.1 114.3,10.4 C111,9.5 108.8,8.6 108.8,5.3 L108.8,5.3 C108.8,2.3 111.2,0.3 114.6,0.3 C117,0.3 119.1,1.1 120.7,2.4 L118.8,5.1 C117.3,4.1 115.9,3.5 114.5,3.5 C113.1,3.5 112.4,4.1 112.4,4.9 L112.4,4.9 C112.4,6 113.1,6.3 116,7.1 C119.4,8 121.2,9.2 121.2,12.1 L121.2,12.1 C121.2,15.4 118.7,17.2 115.1,17.2 C112.7,17.4 110.2,16.5 108.2,14.7 Z" id="Path"></path>
                    <polygon id="Path" points="127 0.6 130.6 0.6 130.6 17.1 127 17.1"></polygon>
                    <polygon id="Path" points="141 4 136 4 136 0.6 149.7 0.6 149.7 4 144.7 4 144.7 17.2 141 17.2"></polygon>
                    <polygon id="Path" points="159.4 10.6 153 0.6 157.2 0.6 161.1 7.2 165.1 0.6 169.2 0.6 162.8 10.5 162.8 17.1 159.2 17.1 159.2 10.6"></polygon>
                    <path d="M175.7,8.9 L175.7,8.9 C175.7,4.2 179.4,0.3 184.5,0.3 C189.6,0.3 193.3,4.1 193.3,8.8 L193.3,8.8 C193.3,13.5 189.6,17.3 184.5,17.3 C179.3,17.4 175.7,13.6 175.7,8.9 Z M189.4,8.9 L189.4,8.9 C189.4,6 187.3,3.7 184.4,3.7 C181.5,3.7 179.4,6 179.4,8.8 L179.4,8.8 C179.4,11.6 181.5,14 184.4,14 C187.4,14.1 189.4,11.8 189.4,8.9 Z" id="Shape"></path>
                    <polygon id="Path" points="198.7 0.6 211.3 0.6 211.3 3.9 202.4 3.9 202.4 7.4 210.3 7.4 210.3 10.7 202.4 10.7 202.4 17.1 198.8 17.1 198.8 0.6"></polygon>
                </g>
                <g transform="translate(0.000000, 25.000000)">
                    <path d="M0.1,9.1 L0.1,9.1 C0.1,4.2 3.8,0.2 9,0.2 C12.2,0.2 14.2,1.3 15.8,2.8 L13.4,5.6 C12.1,4.4 10.7,3.7 9,3.7 C6.1,3.7 4,6.1 4,9 L4,9 C4,11.9 6,14.4 9,14.4 C11,14.4 12.2,13.6 13.5,12.4 L15.9,14.8 C14.1,16.7 12.2,17.9 8.9,17.9 C3.8,17.9 0.1,14 0.1,9.1 Z" id="Path"></path>
                    <path d="M20.3,9.1 L20.3,9.1 C20.3,4.2 24.1,0.2 29.4,0.2 C34.7,0.2 38.5,4.1 38.5,9 L38.5,9 C38.5,13.9 34.7,17.9 29.4,17.9 C24.1,17.9 20.3,14 20.3,9.1 Z M34.6,9.1 L34.6,9.1 C34.6,6.1 32.4,3.7 29.4,3.7 C26.4,3.7 24.3,6.1 24.3,9 L24.3,9 C24.3,11.9 26.5,14.4 29.5,14.4 C32.5,14.4 34.6,12 34.6,9.1 Z" id="Shape"></path>
                    <polygon id="Path" points="44 0.5 47.5 0.5 55.5 11.1 55.5 0.5 59.2 0.5 59.2 17.6 56 17.6 47.7 6.7 47.7 17.6 44 17.6"></polygon>
                    <polygon id="Path" points="65.9 0.5 69.4 0.5 77.4 11.1 77.4 0.5 81.1 0.5 81.1 17.6 77.9 17.6 69.6 6.7 69.6 17.6 65.9 17.6"></polygon>
                    <polygon id="Path" points="87.7 0.5 100.6 0.5 100.6 3.9 91.4 3.9 91.4 7.4 99.5 7.4 99.5 10.8 91.4 10.8 91.4 14.4 100.7 14.4 100.7 17.8 87.6 17.8 87.6 0.5"></polygon>
                    <path d="M105.9,9.1 L105.9,9.1 C105.9,4.2 109.6,0.2 114.8,0.2 C118,0.2 120,1.3 121.6,2.8 L119.2,5.6 C117.9,4.4 116.5,3.7 114.8,3.7 C111.9,3.7 109.8,6.1 109.8,9 L109.8,9 C109.8,11.9 111.8,14.4 114.8,14.4 C116.8,14.4 118,13.6 119.3,12.4 L121.7,14.8 C119.9,16.7 118,17.9 114.7,17.9 C109.6,17.9 105.9,14 105.9,9.1 Z" id="Path"></path>
                    <polygon id="Path" points="131.1 3.9 125.9 3.9 125.9 0.4 140.1 0.4 140.1 3.9 134.9 3.9 134.9 17.6 131.1 17.6"></polygon>
                    <polygon id="Path" points="145.7 0.5 149.5 0.5 149.5 17.6 145.7 17.6"></polygon>
                    <path d="M155.5,9.1 L155.5,9.1 C155.5,4.2 159.2,0.2 164.4,0.2 C167.6,0.2 169.6,1.3 171.2,2.8 L168.8,5.6 C167.5,4.4 166.1,3.7 164.4,3.7 C161.5,3.7 159.4,6.1 159.4,9 L159.4,9 C159.4,11.9 161.4,14.4 164.4,14.4 C166.4,14.4 167.6,13.6 168.9,12.4 L171.3,14.8 C169.5,16.7 167.6,17.9 164.3,17.9 C159.2,17.9 155.5,14 155.5,9.1 Z" id="Path"></path>
                    <path d="M176.6,10.3 L176.6,0.5 L180.4,0.5 L180.4,10.2 C180.4,13 181.8,14.4 184.1,14.4 C186.4,14.4 187.8,13 187.8,10.3 L187.8,0.5 L191.6,0.5 L191.6,10.2 C191.6,15.4 188.7,17.9 184.1,17.9 C179.4,17.9 176.6,15.3 176.6,10.3 Z" id="Path"></path>
                    <polygon id="Path" points="201.9 3.9 196.7 3.9 196.7 0.4 210.9 0.4 210.9 3.9 205.7 3.9 205.7 17.6 201.9 17.6"></polygon>
                </g>
            </g>
            <rect id="Rectangle" x="231.5" y="1.3" width="2.9" height="42.6"></rect>
            <g id="Group">
                <path d="M28.7,35.6 C25.8,36.5 22.8,37.5 19.2,37.5 C15.6,37.5 12.6,36.4 9.7,35.6 L9.7,1.3 L0.2,1.3 L0.2,40.3 C5.4,43.4 12,45.2 19.2,45.2 C26.4,45.2 33.1,43.4 38.3,40.3 L38.3,1.3 L28.8,1.3 L28.8,35.6 L28.7,35.6 Z" id="Path"></path>
                <path d="M73.3,9.7 L73.3,16 L82.8,16 L82.8,5 C77.6,1.9 71,0.2 63.8,0.2 C56.6,0.2 50,2 44.8,5 L44.8,40.5 C50,43.5 56.6,45.3 63.8,45.3 C71,45.3 77.7,43.5 82.8,40.5 L82.8,27.5 L73.3,27.5 L73.3,35.6 C70.5,36.5 67.4,36.9 63.8,36.9 C60.2,36.9 57.2,36.4 54.3,35.6 L54.3,9.7 C57.1,8.8 60.1,8.3 63.8,8.3 C67.4,8.4 70.5,8.9 73.3,9.7 Z" id="Path"></path>
                <path d="M89.6,4.9 L89.6,40.4 C94.8,43.4 101.4,45.2 108.7,45.2 C115.9,45.2 122.6,43.4 127.7,40.4 L127.7,4.9 C122.5,1.9 115.9,0.1 108.7,0.1 C101.5,0.1 94.8,1.9 89.6,4.9 Z M118.2,35.6 C115.3,36.5 112.3,36.9 108.7,36.9 C105.1,36.9 102.1,36.4 99.2,35.6 L99.2,9.7 C102.1,8.8 105.1,8.3 108.7,8.3 C112.3,8.3 115.3,8.8 118.2,9.7 L118.2,35.6 Z" id="Shape"></path>
                <polygon id="Path" points="163.2 31.5 163 31.5 144.1 1.3 133.9 1.3 133.9 43.9 142.5 43.9 142.5 13.7 142.8 13.7 161.7 43.9 171.9 43.9 171.9 1.3 163.2 1.3"></polygon>
                <polygon id="Path" points="207.3 31.5 207.1 31.5 188.2 1.3 178 1.3 178 43.9 186.6 43.9 186.6 13.7 186.9 13.7 205.8 43.9 216 43.9 216 1.3 207.3 1.3"></polygon>
            </g>
        </g>
    </g>
</svg>