<svg width="1024" height="320" viewBox="0 0 1024 320" fill="none" xmlns="http://www.w3.org/2000/svg">
<rect width="1024" height="320" fill="url(#paint0_linear)"/>
<path d="M197.8 181C197.8 196.6 193.4 208.667 184.6 217.2C175.933 225.733 163.733 230 148 230C132.267 230 120 225.733 111.2 217.2C102.533 208.667 98.2 196.6 98.2 181V96H101.4V181C101.4 195.667 105.467 207.067 113.6 215.2C121.867 223.2 133.333 227.2 148 227.2C162.667 227.2 174.067 223.2 182.2 215.2C190.467 207.067 194.6 195.667 194.6 181V96H197.8V181ZM334.938 228H330.538L243.938 107L238.738 99.2L238.938 110.6V228H235.738V96H240.138L326.738 217L331.938 224.8L331.738 213.4V96H334.938V228ZM476.805 195C473.471 206.067 467.271 214.667 458.205 220.8C449.138 226.933 437.938 230 424.605 230C413.005 230 402.738 227.267 393.805 221.8C385.005 216.2 378.138 208.267 373.205 198C368.405 187.733 366.005 175.733 366.005 162C366.005 148.267 368.405 136.267 373.205 126C378.138 115.733 385.005 107.867 393.805 102.4C402.605 96.8 412.871 94 424.605 94C452.205 94 469.271 105.6 475.805 128.8L472.805 130.2C469.471 119 463.805 110.667 455.805 105.2C447.938 99.6 437.538 96.8 424.605 96.8C413.538 96.8 403.805 99.4667 395.405 104.8C387.138 110.133 380.671 117.733 376.005 127.6C371.471 137.333 369.205 148.8 369.205 162C369.205 175.2 371.471 186.733 376.005 196.6C380.671 206.333 387.205 213.867 395.605 219.2C404.005 224.533 413.671 227.2 424.605 227.2C437.138 227.2 447.671 224.333 456.205 218.6C464.871 212.733 470.738 204.467 473.805 193.8L476.805 195ZM596.288 228L556.288 167.8C555.488 167.933 554.154 168 552.288 168H507.688V228H504.488V96H552.288C565.221 96 575.421 99.2 582.888 105.6C590.354 112 594.088 120.8 594.088 132C594.088 142 591.088 150.133 585.088 156.4C579.088 162.533 570.754 166.267 560.088 167.6L599.888 228H596.288ZM552.288 165.2C564.421 165.2 573.888 162.267 580.688 156.4C587.488 150.533 590.888 142.4 590.888 132C590.888 121.6 587.488 113.467 580.688 107.6C573.888 101.733 564.421 98.8 552.288 98.8H507.688V165.2H552.288ZM698.953 181.2H632.153L612.753 228H609.353L663.753 96H667.353L721.753 228H718.353L698.953 181.2ZM697.753 178.4L668.953 108.8L665.553 99.6L662.153 108.6L633.353 178.4H697.753ZM747.141 98.8V159.2H814.741V162H747.141V228H743.941V96H831.141V98.8H747.141ZM941.483 98.8H890.883V228H887.683V98.8H837.083V96H941.483V98.8Z" fill="white"/>
<defs>
<linearGradient id="paint0_linear" x1="-512" y1="160" x2="-329.794" y2="743.06" gradientUnits="userSpaceOnUse">
<stop stop-color="#89369C"/>
<stop offset="1" stop-color="#541785"/>
</linearGradient>
</defs>
</svg>
